<svg width="309" height="147" viewBox="0 0 309 147" fill="none" xmlns="http://www.w3.org/2000/svg">
<path d="M164 12H148V94H164V12Z" fill="white"/>
<path d="M248 12V17.556C248 24.1061 242.608 29.4194 235.955 29.4194H218.752L201.066 29.4223L173 29.4194V12H248ZM201.066 29.4223H218.752V94H201.066V29.4223Z" fill="white"/>
<path d="M141 11L137.184 16.1786L110.191 52.8106L109.374 53.9186L109.342 53.9624L109.31 54.0032V54.009C108.899 54.563 108.678 55.2337 108.678 55.9189V89.7546C108.678 91.545 107.216 93 105.409 93H94.4473C92.6409 93 91.1781 91.5479 91.1781 89.7546V55.9481C91.1781 55.257 90.9578 54.5864 90.5466 54.0324L90.529 54.009V54.0032L90.4938 53.9624L90.4614 53.9186L89.6449 52.8077L62.6514 16.1815L62.6367 16.164C61.0565 14.0208 62.5986 11.0029 65.2744 11.0029H78.8504C79.8902 11.0029 80.8713 11.4957 81.4852 12.3296L81.491 12.3355L97.2818 33.7554C98.5888 35.5254 101.25 35.5254 102.557 33.7554L118.345 12.3355C118.885 11.6036 120.078 11.0029 120.994 11.0029H141V11Z" fill="#8A2432"/>
<path d="M109 7C109 10.8652 105.641 14 101.5 14C97.3587 14 94 10.8652 94 7C94 3.13479 97.3587 0 101.5 0C105.641 0 109 3.13479 109 7Z" fill="#8A2432"/>
<path d="M269.995 84.5882C270.262 96.3189 259.894 105.292 248.682 106.264C238.218 107.172 87.3696 107.606 78.3222 105.345C73.5169 104.144 69.7706 101.584 66.6463 97.7842L44.9755 55.1278L30.8588 81.5813C30.272 75.0597 26.8044 68.635 22.1517 64.1247C20.6585 62.6771 16.789 61.024 17.009 59.0683L44.9755 4L85.8412 84.5882H269.995Z" fill="#8A2432"/>
<path d="M250.287 34.2418C249.193 32.8519 246.753 37.8866 246.51 38.3704C228.376 74.3635 285.633 75.6625 301.433 93.4054L304.394 100C320.593 65.9656 290.601 62.6228 268.045 51.8704C260.453 48.252 249.504 44.4108 250.29 34.2418" fill="#8A2432"/>
<mask id="mask0_191_30541" style="mask-type:luminance" maskUnits="userSpaceOnUse" x="16" y="5" width="255" height="104">
<path d="M16.7145 60.1271C16.4941 62.0848 20.3742 63.7427 21.8674 65.1889C26.5265 69.7039 30.0039 76.1355 30.5918 82.6641L44.7366 56.1823L66.4506 98.8842C69.5812 102.688 73.3349 105.251 78.1498 106.453C87.2152 108.72 238.364 108.282 248.849 107.373C260.08 106.4 270.472 97.4174 270.204 85.6742H85.6837L44.7366 4.99997L16.7145 60.1271Z" fill="white"/>
</mask>
<g mask="url(#mask0_191_30541)">
<path d="M74.4225 -14.8123C73.9757 -15.2415 75.8981 -16.5319 76.2038 -16.7024C80.8923 -19.3303 86.2568 -18.2927 86.7771 -12.3226C87.4532 -4.57703 83.1968 -0.441177 75.5983 -0.408842L75.8922 3.11266C76.5007 3.20084 77.2238 2.47479 77.7617 2.58649C80.1045 3.08327 76.1039 4.5971 75.9393 5.07035C75.7276 9.97048 73.9433 18.9594 68.0262 19.7825C63.1349 20.4615 62.1413 16.549 63.9256 12.7454C66.0567 8.19797 73.2496 5.93456 71.1126 0.102625C70.6423 -1.17605 69.634 -1.47 69.1314 -2.60758L71.9239 -4.43006C79.2991 1.31957 83.141 -4.3213 82.3562 -12.0169C81.7918 -17.549 78.2761 -16.3144 74.4254 -14.8123M71.483 7.22794C71.1773 6.90459 69.8134 8.42431 69.5694 8.6918C67.8028 10.6289 65.7716 13.8771 67.4118 16.4373C68.6405 18.3568 69.5371 15.6496 70.0221 14.4326C70.9833 12.0105 71.142 9.77059 71.483 7.22794Z" fill="white"/>
<path d="M17.3995 70.1095C17.8022 69.7156 17.9521 70.1388 17.9933 70.5533C18.1726 72.367 16.694 74.016 17.8581 75.962C19.8687 79.3218 30.3627 76.2324 30.8976 72.8843C31.4797 69.2452 30.1304 68.0312 27.7201 65.7884L29.1486 62.602C31.3121 64.3157 34.0135 64.7361 36.4209 63.1252C38.3522 61.8319 40.3422 56.6848 43.12 54.5419C47.7938 50.9411 51.9061 54.1245 50.3276 59.6919C49.5399 62.4697 45.1512 65.2828 42.5762 66.341C41.5592 66.7584 38.1141 67.5227 37.6732 67.9019C37.3322 68.1958 36.9265 70.1124 36.7913 70.6944C35.1775 70.5004 35.7066 69.2041 35.9095 68.0518L32.3821 68.6397C34.5044 76.7174 27.87 83.5694 19.804 81.3618C14.3777 79.8744 15.6035 74.113 17.3966 70.1095M39.1458 62.7607C41.2946 62.5667 43.4786 61.6349 45.3217 60.5649C46.3652 59.9594 50.0307 57.9076 47.1618 57.2463C43.5433 56.4114 40.4892 59.7654 39.1429 62.7607" fill="white"/>
<path d="M235.797 -4.818C235.877 -4.22717 235.853 -4.33299 235.433 -4.15662C234.054 -3.58048 232.449 -3.7833 231.115 -2.59575C228.281 -0.0736738 232.908 5.24973 235.071 6.92818C239.522 10.3791 243.17 6.93994 244.069 2.27498L247.126 2.0163C248.181 2.89227 247.073 4.28264 247.385 5.46726C247.758 6.89585 249.869 9.09459 251.359 9.45026C254.619 10.2292 258.214 9.75597 261.353 11.5079C264.892 13.4832 265.607 17.4515 261.638 19.3945C256.265 22.0254 249.842 16.2934 246.665 12.3662L243.443 12.5191C243.17 11.064 244.783 11.3668 245.492 10.6114L243.731 7.81884C240.342 9.75303 237.296 11.5491 233.284 10.1822C229.43 8.87118 225.439 3.42431 226.532 -0.714483C227.293 -3.59812 233.116 -5.38238 235.797 -4.818ZM251.673 11.0493C251.424 11.2727 253.208 13.1893 253.458 13.4568C254.325 14.3827 259.125 18.2423 260.174 17.4927C260.892 12.9042 255.31 11.3786 251.673 11.0493Z" fill="white"/>
<path d="M127.095 15.3968C127.345 15.5555 128.724 15.5761 129.265 15.726C131.563 16.3639 129.162 17.3633 127.627 16.9253L128.509 20.4497C134.038 18.6831 139.241 19.5179 141.993 25.0383C143.994 29.0595 143.842 35.1001 138.356 35.7262C136.575 35.9291 133.227 35.9643 132.037 34.5534C134.55 34.2977 138.139 35.4147 138.85 32.0783C139.423 29.4005 136.622 22.2075 133.809 21.4668C130.499 20.5938 128.089 22.8454 126.537 25.4527L123.215 24.7091C122.66 24.3798 123.906 22.8895 124.032 22.2899C125.499 15.3056 115.343 15.3056 112.213 10.7289C110.646 8.439 110.575 5.53773 113.397 4.31196C118.409 2.13674 122.78 6.93986 125.032 10.8435C125.479 11.6166 126.887 15.2557 127.098 15.3909M115.581 6.04626C114.026 10.3732 118.339 13.6096 122.045 14.5649C122.474 14.221 117.539 5.64943 115.581 6.04626Z" fill="white"/>
<path d="M-2.59501 21.6286C-3.58562 22.8897 -5.6462 22.6251 -6.99248 23.5481C-10.4875 25.9408 -5.54331 31.6611 -3.324 33.3719C1.04701 36.7405 4.85364 33.3395 5.67376 28.7186L9.16293 28.6775C9.12765 30.5764 8.52212 31.1114 9.50978 32.8868C12.3699 38.0251 18.825 35.115 23.3695 38.1309C27.1261 40.6236 26.7322 44.733 22.3877 46.1586C17.4993 47.7636 11.0266 42.6841 8.51625 38.7335L5.05059 38.9628C4.85071 37.6988 6.15877 37.3519 7.10529 37.1961L5.33866 34.2625C3.00765 35.4912 0.620783 37.1138 -2.15409 37.1373C-6.9043 37.1814 -11.4958 32.537 -11.969 27.9132C-12.4893 22.8397 -6.66032 21.2729 -2.59501 21.6286ZM13.2811 37.493C13.1518 38.0456 13.5957 38.1897 13.8661 38.5218C14.7303 39.5742 20.7239 45.0299 21.8027 43.9569C22.4876 39.1215 17.0025 37.9516 13.2811 37.493Z" fill="white"/>
<path d="M292.53 62.7636C293.511 61.9758 295.739 66.0852 295.992 66.7936C298.317 73.3516 293.009 76.2353 287.127 75.6532C281.683 75.1153 279.017 70.7649 278.399 65.7207L274.893 65.9941C276.642 72.0671 273.596 66.5467 272.926 66.341C271.774 65.9912 269.128 66.3968 267.694 66.2822C263.723 65.9618 258.208 63.9747 257.388 59.5419C256.43 54.3596 261.662 53.9069 265.281 55.7647C269.305 57.8312 272.13 63.6807 277.45 61.0587C278.511 60.5355 278.837 59.3332 279.74 58.6542L281.939 61.4291C280.592 64.0834 279.387 65.706 280.801 68.7513C282.377 72.1435 289.99 71.7819 292.735 70.1652C296.242 68.1017 293.52 65.415 292.527 62.7607M260.283 59.3185C260.119 59.4978 260.034 59.7418 259.969 59.9711C260.198 61.5525 268.658 62.5284 270.187 62.1698C270.965 61.4761 265.739 58.566 264.975 58.422C263.69 58.178 261.215 58.2985 260.286 59.3185" fill="white"/>
<path d="M104.405 93.9104C106.484 94.5953 108.682 97.9464 109.035 100.001C109.99 105.542 103.767 107.785 99.2465 107.435C94.4346 107.062 91.4686 103.061 90.575 98.6166L87.0653 99.6395C87.4592 100.039 87.8971 100.539 87.9354 101.124C88.1 103.628 85.7719 99.9952 85.1605 99.9041C84.6784 99.8306 83.0881 100.357 82.221 100.386C77.9088 100.536 71.0715 100.565 69.1873 95.7594C67.2149 90.7211 71.4948 88.8222 75.8805 90.2449C79.5049 91.4207 82.4473 95.4801 86.3274 95.0862C88.8701 94.8276 89.7461 93.5606 91.0218 91.5794L93.4822 93.8311C93.4616 95.3273 92.4004 96.2326 92.3299 97.8758C92.2593 99.5131 93.0912 101.856 94.5933 102.688C97.1653 104.113 104.676 102.952 106.298 100.363C108.024 97.6113 103.744 94.61 104.402 93.9134M82.0593 95.9652C79.746 93.9369 76.1627 92.1761 73.1321 93.6547C69.1021 95.6212 74.0022 96.4061 76.0392 96.5531C78.0734 96.7 80.0928 96.456 82.0593 95.9652Z" fill="white"/>
<path d="M225.609 38.4718C227.211 36.8639 233.696 36.9521 236.197 36.567C237.973 36.2936 239.613 35.6852 241.383 35.4353L240.354 39.5447C234.137 41.326 224.084 48.6101 228.59 56.0088C231.835 61.3381 241.562 58.7543 246.444 57.3845C247.264 57.1552 250.995 55.6296 251.377 56C251.418 56.3262 251.386 56.582 251.23 56.8789C250.692 57.9047 245.28 61.7055 244.025 62.311C227.47 70.3094 219.116 52.7254 230.8 41.6024C229.26 41.958 227.429 41.7846 226.018 42.5489C225.157 43.0162 224.845 44.1127 223.746 43.9481C223.875 42.2843 224.401 39.6799 225.606 38.4659" fill="white"/>
<path d="M78.5378 116.239C80.3749 114.904 81.8682 112.758 81.4743 110.363C82.459 109.349 84.308 113.843 84.3932 114.652C84.7342 117.879 79.3255 122.091 77.3649 124.619C77.0327 125.046 75.075 128.535 74.7194 128.285L72.7646 124.613C75.7894 119.587 78.3349 110.078 72.9557 105.801C65.9509 100.233 59.2106 110.936 56.0713 115.968C55.5539 116.797 54.675 119.096 54.1518 119.569C53.8284 119.863 53.658 119.778 53.2553 119.766C53.2406 114.452 54.5222 108.849 58.0995 104.775C67.3442 94.2456 79.5783 104.881 78.5348 116.239" fill="white"/>
<path d="M147.316 82.7433C147.066 81.1266 147.222 79.0631 146.393 77.6433C145.993 76.9584 145.059 76.6703 145.261 75.6915C146.849 75.9031 149.291 76.3911 150.45 77.5522C152.375 79.4805 151.755 85.4741 152.022 88.1725C152.169 89.6452 152.766 91.2002 152.895 92.5906C152.945 93.1197 153.154 93.6811 152.475 93.6018C151.858 93.5283 149.288 92.8052 148.933 92.4377C148.477 91.9674 147.481 88.39 146.978 87.3407C144.615 82.4111 139.438 77.4522 133.592 79.7509C127.38 82.1907 129.688 92.8904 130.876 97.8552C131.266 99.4837 132.213 100.998 132.028 102.723C131.39 103.378 128.994 99.907 128.556 99.2897C116.498 82.2671 133.274 68.5044 147.313 82.7433" fill="white"/>
<path d="M174.071 118.002C174.465 117.62 179.497 120.201 180.464 120.572C185.226 122.394 193.031 125.225 196.858 120.357C202.023 113.787 192.816 104.986 186.761 102.967L186.42 98.6077C186.587 98.4225 189.351 99.8305 189.877 99.9951C192.384 100.786 199.991 101.629 201.417 103.152C202.707 104.534 203.022 107.376 202.878 109.181C201.711 109.005 201.197 107.564 200.15 107.062C199.718 106.853 196.635 106.077 196.414 106.247C200.906 111.418 202.22 121.13 196.417 125.786C190.914 130.201 182.945 127.203 178.183 123.144C177.575 122.626 173.407 118.643 174.074 117.999" fill="white"/>
<path d="M107.93 56.1499L108.662 55.709C110.834 59.8743 112.339 64.695 115.284 68.484C122.483 77.7434 130.99 71.3647 130.264 61.1471C130.114 59.0395 128.112 54.2598 128.212 53.2222C128.274 52.5932 130.384 49.636 131.131 50.1387C131.496 54.1099 138.415 59.8684 138.524 63.1959C138.583 65.0242 137.131 68.0607 135.267 68.6339C135.628 66.1706 134.585 63.6633 132.624 62.17C133.033 73.1019 119.826 82.3437 111.757 72.0055C110.049 69.8186 107.93 64.7685 107.93 62.023V56.147V56.1499Z" fill="white"/>
<path d="M97.6415 23.9772C99.6463 22.434 100.728 20.2882 101.025 17.8043C102.824 18.9213 103.929 21.9254 103.382 23.986C102.853 25.9731 97.5974 30.7292 96.0454 32.8104C95.6721 33.3101 94.4463 36.1584 93.8261 35.7263C93.5615 34.5182 91.9771 33.3395 92.0594 32.0784C92.1035 31.3935 93.7408 28.4599 94.12 27.3606C95.6515 22.8867 96.2188 16.5168 92.0301 13.2775C87.0947 9.46203 81.8536 14.0947 78.8788 18.0012C77.1504 20.2705 74.74 25.5263 73.2379 27.0548C72.9587 27.34 72.8529 27.6104 72.362 27.4987C71.9622 18.8625 77.5178 6.33441 87.953 8.23919C92.1829 9.01228 97.6386 15.488 97.6386 19.712V23.9713L97.6415 23.9772Z" fill="white"/>
<path d="M66.4859 40.4295C68.3583 39.7446 69.9721 39.336 71.3213 37.7693C71.8416 37.1667 71.4595 36.3319 72.6529 36.6082C74.5577 44.5536 67.6029 44.5242 62.3706 46.7524C61.6357 47.0669 58.0025 49.3126 57.6645 48.9511C57.7997 47.79 57.1266 45.6295 57.7321 44.6124C57.8526 44.4096 61.0008 42.446 61.621 41.8904C65.6952 38.2543 69.8898 30.5646 64.8692 26.026C59.1783 20.8761 48.2317 28.6334 43.1082 31.9021C42.5849 31.5229 42.6026 31.2965 42.7966 30.7175C43.0641 29.9062 46.7149 25.3206 47.5056 24.5504C57.8085 14.5385 72.1914 20.7291 68.6317 35.3824C68.1643 37.3078 67.3119 38.6835 66.483 40.4295" fill="white"/>
<path d="M154.441 -6.94621L153.192 -10.841C153.18 -11.2114 158.374 -10.1532 158.933 -10.112C163.689 -9.77105 168.947 -11.8963 170.893 -6.19958C171.023 -5.82039 171.714 -3.63634 170.982 -3.65104C169.2 -5.4647 166.796 -5.67635 164.368 -5.69986L167.298 -2.61047C171.866 3.17444 172.272 13.4274 164.362 16.4785C157.669 19.0565 149.391 15.4909 144.676 10.6055C144.991 10.1675 145.158 10.1498 145.673 10.1763C146.522 10.2233 148.303 10.9935 149.362 11.2022C154.553 12.2222 167.078 14.5914 168.16 6.75768C169.247 -1.13484 160.861 -5.31773 154.438 -6.94914" fill="white"/>
<path d="M231.973 89.7924C235.312 82.526 244.975 77.3231 251.533 84.2044C255.036 87.8817 256.286 92.8935 255.783 97.8701C255.718 98.5079 255.527 100.445 254.604 99.9395C251.918 95.2627 250.845 89.6777 246.385 86.118C239.619 80.7152 234.266 87.9405 233.184 94.3809C232.999 95.4891 233.364 96.4767 232.923 97.6467C232.802 97.9671 230.603 101.024 230.348 101.242C229.977 101.559 229.854 101.63 229.334 101.547L229.839 94.0899C229.771 93.4667 227.246 90.5449 226.385 91.1034C225.653 91.559 225.733 93.8195 225.809 94.6425C225.9 95.6243 227.279 98.5785 226.215 98.8901C224.598 98.6373 222.705 97.0441 222.396 95.3862C221.844 92.4291 226.321 87.7582 229.413 88.3932C230.5 88.6166 231.053 89.6483 231.976 89.7953" fill="white"/>
<path d="M46.7856 34.8473C47.7703 27.093 62.9792 32.1283 56.336 38.9597C55.8069 39.0772 55.7569 38.5452 55.6158 38.216C54.7516 36.2259 53.9021 32.7162 51.2213 32.8132C50.8979 34.2682 50.1866 35.8556 50.9391 37.3077C51.4829 38.3571 55.6364 41.6552 55.5982 42.634C55.5541 43.7569 50.4247 41.9403 49.9367 41.617C49.484 41.3171 48.5463 39.6504 47.8085 38.9685C43.5727 35.0619 35.4333 32.6897 33.0523 39.7739C31.2445 45.1502 33.3727 50.9381 34.7219 56.1733L34.2634 56.867C33.1758 57.1727 30.3274 53.3073 29.7277 52.3343C27.7583 49.1332 27.3115 45.4706 27.6819 41.7522C28.5843 32.6603 40.0806 31.5139 46.7826 34.8444" fill="white"/>
<path d="M30.9181 80.9796C31.797 80.083 35.7977 85.1831 36.6854 85.6416C38.1639 86.4029 39.7072 85.7739 41.1798 85.3624C42.0734 83.0314 35.0246 80.8297 35.0363 80.2447C35.9887 78.9131 38.3609 78.5016 39.8541 78.9367C43.6461 80.0448 44.575 90.2301 38.8518 89.7951C41.6825 96.2561 40.8565 106.7 32.6965 108.47C26.7558 109.76 21.3589 107.523 17.2348 103.323C16.3265 102.397 15.4946 101.094 17.5082 101.265C19.9479 101.471 23.8163 103.487 26.7352 103.816C35.6272 104.825 41.2945 100.515 36.653 91.5529C35.4214 89.1719 32.8817 87.6552 32.1468 86.3589C31.8999 85.9238 30.7241 81.1765 30.9181 80.9796Z" fill="white"/>
<path d="M148.28 38.4513C148.456 38.2749 152.539 36.4084 152.822 36.3672C153.348 36.2878 153.468 36.3437 153.786 36.764C152.29 40.459 147.769 42.5636 150.702 46.8994L151.023 47.1669C152.328 47.4843 153.839 43.3896 154.171 42.4314C154.432 41.6818 154.209 39.8593 155.555 40.5677C156.343 40.9851 157.057 43.5043 157.028 44.3861C156.919 47.9899 149.809 50.2445 147.301 47.937C146.525 47.2227 146.425 46.1528 145.699 45.4296C139.567 50.0593 128.436 49.6831 126.237 41.0763C124.717 35.1209 126.181 29.5505 130.461 25.1913L131.305 25.4323C131.175 29.9268 129.77 34.1744 130.64 38.7306C132.477 48.3809 140.673 47.9017 146.29 41.6054C147.054 40.75 147.854 38.8717 148.277 38.4484" fill="white"/>
<path d="M2.50797 67.3582C8.03714 72.6786 14.2865 66.347 16.3588 60.9912C16.6586 60.2123 16.6586 58.8748 16.9644 58.3633C17.1231 58.0988 20.7857 55.1181 21.0679 55.1123L21.7645 55.5532C20.9238 59.3863 18.0667 62.4404 21.5059 65.8561H22.3965C23.9368 65.0418 23.6223 59.9418 23.5694 58.3545C24.8892 58.1458 26.7881 60.3945 27.035 61.5027C28.0256 65.9619 19.4071 71.0501 16.6616 66.0001C11.1883 72.4876 0.388594 75.2801 -4.11764 66.1971C-6.42513 61.5497 -6.59268 57.3727 -4.73199 52.5431C-4.26755 51.335 -3.41216 49.9035 -2.78605 51.9376C-1.18403 57.1317 -2.05412 62.9695 2.5109 67.3582" fill="white"/>
<path d="M138.503 116.239C138.971 115.727 140.523 118.117 140.778 118.302C142.301 119.416 144.132 118.817 145.537 117.835C147.11 116.739 153.042 108.726 153.944 106.847C155.144 104.349 154.853 103.828 151.899 104.216C149.929 104.475 146.269 106.862 145.144 106.824C144.47 106.8 142.269 105.621 141.895 105.057C140.746 103.311 141.801 97.8612 142.222 95.7183C142.38 94.9012 143.806 88.9046 144.232 88.9164C144.7 89.7571 145.981 91.0622 146.278 91.8617C146.754 93.1463 145.099 97.1411 144.697 98.7784C144.344 100.216 143.933 101.659 143.8 103.141L144.391 103.479C148.947 99.8895 158.915 101.35 157.231 108.664C156.475 111.95 150.358 120.29 147.228 121.586C143.095 123.297 139.465 120.081 138.5 116.239" fill="white"/>
<path d="M93.8202 71.5763C90.8924 70.2006 88.7907 69.551 87.0006 72.8403C85.8189 75.0126 84.0023 83.5165 83.8347 86.1238C83.7877 86.8499 83.6172 88.9751 84.8047 88.8634C87.5796 87.717 89.5491 85.1156 91.4686 82.8845C95.528 82.0056 96.6773 83.6312 97.8561 87.0851C98.3499 88.5283 100.531 97.8818 99.9931 98.6078L96.2305 96.0564C96.2834 94.6337 95.2223 85.6212 94.2611 85.389C92.9853 86.3325 92.1358 87.7847 90.8601 88.74C89.8048 89.5307 88.5497 90.2303 87.2122 90.3832C78.188 91.412 79.5872 83.1138 81.0275 77.1496C82.1445 72.5228 83.6907 67.4199 89.5432 68.3635C90.3045 68.4869 94.6432 70.6915 93.8231 71.5763" fill="white"/>
<path d="M197.69 -6.47581C200.668 -9.3859 205.856 -7.0784 207.708 -3.91846C208.645 -2.31938 208.763 -0.396951 209.783 1.05222C210.4 0.311465 211.062 -0.426344 211.644 -1.19649C212.628 -2.49868 215.236 -7.53403 215.938 -8.06901C216.397 -8.41881 220.265 -9.11253 220.512 -8.93028C218.854 -6.40526 213.134 2.87175 210.356 3.39204C205.75 4.25331 205.982 0.749448 204.78 -2.1724C204.283 -3.38053 202.74 -7.27241 201.094 -5.57045C200.274 -4.72094 198.528 3.72127 198.263 5.40854C197.555 9.95004 197.508 14.1711 203.463 13.1041L203.29 14.0124C199.627 15.4116 194.459 14.518 193.78 10C193.236 6.37562 195.003 -3.85379 197.69 -6.47581Z" fill="white"/>
<path d="M271.662 13.686C274.205 14.5296 275.613 17.3015 275.481 19.8648C282.77 19.8912 280.569 27.9483 275.19 29.2652V25.7437L277.244 25.4439C277.509 22.6749 272.738 24.7678 272.544 24.565C273.396 20.2704 270.345 15.9964 265.783 17.5132C265.804 16.7489 265.657 14.2327 266.142 13.7594C266.512 13.3979 269.184 13.1422 270.178 12.3573C271.171 11.5725 272.515 9.16796 272.347 7.86283C271.936 4.63528 264.358 -2.69286 261.368 0.90801C260.242 2.26311 260.427 4.20317 259.316 5.46421C258.481 2.83337 260.474 -2.14023 262.929 -3.40715C267.635 -5.84105 274.067 0.211356 274.566 4.76168C274.957 8.33315 273.279 10.7465 271.662 13.686Z" fill="white"/>
<path d="M185.826 70.1095C184.062 74.3718 182.837 77.4641 188.695 78.2607C191.176 78.5958 196.655 78.3577 197.796 75.7651C199.263 72.4288 198.104 70.9943 196.411 68.2018L198.178 65.4122C199.477 65.5063 199.598 67.2494 200.803 67.6286C202.017 68.0108 204.865 67.8902 205.965 67.173C206.567 66.7821 208.349 64.2335 208.751 64.5275C208.866 66.1265 211.223 68.9279 212.287 67.029C210.635 64.9831 212.123 64.4628 213.31 62.7697C216.741 67.5257 212.964 74.6893 207.146 70.0978C205.644 72.3965 202.74 72.8521 200.233 72.1672C199.874 75.965 198.619 79.9186 194.95 81.7293C190.568 83.8899 181.973 83.0962 182.287 76.7146C182.384 74.7187 183.739 70.8415 185.826 70.1125" fill="white"/>
<path d="M215.812 73.0461C217.769 73.4458 219.239 74.3835 221.317 73.7016C223.737 72.9079 224.648 70.9443 225.065 68.6398L228.011 70.1036C227.922 72.8991 228.381 77.0026 231.673 77.9021C234.272 78.6105 241.347 74.9802 242.132 72.4758C243.296 68.7662 239.792 68.5957 238.581 66.8849C237.758 65.7238 240.095 66.6791 240.403 66.8261C247.799 70.3564 246.756 77.5788 239.478 80.4007C234.01 82.52 230.101 79.9392 226.791 75.7122C224.571 77.3348 222.373 78.2872 219.615 77.2936C217.014 83.9016 210.935 79.8157 210.521 74.3747L211.126 74.0455C211.708 74.4453 213.519 74.7069 213.713 75.2918C213.945 75.9973 213.325 77.3465 214.48 77.4553C216.085 76.3383 215.859 74.7921 215.812 73.0519" fill="white"/>
<path d="M155.255 63.3457C153.474 61.6467 150.784 60.5238 149.823 58.0576C147.865 53.0516 153.033 51.0293 157.093 52.8488C160.702 54.4685 164.741 63.0106 164.941 66.7673C165.026 68.3899 163.465 72.1789 161.455 71.8467C160.67 70.0213 160.773 65.7208 158.362 65.3916C154.515 64.8684 146.922 68.528 143.597 70.6356L140.287 69.1982C140.026 68.8161 142.313 66.0589 142.504 66.0118C142.801 65.9413 143.45 66.4939 143.962 66.5674C146.719 66.9672 152.21 63.6573 155.261 63.3428M154.091 54.5331C151.954 58.7689 156.293 61.6438 159.374 63.6426C159.744 63.1458 158.086 59.3833 157.725 58.6837C157.413 58.087 154.838 53.957 154.091 54.5331Z" fill="white"/>
<path d="M3.86024 20.732C3.8573 18.0189 6.13834 16.1611 8.5546 15.4322C7.95789 13.2334 6.89968 11.2698 6.92613 8.89474C7.01432 0.39375 21.1268 -5.45583 22.6083 4.80886C22.7964 6.10223 22.9669 8.48322 22.2379 9.57671L21.1768 5.06165C19.0045 0.587753 9.75979 6.81652 9.00729 9.57082C8.47524 11.5138 9.62752 14.1476 11.2384 15.2911C11.838 15.7173 14.0044 16.4169 14.1367 16.8196L13.8633 20.1589C11.2972 19.5739 9.9538 19.1653 7.71391 20.9143C5.94434 22.2929 6.02371 23.9919 5.63276 26.0349C3.91022 25.397 2.95782 24.2389 0.932518 25.1589C0.447503 26.5258 2.63154 26.4699 2.71679 26.7962L2.39933 30.1472C-2.95935 27.9602 -3.70011 19.6121 3.86024 20.732Z" fill="white"/>
<path d="M123.212 -3.3513C123.635 -1.89332 123.012 -0.796882 123.347 0.778682C124.367 5.5965 130.925 2.7158 133.597 1.00208C138.621 -2.21666 136.534 -6.69938 132.18 -9.21264L132.924 -12.4549C134.003 -12.5137 134.623 -11.6612 135.708 -11.5642C139.059 -11.2673 141.281 -14.0951 141.737 -17.161C143.545 -16.6789 144.179 -14.7624 146.437 -15.6942C146.81 -16.87 145.194 -17.0434 144.997 -17.6519L145.555 -20.6854C150.687 -18.2956 149.92 -9.23321 142.915 -11.8729C142.489 -9.23321 139.967 -7.23142 137.322 -7.16969C138.327 -3.43066 138.962 0.223111 136.434 3.54473C133.979 6.76935 127.804 9.13563 124.241 6.64001C121.798 4.92923 121.184 -1.15551 123.209 -3.3513" fill="white"/>
<path d="M261.371 96.2591C261.865 96.847 259.634 101.145 262.761 102.655C265.724 104.084 274.34 101.056 274.587 97.2527C274.778 94.3014 273.035 92.523 270.76 91.0562L271.662 87.4436C273.902 88.7311 274.258 89.2867 276.856 88.3813C279.505 87.4583 279.943 85.8504 280.772 83.3313C281.618 83.7428 282.194 84.9715 283.103 85.2566C283.743 85.4565 285.96 85.6241 285.334 84.4982L283.799 83.1931L284.887 80.1008C289.434 83.2607 288.649 91.7941 281.792 88.9457C280.478 91.7206 278.599 93.1227 275.475 93.3255C277.288 99.3573 275.536 104.616 269.384 106.774C262.391 109.222 258.82 105.263 260.028 98.3021C260.151 97.5936 260.404 96.2003 261.365 96.2621" fill="white"/>
<path d="M84.7019 0.467105C85.0781 2.53062 87.0476 3.48889 88.8848 4.07679C95.1899 6.08446 88.6996 -0.68811 88.5996 -2.66638C88.5291 -4.09203 92.0329 -6.07913 93.2822 -6.37896C97.7738 -7.46069 106.645 -1.8639 107.941 2.65997C109.743 8.94459 102.356 12.7424 97.0536 12.5161C96.9037 11.6842 97.2505 12.034 97.6973 11.8547C100.846 10.6054 104.664 10.2027 104.079 5.63767C103.656 2.33662 97.1183 -3.70108 93.8584 -4.07146C93.4468 -4.11849 93.0529 -3.92448 92.6414 -3.93624C93.4704 -1.17312 97.7708 3.10089 93.9201 5.42014C91.4362 6.91634 83.5261 6.75467 81.6066 4.30314C79.5901 1.73109 82.8441 1.19316 84.7019 0.467105Z" fill="white"/>
<path d="M200.717 30.0472C203.351 27.5105 201.505 23.5627 199.692 21.2317L201.402 18.5333C201.655 18.3481 203.125 20.0236 203.754 20.3058C205.241 20.9701 207.79 20.8378 209.124 19.8707C209.477 19.615 211.426 16.7431 211.688 16.9224C212.405 18.6773 213.319 20.2823 215.512 19.859C215.818 18.9683 214.395 18.3069 214.433 17.6602C214.448 17.431 216.264 14.8442 216.685 15.1617C219.271 20.053 216.585 27.0049 210.662 22.5104C209.195 25.1324 206.526 25.297 203.786 25.1824C203.372 29.6769 202.108 34.1155 197.355 35.647C191.881 37.4077 185.071 35.9732 186.191 28.895C186.34 27.9455 187.931 23.742 188.912 23.6891C189.465 23.6597 189.168 24.2241 189.109 24.4593C188.648 26.3876 186.967 27.872 188.404 30.0649C190.129 32.6986 198.677 32.0108 200.717 30.0443" fill="white"/>
<path d="M27.2409 126.23C32.3468 125.322 28.2227 115.959 25.7271 113.931C23.7018 112.285 20.4889 113.082 18.8545 114.907C18.1197 115.73 17.8933 116.812 16.9145 117.347L13.5723 116.53C14.8186 114.466 15.1449 113.42 14.122 111.136C12.9256 108.467 11.4588 108.825 9.16306 107.567C10.0332 106.136 11.2031 105.204 10.4947 103.302C9.90087 102.37 8.85442 104.128 8.85148 104.775L5.63568 103.896C6.63217 100.918 12.4494 99.1956 14.2925 102.15C15.1567 103.537 14.6452 105.048 14.5717 106.553C17.3084 107.314 18.7605 109.372 19.1661 112.115C24.1486 110.854 29.034 110.765 32.0352 115.557C35.1952 120.604 35.0717 127.035 27.8376 127.418C26.3796 127.494 23.8311 127.65 22.9728 126.23C24.272 126.071 26.0063 126.448 27.235 126.23" fill="white"/>
<path d="M30.9182 11.0463C31.4002 11.4814 33.6695 7.80701 34.1369 7.36315C38.9988 2.74522 44.2958 7.14269 41.7149 12.8806C39.913 16.8871 30.2862 21.5432 26.1297 20.6761C25.3214 20.5085 21.7999 18.6625 22.6553 17.6484C23.6488 16.4697 28.6371 17.0135 29.1427 14.4208C29.6454 11.8488 26.7206 4.74407 25.4831 2.22787C25.1627 1.5753 24.0104 0.137895 23.9104 -0.335363C23.784 -0.935018 25.3949 -3.9333 25.7711 -3.93036L28.5225 -1.44355C26.8029 1.13438 28.9311 4.08268 29.8188 6.71352C30.2862 8.10096 30.6565 9.60891 30.9182 11.0522M39.7072 9.90286C36.659 8.73001 34.5396 10.5113 32.6877 12.6777C32.4202 12.9923 30.6801 15.2321 30.9182 15.4585C33.0258 15.0411 35.2422 14.074 37.0676 12.9394C37.7819 12.4926 40.4509 11.0022 39.7102 9.90286" fill="white"/>
<path d="M248.514 66.0736C249.457 65.177 251.518 66.247 252.42 66.8731C252.262 68.8632 252.2 69.7627 252.917 71.6527C253.214 72.4317 254.772 75.3976 255.818 74.0396C257.15 72.3112 256.327 66.8908 259.422 66.8967C263.393 66.9055 265.492 68.8543 267.009 72.2583C269.957 78.878 270.51 89.2485 260.378 87.9963C258.679 87.7876 254.501 85.9328 253.578 84.5071C253.323 84.1132 253.32 83.7634 253.872 83.9192C255.683 84.4307 257.071 86.1033 259.51 86.1562C265.533 86.2855 264.834 76.5352 263.711 72.6198C263.532 71.9937 262.476 68.7515 261.383 69.5216C260.281 72.952 260.325 78.4459 255.042 76.5852C253.285 75.965 249.584 72.2289 248.725 70.5593C248.111 69.3629 247.394 67.1377 248.517 66.0736" fill="white"/>
<path d="M240.195 121.224C237.455 120.942 236.018 116.959 232.932 118.223C230.73 119.125 225.324 128.714 224.854 131.448L221.097 132.106L221.127 128.314L223.578 127.385L229.328 118.296C224.042 120.292 215.203 115.386 221.841 110.369C225.791 107.382 231.456 110.01 235.183 112.297C238.605 114.396 241.497 116.718 240.195 121.224ZM232.858 116.233C230.665 113.837 227.082 112.564 223.931 111.894L223.205 112.606C224.431 116.871 229.337 116.503 232.858 116.233Z" fill="white"/>
<path d="M62.0767 69.5217C63.3172 69.4893 62.8586 70.9973 63.0879 71.888C64.7487 78.3754 67.8822 78.6752 73.1645 75.1684C75.5925 73.5576 79.1581 70.2066 79.1228 67.1701C76.4273 67.3582 73.6818 70.3594 71.0392 68.6398C68.3232 66.8703 69.2961 60.5474 70.2926 57.8989C71.8476 53.7631 75.469 53.4985 75.6219 58.4574C72.994 59.4804 70.954 62.2376 71.1862 65.1125C73.6436 65.7356 76.7183 62.4228 78.9229 63.1107C79.8783 63.4075 81.395 66.8761 81.4803 67.905C81.8977 72.8698 75.181 81.0885 70.1603 81.5677C64.1697 82.1379 61.5564 74.41 62.0767 69.5217Z" fill="white"/>
<path d="M190.238 7.81297C194.53 -3.75097 183.83 -3.74215 176.62 0.814054C170.661 4.58248 177.484 3.4008 179.777 3.72414C186.911 4.72945 179.618 16.8901 175.65 17.2046C172.948 17.4192 173.639 14.8795 173.901 13.0805C174.197 12.6484 175.726 12.8542 176.431 12.669C177.737 12.328 180.902 9.77948 180.553 8.29504C180.288 7.16334 173.812 8.55371 172.678 7.1457C172.155 6.49607 172.172 2.23676 172.44 1.33434C173.116 -0.940822 178.307 -4.3859 180.473 -5.32654C188.954 -9.00383 194.356 -4.30359 192.149 4.57954C192.078 4.86761 190.917 8.57429 190.238 7.80709" fill="white"/>
<path d="M179.356 79.2159C178.116 79.2423 178.574 77.7403 178.351 76.8437C177.969 75.3005 176.34 74.5157 174.833 74.5451C172.457 74.5892 160.185 79.6745 157.925 81.1501C156.558 82.0407 154.13 83.9543 156.575 85.0919C159.997 79.4364 162.895 83.2694 162.313 88.4723C161.664 94.2719 156.246 88.8104 154.812 86.2736C152.886 82.8697 152.772 80.2888 155.843 77.5992C158.601 75.1829 170.952 70.1035 174.477 70.4327C179.033 70.8589 180.094 75.4181 179.359 79.2188M160.547 85.3918C158.507 85.3036 158.01 87.3406 160.262 87.3083L160.547 85.3918Z" fill="white"/>
<path d="M66.7798 70.1065C66.2919 66.7202 65.9685 65.4268 62.2236 65.7061C59.922 65.8766 47.6379 70.8943 45.6302 72.3288C45.0864 72.7168 43.6784 74.116 43.5902 74.7274L44.5808 76.2706C45.4979 73.3635 49.381 71.829 50.1835 75.6739C50.4863 77.1172 50.7361 81.9615 48.6843 82.1613C44.5985 81.253 39.8159 74.5304 42.1263 70.5915C44.0723 67.2699 52.7791 63.8777 56.4887 62.6167C61.574 60.8912 67.1414 60.5473 67.6499 67.3169C67.7175 68.2047 68.0115 70.1624 66.7769 70.1036M48.5432 78.3283C48.8607 77.517 48.8431 76.8791 48.1112 76.2883C46.224 77.1819 46.4944 78.1842 48.5432 78.3283Z" fill="white"/>
<path d="M139.823 19.5679C139.285 19.4826 137.51 18.6214 137.048 18.2275C133.339 15.0646 136.837 7.66884 138.356 3.99742C140.955 -2.26662 144.2 -10.2503 152.295 -4.35954C155.267 -2.19607 158.695 2.23961 152.472 2.5365C147.486 2.77165 144.77 -0.526447 149.961 -3.06028C148.924 -5.82046 146.981 -3.3366 146.017 -1.85803C144.717 0.140815 139.92 11.4137 139.673 13.5419C139.435 15.5878 139.341 17.6807 141.566 18.4097C142.522 18.7213 144.103 18.398 144.082 19.5679C142.757 19.4238 141.09 19.7648 139.82 19.5679M150.255 0.314245C150.758 0.984447 151.813 0.984447 152.316 0.314245L151.287 -1.29071L150.258 0.314245H150.255Z" fill="white"/>
<path d="M260.492 52.1816C260.448 51.1557 261.759 50.8647 262.258 50.2797C263.143 49.245 263.023 47.7106 262.45 46.5525C261.394 44.4155 254.833 40.1473 252.529 38.8393C251.779 38.413 249.719 37.0991 249.004 37.6194L248.775 37.978C247.729 40.5971 251.394 44.5154 251.394 46.4555C251.394 47.1433 250.474 48.9746 249.904 49.3891C247.241 51.3233 237.873 48.7189 234.624 47.9252L237.996 45.4472L247.993 47.7753L248.314 47.1786C244.945 42.8076 245.624 33.945 252.676 34.8739C256.147 35.3325 265.257 41.6259 265.754 45.3032C266.215 48.7189 263.667 51.5555 260.492 52.1816Z" fill="white"/>
<path d="M103.521 28.9713C103.897 29.3534 101.91 31.4581 101.645 31.9431C97.7475 39.1213 107.574 40.1972 112.463 39.524C114.964 39.1801 117.624 37.3606 116.454 34.5563C111.348 36.8932 108.538 32.5751 112.057 28.2452C117.677 21.3286 119.532 32.5281 117.862 37.2812C113.8 48.8569 92.0595 44.5476 99.8698 32.2253C100.193 31.7168 102.944 28.3893 103.524 28.9742M112.657 30.8525C112.862 31.5404 114.829 32.0313 115.281 31.17C115.276 29.2358 112.198 29.3181 112.657 30.8525Z" fill="white"/>
<path d="M50.0276 88.9133C50.4479 88.4841 50.5596 88.9427 50.6126 89.3484C50.8683 91.3443 50.2657 92.7023 51.3768 94.76C54.1929 99.9746 63.7785 93.4166 65.2777 89.6188C65.7774 88.3548 65.7068 86.2413 64.2753 85.6828C63.7462 85.4771 63.6257 86.5941 63.2553 87.0085C62.2323 88.1549 60.5333 88.5988 59.0489 88.2608C55.5509 87.4642 55.5097 75.6151 62.0501 80.2683C68.4053 84.7922 69.2107 93.3725 62.8085 98.3138C54.2223 104.942 47.2527 98.3814 50.0276 88.9133ZM58.8902 83.0843L58.3346 84.3601L59.0312 85.042C59.4428 85.1243 61.0242 84.1602 61.1918 83.7633C61.4828 83.0667 59.2605 82.8462 58.8902 83.0814" fill="white"/>
<path d="M109.4 72.1612C108.838 72.6844 103.668 68.6985 101.043 72.1818C99.0231 74.8596 100.149 80.0743 101.413 82.9403C102.539 85.4918 104.496 88.1667 107.339 85.8268C105.243 84.6364 105.367 80.1301 107.847 79.5716C111.781 78.6868 118.709 82.3583 113.133 86.0297C107.548 89.707 99.5758 88.4548 96.7039 82.0614C92.8679 73.5222 97.8327 65.3827 107.307 70.2887C107.586 70.4328 109.937 71.6585 109.4 72.1582M109.714 81.2883C108.912 81.8497 110.137 85.5505 111.313 83.0255C111.904 81.7527 110.375 80.8268 109.714 81.2883Z" fill="white"/>
<path d="M178.768 115.357C178.313 115.818 178.251 115.313 178.192 114.913C178.016 113.725 178.239 112.035 177.16 111.239C175.4 109.939 170.658 110.877 168.621 111.53C165.514 112.523 157.331 116.703 155.532 119.316C154.7 120.524 157.281 121.133 157.551 122.024L157.604 125.639C153.777 124.125 152.436 118.008 155.247 114.91C158.698 111.103 169.027 105.63 174.171 105.974C179.045 106.3 180.17 111.447 178.765 115.36" fill="white"/>
<path d="M105.284 62.4697C102.621 61.9024 101.107 57.7724 101.16 55.2827C101.225 52.158 106.19 48.4925 108.659 46.8846C112.163 44.6035 121.157 39.8416 124.7 43.5012C126.246 45.0974 127.081 49.2009 125.867 51.1556C125.279 51.3585 125.317 50.6118 125.27 50.2767C125.07 48.8393 125.473 47.7723 123.806 47.0403C119.608 45.1973 111.384 49.8035 107.842 52.2344C106.998 52.8135 103.485 55.4149 103.15 56.0763C102.265 57.8253 104.958 58.0311 105.24 58.8394C105.39 59.2686 105.519 62.2346 105.287 62.4668" fill="white"/>
<path d="M97.0418 42.2108C96.2952 41.764 94.4874 41.7787 93.9642 41.3142C93.6291 41.0174 92.4033 38.0161 92.6473 37.7869C95.769 37.7722 99.4463 41.9462 99.3846 44.9533C99.2905 49.5507 90.2634 60.0505 86.0893 61.9377C82.1915 63.6984 78.9493 62.3668 77.5883 58.2751C77.4325 57.8047 76.8505 54.9799 77.6559 55.559C79.2491 58.8012 79.6019 59.6214 83.2351 58.2045C86.5508 56.9111 89.8371 53.5778 92.0476 50.8529C92.9295 49.7653 97.7561 43.1896 97.0418 42.2108Z" fill="white"/>
<path d="M209.93 78.919C205.724 79.3658 201.987 79.1042 203.481 84.6334C204.016 86.6175 207.052 90.5359 209.219 90.6711C210.915 90.7769 218.34 85.1478 219.93 83.775C220.724 83.0872 223.208 80.1683 223.754 79.9449C224.192 79.7626 227.532 80.4093 227.561 80.8326L226.082 84.2042C225.43 84.2395 224.839 83.8809 224.181 83.8867C221.976 83.9073 213.854 91.6734 209.871 92.8198C200.823 95.4272 194.157 81.3353 203.519 78.5339C205.318 77.996 208.431 77.5933 209.93 78.9161" fill="white"/>
<path d="M216.409 2.83042C217.299 2.84217 218.222 2.55117 218.872 1.91624C220.468 0.355373 223.24 -6.56124 224.915 -9.08626C227.564 -13.081 230.145 -14.974 235.145 -13.422C243.655 -10.7853 243.049 -1.96094 234.678 0.675776C234.281 0.802174 233.364 1.22251 233.152 0.614041C234.51 -0.209015 237.761 -1.92567 238.099 -3.56884C238.86 -7.29317 230.518 -12.1551 227.855 -9.67709C226.341 -8.26614 222.873 -1.3172 221.929 0.855081C221.453 1.95151 220.788 4.98506 220.236 5.62587C219.96 5.94627 217.091 6.931 216.829 6.89573C216.062 6.78991 216.691 5.52886 216.664 5.05267C216.623 4.36483 216.197 3.60056 216.409 2.82747" fill="white"/>
<path d="M241.973 109.184C242.388 108.67 242.493 109.234 242.552 109.628C242.811 111.368 242.646 113.399 243.778 114.872C246.282 118.123 253.787 113.052 254.269 109.851C254.569 107.85 245.997 96.7119 243.572 95.3744C243.443 95.1657 243.878 92.4467 244.025 91.9881C244.134 91.6501 243.813 91.4737 244.469 91.556C245.501 91.6854 246.723 92.9053 247.849 93.0405C247.782 93.5843 247.532 94.0752 247.532 94.6425C247.532 96.9412 254.334 104.337 255.739 107.329C257.638 111.38 257.012 114.749 253.578 117.697C246.262 123.981 240.115 117.177 241.979 109.184" fill="white"/>
<path d="M178.104 26.2465L179.251 24.0154L182.887 23.9772L181.54 27.7721C178.965 28.5275 176.411 29.3858 173.962 30.4823C172.543 31.1172 166.179 34.3418 165.603 35.3442C163.874 38.3601 168.883 47.1521 172.572 44.9592C174.045 44.0833 174.665 42.4019 175.588 41.2143C175.791 40.9527 176.079 40.3707 176.423 40.8733C174.662 49.4978 164.538 51.4996 162.031 42.0286C159.353 31.902 171.784 30.3029 178.101 26.2465" fill="white"/>
<path d="M266.659 34.2655L266.515 34.8504C264.137 34.9856 261.932 33.9245 259.663 33.4718C255.624 32.6693 248.317 32.2548 245.504 29.1155C244.986 28.5364 244.725 27.4547 244.416 27.1901C243.793 26.6522 242.264 26.3906 241.383 25.5087C237.879 21.999 240.959 18.6303 244.904 17.9307C246.386 17.6691 249.772 19.18 249.913 20.6027C250.083 22.3017 246.594 27.0226 248.864 28.9861C249.945 29.9209 254.466 30.1502 256.142 30.5264C259.804 31.3436 263.39 32.4077 266.662 34.2655M245.795 21.9226C244.825 21.8579 243.952 22.4987 243.487 23.307C243.255 24.1536 243.875 24.9296 244.478 25.4411L245.798 21.9196L245.795 21.9226Z" fill="white"/>
<path d="M163.78 84.2132C166.811 83.6135 169.956 84.0486 173.036 83.9133C177.296 83.7252 181.664 82.2878 185.629 84.8481C186.27 85.2596 186.729 86.0533 187.372 86.3384C188.68 86.9146 189.815 86.6617 191.261 87.7405C194.944 90.486 191.673 94.6866 188.384 95.7418C187.349 96.074 184.101 95.1892 183.619 94.2074C182.722 92.3732 185.873 85.3508 180.679 85.3654C177.225 85.3743 173.868 86.2326 170.1 85.9739C168.236 85.8446 165.129 85.5653 163.777 84.2161M187.293 88.0345L187.437 91.8529C189.501 90.7006 189.671 88.8517 187.293 88.0345Z" fill="white"/>
<path d="M258.602 116.703C261.582 114.152 265.527 109.402 269.79 109.202C270.442 109.172 270.971 109.502 271.5 109.472C272.212 109.434 273.282 108.54 274.231 108.376C279.566 107.456 280.733 110.965 278.864 115.357C277.917 117.579 275.398 117.953 273.179 117.956C272.647 116.151 269.778 111.727 267.738 111.912C266.556 112.021 261.732 116.912 260.339 117.994C258.011 119.804 254.91 122.138 251.97 122.406C253.734 120.022 256.391 118.599 258.608 116.703M272.844 110.657L274.66 113.097L275.486 113.59C275.724 111.23 275.375 110.325 272.844 110.654" fill="white"/>
<path d="M141.049 83.4282C142.51 84.8892 142.137 87.6199 141.696 89.4601C139.788 89.6247 134.25 90.8945 134.103 93.1903C134.021 94.4689 137.698 101.703 138.356 103.899C138.974 105.968 139.961 108.937 139.241 110.948C137.501 108.864 137.057 105.83 136.002 103.314C134.032 98.6107 131.046 94.9363 132.477 89.5012C133.071 87.2466 132.704 88.249 132.686 86.1208C132.674 84.6452 133.877 81.6881 135.482 81.3324C137.075 80.9796 139.938 82.3142 141.052 83.4282M138.209 86.5588C136.863 84.4835 134.503 85.2448 134.685 87.7375L138.209 86.5588Z" fill="white"/>
<path d="M181.126 62.7637C183.022 62.9195 184.886 64.2746 186.843 64.2394C189.292 64.1953 193.569 62.1964 194.648 59.8272C192.843 60.1682 190.832 60.5209 190.141 58.3075C188.933 54.4421 195.406 47.5754 196.914 52.7107C199.63 61.9789 186.105 76.5294 181.129 62.7637M192.631 56.0999C192.957 57.0876 195.523 57.4756 194.886 55.3298C194.359 53.5631 192.011 54.2216 192.631 56.0999Z" fill="white"/>
<path d="M214.93 110.948C215.744 108.082 216.752 106.101 215.903 103.07C215.388 101.233 213.728 98.0052 211.693 97.7289C213.745 102.805 208.725 103.255 205.379 100.657C199.883 96.3885 204.603 94.5337 209.457 95.1127C215.412 95.8212 225.212 104.137 218.134 109.601C217.24 110.292 216.091 111.051 214.927 110.948M209.048 97.432C208.348 97.4702 207.414 97.235 206.817 97.6995C204.883 99.2016 209.53 101.585 209.048 97.432Z" fill="white"/>
<path d="M18.6722 12.0311C20.5799 10.3674 24.0955 10.8465 26.1238 12.1663C26.8351 12.6308 27.7493 13.1246 26.5088 13.5361C25.2978 13.9359 24.1249 14.0153 22.8698 14.609C19.9391 15.9994 17.5934 19.8325 17.6904 23.0924L19.8245 21.558C26.3531 19.6679 24.6452 36.4083 18.7427 29.2359C15.3682 25.1383 14.4599 15.6996 18.6722 12.0282M19.4864 26.123C20.2301 27.7603 22.6552 27.8073 21.9703 25.7262C21.4323 24.0948 19.2042 25.053 19.4864 26.123Z" fill="white"/>
<path d="M231.097 26.6199C231.279 24.7503 232.599 23.1277 232.573 21.1994C232.54 18.8155 230.5 13.8566 227.861 13.401C228.995 15.1323 228.549 17.5545 226.25 17.8132C220.759 18.4304 214.345 9.81776 225.062 10.7584C230.209 11.2111 238.105 16.5433 236.541 22.5163C236.1 24.2007 232.934 26.7463 231.094 26.6199M225.215 13.1041C223.798 12.9513 222.114 13.0747 222.699 14.8825L224.627 15.3264L225.215 13.1041Z" fill="white"/>
<path d="M52.9642 16.9224C52.8172 16.0317 53.1905 16.455 53.6785 16.3316C56.4386 15.6261 59.5633 15.2851 58.7755 11.5549C58.3375 9.47667 54.6573 4.2826 52.2557 4.59124C49.816 4.90577 48.2551 10.0616 47.0881 10.6143C46.8206 10.7407 44.2016 11.0552 43.7107 11.064C43.3138 11.0699 43.1345 11.1052 43.2727 10.6231C43.8018 8.75944 47.8406 4.93516 49.5779 3.99453C62.7674 -3.14842 69.7751 18.7507 52.9671 16.9283" fill="white"/>
<path d="M207.287 50.4208C207.558 50.1681 212.44 52.8195 214.301 50.5267C215.703 48.7983 214.945 40.4442 212.593 39.6712C210.056 38.8393 206.746 42.4548 205.094 42.5048C204.495 42.5225 201.303 41.5348 201.84 40.7176C202.411 39.8475 206.717 38.3895 207.861 38.2132C215.13 37.0785 220.524 40.3649 219.633 48.2192C219.031 53.5455 213.028 54.0482 209.039 52.0493C208.798 51.9288 206.835 50.8471 207.287 50.4238" fill="white"/>
<path d="M79.1669 36.9461C82.9853 35.1736 90.9454 40.8321 89.8725 44.8386C89.3522 46.7904 83.4262 51.8552 81.5214 50.6647C81.0129 49.3449 80.1193 48.1044 80.3044 46.6082C81.6742 47.0873 87.4915 43.3601 87.3298 42.3842C87.0153 40.4823 81.1775 41.1378 79.7401 40.9908L79.1669 36.949V36.9461Z" fill="white"/>
<path d="M87.6385 20.732C86.0012 20.5321 82.1534 26.4552 82.659 27.1989C85.2693 28.1513 87.759 26.3464 90.1077 25.4881L92.3505 29.2624C89.0553 31.6287 80.2663 30.0854 79.4697 25.8114C79.1111 23.889 82.4709 17.6632 84.3375 17.2693C85.5603 17.0106 88.0824 20.1 87.6356 20.732" fill="white"/>
<path d="M166.052 21.1169C167.775 22.8248 166.972 29.7267 165.353 31.6374L161.134 30.1412C161.17 29.3857 161.852 29.1124 162.163 28.3834C162.607 27.3398 163.413 22.3398 162.619 21.7489C160.094 21.6549 158.51 24.756 156.813 26.2904C156.058 26.4404 153.307 24.6208 153.268 24.124C155.235 20.823 159.236 19.3856 162.966 19.9353C163.615 20.0323 165.638 20.7084 166.049 21.114" fill="white"/>
<path d="M44.7748 109.522C43.4226 111.974 49.722 114.169 49.9836 114.969C50.3745 116.148 49.0665 117.741 48.8284 118.878C44.2575 118.367 40.1245 108.19 44.522 105.898C45.9859 105.136 53.2082 104.061 53.7961 105.859C53.993 106.462 53.3757 109.951 52.7996 110.069C50.3628 108.652 47.4115 109.172 44.7719 109.519" fill="white"/>
<path d="M173.374 62.3639C174.003 61.7084 177.052 57.4873 176.09 56.917C175.203 56.867 174.286 56.8082 173.401 56.9582C172.152 57.1698 169.45 58.8718 168.68 58.619C168.139 58.4426 166.305 55.5119 167.143 54.8182C169.876 52.5636 178.924 54.3832 179.365 58.4984C179.65 61.141 176.831 66.1323 174.256 67.1229C173.492 66.5997 170.885 64.6831 171.555 63.6425C171.772 63.3045 172.972 62.7813 173.374 62.3639Z" fill="white"/>
<path d="M205.865 29.039C205.688 27.6545 207.502 26.9226 208.678 26.6845C210.641 26.2847 209.962 27.4105 210.453 28.5981C210.862 29.5887 213.287 33.9303 214.457 33.654C216.223 31.6757 215.718 28.7539 215.647 26.3258C216.317 25.7585 219.536 24.9002 219.883 25.929C220.409 30.1501 217.091 35.788 212.587 36.1908C210.239 36.4024 206.129 31.1231 205.865 29.039Z" fill="white"/>
<path d="M183.107 45.0622C182.455 45.7353 178.918 44.2038 178.795 43.4778C179.9 41.5436 181.029 38.657 181.111 36.4171C181.235 33.025 175.159 38.2425 174.765 39.5712L171.155 37.4577C171.54 35.4265 175.306 33.6511 177.184 33.4012C178.965 33.1631 182.346 33.5041 183.766 34.7063C185.65 36.3025 184.483 43.0016 183.11 45.0592" fill="white"/>
<path d="M178.483 19.127C182.214 13.7683 191.011 14.0182 194.933 19.1329C196.585 21.2875 196.426 24.1094 195.297 26.5345C195.194 26.7549 194.545 27.8573 194.201 27.2106C194.142 23.2334 191.438 19.5444 187.793 18.0423C184.527 16.696 184.224 18.4744 182.399 20.7114L178.483 19.124V19.127Z" fill="white"/>
<path d="M262.253 24.8619C269.26 23.207 275.912 31.3994 273.573 38.0808C273.052 39.5682 269.79 41.8286 268.285 41.911C266.918 41.9844 268.878 40.0973 269.072 39.7563C270.774 36.7404 270.915 34.0125 269.742 30.7438C268.496 27.2752 266.868 28.4422 263.761 28.6451L262.256 24.8619H262.253Z" fill="white"/>
<path d="M187.781 109.878C185.459 107.394 182.152 106.098 178.774 106.836C177.819 105.895 182.234 104.161 182.869 104.028C185.124 103.561 186.937 104.546 188.613 105.962C192.217 109.005 193.193 114.555 191.173 118.793C189.33 122.665 188.669 119.558 187.334 117.509C187.249 116.98 189.853 115.087 189.941 113.723C190.006 112.732 188.469 110.616 187.781 109.881" fill="white"/>
<path d="M50.6744 52.5548C50.3451 50.9263 51.2829 47.5106 52.5204 46.3113C52.8908 46.3055 53.2229 49.5947 53.4669 50.3531C54.0989 52.3079 56.8208 55.1092 58.6316 56.0616C61.915 57.79 62.2295 55.7912 64.3136 53.7041C66.4271 54.5507 69.6899 54.8094 66.6299 57.1757C64.1078 59.1245 59.337 59.3568 56.4064 58.2868C54.4663 57.5784 51.0888 54.6036 50.6744 52.5548Z" fill="white"/>
<path d="M175.835 48.366C176.999 48.3013 177.71 49.2978 178.78 49.68C181.446 50.6294 184.621 50.1709 187.117 48.9186C190.526 47.2079 189.224 45.9116 188.604 42.7839C189.11 42.346 191.802 40.3001 192.293 40.7234C193.936 46.3789 189.33 52.9487 183.592 53.6218C182.666 53.7306 180.788 53.7864 179.932 53.5219C178.998 53.2338 175.144 49.0539 175.835 48.366Z" fill="white"/>
<path d="M223.454 66.873C223.44 62.8077 221.047 59.492 217.481 57.7107C214.08 56.0146 213.722 57.5225 211.788 60.1328L208.172 59.0805C207.084 58.2574 209.965 56.285 210.615 55.947C215.133 53.5836 221.276 54.6007 224.336 58.7924C225.797 60.7912 225.647 62.1434 225.012 64.4627C224.927 64.7713 224.086 67.5374 223.457 66.8701" fill="white"/>
<path d="M145.07 32.8927C148.215 29.6593 153.215 28.5511 157.387 30.5117C158.93 31.2378 160.085 33.7834 160.411 35.4177C160.491 35.8234 160.799 37.7399 159.959 37.346C159.75 37.249 158.471 35.4647 157.904 34.9885C156.087 33.46 153.074 32.6605 150.708 32.7898C146.89 32.9985 146.59 34.5035 146.693 38.0368L142.804 38.9804C141.643 37.2843 143.821 34.1714 145.07 32.8898" fill="white"/>
<path d="M65.898 5.75535C65.5364 4.10042 65.557 2.71298 64.7722 1.14917C63.7522 -0.890833 60.5775 -3.37176 58.3994 -3.9626C55.5804 -4.72686 54.8661 -1.02899 53.9901 -0.970196L50.6127 -2.03429C49.6838 -2.73683 51.8825 -4.51522 52.4645 -4.87971C56.6592 -7.51643 62.8968 -6.61989 66.1978 -2.91908C67.8998 -1.01135 67.9262 0.317296 67.5294 2.83056C67.4589 3.27442 66.7122 6.33148 65.9009 5.75241" fill="white"/>
<path d="M233.205 103.978C232.82 102.159 235.101 101.174 236.523 100.657C240.298 99.2809 245.471 99.0546 244.545 104.566C243.643 109.954 233.972 107.614 233.205 103.981M240.192 105.648C240.495 104.878 240.633 102.17 239.725 101.865C235.933 101.48 238.934 106.683 240.192 105.648Z" fill="white"/>
<path d="M30.977 28.1718C30.4949 26.0378 34.3016 23.063 36.0976 22.2517C37.6026 21.5727 38.9342 21.2993 40.4275 22.2517C41.4063 22.8778 42.1559 25.2765 42.0295 26.3935C41.5268 30.8585 31.7472 31.5934 30.9741 28.1689M34.8189 25.5851C34.6896 27.2547 39.8954 30.0855 37.6879 25.5763C36.7061 23.5686 34.8895 24.6797 34.8189 25.5851Z" fill="white"/>
<path d="M118.421 101.053C119.023 101.556 120.108 103.323 120.22 104.122C120.708 107.661 113.509 112.1 110.587 109.619C108.976 108.252 111.933 103.111 113.106 101.868C114.432 100.463 116.789 99.6866 118.424 101.051M113.256 105.754C113.524 106.603 116.869 107.341 117.048 106.386C116.848 105.401 115.378 103.808 114.42 103.723C113.671 103.655 113.056 105.125 113.256 105.757" fill="white"/>
<path d="M172.087 92.2233C173.401 90.9946 179.339 93.4167 180.547 94.6337C183.771 97.8818 179.768 102.741 176.155 101.077C173.101 99.672 170.112 95.5214 172.084 92.2233M175.303 97.8113C175.917 99.8748 178.789 96.1916 177.919 95.204C176.276 93.3374 174.733 95.8947 175.303 97.8113Z" fill="white"/>
<path d="M6.52027 73.0459C6.87889 72.6844 8.86598 73.9836 9.25987 74.2717C11.6232 75.9972 18.3929 86.4265 19.9802 89.41C20.2918 89.9979 20.7062 90.5418 20.6239 91.2619C19.5745 90.7299 18.3252 90.5917 17.2817 90.0509C14.8596 88.7986 12.1317 82.2906 10.5738 79.7127C10.0447 78.8397 6.03231 73.5309 6.51733 73.0459" fill="white"/>
<path d="M113.518 89.5012C114.252 89.3925 114.729 89.5512 115.381 89.8393C118.468 91.1944 126.034 101.315 128.336 104.51C128.729 105.057 129.103 105.639 129.391 106.245C129.182 106.403 126.081 105.636 125.625 105.457C123.588 104.651 119.114 97.0381 117.459 94.8129C117.01 94.2073 113.068 89.9098 113.518 89.5012Z" fill="white"/>
<path d="M288.12 55.118C287.041 55.2767 285.827 56.2056 284.825 56.3937C283.488 56.6465 276.724 53.0839 274.887 52.3343C273.461 51.7523 271.918 51.4348 270.492 50.8499C270.175 50.7205 269.075 50.4619 269.31 49.9827C270.777 48.8246 273.032 49.1597 274.728 49.5565C276.489 49.968 286.327 53.4954 287.609 54.3096C287.973 54.5389 288.229 54.5771 288.117 55.118" fill="white"/>
<path d="M246.967 51.5995L245.877 53.3661C241.441 53.4102 236.573 53.0487 232.332 51.6759C231.944 51.5495 231.55 51.7935 231.682 51.1615L233.828 49.9152C238.09 51.1409 242.546 51.4849 246.965 51.6024" fill="white"/>
<path d="M121.163 77.4551L124.097 78.9278C124.132 79.695 123.262 79.989 123.042 80.6768C122.604 82.029 123.982 81.8026 124.679 82.5963L122.918 85.6828L120.026 83.7809L121.157 81.735L119.526 80.6974L121.166 77.4581L121.163 77.4551Z" fill="white"/>
<path d="M208.172 8.69778L210.929 10.191C211.979 7.35444 213.628 8.73305 214.901 10.5644L213.422 12.7778L211 11.6667L209.492 13.3833L206.673 11.4668L208.169 8.69778H208.172Z" fill="white"/>
<path d="M54.1373 73.0461C53.6758 69.3188 55.6217 71.4 57.9615 71.2853L57.3619 74.5041L54.7281 74.2219L54.4283 76.5735L50.9244 75.5094L51.4888 72.5934L54.1373 73.049V73.0461Z" fill="white"/>
<path d="M114.714 56.6114L117.316 56.8612L117.636 54.833L121.178 55.6061L120.722 58.3662L117.948 58.0811L117.151 60.4356L114.109 59.8125L114.714 56.6114Z" fill="white"/>
<path d="M112.086 18.4303C112.177 18.2745 113.976 17.5691 113.814 16.6314H114.247L116.016 18.4039L117.483 16.9283L119.97 19.6826L117.739 21.602L115.76 20.1735L114.25 21.6167C113.844 20.8995 111.672 19.1417 112.086 18.4274" fill="white"/>
<path d="M126.157 111.833C130.07 111.983 132.392 106.274 136.443 109.628C135.049 109.757 133.832 110.098 132.613 110.792C130.699 111.88 129.165 114.622 126.645 112.664C126.319 112.409 126.04 112.365 126.157 111.833Z" fill="white"/>
<path d="M27.6818 95.3745C26.5736 95.3568 25.6006 95.3068 24.5042 95.5802C21.8439 96.2416 19.8127 100.081 17.1025 96.7002C20.7122 96.6619 24.5247 91.4091 27.6847 95.3774" fill="white"/>
<path d="M149.185 24.665C148.821 25.0736 148.113 26.4111 147.507 26.3053L144.388 23.5363L147.175 20.7496L150.255 23.8302C150.023 24.2417 149.447 24.3769 149.188 24.668" fill="white"/>
<path d="M45.9094 16.0406V19.8619C44.375 19.6796 43.0258 19.2946 41.5002 19.8619L41.7706 15.8759L45.9065 16.0435L45.9094 16.0406Z" fill="white"/>
<path d="M142.913 58.3516L146.901 59.5098C147.404 60.1917 146.237 62.1847 146.114 63.0283L142.025 62.1729L142.91 58.3546L142.913 58.3516Z" fill="white"/>
<path d="M170.838 20.1559L174.95 21.3346L173.771 25.153L169.659 23.9743L170.838 20.1559Z" fill="white"/>
<path d="M201.405 46.6053L199.498 50.1209L195.826 47.9222L197.772 44.8533L201.405 46.6053Z" fill="white"/>
<path d="M196.996 93.3255L201.114 92.7317C200.938 94.1691 201.355 95.4831 201.699 96.8441L197.893 97.4261L196.996 93.3225V93.3255Z" fill="white"/>
<path d="M94.702 59.8242L98.8172 58.9394L99.702 62.7578L95.5867 63.6426L94.702 59.8242Z" fill="white"/>
<path d="M50.3188 83.6253L54.1401 84.2132L53.5581 88.4902L49.728 88.0287L50.3188 83.6253Z" fill="white"/>
<path d="M204.345 61.0029L203.169 64.5244L199.066 63.1723L200.415 59.8448L204.345 61.0029Z" fill="white"/>
<path d="M39.4426 46.8963L42.9553 48.0839C43.2022 48.366 42.0852 52.0257 41.6091 52.1697L38.2639 51.3026L39.4456 46.8963H39.4426Z" fill="white"/>
<path d="M162.31 92.7317L166.134 93.3225L165.538 97.4261L161.725 97.138L162.31 92.7317Z" fill="white"/>
<path d="M160.547 100.078L164.632 100.692L164.368 104.487L160.285 103.869L160.547 100.078Z" fill="white"/>
<path d="M104.108 29.8561L107.633 28.3834L109.399 32.4928L106.013 33.9361L104.108 29.8561Z" fill="white"/>
<path d="M157.616 2.53954L162.016 1.93694L162.313 5.75827L158.198 6.34616L157.616 2.53954Z" fill="white"/>
<path d="M227.57 27.7956L231.388 28.6804L230.201 32.7839L226.391 31.905L227.57 27.7956Z" fill="white"/>
<path d="M107.051 12.5162L111.166 13.398L110.572 17.2164L106.298 16.3405L107.051 12.5162Z" fill="white"/>
<path d="M158.498 47.493L162.155 46.0115L163.771 49.3949C163.754 49.6477 159.941 51.1909 159.677 50.9998L158.498 47.493Z" fill="white"/>
<path d="M261.959 5.17036C263.355 5.25266 264.763 5.07336 266.071 4.5854L266.533 8.41261L262.25 8.99463L261.956 5.1733L261.959 5.17036Z" fill="white"/>
<path d="M23.5664 31.614C25.0068 31.7904 26.3178 31.373 27.6817 31.0291L27.9786 35.1443L23.8604 35.4383L23.5664 31.614Z" fill="white"/>
<path d="M72.9498 48.951V53.0634H69.1256C69.2725 52.2962 68.7464 48.8746 69.5547 48.7306L72.9469 48.951H72.9498Z" fill="white"/>
<path d="M77.6559 30.1442L77.362 34.2624L73.5406 34.2595L73.8317 29.9972L77.6559 30.1442Z" fill="white"/>
<path d="M209.074 4.30614L212.014 5.94342C212.09 6.40786 210.55 8.96815 210.377 8.98285L207.587 7.06043L209.077 4.30614H209.074Z" fill="white"/>
<path d="M121.743 63.0577L118.544 62.4375L118.788 59.3599L121.913 59.8037L121.743 63.0577Z" fill="white"/>
</g>
<path d="M250.289 35.3412C249.504 45.5101 260.453 49.3514 268.045 52.9697C290.6 63.7222 320.594 67.065 304.393 101.099L301.432 94.5048C285.633 76.7619 228.376 75.4629 246.51 39.4697C246.753 38.9859 249.196 33.9513 250.286 35.3412" fill="#8A2432"/>
<path d="M291 25.5994C291 33.0546 285.179 39.0994 278 39.0994C270.821 39.0994 265 33.0546 265 25.5994C265 18.1441 270.821 12.0994 278 12.0994C285.179 12.0994 291 18.1441 291 25.5994Z" fill="#8A2432"/>
<path d="M14.6278 141.162V136.36C14.6278 135.273 14.4143 134.493 13.9902 134.024C13.5719 133.555 12.8758 133.32 11.9017 133.32C11.3782 133.32 10.84 133.373 10.293 133.478V141.159H6.72745C4.35822 141.159 2.62956 140.685 1.54439 139.735C0.514796 138.835 0 137.445 0 135.572C0 134.358 0.210596 133.297 0.637643 132.382L2.50964 132.054C2.02409 133.047 1.77839 134.153 1.77839 135.364C1.77839 136.891 2.13816 137.987 2.85478 138.656C3.64745 139.389 5.00756 139.752 6.93512 139.752H8.56434V132.285C9.69338 132.042 10.8634 131.919 12.0743 131.919C13.6158 131.919 14.7302 132.291 15.4146 133.036C16.0377 133.71 16.3506 134.739 16.3506 136.123V139.752H20.5246V132.127H22.2854V141.159H14.6307L14.6278 141.162ZM6.01961 144.024C6.01961 144.311 5.92016 144.554 5.72126 144.754C5.52236 144.959 5.28544 145.064 5.01049 145.064C4.71799 145.064 4.47522 144.965 4.27925 144.765C4.0862 144.572 3.98968 144.326 3.98968 144.024C3.98968 143.742 4.0862 143.505 4.27925 143.311C4.47814 143.112 4.72092 143.012 5.01049 143.012C5.30006 143.012 5.52236 143.109 5.72126 143.303C5.92016 143.496 6.01961 143.736 6.01961 144.024ZM8.83636 144.024C8.83636 144.311 8.73984 144.554 8.54679 144.754C8.35374 144.959 8.11974 145.064 7.8448 145.064C7.5523 145.064 7.30368 144.965 7.10478 144.765C6.90588 144.566 6.80642 144.317 6.80642 144.024C6.80642 143.731 6.90588 143.505 7.10478 143.311C7.30953 143.112 7.55815 143.012 7.8448 143.012C8.13144 143.012 8.35374 143.109 8.54679 143.303C8.73984 143.496 8.83636 143.736 8.83636 144.024ZM20.1239 145.082C19.8372 145.082 19.5944 144.982 19.3955 144.783C19.1908 144.584 19.0855 144.337 19.0855 144.041C19.0855 143.745 19.1879 143.511 19.3955 143.308C19.5944 143.109 19.8372 143.009 20.1239 143.009C20.4105 143.009 20.6621 143.106 20.8639 143.3C21.0774 143.499 21.1827 143.745 21.1827 144.041C21.1827 144.337 21.0774 144.575 20.8639 144.783C20.6591 144.982 20.4105 145.082 20.1239 145.082ZM25.421 146.096C24.7658 146.096 24.1018 146.008 23.4262 145.833L23.6134 144.37C24.2071 144.59 24.8506 144.698 25.5497 144.698C26.3979 144.698 27.021 144.463 27.4217 143.994C27.878 143.476 28.1032 142.617 28.1032 141.415V132.13H29.864V139.755H31.97V141.162H29.864V141.256C29.864 144.484 28.3811 146.096 25.4181 146.096M31.698 139.755H32.3357C34.3685 139.755 36.1147 139.424 37.5684 138.761C35.5795 136.885 34.0438 135.771 32.9645 135.422L33.1225 134.194C35.1436 132.655 36.9864 131.887 38.6536 131.887C39.8821 131.887 40.8269 132.186 41.4879 132.787C42.0671 133.323 42.3595 134.015 42.3595 134.859C42.3595 136.322 41.5932 137.647 40.0576 138.838C40.9439 139.45 41.8623 139.755 42.8188 139.755H43.9888V141.162H42.5672C41.1837 141.162 39.885 140.687 38.6741 139.738C36.8723 140.687 34.7049 141.162 32.1806 141.162H31.7038V139.755H31.698ZM34.7663 134.748C35.4654 135.018 36.8489 136.079 38.9227 137.938C40.0342 137.099 40.587 136.152 40.587 135.097C40.587 134.54 40.4174 134.097 40.081 133.766C39.7066 133.396 39.1684 133.212 38.4606 133.212C37.4427 133.212 36.2112 133.725 34.7634 134.751M43.6904 139.758H46.3756V127.621H48.1364V141.165H43.6904V139.758ZM51.7721 127.621H53.533V141.165H51.7721V127.621ZM67.0054 141.165C64.6333 141.165 62.9075 140.69 61.8224 139.741C60.7928 138.84 60.278 137.451 60.278 135.578C60.278 134.364 60.4886 133.303 60.9156 132.388L62.7876 132.059C62.3021 133.053 62.0593 134.159 62.0593 135.369C62.0593 136.897 62.4191 137.993 63.1357 138.662C63.9284 139.395 65.2885 139.758 67.216 139.758H70.4832V132.133H72.2411V141.165H67.0084H67.0054ZM66.6223 145.085C66.3298 145.085 66.0841 144.985 65.8939 144.786C65.6892 144.587 65.5839 144.34 65.5839 144.044C65.5839 143.748 65.6863 143.514 65.8939 143.311C66.0928 143.112 66.3356 143.012 66.6223 143.012C66.9089 143.012 67.1605 143.109 67.3623 143.303C67.5758 143.502 67.6811 143.748 67.6811 144.044C67.6811 144.34 67.5758 144.578 67.3623 144.786C67.1575 144.985 66.9089 145.085 66.6223 145.085ZM75.7277 127.621H77.4886V139.758H79.6033V141.165H75.7306V127.621H75.7277ZM79.3167 139.758H82.1159V132.133H83.8767V139.758H86.009V141.165H79.3167V139.758ZM81.7122 145.085C81.4256 145.085 81.1828 144.985 80.981 144.786C80.7762 144.587 80.6739 144.34 80.6739 144.044C80.6739 143.748 80.7762 143.514 80.981 143.311C81.1799 143.112 81.4227 143.012 81.7122 143.012C82.0018 143.012 82.2533 143.109 82.4522 143.303C82.6628 143.502 82.7711 143.748 82.7711 144.044C82.7711 144.34 82.6658 144.578 82.4522 144.786C82.2475 144.985 81.9989 145.085 81.7122 145.085ZM98.4256 141.165C97.2029 141.165 96.3137 141.06 95.758 140.846C95.1788 140.626 94.7518 140.221 94.4768 139.626C94.0527 140.74 93.0875 141.297 91.584 141.297C90.2356 141.297 89.4108 140.746 89.1036 139.647C88.7351 140.661 87.881 141.165 86.5384 141.165H85.7136V139.758H86.5384C87.2492 139.758 87.7523 139.573 88.0448 139.204C88.3578 138.811 88.5128 138.119 88.5128 137.131V133.285H90.2736V136.782C90.2736 137.926 90.3526 138.694 90.5076 139.081C90.727 139.623 91.1833 139.896 91.8824 139.896C93.1986 139.896 93.8567 138.864 93.8567 136.8V132.514H95.5679V137.439C95.5679 138.415 95.7726 139.055 96.185 139.362C96.5477 139.623 97.2731 139.755 98.3641 139.755H98.9901C99.0954 138.879 99.148 137.993 99.148 137.09C99.148 135.176 98.9374 133.411 98.5133 131.79L100.216 131.479C100.678 133.124 100.909 134.941 100.909 136.929C100.909 137.718 100.865 138.659 100.777 139.752H102.883V141.159H98.4197L98.4256 141.165ZM93.2308 130.368C92.9441 130.368 92.7043 130.271 92.5112 130.078C92.3123 129.878 92.2129 129.626 92.2129 129.327C92.2129 129.052 92.3123 128.814 92.5112 128.615C92.7043 128.415 92.9441 128.316 93.2308 128.316C93.5174 128.316 93.7573 128.412 93.9503 128.606C94.1434 128.799 94.2399 129.04 94.2399 129.327C94.2399 129.614 94.1434 129.87 93.9503 130.069C93.7573 130.268 93.5174 130.368 93.2308 130.368ZM94.6435 128.078C94.3686 128.078 94.1375 127.984 93.9503 127.797C93.7631 127.609 93.6695 127.378 93.6695 127.102C93.6695 126.826 93.7631 126.583 93.9503 126.39C94.1375 126.196 94.3686 126.099 94.6435 126.099C94.9185 126.099 95.1408 126.196 95.328 126.39C95.5152 126.583 95.6088 126.821 95.6088 127.102C95.6088 127.383 95.5152 127.603 95.328 127.797C95.1408 127.984 94.9126 128.078 94.6435 128.078ZM96.0651 130.368C95.7785 130.368 95.5386 130.271 95.3456 130.078C95.1467 129.878 95.0472 129.626 95.0472 129.327C95.0472 129.052 95.1467 128.814 95.3456 128.615C95.5386 128.415 95.7785 128.316 96.0651 128.316C96.3518 128.316 96.5828 128.412 96.7759 128.606C96.9748 128.805 97.0742 129.046 97.0742 129.327C97.0742 129.609 96.9748 129.861 96.7759 130.069C96.5828 130.268 96.3459 130.368 96.0651 130.368ZM102.62 139.758H105.305V127.621H107.066V139.758H109.172V141.165H102.62V139.758ZM108.888 139.758H111.573V127.621H113.334V141.165H108.888V139.758ZM120.708 127.621H122.466V139.758H124.581V141.165H120.705V127.621H120.708ZM124.297 139.758H127.096V132.133H128.857V139.758H131.832V141.165H124.297V139.758ZM126.944 144.027C126.944 144.314 126.845 144.557 126.646 144.757C126.447 144.962 126.207 145.067 125.926 145.067C125.645 145.067 125.4 144.968 125.207 144.768C125.014 144.575 124.917 144.329 124.917 144.027C124.917 143.745 125.014 143.508 125.207 143.314C125.4 143.115 125.64 143.015 125.926 143.015C126.213 143.015 126.447 143.112 126.646 143.305C126.845 143.499 126.944 143.739 126.944 144.027ZM129.761 144.027C129.761 144.314 129.664 144.557 129.471 144.757C129.278 144.962 129.041 145.067 128.761 145.067C128.48 145.067 128.231 144.968 128.032 144.768C127.833 144.569 127.734 144.32 127.734 144.027C127.734 143.733 127.833 143.508 128.032 143.314C128.231 143.115 128.474 143.015 128.761 143.015C129.047 143.015 129.278 143.112 129.471 143.305C129.664 143.499 129.761 143.739 129.761 144.027ZM131.56 139.758H139.478C139.565 138.975 139.609 138.322 139.609 137.788C139.609 136.287 139.302 135.202 138.691 134.534C138.036 133.821 136.945 133.464 135.415 133.464C134.654 133.464 133.944 133.508 133.283 133.596V132.218C133.955 132.112 134.719 132.059 135.567 132.059C137.62 132.059 139.109 132.534 140.039 133.484C140.92 134.384 141.358 135.774 141.358 137.65C141.358 138.764 141.256 139.937 141.048 141.168H131.56V139.761V139.758ZM136.079 145.085C135.792 145.085 135.549 144.985 135.348 144.786C135.149 144.587 135.049 144.34 135.049 144.044C135.049 143.748 135.149 143.514 135.348 143.311C135.546 143.112 135.792 143.012 136.079 143.012C136.365 143.012 136.623 143.109 136.828 143.303C137.032 143.502 137.138 143.748 137.138 144.044C137.138 144.34 137.035 144.578 136.828 144.786C136.623 144.985 136.371 145.085 136.079 145.085ZM146.188 146.023C145.202 146.023 144.204 145.926 143.192 145.733L143.315 144.261C144.389 144.505 145.41 144.628 146.375 144.628C148.814 144.628 150.034 143.628 150.034 141.626V141.165H148.106C144.757 141.165 143.081 139.673 143.081 136.692C143.081 135.334 143.476 134.22 144.269 133.352C145.135 132.402 146.348 131.928 147.91 131.928C149.314 131.928 150.598 132.153 151.765 132.602V139.758H153.871V141.165H151.765V141.532C151.765 142.795 151.35 143.824 150.519 144.619C149.54 145.557 148.095 146.026 146.188 146.026M150.034 133.775C149.411 133.475 148.639 133.323 147.723 133.323C146.808 133.323 146.138 133.613 145.626 134.197C145.114 134.771 144.86 135.539 144.86 136.495C144.86 138.67 146.024 139.758 148.349 139.758H150.034V133.775ZM153.611 139.758H156.296V127.621H158.054V141.165H153.608V139.758H153.611ZM163.334 146.023C162.348 146.023 161.351 145.926 160.339 145.733L160.461 144.261C161.535 144.505 162.556 144.628 163.521 144.628C165.96 144.628 167.18 143.628 167.18 141.626V141.165H165.253C161.903 141.165 160.227 139.673 160.227 136.692C160.227 135.334 160.622 134.22 161.415 133.352C162.281 132.402 163.495 131.928 165.057 131.928C166.461 131.928 167.745 132.153 168.912 132.602V139.758H171.018V141.165H168.912V141.532C168.912 142.795 168.496 143.824 167.666 144.619C166.686 145.557 165.241 146.026 163.334 146.026M167.18 133.775C166.557 133.475 165.785 133.323 164.869 133.323C163.954 133.323 163.284 133.613 162.772 134.197C162.26 134.771 162.006 135.539 162.006 136.495C162.006 138.67 163.17 139.758 165.495 139.758H167.18V133.775ZM170.757 139.758H173.557V132.133H175.317V139.758H177.45V141.165H170.757V139.758ZM174.434 130.078C174.147 130.078 173.905 129.978 173.703 129.779C173.504 129.579 173.405 129.336 173.405 129.049C173.405 128.761 173.504 128.503 173.703 128.298C173.902 128.093 174.144 127.987 174.434 127.987C174.724 127.987 174.975 128.09 175.183 128.298C175.388 128.497 175.493 128.75 175.493 129.049C175.493 129.348 175.391 129.579 175.183 129.779C174.969 129.978 174.721 130.078 174.434 130.078ZM177.157 139.758H183.306C183.282 137.914 182.855 136.469 182.033 135.425C181.246 134.425 180 133.681 178.289 133.191V131.887L185.552 127.31V129.101L180.34 132.309C181.861 132.933 182.993 133.798 183.736 134.897C184.56 136.111 184.999 137.729 185.055 139.755H186.813V141.162H177.154V139.755L177.157 139.758ZM186.529 139.758H189.328V132.133H191.089V139.758H193.063V141.165H186.532V139.758H186.529ZM188.486 130.368C188.199 130.368 187.959 130.271 187.766 130.078C187.567 129.878 187.468 129.626 187.468 129.327C187.468 129.052 187.567 128.814 187.766 128.615C187.959 128.415 188.199 128.316 188.486 128.316C188.772 128.316 189.003 128.412 189.196 128.606C189.395 128.805 189.495 129.046 189.495 129.327C189.495 129.609 189.395 129.861 189.196 130.069C189.003 130.268 188.766 130.368 188.486 130.368ZM191.32 130.368C191.033 130.368 190.791 130.271 190.592 130.078C190.387 129.878 190.282 129.626 190.282 129.327C190.282 129.052 190.384 128.814 190.592 128.615C190.791 128.415 191.033 128.316 191.32 128.316C191.607 128.316 191.838 128.412 192.031 128.606C192.218 128.805 192.312 129.046 192.312 129.327C192.312 129.609 192.218 129.87 192.031 130.069C191.838 130.268 191.601 130.368 191.32 130.368ZM192.777 139.758H195.462V127.621H197.223V141.165H192.777V139.758ZM200.858 127.621H202.619V141.165H200.858V127.621ZM207.568 146.023C206.583 146.023 205.585 145.926 204.573 145.733L204.696 144.261C205.769 144.505 206.79 144.628 207.755 144.628C210.195 144.628 211.415 143.628 211.415 141.626V141.165H209.487C206.138 141.165 204.462 139.673 204.462 136.692C204.462 135.334 204.857 134.22 205.649 133.352C206.515 132.402 207.729 131.928 209.291 131.928C210.695 131.928 211.979 132.153 213.146 132.602V141.532C213.146 142.795 212.731 143.824 211.903 144.619C210.923 145.557 209.478 146.026 207.571 146.026M211.418 133.775C210.794 133.475 210.022 133.323 209.107 133.323C208.191 133.323 207.521 133.613 207.01 134.197C206.498 134.771 206.243 135.539 206.243 136.495C206.243 138.67 207.407 139.758 209.733 139.758H211.418V133.775ZM220.283 146.099C219.628 146.099 218.964 146.011 218.291 145.836L218.478 144.373C219.072 144.592 219.716 144.701 220.415 144.701C221.263 144.701 221.886 144.466 222.287 143.997C222.743 143.478 222.968 142.619 222.968 141.417V132.133H224.729V141.259C224.729 144.487 223.246 146.099 220.283 146.099ZM228.207 127.621H229.968V139.758H232.083V141.165H228.207V127.621ZM231.796 139.758H237.944C237.921 137.914 237.494 136.469 236.672 135.425C235.885 134.425 234.639 133.681 232.928 133.191V131.887L240.191 127.31V129.101L234.978 132.309C236.499 132.933 237.631 133.798 238.374 134.897C239.199 136.111 239.638 137.729 239.693 139.755H241.451V141.162H231.793V139.755L231.796 139.758ZM241.167 139.758H243.967V132.133H245.728V139.758H247.702V141.165H241.17V139.758H241.167ZM243.124 130.368C242.838 130.368 242.598 130.271 242.405 130.078C242.206 129.878 242.106 129.626 242.106 129.327C242.106 129.052 242.206 128.814 242.405 128.615C242.598 128.415 242.838 128.316 243.124 128.316C243.411 128.316 243.642 128.412 243.835 128.606C244.034 128.805 244.133 129.046 244.133 129.327C244.133 129.609 244.034 129.861 243.835 130.069C243.642 130.268 243.405 130.368 243.124 130.368ZM245.959 130.368C245.672 130.368 245.429 130.271 245.23 130.078C245.026 129.878 244.92 129.626 244.92 129.327C244.92 129.052 245.023 128.814 245.23 128.615C245.429 128.415 245.672 128.316 245.959 128.316C246.245 128.316 246.476 128.412 246.669 128.606C246.857 128.805 246.95 129.046 246.95 129.327C246.95 129.609 246.857 129.87 246.669 130.069C246.476 130.268 246.239 130.368 245.959 130.368ZM247.415 139.758H250.214V132.133H251.975V141.165H247.418V139.758H247.415ZM249.811 145.085C249.524 145.085 249.281 144.985 249.082 144.786C248.878 144.587 248.772 144.34 248.772 144.044C248.772 143.748 248.875 143.514 249.082 143.311C249.281 143.112 249.524 143.012 249.811 143.012C250.097 143.012 250.349 143.109 250.551 143.303C250.761 143.502 250.87 143.748 250.87 144.044C250.87 144.34 250.764 144.578 250.551 144.786C250.346 144.985 250.097 145.085 249.811 145.085ZM258.372 138.031H256.594L253.543 127.75L255.304 127.507L258.372 138.031ZM254.368 141.165V139.758H260.291V127.621H262.069V141.165H254.368ZM265.699 127.621H267.46V141.165H265.699V127.621ZM278.911 141.165C275.562 141.165 273.886 139.673 273.886 136.692C273.886 135.334 274.281 134.22 275.074 133.352C275.94 132.402 277.153 131.928 278.715 131.928C280.119 131.928 281.404 132.153 282.571 132.602V139.758H284.694V141.165H278.911ZM280.839 133.775C280.216 133.475 279.444 133.323 278.528 133.323C277.613 133.323 276.943 133.613 276.431 134.197C275.919 134.771 275.665 135.539 275.665 136.495C275.665 138.67 276.829 139.758 279.154 139.758H280.839V133.775ZM277.142 130.371C276.855 130.371 276.615 130.274 276.422 130.081C276.229 129.881 276.133 129.629 276.133 129.33C276.133 129.055 276.229 128.817 276.422 128.618C276.615 128.418 276.855 128.319 277.142 128.319C277.428 128.319 277.662 128.415 277.861 128.609C278.06 128.808 278.16 129.049 278.16 129.33C278.16 129.612 278.06 129.864 277.861 130.072C277.662 130.271 277.423 130.371 277.142 130.371ZM279.976 130.371C279.689 130.371 279.447 130.274 279.245 130.081C279.046 129.881 278.947 129.629 278.947 129.33C278.947 129.055 279.046 128.817 279.245 128.618C279.444 128.418 279.687 128.319 279.976 128.319C280.266 128.319 280.494 128.415 280.687 128.609C280.88 128.808 280.976 129.049 280.976 129.33C280.976 129.612 280.88 129.872 280.687 130.072C280.494 130.271 280.257 130.371 279.976 130.371ZM291.679 141.168C289.453 141.168 287.976 140.564 287.253 139.359C286.917 140.567 285.94 141.168 284.326 141.168H284.036V139.761C284.811 139.761 285.379 139.559 285.738 139.151C286.174 138.665 286.394 137.82 286.394 136.618C286.394 135.293 286.791 134.2 287.59 133.335C288.464 132.397 289.661 131.928 291.185 131.928C293.917 131.928 295.283 133.364 295.283 136.231V139.758H297.201V141.165H291.679V141.168ZM293.56 136.536C293.56 134.399 292.717 133.329 291.033 133.329C290.146 133.329 289.447 133.622 288.935 134.211C288.423 134.78 288.169 135.548 288.169 136.519C288.169 138.682 289.333 139.764 291.658 139.764H293.557V136.536H293.56ZM296.903 141.168V139.761H298.418C298.86 139.761 299.231 139.796 299.533 139.864C298.585 139.263 298.111 138.181 298.111 136.618C298.111 135.293 298.515 134.2 299.319 133.335C300.185 132.397 301.381 131.928 302.902 131.928C305.634 131.928 307 133.364 307 136.231V141.165H296.903V141.168ZM305.28 136.536C305.28 134.399 304.438 133.329 302.753 133.329C301.867 133.329 301.168 133.622 300.656 134.211C300.144 134.78 299.889 135.548 299.889 136.519C299.889 138.682 301.054 139.764 303.379 139.764H305.277V136.536H305.28ZM301.293 130.374C301.007 130.374 300.767 130.277 300.574 130.084C300.375 129.884 300.275 129.632 300.275 129.333C300.275 129.057 300.375 128.82 300.574 128.621C300.767 128.421 301.007 128.322 301.293 128.322C301.58 128.322 301.814 128.418 302.013 128.612C302.212 128.811 302.311 129.052 302.311 129.333C302.311 129.614 302.212 129.867 302.013 130.075C301.814 130.274 301.574 130.374 301.293 130.374ZM304.128 130.374C303.841 130.374 303.598 130.277 303.396 130.084C303.198 129.884 303.098 129.632 303.098 129.333C303.098 129.057 303.198 128.82 303.396 128.621C303.595 128.421 303.838 128.322 304.128 128.322C304.417 128.322 304.645 128.418 304.838 128.612C305.031 128.811 305.128 129.052 305.128 129.333C305.128 129.614 305.031 129.875 304.838 130.075C304.645 130.274 304.408 130.374 304.128 130.374Z" fill="#8A2432"/>
</svg>
