<svg width="314" height="145" viewBox="0 0 314 145" fill="none" xmlns="http://www.w3.org/2000/svg">
	<path d="M168.272 10.7407H152.161V93.0864H168.272V10.7407Z" fill="#14748E"/>
	<path d="M252.407 10.7407V16.3201C252.407 22.8979 247.002 28.2335 240.332 28.2335H223.088L205.358 28.2365L177.222 28.2335V10.7407H252.407ZM205.358 28.2365H223.088V93.0864H205.358V28.2365Z" fill="#14748E"/>
	<path d="M145 10.7407L141.196 15.9411L114.283 52.7276L113.468 53.8403L113.436 53.8842L113.404 53.9252V53.9311C112.994 54.4874 112.774 55.1609 112.774 55.849V89.8274C112.774 91.6252 111.316 93.0864 109.515 93.0864H98.5855C96.7845 93.0864 95.3261 91.6282 95.3261 89.8274V55.8783C95.3261 55.1843 95.1064 54.5108 94.6964 53.9545L94.6788 53.9311V53.9252L94.6437 53.8842L94.6115 53.8403L93.7974 52.7247L66.884 15.9441L66.8694 15.9265C65.2938 13.7743 66.8313 10.7437 69.4992 10.7437H83.035C84.0717 10.7437 85.0498 11.2385 85.6619 12.076L85.6677 12.0818L101.412 33.5921C102.715 35.3695 105.368 35.3695 106.671 33.5921L122.412 12.0818C122.951 11.3469 124.14 10.7437 125.054 10.7437H145V10.7407Z" fill="#8A2432"/>
	<path d="M112.778 7.16049C112.778 11.1143 109.571 14.321 105.617 14.321C101.663 14.321 98.4568 11.1143 98.4568 7.16049C98.4568 3.20666 101.663 0 105.617 0C109.571 0 112.778 3.20666 112.778 7.16049Z" fill="#8A2432"/>
	<path d="M273.884 84.8156C274.15 96.6406 263.807 105.686 252.621 106.666C242.181 107.58 91.6863 108.019 82.6601 105.739C77.866 104.529 74.1285 101.948 71.0115 98.1176L49.3914 55.1186L35.3078 81.7846C34.7225 75.2106 31.263 68.7343 26.6211 64.1878C25.1314 62.7286 21.271 61.0622 21.4905 59.0908L49.3914 3.58026L90.1614 84.8156H273.884Z" fill="#8A2432"/>
	<mask id="mask0_19_46903" style="mask-type:luminance" maskUnits="userSpaceOnUse" x="20" y="3" width="255" height="105">
		<path d="M20.7147 59.0278C20.4942 60.9855 24.3744 62.6433 25.8676 64.0896C30.5267 68.6046 34.0041 75.0362 34.592 81.5648L48.7368 55.083L70.4508 97.7849C73.5813 101.589 77.3351 104.152 82.15 105.354C91.2153 107.62 242.364 107.182 252.849 106.274C264.081 105.301 274.472 96.3181 274.204 84.5748H89.6839L48.7368 3.90063L20.7147 59.0278Z" fill="white"/>
	</mask>
	<g mask="url(#mask0_19_46903)">
		<path d="M78.4226 -15.9116C77.9758 -16.3407 79.8982 -17.6312 80.2039 -17.8017C84.8924 -20.4296 90.257 -19.3919 90.7773 -13.4218C91.4533 -5.67628 87.197 -1.54042 79.5984 -1.50809L79.8923 2.01341C80.5008 2.1016 81.2239 1.37555 81.7619 1.48725C84.1046 1.98402 80.104 3.49785 79.9394 3.97111C79.7277 8.87123 77.9435 17.8602 72.0263 18.6832C67.135 19.3623 66.1414 15.4498 67.9257 11.6461C70.0568 7.09873 77.2497 4.83532 75.1127 -0.996618C74.6424 -2.27529 73.6342 -2.56924 73.1315 -3.70682L75.924 -5.5293C83.2992 0.220329 87.1411 -5.42054 86.3563 -13.1161C85.7919 -18.6482 82.2763 -17.4136 78.4255 -15.9116M75.4831 6.12869C75.1774 5.80535 73.8135 7.32507 73.5695 7.59256C71.8029 9.52968 69.7717 12.7778 71.4119 15.3381C72.6406 17.2576 73.5372 14.5503 74.0222 13.3334C74.9834 10.9112 75.1421 8.67135 75.4831 6.12869Z" fill="white"/>
		<path d="M21.3995 69.0102C21.8022 68.6163 21.9521 69.0396 21.9932 69.4541C22.1725 71.2677 20.694 72.9168 21.858 74.8627C23.8686 78.2225 34.3626 75.1332 34.8976 71.7851C35.4796 68.146 34.1304 66.932 31.72 64.6892L33.1486 61.5028C35.312 63.2165 38.0134 63.6368 40.4209 62.026C42.3521 60.7326 44.3421 55.5856 47.12 53.4427C51.7937 49.8418 55.9061 53.0253 54.3276 58.5927C53.5398 61.3705 49.1511 64.1836 46.5762 65.2418C45.5591 65.6592 42.114 66.4235 41.6731 66.8027C41.3321 67.0966 40.9265 69.0131 40.7912 69.5952C39.1775 69.4012 39.7066 68.1048 39.9094 66.9526L36.382 67.5405C38.5043 75.6182 31.8699 82.4701 23.8039 80.2626C18.3777 78.7752 19.6034 73.0138 21.3965 69.0102M43.1458 61.6615C45.2945 61.4675 47.4786 60.5357 49.3216 59.4657C50.3651 58.8602 54.0307 56.8084 51.1617 56.147C47.5432 55.3122 44.4891 58.6662 43.1428 61.6615" fill="white"/>
		<path d="M239.797 -5.91725C239.877 -5.32641 239.853 -5.43223 239.433 -5.25586C238.054 -4.67972 236.449 -4.88255 235.115 -3.695C232.281 -1.17292 236.908 4.15049 239.071 5.82894C243.522 9.27989 247.17 5.8407 248.069 1.17573L251.126 0.917058C252.181 1.79303 251.073 3.1834 251.385 4.36801C251.758 5.7966 253.869 7.99534 255.359 8.35102C258.619 9.12998 262.214 8.65673 265.353 10.4087C268.892 12.384 269.607 16.3523 265.638 18.2953C260.265 20.9261 253.842 15.1941 250.665 11.267L247.443 11.4198C247.17 9.96479 248.783 10.2676 249.492 9.51211L247.731 6.7196C244.342 8.65378 241.297 10.4498 237.284 9.08295C233.43 7.77194 229.439 2.32507 230.532 -1.81373C231.293 -4.69736 237.117 -6.48163 239.797 -5.91725ZM255.674 9.95009C255.424 10.1735 257.208 12.09 257.458 12.3575C258.325 13.2835 263.125 17.143 264.175 16.3934C264.892 11.8049 259.31 10.2793 255.674 9.95009Z" fill="white"/>
		<path d="M131.095 14.2975C131.345 14.4563 132.724 14.4768 133.264 14.6267C135.563 15.2646 133.162 16.264 131.627 15.8261L132.509 19.3505C138.038 17.5839 143.241 18.4187 145.992 23.939C147.994 27.9603 147.841 34.0009 142.356 34.627C140.575 34.8298 137.227 34.8651 136.036 33.4542C138.55 33.1984 142.139 34.3154 142.85 30.9791C143.423 28.3012 140.622 21.1083 137.809 20.3676C134.499 19.4945 132.089 21.7462 130.537 24.3535L127.215 23.6098C126.659 23.2806 127.906 21.7903 128.032 21.1906C129.499 14.2064 119.343 14.2064 116.213 9.62961C114.646 7.33975 114.575 4.43849 117.397 3.21272C122.409 1.0375 126.78 5.84062 129.032 9.74426C129.478 10.5173 130.886 14.1564 131.098 14.2916M119.581 4.94702C118.026 9.27394 122.338 12.5103 126.045 13.4656C126.474 13.1217 121.539 4.55019 119.581 4.94702Z" fill="white"/>
		<path d="M1.40511 20.5292C0.414501 21.7903 -1.64608 21.5257 -2.99236 22.4487C-6.48741 24.8415 -1.54319 30.5617 0.676121 32.2725C5.04714 35.6411 8.85377 32.2402 9.67388 27.6193L13.163 27.5781C13.1278 29.477 12.5222 30.012 13.5099 31.7875C16.37 36.9257 22.8251 34.0156 27.3696 37.0315C31.1262 39.5242 30.7324 43.6336 26.3878 45.0592C21.4994 46.6642 15.0267 41.5848 12.5164 37.6341L9.05071 37.8634C8.85083 36.5994 10.1589 36.2526 11.1054 36.0968L9.33879 33.1631C7.00777 34.3919 4.6209 36.0145 1.84603 36.038C-2.90418 36.0821 -7.49565 31.4377 -7.96891 26.8139C-8.4892 21.7403 -2.6602 20.1736 1.40511 20.5292ZM17.2813 36.3937C17.1519 36.9463 17.5958 37.0903 17.8662 37.4225C18.7304 38.4748 24.7241 43.9305 25.8028 42.8576C26.4877 38.0221 21.0027 36.8522 17.2813 36.3937Z" fill="white"/>
		<path d="M296.529 61.6645C297.511 60.8767 299.739 64.9861 299.992 65.6945C302.317 72.2525 297.009 75.1361 291.127 74.5541C285.683 74.0162 283.017 69.6658 282.399 64.6216L278.893 64.895C280.642 70.968 277.596 65.4476 276.926 65.2418C275.774 64.892 273.128 65.2977 271.694 65.1831C267.722 64.8626 262.208 62.8756 261.388 58.4428C260.43 53.2605 265.662 52.8078 269.28 54.6656C273.305 56.732 276.129 62.5816 281.45 59.9596C282.511 59.4364 282.837 58.2341 283.74 57.5551L285.938 60.33C284.592 62.9843 283.387 64.6069 284.801 67.6522C286.376 71.0444 293.99 70.6828 296.735 69.0661C300.242 67.0026 297.52 64.3159 296.526 61.6615M264.283 58.2194C264.119 58.3987 264.033 58.6427 263.969 58.872C264.198 60.4534 272.658 61.4293 274.186 61.0707C274.965 60.377 269.739 57.4669 268.975 57.3229C267.69 57.0789 265.215 57.1994 264.286 58.2194" fill="white"/>
		<path d="M108.405 92.8113C110.484 93.4962 112.682 96.8472 113.035 98.9019C113.99 104.443 107.767 106.686 103.246 106.336C98.4346 105.963 95.4686 101.962 94.575 97.5174L91.0653 98.5404C91.4592 98.9402 91.8971 99.4399 91.9354 100.025C92.1 102.529 89.7719 98.8961 89.1605 98.8049C88.6784 98.7314 87.0881 99.2576 86.221 99.287C81.9088 99.4369 75.0715 99.4663 73.1873 94.6603C71.2149 89.622 75.4948 87.7231 79.8805 89.1458C83.5049 90.3216 86.4473 94.381 90.3274 93.9871C92.8701 93.7284 93.7461 92.4615 95.0218 90.4803L97.4822 92.732C97.4616 94.2282 96.4004 95.1335 96.3299 96.7767C96.2593 98.414 97.0912 100.757 98.5933 101.589C101.165 103.014 108.676 101.853 110.298 99.2635C112.024 96.5121 107.744 93.5109 108.402 92.8143M86.0593 94.866C83.746 92.8378 80.1627 91.077 77.1321 92.5556C73.1021 94.5221 78.0022 95.307 80.0392 95.4539C82.0734 95.6009 84.0928 95.3569 86.0593 94.866Z" fill="white"/>
		<path d="M229.609 37.3725C231.211 35.7646 237.696 35.8528 240.197 35.4678C241.973 35.1944 243.613 34.5859 245.382 34.3361L244.354 38.4455C238.137 40.2268 228.084 47.5108 232.59 54.9095C235.835 60.2388 245.562 57.655 250.444 56.2852C251.264 56.0559 254.995 54.5303 255.377 54.9007C255.418 55.227 255.385 55.4827 255.23 55.7796C254.692 56.8055 249.28 60.6062 248.025 61.2118C231.47 69.2101 223.116 51.6261 234.8 40.5031C233.26 40.8588 231.429 40.6853 230.018 41.4496C229.156 41.917 228.845 43.0134 227.745 42.8488C227.875 41.1851 228.401 38.5807 229.606 37.3667" fill="white"/>
		<path d="M82.5379 115.14C84.3751 113.805 85.8683 111.659 85.4744 109.264C86.4592 108.249 88.3081 112.744 88.3933 113.552C88.7343 116.78 83.3257 120.992 81.365 123.52C81.0329 123.946 79.0752 127.435 78.7195 127.186L76.7647 123.514C79.7895 118.488 82.3351 108.978 76.9558 104.701C69.951 99.1341 63.2108 109.837 60.0714 114.869C59.554 115.698 58.6751 117.997 58.1519 118.47C57.8286 118.764 57.6581 118.679 57.2554 118.667C57.2407 113.352 58.5223 107.75 62.0996 103.676C71.3443 93.1463 83.5785 103.781 82.535 115.14" fill="white"/>
		<path d="M151.316 81.6442C151.066 80.0275 151.222 77.9639 150.393 76.5442C149.993 75.8593 149.058 75.5712 149.261 74.5923C150.849 74.804 153.291 75.2919 154.449 76.453C156.375 78.3813 155.755 84.375 156.022 87.0734C156.169 88.5461 156.766 90.1011 156.895 91.4914C156.945 92.0206 157.154 92.582 156.475 92.5026C155.857 92.4291 153.288 91.706 152.933 91.3386C152.477 90.8683 151.481 87.2909 150.978 86.2415C148.615 81.312 143.438 76.3531 137.591 78.6518C131.38 81.0915 133.688 91.7913 134.875 96.7561C135.266 98.3846 136.213 99.8984 136.028 101.624C135.39 102.279 132.994 98.8078 132.556 98.1905C120.498 81.168 137.274 67.4053 151.313 81.6442" fill="white"/>
		<path d="M178.071 116.903C178.465 116.521 183.497 119.102 184.464 119.472C189.226 121.295 197.031 124.126 200.858 119.258C206.023 112.688 196.816 103.887 190.761 101.868L190.42 97.5086C190.587 97.3234 193.351 98.7314 193.877 98.896C196.384 99.6867 203.991 100.53 205.417 102.053C206.707 103.435 207.022 106.277 206.878 108.082C205.711 107.906 205.197 106.465 204.15 105.963C203.718 105.754 200.635 104.978 200.414 105.148C204.906 110.319 206.22 120.031 200.417 124.687C194.914 129.102 186.945 126.104 182.183 122.044C181.575 121.527 177.407 117.544 178.074 116.9" fill="white"/>
		<path d="M111.93 55.0506L112.662 54.6097C114.834 58.7749 116.339 63.5957 119.284 67.3847C126.483 76.6441 134.99 70.2654 134.264 60.0477C134.114 57.9401 132.112 53.1605 132.212 52.1229C132.274 51.4938 134.384 48.5367 135.131 49.0393C135.496 53.0106 142.415 58.769 142.524 62.0965C142.583 63.9249 141.131 66.9614 139.267 67.5346C139.628 65.0713 138.585 62.5639 136.624 61.0707C137.033 72.0026 123.826 81.2444 115.757 70.9062C114.049 68.7192 111.93 63.6692 111.93 60.9237V55.0476V55.0506Z" fill="white"/>
		<path d="M101.642 22.878C103.646 21.3347 104.728 19.1889 105.025 16.7051C106.824 17.8221 107.929 20.8262 107.382 22.8868C106.853 24.8739 101.597 29.63 100.045 31.7111C99.6721 32.2108 98.4463 35.0592 97.8261 34.6271C97.5615 33.419 95.9771 32.2402 96.0594 30.9792C96.1035 30.2943 97.7408 27.3607 98.12 26.2613C99.6515 21.7874 100.219 15.4176 96.0301 12.1782C91.0947 8.3628 85.8536 12.9954 82.8788 16.902C81.1504 19.1713 78.74 24.4271 77.2379 25.9556C76.9587 26.2407 76.8529 26.5112 76.362 26.3995C75.9622 17.7633 81.5178 5.23518 91.953 7.13997C96.1829 7.91305 101.639 14.3887 101.639 18.6128V22.8721L101.642 22.878Z" fill="white"/>
		<path d="M70.4859 39.3303C72.3583 38.6454 73.9721 38.2368 75.3213 36.6701C75.8416 36.0675 75.4595 35.2327 76.6529 35.509C78.5577 43.4544 71.6029 43.425 66.3706 45.6532C65.6357 45.9677 62.0025 48.2134 61.6645 47.8519C61.7997 46.6908 61.1266 44.5303 61.7321 43.5132C61.8526 43.3104 65.0008 41.3468 65.621 40.7912C69.6952 37.1551 73.8898 29.4654 68.8692 24.9268C63.1783 19.7769 52.2317 27.5342 47.1082 30.8029C46.5849 30.4237 46.6026 30.1973 46.7966 29.6183C47.0641 28.807 50.7149 24.2214 51.5056 23.4512C61.8085 13.4393 76.1914 19.6299 72.6317 34.2832C72.1643 36.2086 71.3119 37.5843 70.483 39.3303" fill="white"/>
		<path d="M158.441 -8.04542L157.192 -11.9402C157.18 -12.3106 162.374 -11.2524 162.933 -11.2112C167.689 -10.8703 172.948 -12.9955 174.894 -7.29879C175.023 -6.9196 175.714 -4.73556 174.982 -4.75025C173.2 -6.56392 170.796 -6.77556 168.368 -6.79908L171.299 -3.70968C175.867 2.07523 176.272 12.3282 168.362 15.3793C161.669 17.9573 153.391 14.3917 148.676 9.50625C148.991 9.06827 149.158 9.05062 149.673 9.07708C150.522 9.12411 152.304 9.89426 153.362 10.103C158.553 11.123 171.078 13.4922 172.16 5.65847C173.247 -2.23405 164.861 -6.41694 158.438 -8.04836" fill="white"/>
		<path d="M235.973 88.693C239.312 81.4266 248.974 76.2237 255.532 83.105C259.036 86.7823 260.286 91.7941 259.783 96.7707C259.718 97.4086 259.527 99.3457 258.604 98.8401C255.917 94.1634 254.845 88.5784 250.385 85.0186C243.619 79.6159 238.266 86.8411 237.184 93.2815C236.999 94.3897 237.363 95.3774 236.922 96.5473C236.802 96.8677 234.603 99.9248 234.347 100.142C233.977 100.46 233.854 100.53 233.333 100.448L233.839 92.9905C233.771 92.3674 231.246 89.4455 230.385 90.004C229.653 90.4596 229.733 92.7201 229.809 93.5431C229.9 94.5249 231.279 97.4791 230.215 97.7907C228.598 97.5379 226.705 95.9447 226.396 94.2868C225.844 91.3297 230.32 86.6589 233.413 87.2938C234.5 87.5172 235.053 88.5489 235.976 88.6959" fill="white"/>
		<path d="M50.7855 33.7482C51.7702 25.9938 66.9791 31.0292 60.3359 37.8605C59.8067 37.9781 59.7568 37.4461 59.6157 37.1168C58.7515 35.1268 57.902 31.6171 55.2211 31.7141C54.8978 33.1691 54.1865 34.7564 54.939 36.2085C55.4828 37.2579 59.6363 40.556 59.598 41.5349C59.5539 42.6578 54.4245 40.8412 53.9366 40.5178C53.4839 40.218 52.5462 38.5513 51.8084 37.8694C47.5726 33.9628 39.4332 31.5906 37.0522 38.6748C35.2444 44.0511 37.3726 49.8389 38.7218 55.0742L38.2632 55.7679C37.1756 56.0736 34.3273 52.2082 33.7276 51.2352C31.7582 48.0341 31.3114 44.3715 31.6818 40.653C32.5842 31.5612 44.0805 30.4148 50.7825 33.7453" fill="white"/>
		<path d="M34.9181 79.8805C35.797 78.9839 39.7977 84.0839 40.6854 84.5425C42.1639 85.3038 43.7072 84.6748 45.1798 84.2632C46.0734 81.9322 39.0246 79.7305 39.0363 79.1456C39.9887 77.814 42.3609 77.4025 43.8541 77.8375C47.6461 78.9457 48.575 89.131 42.8518 88.696C45.6825 95.157 44.8565 105.601 36.6965 107.371C30.7558 108.661 25.3589 106.424 21.2348 102.223C20.3265 101.298 19.4946 99.9954 21.5082 100.166C23.9479 100.372 27.8163 102.388 30.7352 102.717C39.6272 103.726 45.2945 99.4163 40.653 90.4538C39.4214 88.0728 36.8817 86.556 36.1468 85.2597C35.8999 84.8247 34.7241 80.0774 34.9181 79.8805Z" fill="white"/>
		<path d="M152.28 37.3519C152.456 37.1756 156.539 35.309 156.822 35.2678C157.348 35.1885 157.468 35.2443 157.786 35.6647C156.29 39.3596 151.769 41.4643 154.702 45.8L155.023 46.0675C156.328 46.385 157.839 42.2903 158.171 41.332C158.432 40.5824 158.209 38.76 159.555 39.4684C160.343 39.8858 161.057 42.4049 161.028 43.2868C160.919 46.8906 153.809 49.1452 151.301 46.8377C150.525 46.1234 150.425 45.0534 149.699 44.3303C143.567 48.96 132.436 48.5837 130.237 39.9769C128.717 34.0215 130.181 28.4512 134.461 24.0919L135.305 24.333C135.175 28.8274 133.77 33.075 134.64 37.6312C136.477 47.2815 144.673 46.8024 150.29 40.506C151.054 39.6506 151.854 37.7723 152.277 37.349" fill="white"/>
		<path d="M6.50809 66.2588C12.0373 71.5793 18.2866 65.2476 20.3589 59.8919C20.6588 59.1129 20.6588 57.7755 20.9645 57.264C21.1232 56.9994 24.7858 54.0188 25.068 54.0129L25.7647 54.4538C24.924 58.2869 22.0668 61.3411 25.506 64.7567H26.3966C27.9369 63.9425 27.6224 58.8425 27.5695 57.2552C28.8893 57.0465 30.7882 59.2952 31.0352 60.4034C32.0258 64.8626 23.4072 69.9508 20.6617 64.9008C15.1884 71.3882 4.38872 74.1807 -0.117516 65.0977C-2.42501 60.4504 -2.59256 56.2734 -0.731868 51.4438C-0.267429 50.2357 0.58796 48.8042 1.21407 50.8383C2.81609 56.0323 1.946 61.8702 6.51102 66.2588" fill="white"/>
		<path d="M142.503 115.14C142.971 114.628 144.523 117.018 144.778 117.203C146.301 118.317 148.132 117.717 149.537 116.736C151.11 115.639 157.042 107.626 157.944 105.748C159.144 103.249 158.853 102.729 155.899 103.117C153.929 103.376 150.269 105.763 149.144 105.724C148.47 105.701 146.269 104.522 145.895 103.958C144.746 102.212 145.801 96.7619 146.222 94.619C146.38 93.8018 147.806 87.8053 148.232 87.817C148.7 88.6577 149.981 89.9629 150.278 90.7624C150.754 92.047 149.099 96.0417 148.697 97.679C148.344 99.1164 147.933 100.56 147.8 102.041L148.391 102.379C152.947 98.7901 162.915 100.251 161.231 107.564C160.475 110.851 154.358 119.19 151.228 120.486C147.095 122.197 143.465 118.981 142.5 115.14" fill="white"/>
		<path d="M97.8202 70.477C94.8925 69.1013 92.7908 68.4517 91.0006 71.741C89.8189 73.9133 88.0023 82.4172 87.8348 85.0245C87.7878 85.7506 87.6173 87.8758 88.8048 87.7641C91.5797 86.6177 93.5492 84.0163 95.4686 81.7852C99.5281 80.9063 100.677 82.5318 101.856 85.9857C102.35 87.429 104.531 96.7825 103.993 97.5085L100.231 94.957C100.284 93.5343 99.2224 84.5219 98.2611 84.2896C96.9854 85.2332 96.1359 86.6853 94.8602 87.6407C93.8049 88.4314 92.5497 89.131 91.2122 89.2838C82.188 90.3126 83.5872 82.0145 85.0276 76.0503C86.1446 71.4235 87.6907 66.3206 93.5433 67.2641C94.3046 67.3876 98.6433 69.5922 97.8231 70.477" fill="white"/>
		<path d="M201.69 -7.57517C204.668 -10.4853 209.856 -8.17777 211.708 -5.01782C212.645 -3.41874 212.763 -1.49632 213.783 -0.0471497C214.4 -0.7879 215.062 -1.52571 215.644 -2.29585C216.628 -3.59805 219.236 -8.63339 219.938 -9.16838C220.397 -9.51818 224.265 -10.2119 224.512 -10.0296C222.854 -7.50463 217.134 1.77239 214.356 2.29268C209.75 3.15395 209.982 -0.349917 208.78 -3.27177C208.283 -4.47989 206.74 -8.37178 205.094 -6.66981C204.274 -5.8203 202.528 2.62191 202.263 4.30917C201.555 8.85068 201.508 13.0718 207.463 12.0047L207.29 12.913C203.627 14.3122 198.459 13.4186 197.78 8.90064C197.237 5.27626 199.003 -4.95315 201.69 -7.57517Z" fill="white"/>
		<path d="M275.662 12.5868C278.205 13.4305 279.613 16.2024 279.48 18.7656C286.77 18.7921 284.569 26.8492 279.189 28.1661V24.6446L281.244 24.3448C281.509 21.5758 276.738 23.6687 276.544 23.4659C277.396 19.1713 274.345 14.8973 269.783 16.414C269.804 15.6498 269.657 13.1336 270.142 12.6603C270.512 12.2988 273.184 12.043 274.178 11.2582C275.171 10.4733 276.514 8.06884 276.347 6.76371C275.935 3.53616 268.357 -3.79198 265.368 -0.191112C264.242 1.16399 264.427 3.10405 263.316 4.36509C262.481 1.73425 264.474 -3.23936 266.929 -4.50627C271.635 -6.94017 278.067 -0.887765 278.566 3.66256C278.957 7.23403 277.279 9.64735 275.662 12.5868Z" fill="white"/>
		<path d="M189.826 69.0102C188.062 73.2724 186.837 76.3648 192.695 77.1614C195.176 77.4965 200.655 77.2584 201.796 74.6658C203.263 71.3294 202.104 69.895 200.411 67.1025L202.178 64.3129C203.477 64.4069 203.598 66.1501 204.803 66.5293C206.017 66.9114 208.865 66.7909 209.965 66.0736C210.567 65.6827 212.349 63.1342 212.751 63.4281C212.866 65.0272 215.223 67.8285 216.287 65.9296C214.635 63.8837 216.123 63.3634 217.31 61.6703C220.741 66.4264 216.964 73.5899 211.146 68.9984C209.644 71.2971 206.74 71.7527 204.233 71.0678C203.874 74.8656 202.619 78.8193 198.95 80.63C194.568 82.7905 185.973 81.9968 186.287 75.6152C186.384 73.6193 187.739 69.7421 189.826 69.0131" fill="white"/>
		<path d="M219.812 71.9468C221.769 72.3466 223.239 73.2843 225.317 72.6023C227.737 71.8087 228.648 69.8451 229.065 67.5405L232.011 69.0044C231.922 71.7999 232.381 75.9034 235.673 76.8029C238.272 77.5113 245.347 73.881 246.132 71.3766C247.296 67.6669 243.792 67.4964 242.581 65.7857C241.758 64.6246 244.095 65.5799 244.403 65.7269C251.799 69.2572 250.756 76.4795 243.478 79.3014C238.01 81.4208 234.101 78.8399 230.791 74.6129C228.571 76.2355 226.373 77.1879 223.615 76.1944C221.014 82.8023 214.935 78.7165 214.521 73.2755L215.126 72.9463C215.708 73.346 217.519 73.6076 217.713 74.1926C217.945 74.8981 217.325 76.2473 218.48 76.356C220.085 75.239 219.859 73.6929 219.812 71.9527" fill="white"/>
		<path d="M159.255 62.2465C157.474 60.5474 154.784 59.4245 153.823 56.9583C151.866 51.9524 157.033 49.93 161.093 51.7496C164.702 53.3692 168.741 61.9114 168.941 65.668C169.026 67.2906 167.465 71.0796 165.455 70.7474C164.67 68.922 164.773 64.6216 162.362 64.2923C158.515 63.7691 150.922 67.4288 147.597 69.5364L144.288 68.099C144.026 67.7168 146.313 64.9596 146.504 64.9126C146.801 64.842 147.45 65.3946 147.962 65.4681C150.719 65.8679 156.21 62.558 159.261 62.2435M158.091 53.4339C155.954 57.6697 160.293 60.5445 163.374 62.5433C163.744 62.0466 162.086 58.284 161.725 57.5844C161.413 56.9877 158.838 52.8577 158.091 53.4339Z" fill="white"/>
		<path d="M7.86024 19.6327C7.8573 16.9196 10.1383 15.0618 12.5546 14.3328C11.9579 12.1341 10.8997 10.1705 10.9261 7.79539C11.0143 -0.7056 25.1268 -6.55518 26.6083 3.70951C26.7964 5.00288 26.9669 7.38387 26.2379 8.47736L25.1768 3.9623C23.0045 -0.511597 13.7598 5.71717 13.0073 8.47147C12.4752 10.4145 13.6275 13.0483 15.2384 14.1917C15.838 14.6179 18.0044 15.3175 18.1367 15.7202L17.8633 19.0595C15.2972 18.4745 13.9538 18.066 11.7139 19.815C9.94434 21.1936 10.0237 22.8926 9.63276 24.9355C7.91022 24.2977 6.95782 23.1395 4.93252 24.0596C4.4475 25.4264 6.63154 25.3706 6.71679 25.6969L6.39933 29.0479C1.04065 26.8609 0.299886 18.5128 7.86024 19.6327Z" fill="white"/>
		<path d="M127.212 -4.4504C127.636 -2.99241 127.012 -1.89598 127.347 -0.320415C128.367 4.4974 134.925 1.6167 137.597 -0.0970211C142.621 -3.31576 140.534 -7.79847 136.181 -10.3117L136.924 -13.554C138.003 -13.6128 138.623 -12.7603 139.708 -12.6633C143.059 -12.3664 145.281 -15.1942 145.737 -18.2601C147.545 -17.778 148.18 -15.8615 150.437 -16.7933C150.81 -17.9691 149.194 -18.1425 148.997 -18.751L149.555 -21.7845C154.688 -19.3947 153.92 -10.3323 146.916 -12.972C146.489 -10.3323 143.967 -8.33052 141.322 -8.26879C142.327 -4.52976 142.962 -0.875986 140.434 2.44563C137.98 5.67025 131.804 8.03653 128.241 5.54091C125.798 3.83013 125.184 -2.2546 127.209 -4.4504" fill="white"/>
		<path d="M265.371 95.1599C265.865 95.7478 263.634 100.045 266.761 101.556C269.724 102.985 278.34 99.9571 278.587 96.1534C278.778 93.2022 277.035 91.4238 274.76 89.957L275.662 86.3444C277.902 87.6319 278.258 88.1874 280.856 87.2821C283.505 86.3591 283.943 84.7512 284.772 82.232C285.618 82.6435 286.194 83.8723 287.103 84.1574C287.743 84.3573 289.96 84.5248 289.334 83.399L287.799 82.0939L288.887 79.0015C293.434 82.1615 292.649 90.6948 285.792 87.8464C284.478 90.6213 282.599 92.0234 279.475 92.2263C281.288 98.2581 279.536 103.517 273.384 105.674C266.391 108.123 262.819 104.164 264.028 97.2028C264.151 96.4944 264.404 95.1011 265.365 95.1628" fill="white"/>
		<path d="M88.7019 -0.632108C89.0781 1.43141 91.0476 2.38968 92.8848 2.97758C99.1899 4.98525 92.6996 -1.78732 92.5996 -3.7656C92.5291 -5.19125 96.0329 -7.17834 97.2822 -7.47817C101.774 -8.5599 110.645 -2.96311 111.941 1.56075C113.743 7.84538 106.356 11.6432 101.054 11.4169C100.904 10.585 101.251 10.9348 101.697 10.7555C104.846 9.50618 108.664 9.10348 108.079 4.53846C107.656 1.23741 101.118 -4.80029 97.8584 -5.17067C97.4468 -5.2177 97.0529 -5.02369 96.6414 -5.03545C97.4704 -2.27234 101.771 2.00167 97.9201 4.32093C95.4362 5.81712 87.5261 5.65546 85.6066 3.20393C83.5901 0.631876 86.8441 0.093945 88.7019 -0.632108Z" fill="white"/>
		<path d="M204.717 28.948C207.351 26.4113 205.505 22.4635 203.692 20.1325L205.402 17.4341C205.655 17.2489 207.125 18.9244 207.754 19.2066C209.241 19.8709 211.79 19.7386 213.124 18.7715C213.477 18.5158 215.426 15.6439 215.688 15.8232C216.405 17.5781 217.319 19.1831 219.512 18.7598C219.818 17.8691 218.395 17.2077 218.433 16.561C218.448 16.3318 220.264 13.745 220.685 14.0625C223.271 18.9538 220.585 25.9057 214.662 21.4112C213.195 24.0332 210.526 24.1978 207.786 24.0832C207.372 28.5777 206.108 33.0163 201.355 34.5478C195.881 36.3085 189.071 34.874 190.191 27.7958C190.34 26.8463 191.931 22.6428 192.912 22.5899C193.465 22.5605 193.168 23.1249 193.109 23.3601C192.648 25.2884 190.967 26.7728 192.404 28.9657C194.129 31.5994 202.677 30.9116 204.717 28.9451" fill="white"/>
		<path d="M31.2409 125.131C36.3468 124.223 32.2227 114.86 29.7271 112.832C27.7018 111.186 24.4889 111.983 22.8545 113.808C22.1197 114.631 21.8933 115.713 20.9145 116.248L17.5723 115.431C18.8186 113.367 19.1449 112.321 18.122 110.037C16.9256 107.368 15.4588 107.726 13.1631 106.468C14.0332 105.037 15.2031 104.105 14.4947 102.203C13.9009 101.271 12.8544 103.029 12.8515 103.676L9.63568 102.797C10.6322 99.819 16.4494 98.0964 18.2925 101.051C19.1567 102.438 18.6452 103.949 18.5717 105.454C21.3084 106.215 22.7605 108.273 23.1661 111.015C28.1486 109.754 33.034 109.666 36.0352 114.458C39.1952 119.505 39.0717 125.936 31.8376 126.318C30.3796 126.395 27.8311 126.551 26.9728 125.131C28.272 124.972 30.0063 125.348 31.235 125.131" fill="white"/>
		<path d="M34.9182 9.9472C35.4002 10.3822 37.6695 6.70789 38.1369 6.26403C42.9988 1.6461 48.2958 6.04356 45.7149 11.7814C43.913 15.788 34.2862 20.4441 30.1297 19.577C29.3214 19.4094 25.7999 17.5634 26.6553 16.5493C27.6488 15.3706 32.6371 15.9144 33.1427 13.3217C33.6454 10.7497 30.7206 3.64495 29.4831 1.12875C29.1627 0.476182 28.0104 -0.961226 27.9104 -1.43448C27.784 -2.03414 29.3949 -5.03242 29.7711 -5.02948L32.5225 -2.54267C30.8029 0.0352583 32.9311 2.98356 33.8188 5.6144C34.2862 7.00183 34.6565 8.50979 34.9182 9.95308M43.7072 8.80374C40.659 7.63089 38.5396 9.41222 36.6877 11.5786C36.4202 11.8931 34.6801 14.133 34.9182 14.3594C37.0258 13.942 39.2422 12.9749 41.0676 11.8402C41.7819 11.3934 44.4509 9.90311 43.7102 8.80374" fill="white"/>
		<path d="M252.514 64.9744C253.457 64.0778 255.518 65.1478 256.42 65.7739C256.261 67.7639 256.2 68.6634 256.917 70.5535C257.214 71.3325 258.772 74.2984 259.818 72.9404C261.15 71.212 260.327 65.7915 263.422 65.7974C267.393 65.8062 269.492 67.7551 271.009 71.159C273.957 77.7788 274.51 88.1493 264.377 86.897C262.678 86.6883 258.501 84.8335 257.578 83.4079C257.323 83.014 257.32 82.6642 257.872 82.82C259.683 83.3314 261.07 85.004 263.51 85.0569C269.533 85.1863 268.834 75.436 267.711 71.5206C267.531 70.8945 266.476 67.6522 265.383 68.4224C264.28 71.8528 264.324 77.3467 259.042 75.486C257.284 74.8657 253.584 71.1297 252.725 69.46C252.111 68.2637 251.394 66.0385 252.517 64.9744" fill="white"/>
		<path d="M244.195 120.125C241.455 119.843 240.018 115.86 236.932 117.124C234.73 118.026 229.324 127.615 228.854 130.348L225.097 131.007L225.127 127.215L227.578 126.286L233.328 117.197C228.042 119.193 219.203 114.287 225.841 109.269C229.791 106.283 235.456 108.911 239.183 111.198C242.605 113.296 245.497 115.619 244.195 120.125ZM236.858 115.134C234.665 112.738 231.082 111.465 227.931 110.795L227.205 111.506C228.431 115.772 233.337 115.404 236.858 115.134Z" fill="white"/>
		<path d="M66.0767 68.4223C67.3171 68.39 66.8586 69.8979 67.0879 70.7886C68.7487 77.2761 71.8822 77.5759 77.1644 74.0691C79.5924 72.4582 83.158 69.1072 83.1228 66.0707C80.4273 66.2589 77.6818 69.2601 75.0392 67.5405C72.3231 65.7709 73.2961 59.4481 74.2925 56.7996C75.8475 52.6637 79.469 52.3992 79.6218 57.3581C76.9939 58.381 74.9539 61.1383 75.1862 64.0131C77.6436 64.6363 80.7183 61.3235 82.9229 62.0113C83.8782 62.3082 85.395 65.7768 85.4802 66.8056C85.8976 71.7704 79.1809 79.9892 74.1603 80.4683C68.1696 81.0386 65.5564 73.3107 66.0767 68.4223Z" fill="white"/>
		<path d="M194.238 6.71376C198.53 -4.85018 187.83 -4.84136 180.62 -0.285159C174.661 3.48326 181.484 2.30159 183.777 2.62493C190.911 3.63024 183.618 15.7909 179.65 16.1054C176.948 16.32 177.639 13.7803 177.901 11.9813C178.197 11.5492 179.726 11.755 180.431 11.5698C181.737 11.2288 184.902 8.68027 184.553 7.19583C184.288 6.06413 177.812 7.4545 176.678 6.04649C176.155 5.39686 176.172 1.13755 176.44 0.235127C177.116 -2.04003 182.307 -5.48511 184.473 -6.42575C192.954 -10.103 198.356 -5.4028 196.149 3.48032C196.078 3.76839 194.917 7.47508 194.238 6.70787" fill="white"/>
		<path d="M183.356 78.1168C182.116 78.1433 182.574 76.6412 182.351 75.7446C181.969 74.2014 180.34 73.4166 178.832 73.446C176.457 73.4901 164.185 78.5754 161.925 80.051C160.558 80.9417 158.13 82.8553 160.575 83.9928C163.997 78.3373 166.895 82.1703 166.313 87.3732C165.664 93.1728 160.246 87.7113 158.812 85.1745C156.886 81.7706 156.772 79.1897 159.843 76.5001C162.601 74.0838 174.952 69.0044 178.477 69.3336C183.033 69.7599 184.094 74.319 183.359 78.1197M164.547 84.2927C162.507 84.2045 162.01 86.2415 164.261 86.2092L164.547 84.2927Z" fill="white"/>
		<path d="M70.7798 69.0073C70.2919 65.621 69.9685 64.3276 66.2236 64.6069C63.922 64.7773 51.6379 69.795 49.6302 71.2295C49.0864 71.6175 47.6784 73.0167 47.5902 73.6281L48.5808 75.1714C49.4979 72.2642 53.381 70.7298 54.1835 74.5747C54.4863 76.0179 54.7361 80.8622 52.6843 81.0621C48.5985 80.1538 43.8159 73.4312 46.1263 69.4923C48.0723 66.1707 56.7791 62.7785 60.4887 61.5175C65.574 59.792 71.1414 59.4481 71.6499 66.2177C71.7175 67.1054 72.0115 69.0631 70.7769 69.0043M52.5432 77.229C52.8607 76.4177 52.8431 75.7799 52.1112 75.189C50.224 76.0826 50.4944 77.085 52.5432 77.229Z" fill="white"/>
		<path d="M143.823 18.4688C143.285 18.3835 141.51 17.5223 141.048 17.1284C137.339 13.9655 140.837 6.56973 142.356 2.89831C144.955 -3.36573 148.2 -11.3494 156.295 -5.45864C159.267 -3.29518 162.695 1.1405 156.472 1.43739C151.486 1.67255 148.77 -1.62555 153.961 -4.15939C152.924 -6.91957 150.981 -4.4357 150.017 -2.95714C148.717 -0.958291 143.92 10.3146 143.673 12.4428C143.435 14.4887 143.341 16.5816 145.566 17.3106C146.522 17.6222 148.103 17.2989 148.082 18.4688C146.757 18.3247 145.09 18.6657 143.82 18.4688M154.255 -0.784861C154.758 -0.114658 155.813 -0.114658 156.316 -0.784861L155.287 -2.38982L154.258 -0.784861H154.255Z" fill="white"/>
		<path d="M264.492 51.0824C264.448 50.0565 265.759 49.7655 266.259 49.1805C267.143 48.1458 267.023 46.6114 266.45 45.4532C265.394 43.3162 258.833 39.0481 256.529 37.74C255.779 37.3138 253.719 35.9999 253.004 36.5201L252.775 36.8788C251.729 39.4978 255.394 43.4162 255.394 45.3562C255.394 46.0441 254.474 47.8754 253.904 48.2899C251.241 50.224 241.873 47.6196 238.625 46.826L241.996 44.348L251.993 46.6761L252.314 46.0794C248.945 41.7083 249.624 32.8458 256.676 33.7747C260.147 34.2332 269.257 40.5267 269.754 44.204C270.215 47.6196 267.667 50.4563 264.492 51.0824Z" fill="white"/>
		<path d="M107.52 27.8721C107.897 28.2543 105.91 30.359 105.645 30.844C101.747 38.0222 111.574 39.0981 116.462 38.4249C118.964 38.081 121.624 36.2614 120.454 33.4572C115.348 35.7941 112.538 31.476 116.057 27.1461C121.677 20.2295 123.532 31.4289 121.862 36.1821C117.8 47.7578 96.0594 43.4485 103.87 31.1262C104.193 30.6176 106.944 27.2901 107.523 27.8751M116.656 29.7534C116.862 30.4413 118.829 30.9322 119.281 30.0709C119.275 28.1367 116.198 28.219 116.656 29.7534Z" fill="white"/>
		<path d="M54.0277 87.8141C54.4481 87.3849 54.5598 87.8435 54.6127 88.2491C54.8684 90.2451 54.2658 91.6031 55.377 93.6607C58.193 98.8754 67.7786 92.3174 69.2778 88.5196C69.7775 87.2556 69.7069 85.1421 68.2754 84.5836C67.7463 84.3778 67.6258 85.4948 67.2554 85.9093C66.2325 87.0557 64.5334 87.4996 63.049 87.1615C59.551 86.3649 59.5099 74.5159 66.0502 79.1691C72.4054 83.6929 73.2108 92.2733 66.8086 97.2146C58.2224 103.843 51.2528 97.2822 54.0277 87.8141ZM62.8903 81.9851L62.3347 83.2608L63.0314 83.9428C63.4429 84.0251 65.0244 83.0609 65.1919 82.6641C65.4829 81.9675 63.2607 81.747 62.8903 81.9822" fill="white"/>
		<path d="M113.4 71.062C112.838 71.5852 107.668 67.5993 105.043 71.0825C103.023 73.7604 104.149 78.9751 105.413 81.8411C106.539 84.3926 108.496 87.0675 111.339 84.7276C109.243 83.5371 109.367 79.0309 111.847 78.4724C115.781 77.5876 122.709 81.259 117.133 84.9305C111.548 88.6078 103.576 87.3555 100.704 80.9622C96.8679 72.4229 101.833 64.2835 111.307 69.1895C111.586 69.3336 113.937 70.5593 113.4 71.059M113.714 80.1891C112.912 80.7505 114.137 84.4513 115.313 81.9263C115.904 80.6535 114.375 79.7276 113.714 80.1891Z" fill="white"/>
		<path d="M182.768 114.258C182.313 114.719 182.251 114.214 182.192 113.814C182.016 112.626 182.239 110.936 181.16 110.139C179.4 108.84 174.658 109.778 172.621 110.431C169.514 111.424 161.331 115.604 159.532 118.217C158.7 119.425 161.281 120.034 161.551 120.924L161.604 124.54C157.777 123.026 156.436 116.909 159.247 113.811C162.698 110.004 173.027 104.531 178.171 104.875C183.045 105.201 184.17 110.348 182.765 114.261" fill="white"/>
		<path d="M109.284 61.3705C106.621 60.8032 105.107 56.6732 105.16 54.1835C105.225 51.0588 110.189 47.3933 112.659 45.7854C116.163 43.5043 125.157 38.7424 128.699 42.402C130.246 43.9982 131.08 48.1017 129.866 50.0564C129.279 50.2593 129.317 49.5126 129.27 49.1775C129.07 47.7401 129.473 46.6731 127.806 45.9411C123.608 44.0981 115.384 48.7043 111.841 51.1352C110.998 51.7143 107.485 54.3157 107.15 54.9771C106.265 56.7261 108.958 56.9319 109.24 57.7402C109.39 58.1694 109.519 61.1354 109.287 61.3676" fill="white"/>
		<path d="M101.042 41.1115C100.295 40.6647 98.4875 40.6794 97.9643 40.215C97.6292 39.9181 96.4034 36.9169 96.6474 36.6876C99.7691 36.6729 103.446 40.847 103.385 43.8541C103.291 48.4514 94.2635 58.9513 90.0894 60.8384C86.1917 62.5992 82.9494 61.2676 81.5884 57.1758C81.4326 56.7055 80.8506 53.8806 81.656 54.4597C83.2492 57.702 83.602 58.5221 87.2352 57.1053C90.5509 55.8119 93.8373 52.4785 96.0478 49.7536C96.9296 48.666 101.756 42.0904 101.042 41.1115Z" fill="white"/>
		<path d="M213.93 77.8199C209.724 78.2667 205.987 78.0051 207.481 83.5342C208.016 85.5184 211.052 89.4367 213.219 89.572C214.915 89.6778 222.34 84.0487 223.93 82.6759C224.724 81.9881 227.208 79.0692 227.754 78.8458C228.192 78.6635 231.532 79.3102 231.561 79.7335L230.082 83.1051C229.43 83.1404 228.839 82.7817 228.181 82.7876C225.976 82.8082 217.854 90.5743 213.871 91.7207C204.823 94.328 198.157 80.2361 207.519 77.4348C209.318 76.8969 212.431 76.4942 213.93 77.817" fill="white"/>
		<path d="M220.409 1.73128C221.299 1.74304 222.222 1.45203 222.872 0.817103C224.468 -0.743764 227.24 -7.66038 228.915 -10.1854C231.564 -14.1802 234.145 -16.0732 239.145 -14.5211C247.655 -11.8844 247.049 -3.06008 238.678 -0.42336C238.281 -0.296963 237.364 0.123378 237.152 -0.485096C238.51 -1.30815 241.761 -3.02481 242.099 -4.66798C242.86 -8.39231 234.518 -13.2542 231.855 -10.7762C230.341 -9.36528 226.873 -2.41634 225.929 -0.244056C225.453 0.852372 224.788 3.88593 224.236 4.52673C223.96 4.84714 221.091 5.83187 220.829 5.79659C220.062 5.69077 220.691 4.42973 220.664 3.95353C220.623 3.26569 220.197 2.50142 220.409 1.72834" fill="white"/>
		<path d="M245.973 108.085C246.388 107.57 246.493 108.135 246.552 108.529C246.811 110.269 246.646 112.3 247.778 113.773C250.282 117.024 257.787 111.953 258.269 108.752C258.569 106.75 249.997 95.6126 247.572 94.2751C247.443 94.0664 247.878 91.3474 248.025 90.8888C248.134 90.5508 247.813 90.3744 248.469 90.4567C249.501 90.586 250.723 91.8059 251.849 91.9411C251.782 92.4849 251.532 92.9758 251.532 93.5432C251.532 95.8418 258.334 103.238 259.739 106.23C261.638 110.281 261.012 113.649 257.578 116.598C250.262 122.882 244.115 116.077 245.979 108.085" fill="white"/>
		<path d="M182.104 25.1472L183.25 22.9161L186.887 22.8779L185.54 26.6728C182.965 27.4283 180.411 28.2866 177.962 29.383C176.543 30.0179 170.179 33.2426 169.602 34.2449C167.874 37.2608 172.883 46.0528 176.572 43.86C178.045 42.984 178.665 41.3026 179.588 40.1151C179.791 39.8535 180.079 39.2714 180.423 39.7741C178.662 48.3986 168.538 50.4003 166.031 40.9293C163.353 30.8028 175.784 29.2037 182.101 25.1472" fill="white"/>
		<path d="M270.659 33.1661L270.515 33.7511C268.137 33.8863 265.932 32.8251 263.663 32.3725C259.624 31.57 252.317 31.1555 249.504 28.0161C248.986 27.4371 248.725 26.3553 248.416 26.0908C247.793 25.5528 246.264 25.2912 245.382 24.4094C241.879 20.8996 244.959 17.531 248.904 16.8314C250.385 16.5698 253.772 18.0807 253.913 19.5034C254.083 21.2024 250.594 25.9232 252.863 27.8868C253.945 28.8216 258.466 29.0508 260.142 29.4271C263.804 30.2443 267.39 31.3084 270.662 33.1661M249.795 20.8232C248.825 20.7585 247.952 21.3994 247.487 22.2077C247.255 23.0543 247.875 23.8303 248.478 24.3418L249.798 20.8203L249.795 20.8232Z" fill="white"/>
		<path d="M167.78 83.1139C170.811 82.5143 173.956 82.9493 177.036 82.8141C181.296 82.626 185.664 81.1886 189.629 83.7489C190.27 84.1604 190.729 84.9541 191.372 85.2392C192.68 85.8153 193.815 85.5625 195.261 86.6413C198.944 89.3868 195.673 93.5873 192.384 94.6426C191.349 94.9748 188.101 94.09 187.619 93.1082C186.722 91.274 189.873 84.2515 184.679 84.2662C181.225 84.2751 177.868 85.1334 174.1 84.8747C172.236 84.7454 169.129 84.4661 167.777 83.1169M191.293 86.9353L191.437 90.7537C193.501 89.6014 193.671 87.7525 191.293 86.9353Z" fill="white"/>
		<path d="M262.602 115.604C265.582 113.053 269.527 108.302 273.79 108.102C274.442 108.073 274.971 108.402 275.5 108.373C276.212 108.335 277.282 107.441 278.231 107.276C283.566 106.356 284.733 109.866 282.864 114.258C281.917 116.48 279.398 116.853 277.179 116.856C276.647 115.051 273.778 110.627 271.738 110.813C270.556 110.921 265.732 115.813 264.339 116.894C262.011 118.705 258.91 121.039 255.97 121.307C257.734 118.923 260.391 117.5 262.608 115.604M276.844 109.558L278.66 111.997L279.486 112.491C279.724 110.131 279.375 109.225 276.844 109.555" fill="white"/>
		<path d="M145.049 82.3291C146.51 83.79 146.137 86.5208 145.696 88.3609C143.788 88.5255 138.25 89.7954 138.103 92.0911C138.021 93.3698 141.698 100.604 142.356 102.8C142.974 104.869 143.961 107.838 143.241 109.849C141.501 107.764 141.057 104.731 140.002 102.215C138.032 97.5115 135.046 93.8372 136.477 88.4021C137.071 86.1475 136.704 87.1498 136.686 85.0217C136.674 83.546 137.877 80.5889 139.482 80.2332C141.075 79.8805 143.938 81.215 145.052 82.3291M142.209 85.4597C140.863 83.3844 138.503 84.1457 138.685 86.6384L142.209 85.4597Z" fill="white"/>
		<path d="M185.126 61.6645C187.022 61.8203 188.886 63.1754 190.843 63.1401C193.292 63.096 197.569 61.0972 198.648 58.7279C196.843 59.0689 194.832 59.4217 194.141 57.2082C192.933 53.3428 199.406 46.4762 200.914 51.6114C203.63 60.8796 190.105 75.4301 185.129 61.6645M196.631 55.0007C196.957 55.9883 199.523 56.3764 198.886 54.2305C198.359 52.4639 196.011 53.1223 196.631 55.0007Z" fill="white"/>
		<path d="M218.93 109.849C219.744 106.983 220.752 105.001 219.903 101.971C219.388 100.134 217.728 96.906 215.693 96.6297C217.745 101.706 212.725 102.156 209.379 99.5574C203.883 95.2893 208.603 93.4344 213.457 94.0135C219.412 94.7219 229.212 103.038 222.134 108.502C221.24 109.193 220.091 109.951 218.927 109.849M213.048 96.3328C212.348 96.371 211.414 96.1358 210.817 96.6003C208.883 98.1023 213.53 100.486 213.048 96.3328Z" fill="white"/>
		<path d="M22.6722 10.9319C24.5799 9.26813 28.0955 9.74726 30.1238 11.0671C30.8351 11.5315 31.7493 12.0254 30.5088 12.4369C29.2978 12.8367 28.1249 12.916 26.8698 13.5098C23.9391 14.9002 21.5934 18.7333 21.6904 21.9932L23.8245 20.4587C30.3531 18.5687 28.6452 35.309 22.7427 28.1367C19.3682 24.039 18.4599 14.6004 22.6722 10.9289M23.4864 25.0238C24.2301 26.6611 26.6552 26.7081 25.9703 24.6269C25.4323 22.9955 23.2042 23.9538 23.4864 25.0238Z" fill="white"/>
		<path d="M235.097 25.5206C235.279 23.6511 236.599 22.0285 236.573 20.1002C236.541 17.7163 234.501 12.7574 231.861 12.3018C232.995 14.0331 232.549 16.4553 230.25 16.7139C224.759 17.3312 218.345 8.71853 229.062 9.65916C234.209 10.1118 242.105 15.4441 240.541 21.4171C240.1 23.1014 236.934 25.647 235.094 25.5206M229.215 12.0049C227.798 11.852 226.114 11.9755 226.699 13.7833L228.627 14.2271L229.215 12.0049Z" fill="white"/>
		<path d="M56.9643 15.8231C56.8173 14.9325 57.1906 15.3558 57.6786 15.2323C60.4388 14.5268 63.5634 14.1859 62.7756 10.4556C62.3377 8.37743 58.6574 3.18336 56.2559 3.492C53.8161 3.80653 52.2552 8.96239 51.0882 9.51501C50.8208 9.64141 48.2017 9.95594 47.7108 9.96476C47.314 9.97063 47.1346 10.0059 47.2728 9.52383C47.8019 7.6602 51.8408 3.83592 53.578 2.89529C66.7675 -4.24766 73.7752 17.6515 56.9672 15.829" fill="white"/>
		<path d="M211.287 49.3215C211.558 49.0687 216.44 51.7202 218.301 49.4274C219.703 47.6989 218.945 39.3449 216.593 38.5718C214.056 37.74 210.746 41.3555 209.094 41.4055C208.495 41.4231 205.303 40.4355 205.84 39.6183C206.411 38.7482 210.717 37.2902 211.861 37.1138C219.13 35.9792 224.524 39.2656 223.633 47.1199C223.031 52.4462 217.028 52.9489 213.039 50.95C212.798 50.8295 210.835 49.7478 211.287 49.3245" fill="white"/>
		<path d="M83.1669 35.847C86.9853 34.0745 94.9454 39.733 93.8725 43.7395C93.3522 45.6913 87.4262 50.7561 85.5214 49.5656C85.0129 48.2458 84.1193 47.0053 84.3044 45.5091C85.6742 45.9882 91.4915 42.261 91.3298 41.285C91.0153 39.3832 85.1775 40.0387 83.7401 39.8917L83.1669 35.8499V35.847Z" fill="white"/>
		<path d="M91.6385 19.6328C90.0012 19.4329 86.1534 25.356 86.659 26.0996C89.2693 27.052 91.759 25.2472 94.1077 24.3889L96.3505 28.1632C93.0553 30.5295 84.2663 28.9862 83.4697 24.7122C83.1111 22.7898 86.4709 16.564 88.3375 16.1701C89.5603 15.9114 92.0824 19.0008 91.6356 19.6328" fill="white"/>
		<path d="M170.052 20.0178C171.775 21.7257 170.972 28.6276 169.353 30.5383L165.134 29.0421C165.17 28.2866 165.852 28.0132 166.163 27.2843C166.607 26.2407 167.413 21.2407 166.619 20.6498C164.094 20.5558 162.51 23.6569 160.813 25.1913C160.058 25.3413 157.307 23.5217 157.268 23.0249C159.235 19.7239 163.236 18.2865 166.966 18.8362C167.615 18.9332 169.638 19.6093 170.049 20.0149" fill="white"/>
		<path d="M48.7749 108.423C47.4228 110.874 53.7221 113.07 53.9837 113.87C54.3746 115.048 53.0666 116.642 52.8285 117.779C48.2576 117.268 44.1247 107.091 48.5221 104.798C49.986 104.037 57.2083 102.961 57.7962 104.76C57.9931 105.363 57.3759 108.852 56.7997 108.97C54.3629 107.553 51.4116 108.073 48.772 108.42" fill="white"/>
		<path d="M177.374 61.2647C178.004 60.6092 181.052 56.3881 180.091 55.8178C179.203 55.7678 178.286 55.709 177.401 55.859C176.152 56.0706 173.45 57.7726 172.68 57.5198C172.139 57.3434 170.305 54.4127 171.143 53.719C173.876 51.4644 182.924 53.284 183.365 57.3993C183.65 60.0418 180.831 65.0331 178.256 66.0237C177.492 65.5005 174.885 63.5839 175.555 62.5434C175.772 62.2053 176.972 61.6821 177.374 61.2647Z" fill="white"/>
		<path d="M209.865 27.9398C209.688 26.5553 211.502 25.8233 212.678 25.5852C214.641 25.1855 213.962 26.3113 214.453 27.4988C214.862 28.4894 217.287 32.8311 218.457 32.5548C220.223 30.5765 219.718 27.6546 219.647 25.2266C220.317 24.6593 223.536 23.801 223.883 24.8298C224.409 29.0509 221.091 34.6888 216.587 35.0915C214.239 35.3032 210.129 30.0239 209.865 27.9398Z" fill="white"/>
		<path d="M187.107 43.9629C186.455 44.6361 182.918 43.1046 182.795 42.3785C183.9 40.4443 185.029 37.5578 185.111 35.3179C185.235 31.9257 179.159 37.1433 178.765 38.472L175.155 36.3585C175.54 34.3273 179.306 32.5518 181.184 32.302C182.965 32.0639 186.346 32.4049 187.766 33.6071C189.65 35.2032 188.483 41.9023 187.11 43.96" fill="white"/>
		<path d="M182.483 18.0278C186.214 12.6691 195.011 12.9189 198.933 18.0336C200.585 20.1883 200.426 23.0102 199.297 25.4353C199.194 25.6557 198.545 26.758 198.201 26.1114C198.142 22.1342 195.438 18.4452 191.793 16.9431C188.527 15.5968 188.224 17.3752 186.399 19.6122L182.483 18.0248V18.0278Z" fill="white"/>
		<path d="M266.253 23.7627C273.261 22.1078 279.913 30.3001 277.573 36.9816C277.052 38.4689 273.79 40.7294 272.285 40.8117C270.918 40.8852 272.878 38.998 273.072 38.6571C274.774 35.6411 274.915 32.9133 273.743 29.6446C272.496 26.176 270.868 27.343 267.761 27.5458L266.256 23.7627H266.253Z" fill="white"/>
		<path d="M191.781 108.779C189.459 106.295 186.152 104.998 182.774 105.736C181.819 104.796 186.234 103.061 186.869 102.929C189.124 102.462 190.937 103.446 192.613 104.863C196.217 107.905 197.193 113.455 195.173 117.694C193.33 121.565 192.669 118.458 191.334 116.409C191.249 115.88 193.853 113.987 193.941 112.623C194.006 111.633 192.469 109.516 191.781 108.781" fill="white"/>
		<path d="M54.6744 51.4556C54.3451 49.8271 55.2829 46.4114 56.5204 45.2121C56.8908 45.2062 57.2229 48.4955 57.4669 49.2539C58.0989 51.2087 60.8208 54.01 62.6316 54.9624C65.915 56.6908 66.2295 54.6919 68.3136 52.6049C70.4271 53.4515 73.6899 53.7102 70.6299 56.0764C68.1078 58.0253 63.337 58.2575 60.4064 57.1876C58.4663 56.4792 55.0888 53.5044 54.6744 51.4556Z" fill="white"/>
		<path d="M179.835 47.2669C180.999 47.2023 181.71 48.1987 182.78 48.5809C185.446 49.5303 188.621 49.0718 191.117 47.8196C194.526 46.1088 193.224 44.8125 192.604 41.6848C193.11 41.2469 195.802 39.201 196.293 39.6243C197.936 45.2798 193.33 51.8496 187.592 52.5227C186.666 52.6315 184.788 52.6873 183.932 52.4228C182.998 52.1347 179.144 47.9548 179.835 47.2669Z" fill="white"/>
		<path d="M227.455 65.7739C227.44 61.7086 225.047 58.3928 221.481 56.6115C218.08 54.9154 217.722 56.4234 215.788 59.0336L212.172 57.9813C211.085 57.1583 213.965 55.1859 214.615 54.8478C219.133 52.4845 225.276 53.5015 228.336 57.6932C229.797 59.6921 229.647 61.0443 229.012 63.3635C228.927 63.6722 228.087 66.4382 227.457 65.771" fill="white"/>
		<path d="M149.07 31.7935C152.215 28.5601 157.215 27.4519 161.387 29.4125C162.93 30.1386 164.085 32.6842 164.411 34.3185C164.491 34.7242 164.799 36.6407 163.959 36.2468C163.75 36.1498 162.471 34.3655 161.904 33.8893C160.087 32.3608 157.074 31.5613 154.708 31.6906C150.89 31.8993 150.59 33.4043 150.693 36.9376L146.804 37.8812C145.643 36.1851 147.821 33.0722 149.07 31.7905" fill="white"/>
		<path d="M69.898 4.65612C69.5364 3.00119 69.557 1.61375 68.7722 0.049942C67.7522 -1.99006 64.5775 -4.47099 62.3994 -5.06182C59.5804 -5.82609 58.8661 -2.12821 57.9901 -2.06942L54.6127 -3.13352C53.6838 -3.83605 55.8825 -5.61445 56.4645 -5.97894C60.6592 -8.61566 66.8968 -7.71912 70.1978 -4.0183C71.8998 -2.11058 71.9262 -0.781932 71.5294 1.73133C71.4589 2.17519 70.7122 5.23226 69.9009 4.65318" fill="white"/>
		<path d="M237.205 102.879C236.82 101.059 239.101 100.075 240.523 99.5574C244.298 98.1817 249.471 97.9553 248.545 103.467C247.643 108.855 237.972 106.515 237.205 102.882M244.192 104.549C244.495 103.778 244.633 101.071 243.725 100.766C239.933 100.38 242.934 105.583 244.192 104.549Z" fill="white"/>
		<path d="M34.9769 27.0726C34.4948 24.9386 38.3015 21.9638 40.0975 21.1525C41.6025 20.4735 42.9341 20.2001 44.4273 21.1525C45.4062 21.7786 46.1558 24.1772 46.0294 25.2942C45.5267 29.7593 35.747 30.4942 34.974 27.0697M38.8188 24.4859C38.6895 26.1555 43.8953 28.9862 41.6877 24.4771C40.706 22.4694 38.8894 23.5805 38.8188 24.4859Z" fill="white"/>
		<path d="M122.421 99.9541C123.023 100.457 124.108 102.223 124.22 103.023C124.708 106.562 117.509 111.001 114.587 108.52C112.976 107.153 115.933 102.012 117.106 100.768C118.432 99.3633 120.789 98.5873 122.424 99.9512M117.256 104.654C117.524 105.504 120.869 106.242 121.048 105.286C120.848 104.302 119.378 102.708 118.42 102.623C117.671 102.556 117.056 104.025 117.256 104.657" fill="white"/>
		<path d="M176.087 91.124C177.401 89.8953 183.339 92.3174 184.547 93.5344C187.771 96.7825 183.768 101.641 180.155 99.9777C177.101 98.5727 174.112 94.4221 176.084 91.124M179.303 96.712C179.917 98.7755 182.789 95.0923 181.919 94.1046C180.276 92.2381 178.733 94.7954 179.303 96.712Z" fill="white"/>
		<path d="M10.5204 71.9468C10.879 71.5853 12.8661 72.8845 13.26 73.1726C15.6233 74.8981 22.393 85.3274 23.9803 88.3109C24.2919 88.8988 24.7064 89.4426 24.624 90.1628C23.5746 89.6308 22.3254 89.4926 21.2819 88.9518C18.8597 87.6995 16.1319 81.1915 14.5739 78.6136C14.0448 77.7405 10.0324 72.4318 10.5174 71.9468" fill="white"/>
		<path d="M117.518 88.402C118.253 88.2932 118.729 88.452 119.381 88.74C122.468 90.0951 130.034 100.216 132.336 103.411C132.73 103.958 133.103 104.54 133.391 105.145C133.182 105.304 130.081 104.537 129.625 104.358C127.588 103.552 123.114 95.9388 121.46 93.7136C121.01 93.1081 117.068 88.8106 117.518 88.402Z" fill="white"/>
		<path d="M292.12 54.0189C291.041 54.1776 289.827 55.1065 288.825 55.2946C287.488 55.5474 280.724 51.9848 278.887 51.2352C277.461 50.6532 275.918 50.3357 274.492 49.7507C274.175 49.6214 273.075 49.3627 273.31 48.8836C274.777 47.7254 277.032 48.0605 278.728 48.4574C280.489 48.8689 290.327 52.3963 291.609 53.2105C291.973 53.4398 292.229 53.478 292.117 54.0189" fill="white"/>
		<path d="M250.967 50.5002L249.877 52.2669C245.441 52.311 240.573 51.9494 236.332 50.5767C235.944 50.4503 235.55 50.6943 235.682 50.0623L237.828 48.8159C242.09 50.0417 246.546 50.3856 250.965 50.5032" fill="white"/>
		<path d="M125.163 76.356L128.097 77.8287C128.132 78.5959 127.262 78.8899 127.042 79.5777C126.604 80.9299 127.982 80.7035 128.679 81.4972L126.918 84.5836L124.026 82.6818L125.157 80.6359L123.526 79.5983L125.166 76.359L125.163 76.356Z" fill="white"/>
		<path d="M212.172 7.59844L214.929 9.09171C215.979 6.2551 217.628 7.63372 218.901 9.46502L217.422 11.6784L215 10.5673L213.492 12.284L210.673 10.3674L212.169 7.59844H212.172Z" fill="white"/>
		<path d="M58.1373 71.9467C57.6758 68.2195 59.6217 70.3006 61.9615 70.186L61.3619 73.4047L58.7281 73.1225L58.4283 75.4741L54.9244 74.41L55.4888 71.4941L58.1373 71.9497V71.9467Z" fill="white"/>
		<path d="M118.714 55.5121L121.316 55.762L121.636 53.7338L125.178 54.5069L124.722 57.267L121.948 56.9819L121.151 59.3364L118.109 58.7133L118.714 55.5121Z" fill="white"/>
		<path d="M116.086 17.3311C116.177 17.1753 117.976 16.4699 117.815 15.5322H118.247L120.016 17.3047L121.483 15.829L123.97 18.5834L121.739 20.5028L119.76 19.0742L118.25 20.5175C117.844 19.8003 115.672 18.0425 116.086 17.3282" fill="white"/>
		<path d="M130.157 110.733C134.07 110.883 136.392 105.175 140.443 108.529C139.049 108.658 137.832 108.999 136.613 109.693C134.699 110.78 133.165 113.523 130.645 111.565C130.319 111.309 130.04 111.265 130.157 110.733Z" fill="white"/>
		<path d="M31.6818 94.2751C30.5736 94.2575 29.6006 94.2075 28.5042 94.4809C25.8439 95.1423 23.8127 98.9812 21.1025 95.6008C24.7122 95.5626 28.5247 90.3098 31.6847 94.2781" fill="white"/>
		<path d="M153.185 23.5658C152.821 23.9744 152.113 25.3118 151.507 25.206L148.388 22.437L151.175 19.6504L154.255 22.731C154.023 23.1425 153.447 23.2777 153.188 23.5687" fill="white"/>
		<path d="M49.9095 14.9413V18.7627C48.3751 18.5804 47.0259 18.1954 45.5003 18.7627L45.7708 14.7767L49.9066 14.9443L49.9095 14.9413Z" fill="white"/>
		<path d="M146.913 57.2523L150.901 58.4104C151.404 59.0924 150.237 61.0853 150.114 61.929L146.025 61.0736L146.91 57.2552L146.913 57.2523Z" fill="white"/>
		<path d="M174.838 19.0566L178.95 20.2353L177.771 24.0537L173.659 22.875L174.838 19.0566Z" fill="white"/>
		<path d="M205.405 45.5061L203.498 49.0217L199.826 46.823L201.772 43.7542L205.405 45.5061Z" fill="white"/>
		<path d="M200.996 92.2263L205.114 91.6326C204.938 93.07 205.355 94.3839 205.699 95.7449L201.893 96.3269L200.996 92.2234V92.2263Z" fill="white"/>
		<path d="M98.7021 58.725L102.817 57.8402L103.702 61.6586L99.5869 62.5434L98.7021 58.725Z" fill="white"/>
		<path d="M54.3188 82.5259L58.1401 83.1138L57.5581 87.3908L53.728 86.9293L54.3188 82.5259Z" fill="white"/>
		<path d="M208.345 59.9037L207.169 63.4252L203.065 62.073L204.415 58.7455L208.345 59.9037Z" fill="white"/>
		<path d="M43.4426 45.7972L46.9553 46.9847C47.2022 47.2669 46.0852 50.9266 45.6091 51.0706L42.2639 50.2035L43.4456 45.7972H43.4426Z" fill="white"/>
		<path d="M166.31 91.6326L170.135 92.2234L169.538 96.3269L165.725 96.0389L166.31 91.6326Z" fill="white"/>
		<path d="M164.547 98.9783L168.632 99.5926L168.368 103.388L164.285 102.77L164.547 98.9783Z" fill="white"/>
		<path d="M108.108 28.7569L111.633 27.2842L113.399 31.3936L110.013 32.8369L108.108 28.7569Z" fill="white"/>
		<path d="M161.616 1.44031L166.016 0.837708L166.313 4.65904L162.198 5.24694L161.616 1.44031Z" fill="white"/>
		<path d="M231.57 26.6963L235.388 27.5811L234.201 31.6846L230.391 30.8057L231.57 26.6963Z" fill="white"/>
		<path d="M111.051 11.4169L115.166 12.2987L114.572 16.1171L110.298 15.2411L111.051 11.4169Z" fill="white"/>
		<path d="M162.498 46.3939L166.154 44.9124L167.771 48.2958C167.754 48.5486 163.941 50.0918 163.676 49.9007L162.498 46.3939Z" fill="white"/>
		<path d="M265.959 4.0711C267.355 4.15341 268.763 3.9741 270.071 3.48615L270.533 7.31335L266.25 7.89537L265.956 4.07404L265.959 4.0711Z" fill="white"/>
		<path d="M27.5665 30.5147C29.0069 30.691 30.3179 30.2736 31.6818 29.9297L31.9787 34.045L27.8605 34.3389L27.5665 30.5147Z" fill="white"/>
		<path d="M76.9498 47.8518V51.9642H73.1256C73.2725 51.1969 72.7464 47.7754 73.5547 47.6313L76.9469 47.8518H76.9498Z" fill="white"/>
		<path d="M81.656 29.0449L81.362 33.1631L77.5407 33.1602L77.8317 28.8979L81.656 29.0449Z" fill="white"/>
		<path d="M213.075 3.20691L216.014 4.8442C216.09 5.30863 214.55 7.86893 214.377 7.88362L211.587 5.96121L213.077 3.20691H213.075Z" fill="white"/>
		<path d="M125.742 61.9584L122.544 61.3381L122.788 58.2605L125.913 58.7044L125.742 61.9584Z" fill="white"/>
	</g>
	<path d="M254.35 34.255C253.252 32.8602 250.804 37.9127 250.559 38.3982C232.361 74.5193 289.822 75.8229 305.678 93.6289L308.65 100.247C324.906 66.0915 294.807 62.7369 272.171 51.9462C264.552 48.315 253.564 44.4601 254.353 34.255" fill="#8A2432"/>
	<path d="M254.352 34.255C253.564 44.4601 264.552 48.315 272.171 51.9462C294.806 62.7369 324.907 66.0915 308.649 100.247L305.677 93.6289C289.821 75.8229 232.361 74.5193 250.559 38.3982C250.803 37.9127 253.255 32.8602 254.349 34.255" fill="#8A2432"/>
	<path d="M295.37 24.1666C295.37 31.581 289.359 37.5926 281.944 37.5926C274.53 37.5926 268.519 31.581 268.519 24.1666C268.519 16.7523 274.53 10.7407 281.944 10.7407C289.359 10.7407 295.37 16.7523 295.37 24.1666Z" fill="#8A2432"/>
	<path d="M27.7812 101.448L18.0463 97.5187L15.7393 107.407L12.8713 97.6547L3.37766 102.093L9.53585 93.8618L0 89.5047L10.5492 88.9926L8.15161 79.1242L15.1482 86.7158L21.6954 78.7654L19.8709 88.7467L30.4321 88.7004L21.1586 93.5551L27.7812 101.448Z" fill="#14748E"/>
	<path d="M18.251 140.139V135.411C18.251 134.34 18.0369 133.573 17.6115 133.111C17.192 132.649 16.4938 132.418 15.5169 132.418C14.9918 132.418 14.4521 132.47 13.9035 132.574V140.136H10.3275C7.95127 140.136 6.21754 139.669 5.12918 138.734C4.09657 137.847 3.58026 136.479 3.58026 134.635C3.58026 133.44 3.79148 132.395 4.21978 131.494L6.09727 131.171C5.61029 132.15 5.36387 133.238 5.36387 134.43C5.36387 135.934 5.7247 137.013 6.44342 137.671C7.23842 138.393 8.60252 138.751 10.5357 138.751H12.1697V131.399C13.3021 131.159 14.4755 131.038 15.69 131.038C17.236 131.038 18.3537 131.405 19.0401 132.138C19.665 132.802 19.9789 133.815 19.9789 135.177V138.751H24.1651V131.243H25.9311V140.136H18.254L18.251 140.139ZM9.61755 142.956C9.61755 143.239 9.5178 143.479 9.31832 143.675C9.11883 143.877 8.88122 143.981 8.60546 143.981C8.3121 143.981 8.06862 143.883 7.87207 143.687C7.67845 143.496 7.58165 143.254 7.58165 142.956C7.58165 142.679 7.67845 142.446 7.87207 142.255C8.07155 142.059 8.31504 141.961 8.60546 141.961C8.89588 141.961 9.11883 142.056 9.31832 142.246C9.5178 142.437 9.61755 142.674 9.61755 142.956ZM12.4426 142.956C12.4426 143.239 12.3458 143.479 12.1521 143.675C11.9585 143.877 11.7238 143.981 11.4481 143.981C11.1547 143.981 10.9054 143.883 10.7059 143.687C10.5064 143.49 10.4067 143.245 10.4067 142.956C10.4067 142.668 10.5064 142.446 10.7059 142.255C10.9112 142.059 11.1606 141.961 11.4481 141.961C11.7356 141.961 11.9585 142.056 12.1521 142.246C12.3458 142.437 12.4426 142.674 12.4426 142.956ZM23.7632 143.998C23.4757 143.998 23.2322 143.9 23.0327 143.704C22.8274 143.508 22.7218 143.265 22.7218 142.974C22.7218 142.682 22.8245 142.451 23.0327 142.252C23.2322 142.056 23.4757 141.958 23.7632 141.958C24.0507 141.958 24.303 142.053 24.5054 142.243C24.7195 142.44 24.8251 142.682 24.8251 142.974C24.8251 143.265 24.7195 143.499 24.5054 143.704C24.3 143.9 24.0507 143.998 23.7632 143.998ZM29.0759 144.997C28.4188 144.997 27.7528 144.911 27.0752 144.737L27.2629 143.297C27.8585 143.513 28.5038 143.62 29.205 143.62C30.0557 143.62 30.6806 143.389 31.0825 142.928C31.5401 142.417 31.766 141.571 31.766 140.387V131.246H33.532V138.754H35.6441V140.139H33.532V140.232C33.532 143.41 32.0447 144.997 29.0729 144.997M35.3713 138.754H36.0108C38.0497 138.754 39.801 138.428 41.259 137.775C39.2642 135.928 37.724 134.831 36.6415 134.488L36.8 133.278C38.8271 131.763 40.6752 131.007 42.3473 131.007C43.5794 131.007 44.527 131.301 45.19 131.893C45.7708 132.421 46.0642 133.102 46.0642 133.933C46.0642 135.374 45.2956 136.678 43.7554 137.85C44.6443 138.454 45.5655 138.754 46.5247 138.754H47.6982V140.139H46.2724C44.8849 140.139 43.5824 139.672 42.3679 138.736C40.5608 139.672 38.387 140.139 35.8554 140.139H35.3772V138.754H35.3713ZM38.4486 133.824C39.1498 134.089 40.5373 135.134 42.6172 136.964C43.732 136.139 44.2864 135.206 44.2864 134.167C44.2864 133.619 44.1163 133.183 43.7789 132.857C43.4034 132.493 42.8636 132.311 42.1537 132.311C41.1328 132.311 39.8978 132.816 38.4457 133.827M47.3989 138.757H50.092V126.807H51.8579V140.142H47.3989V138.757ZM55.5044 126.807H57.2704V140.142H55.5044V126.807ZM70.7824 140.142C68.4033 140.142 66.6725 139.675 65.5841 138.739C64.5515 137.853 64.0352 136.485 64.0352 134.641C64.0352 133.446 64.2464 132.401 64.6747 131.5L66.5522 131.177C66.0652 132.155 65.8217 133.243 65.8217 134.436C65.8217 135.939 66.1826 137.019 66.9013 137.677C67.6963 138.399 69.0604 138.757 70.9936 138.757H74.2704V131.249H76.0335V140.142H70.7853H70.7824ZM70.3981 144.001C70.1047 144.001 69.8583 143.903 69.6676 143.707C69.4623 143.511 69.3567 143.268 69.3567 142.977C69.3567 142.685 69.4594 142.454 69.6676 142.255C69.8671 142.059 70.1106 141.961 70.3981 141.961C70.6856 141.961 70.9379 142.056 71.1403 142.246C71.3544 142.443 71.46 142.685 71.46 142.977C71.46 143.268 71.3544 143.502 71.1403 143.707C70.9349 143.903 70.6856 144.001 70.3981 144.001ZM79.5303 126.807H81.2963V138.757H83.4173V140.142H79.5332V126.807H79.5303ZM83.1298 138.757H85.9372V131.249H87.7032V138.757H89.8418V140.142H83.1298V138.757ZM85.5324 144.001C85.2449 144.001 85.0014 143.903 84.799 143.707C84.5936 143.511 84.491 143.268 84.491 142.977C84.491 142.685 84.5936 142.454 84.799 142.255C84.9985 142.059 85.2419 141.961 85.5324 141.961C85.8228 141.961 86.0751 142.056 86.2746 142.246C86.4858 142.443 86.5943 142.685 86.5943 142.977C86.5943 143.268 86.4887 143.502 86.2746 143.707C86.0692 143.903 85.8199 144.001 85.5324 144.001ZM102.295 140.142C101.069 140.142 100.177 140.038 99.6193 139.827C99.0385 139.611 98.6102 139.213 98.3344 138.627C97.9091 139.724 96.941 140.272 95.4332 140.272C94.0808 140.272 93.2535 139.729 92.9455 138.647C92.5758 139.646 91.7193 140.142 90.3727 140.142H89.5455V138.757H90.3727C91.0856 138.757 91.5902 138.575 91.8835 138.211C92.1974 137.824 92.3529 137.143 92.3529 136.17V132.383H94.1189V135.827C94.1189 136.953 94.1981 137.709 94.3536 138.09C94.5736 138.624 95.0312 138.892 95.7324 138.892C97.0525 138.892 97.7125 137.876 97.7125 135.844V131.624H99.4287V136.473C99.4287 137.435 99.634 138.064 100.048 138.367C100.411 138.624 101.139 138.754 102.233 138.754H102.861C102.967 137.891 103.019 137.019 103.019 136.13C103.019 134.245 102.808 132.507 102.383 130.911L104.09 130.605C104.554 132.225 104.785 134.014 104.785 135.971C104.785 136.748 104.741 137.674 104.653 138.751H106.766V140.136H102.289L102.295 140.142ZM97.0847 129.511C96.7973 129.511 96.5567 129.416 96.3631 129.226C96.1636 129.029 96.0639 128.781 96.0639 128.487C96.0639 128.215 96.1636 127.982 96.3631 127.785C96.5567 127.589 96.7973 127.491 97.0847 127.491C97.3722 127.491 97.6128 127.586 97.8064 127.777C98 127.967 98.0968 128.204 98.0968 128.487C98.0968 128.77 98 129.021 97.8064 129.217C97.6128 129.413 97.3722 129.511 97.0847 129.511ZM98.5016 127.257C98.2259 127.257 97.9941 127.165 97.8064 126.98C97.6186 126.795 97.5248 126.567 97.5248 126.296C97.5248 126.024 97.6186 125.785 97.8064 125.594C97.9941 125.404 98.2259 125.309 98.5016 125.309C98.7774 125.309 99.0004 125.404 99.1881 125.594C99.3759 125.785 99.4697 126.019 99.4697 126.296C99.4697 126.573 99.3759 126.789 99.1881 126.98C99.0004 127.165 98.7715 127.257 98.5016 127.257ZM99.9274 129.511C99.6399 129.511 99.3993 129.416 99.2057 129.226C99.0062 129.029 98.9065 128.781 98.9065 128.487C98.9065 128.215 99.0062 127.982 99.2057 127.785C99.3993 127.589 99.6399 127.491 99.9274 127.491C100.215 127.491 100.447 127.586 100.64 127.777C100.84 127.973 100.939 128.21 100.939 128.487C100.939 128.764 100.84 129.012 100.64 129.217C100.447 129.413 100.209 129.511 99.9274 129.511ZM106.501 138.757H109.195V126.807H110.961V138.757H113.073V140.142H106.501V138.757ZM112.788 138.757H115.481V126.807H117.247V140.142H112.788V138.757ZM124.643 126.807H126.406V138.757H128.527V140.142H124.64V126.807H124.643ZM128.242 138.757H131.05V131.249H132.816V138.757H135.799V140.142H128.242V138.757ZM130.897 142.959C130.897 143.242 130.797 143.482 130.598 143.678C130.398 143.88 130.158 143.984 129.876 143.984C129.595 143.984 129.348 143.886 129.154 143.69C128.961 143.499 128.864 143.257 128.864 142.959C128.864 142.682 128.961 142.448 129.154 142.258C129.348 142.062 129.589 141.963 129.876 141.963C130.164 141.963 130.398 142.059 130.598 142.249C130.797 142.44 130.897 142.676 130.897 142.959ZM133.722 142.959C133.722 143.242 133.625 143.482 133.432 143.678C133.238 143.88 133 143.984 132.719 143.984C132.437 143.984 132.188 143.886 131.988 143.69C131.789 143.493 131.689 143.248 131.689 142.959C131.689 142.671 131.789 142.448 131.988 142.258C132.188 142.062 132.431 141.963 132.719 141.963C133.006 141.963 133.238 142.059 133.432 142.249C133.625 142.44 133.722 142.676 133.722 142.959ZM135.526 138.757H143.467C143.555 137.986 143.599 137.342 143.599 136.817C143.599 135.339 143.291 134.271 142.678 133.613C142.021 132.912 140.927 132.559 139.393 132.559C138.63 132.559 137.917 132.603 137.254 132.689V131.333C137.929 131.229 138.694 131.177 139.545 131.177C141.605 131.177 143.098 131.644 144.031 132.58C144.914 133.466 145.354 134.834 145.354 136.681C145.354 137.778 145.251 138.933 145.043 140.145H135.526V138.76V138.757ZM140.059 144.001C139.771 144.001 139.528 143.903 139.325 143.707C139.126 143.511 139.026 143.268 139.026 142.977C139.026 142.685 139.126 142.454 139.325 142.255C139.525 142.059 139.771 141.961 140.059 141.961C140.346 141.961 140.604 142.056 140.81 142.246C141.015 142.443 141.12 142.685 141.12 142.977C141.12 143.268 141.018 143.502 140.81 143.707C140.604 143.903 140.352 144.001 140.059 144.001ZM150.197 144.925C149.208 144.925 148.208 144.83 147.193 144.639L147.316 143.19C148.393 143.43 149.417 143.551 150.385 143.551C152.831 143.551 154.055 142.567 154.055 140.595V140.142H152.121C148.762 140.142 147.082 138.673 147.082 135.737C147.082 134.401 147.478 133.304 148.273 132.45C149.141 131.515 150.358 131.047 151.925 131.047C153.333 131.047 154.621 131.269 155.791 131.711V138.757H157.903V140.142H155.791V140.503C155.791 141.747 155.375 142.76 154.542 143.542C153.559 144.466 152.11 144.928 150.197 144.928M154.055 132.865C153.43 132.571 152.655 132.421 151.737 132.421C150.819 132.421 150.147 132.707 149.634 133.281C149.12 133.847 148.865 134.603 148.865 135.544C148.865 137.686 150.033 138.757 152.365 138.757H154.055V132.865ZM157.642 138.757H160.335V126.807H162.098V140.142H157.639V138.757H157.642ZM167.394 144.925C166.405 144.925 165.405 144.83 164.39 144.639L164.513 143.19C165.589 143.43 166.613 143.551 167.581 143.551C170.028 143.551 171.251 142.567 171.251 140.595V140.142H169.318C165.959 140.142 164.278 138.673 164.278 135.737C164.278 134.401 164.674 133.304 165.469 132.45C166.337 131.515 167.555 131.047 169.121 131.047C170.53 131.047 171.817 131.269 172.988 131.711V138.757H175.1V140.142H172.988V140.503C172.988 141.747 172.571 142.76 171.738 143.542C170.755 144.466 169.306 144.928 167.394 144.928M171.251 132.865C170.626 132.571 169.852 132.421 168.934 132.421C168.015 132.421 167.344 132.707 166.83 133.281C166.317 133.847 166.062 134.603 166.062 135.544C166.062 137.686 167.229 138.757 169.561 138.757H171.251V132.865ZM174.839 138.757H177.646V131.249H179.412V138.757H181.551V140.142H174.839V138.757ZM178.526 129.226C178.239 129.226 177.995 129.127 177.793 128.931C177.594 128.735 177.494 128.495 177.494 128.212C177.494 127.93 177.594 127.676 177.793 127.473C177.992 127.271 178.236 127.168 178.526 127.168C178.817 127.168 179.069 127.269 179.277 127.473C179.483 127.67 179.588 127.918 179.588 128.212C179.588 128.507 179.486 128.735 179.277 128.931C179.063 129.127 178.814 129.226 178.526 129.226ZM181.258 138.757H187.424C187.4 136.941 186.972 135.518 186.148 134.49C185.359 133.506 184.109 132.773 182.393 132.291V131.007L189.677 126.501V128.264L184.449 131.422C185.975 132.037 187.11 132.888 187.855 133.971C188.682 135.166 189.122 136.759 189.178 138.754H190.941V140.139H181.255V138.754L181.258 138.757ZM190.657 138.757H193.464V131.249H195.23V138.757H197.21V140.142H190.66V138.757H190.657ZM192.619 129.511C192.332 129.511 192.091 129.416 191.898 129.226C191.698 129.029 191.598 128.781 191.598 128.487C191.598 128.215 191.698 127.982 191.898 127.785C192.091 127.589 192.332 127.491 192.619 127.491C192.907 127.491 193.139 127.586 193.332 127.777C193.532 127.973 193.631 128.21 193.631 128.487C193.631 128.764 193.532 129.012 193.332 129.217C193.139 129.413 192.901 129.511 192.619 129.511ZM195.462 129.511C195.174 129.511 194.931 129.416 194.731 129.226C194.526 129.029 194.42 128.781 194.42 128.487C194.42 128.215 194.523 127.982 194.731 127.785C194.931 127.589 195.174 127.491 195.462 127.491C195.749 127.491 195.981 127.586 196.175 127.777C196.362 127.973 196.456 128.21 196.456 128.487C196.456 128.764 196.362 129.021 196.175 129.217C195.981 129.413 195.744 129.511 195.462 129.511ZM196.923 138.757H199.616V126.807H201.382V140.142H196.923V138.757ZM205.028 126.807H206.794V140.142H205.028V126.807ZM211.758 144.925C210.769 144.925 209.769 144.83 208.754 144.639L208.877 143.19C209.954 143.43 210.978 143.551 211.946 143.551C214.392 143.551 215.615 142.567 215.615 140.595V140.142H213.682C210.323 140.142 208.642 138.673 208.642 135.737C208.642 134.401 209.038 133.304 209.833 132.45C210.702 131.515 211.919 131.047 213.486 131.047C214.894 131.047 216.182 131.269 217.352 131.711V140.503C217.352 141.747 216.936 142.76 216.105 143.542C215.123 144.466 213.673 144.928 211.761 144.928M215.618 132.865C214.994 132.571 214.219 132.421 213.301 132.421C212.383 132.421 211.711 132.707 211.198 133.281C210.684 133.847 210.429 134.603 210.429 135.544C210.429 137.686 211.596 138.757 213.929 138.757H215.618V132.865ZM224.51 145C223.853 145 223.187 144.913 222.512 144.74L222.7 143.3C223.296 143.516 223.941 143.623 224.642 143.623C225.493 143.623 226.118 143.392 226.52 142.93C226.977 142.42 227.203 141.574 227.203 140.39V131.249H228.969V140.234C228.969 143.412 227.482 145 224.51 145ZM232.457 126.807H234.223V138.757H236.344V140.142H232.457V126.807ZM236.057 138.757H242.223C242.199 136.941 241.771 135.518 240.947 134.49C240.158 133.506 238.908 132.773 237.192 132.291V131.007L244.476 126.501V128.264L239.248 131.422C240.774 132.037 241.909 132.888 242.654 133.971C243.481 135.166 243.921 136.759 243.977 138.754H245.74V140.139H236.054V138.754L236.057 138.757ZM245.456 138.757H248.263V131.249H250.029V138.757H252.009V140.142H245.459V138.757H245.456ZM247.418 129.511C247.131 129.511 246.89 129.416 246.697 129.226C246.497 129.029 246.397 128.781 246.397 128.487C246.397 128.215 246.497 127.982 246.697 127.785C246.89 127.589 247.131 127.491 247.418 127.491C247.706 127.491 247.938 127.586 248.131 127.777C248.331 127.973 248.43 128.21 248.43 128.487C248.43 128.764 248.331 129.012 248.131 129.217C247.938 129.413 247.7 129.511 247.418 129.511ZM250.261 129.511C249.973 129.511 249.73 129.416 249.53 129.226C249.325 129.029 249.219 128.781 249.219 128.487C249.219 128.215 249.322 127.982 249.53 127.785C249.73 127.589 249.973 127.491 250.261 127.491C250.548 127.491 250.78 127.586 250.974 127.777C251.162 127.973 251.255 128.21 251.255 128.487C251.255 128.764 251.162 129.021 250.974 129.217C250.78 129.413 250.543 129.511 250.261 129.511ZM251.722 138.757H254.529V131.249H256.295V140.142H251.725V138.757H251.722ZM254.124 144.001C253.837 144.001 253.593 143.903 253.394 143.707C253.189 143.511 253.083 143.268 253.083 142.977C253.083 142.685 253.186 142.454 253.394 142.255C253.593 142.059 253.837 141.961 254.124 141.961C254.412 141.961 254.664 142.056 254.867 142.246C255.078 142.443 255.186 142.685 255.186 142.977C255.186 143.268 255.081 143.502 254.867 143.707C254.661 143.903 254.412 144.001 254.124 144.001ZM262.711 137.057H260.927L257.868 126.934L259.634 126.694L262.711 137.057ZM258.695 140.142V138.757H264.635V126.807H266.419V140.142H258.695ZM270.06 126.807H271.826V140.142H270.06V126.807ZM283.31 140.142C279.952 140.142 278.271 138.673 278.271 135.737C278.271 134.401 278.667 133.304 279.462 132.45C280.33 131.515 281.547 131.047 283.114 131.047C284.522 131.047 285.81 131.269 286.98 131.711V138.757H289.11V140.142H283.31ZM285.244 132.865C284.619 132.571 283.844 132.421 282.926 132.421C282.008 132.421 281.336 132.707 280.823 133.281C280.309 133.847 280.054 134.603 280.054 135.544C280.054 137.686 281.222 138.757 283.554 138.757H285.244V132.865ZM281.536 129.514C281.248 129.514 281.008 129.419 280.814 129.228C280.62 129.032 280.524 128.784 280.524 128.49C280.524 128.218 280.62 127.984 280.814 127.788C281.008 127.592 281.248 127.494 281.536 127.494C281.823 127.494 282.058 127.589 282.257 127.779C282.457 127.976 282.557 128.212 282.557 128.49C282.557 128.767 282.457 129.015 282.257 129.22C282.058 129.416 281.817 129.514 281.536 129.514ZM284.378 129.514C284.091 129.514 283.847 129.419 283.645 129.228C283.445 129.032 283.346 128.784 283.346 128.49C283.346 128.218 283.445 127.984 283.645 127.788C283.844 127.592 284.088 127.494 284.378 127.494C284.669 127.494 284.897 127.589 285.091 127.779C285.285 127.976 285.382 128.212 285.382 128.49C285.382 128.767 285.285 129.024 285.091 129.22C284.897 129.416 284.66 129.514 284.378 129.514ZM296.115 140.145C293.883 140.145 292.402 139.55 291.677 138.364C291.34 139.553 290.36 140.145 288.74 140.145H288.45V138.76C289.227 138.76 289.797 138.56 290.157 138.159C290.594 137.68 290.815 136.849 290.815 135.665C290.815 134.361 291.214 133.284 292.014 132.432C292.892 131.509 294.091 131.047 295.62 131.047C298.36 131.047 299.73 132.461 299.73 135.284V138.757H301.654V140.142H296.115V140.145ZM298.002 135.584C298.002 133.48 297.157 132.427 295.467 132.427C294.578 132.427 293.877 132.715 293.364 133.295C292.85 133.855 292.595 134.612 292.595 135.567C292.595 137.697 293.763 138.762 296.095 138.762H297.999V135.584H298.002ZM301.355 140.145V138.76H302.874C303.317 138.76 303.69 138.794 303.992 138.861C303.042 138.269 302.566 137.204 302.566 135.665C302.566 134.361 302.971 133.284 303.778 132.432C304.646 131.509 305.846 131.047 307.372 131.047C310.112 131.047 311.482 132.461 311.482 135.284V140.142H301.355V140.145ZM309.757 135.584C309.757 133.48 308.912 132.427 307.222 132.427C306.333 132.427 305.632 132.715 305.119 133.295C304.605 133.855 304.35 134.612 304.35 135.567C304.35 137.697 305.518 138.762 307.85 138.762H309.754V135.584H309.757ZM305.758 129.517C305.471 129.517 305.23 129.422 305.036 129.231C304.837 129.035 304.737 128.787 304.737 128.492C304.737 128.221 304.837 127.987 305.036 127.791C305.23 127.595 305.471 127.497 305.758 127.497C306.046 127.497 306.28 127.592 306.48 127.782C306.679 127.979 306.779 128.215 306.779 128.492C306.779 128.77 306.679 129.018 306.48 129.223C306.28 129.419 306.04 129.517 305.758 129.517ZM308.601 129.517C308.313 129.517 308.07 129.422 307.867 129.231C307.668 129.035 307.568 128.787 307.568 128.492C307.568 128.221 307.668 127.987 307.867 127.791C308.067 127.595 308.31 127.497 308.601 127.497C308.891 127.497 309.12 127.592 309.314 127.782C309.507 127.979 309.604 128.215 309.604 128.492C309.604 128.77 309.507 129.026 309.314 129.223C309.12 129.419 308.882 129.517 308.601 129.517Z" fill="#8A2432"/>
</svg>
