<?xml version="1.0" encoding="utf-8"?>
<svg id="Layer_1" data-name="Layer 1" xmlns="http://www.w3.org/2000/svg" xmlns:xlink="http://www.w3.org/1999/xlink" viewBox="0 0 1920 1080">
	<defs>
		<style>
			.cls-1 {
			letter-spacing: .06em;
			}

			.cls-2 {
			fill: #fff;
			}

			.cls-3 {
			fill: none;
			}

			.cls-4 {
			font-family: Roboto-Medium, Roboto;
			font-size: 41.92px;
			font-weight: 500;
			}

			.cls-4, .cls-5 {
			fill: #14748e;
			}

			.cls-6 {
			fill: #8a2432;
			}

			.cls-7 {
			letter-spacing: .06em;
			}

			.cls-8 {
			clip-path: url(#clippath);
			}
		</style>
		<clipPath id="clippath">
			<path class="cls-3" d="M500.44,496.08c-.75,6.66,12.45,12.3,17.53,17.22,15.85,15.36,27.68,37.24,29.68,59.45l48.12-90.09,73.87,145.27c10.65,12.94,23.42,21.66,39.8,25.75,30.84,7.71,545.04,6.22,580.71,3.13,38.21-3.31,73.56-33.87,72.65-73.82h-627.73l-139.3-274.45-95.33,187.54Z"/>
		</clipPath>
	</defs>
	<rect class="cls-5" x="944.75" y="331.92" width="59.57" height="280.99"/>
	<g>
		<path class="cls-5" d="M1286.24,332.49v19c0,22.4-18.16,40.57-40.57,40.57h-57.94s-59.57.01-59.57.01h0s-94.53-.01-94.53-.01v-59.57h252.61ZM1128.16,392.08h59.57v220.84h-59.57v-220.84Z"/>
		<path class="cls-6" d="M924.45,331.81l-12.99,17.76-91.9,125.63-2.78,3.8-.11.15-.11.14v.02c-1.4,1.9-2.15,4.2-2.15,6.55v116.04c0,6.14-4.98,11.13-11.13,11.13h-37.32c-6.15,0-11.13-4.98-11.13-11.13v-115.94c0-2.37-.75-4.67-2.15-6.57l-.06-.08v-.02s-.12-.14-.12-.14l-.11-.15-2.78-3.81-91.9-125.61-.05-.06c-5.38-7.35-.13-17.7,8.98-17.7h46.22c3.54,0,6.88,1.69,8.97,4.55l.02.02,53.76,73.46c4.45,6.07,13.51,6.07,17.96,0l53.75-73.46c1.84-2.51,5.9-4.57,9.02-4.57h68.11Z"/>
		<path class="cls-6" d="M811.4,319.9c0,13.6-11.03,24.63-24.63,24.63s-24.63-11.03-24.63-24.63,11.03-24.63,24.63-24.63,24.63,11.03,24.63,24.63"/>
		<path class="cls-6" d="M1362.79,583c.91,39.95-34.43,70.51-72.65,73.82-35.67,3.09-549.87,4.57-580.71-3.13-16.38-4.09-29.15-12.81-39.8-25.75l-73.87-145.27-48.12,90.09c-2-22.21-13.82-44.09-29.68-59.45-5.09-4.93-18.28-10.56-17.53-17.22l95.33-187.54,139.3,274.45h627.73Z"/>
	</g>
	<g class="cls-8">
		<path class="cls-2" d="M379.75,720.96c9.33-13.47,28.54-12.57,43.03-9.52,3.21.68,11.62,4.45,13.47,4.46,3.36.02,7.27-5.96,9-5.9,4.05.14-.65,7.91-2.5,8.96l10.5,4.99c9.07-18.02,20.86-28.98,42.28-23.25,20.25,5.41,30.64,23.17,13.87,39.91-1.61,1.6-15.12,11.69-11.15,4.35,1.71-3.16,7.11-5.63,8.99-10,6.86-15.92-26.33-25.63-37.75-22.74-9.93,2.51-12.2,20.7-8.25,28.8l-9.18,5.82c-2.15.19-3.84-7.38-6.8-9.89-15.31-12.97-29.84,4.15-45.12,5.9-7.48.86-14.61.13-20.39-4.89v-16.99ZM423.75,726.97c-6.69-1.95-13.47-4.44-20.51-4.99-2.87-.23-15.01-1.02-15.27,2.47,5.63,11.24,17.27,9.78,27.57,6.79.98-.28,9.08-3.17,8.22-4.27"/>
		<path class="cls-2" d="M1483.75,768.94c-18.42,4.64-34.41-6.87-40.02-23.99l-10.97,5.51c-.66,1.2,3.32,2.77,3.78,5.21.34,1.83.14,2.15-1.31,3.28l-8.93-5.95c-16.27,6.38-47.81,12.58-57.37-6.73-8.08-16.32,8.07-22.03,21.87-19.86,14.21,2.24,30.81,18.4,44.47,5.58,2.31-2.17,4.2-10.17,6.81-9.92l8.72,5.6c-1.77,9.72-4.15,15.64,2.52,24.22,7.41,9.52,20.74,4.13,30.43,1.07v15.99ZM1413.74,740.96c-9.47-3.89-21.36-8.75-30.92-2.44-1.5.99-6.38,5.48-5.06,7.42,9.48,2.32,19.48.98,28.76-1.73,2.01-.59,6.18-1.41,7.23-3.25"/>
		<path class="cls-2" d="M782.75,906.88l-2.94-4.43c1.67-4.94,7.43-35.7,4.93-37.55-11.72,7-23.13,12.83-36.67,6.17-20.83-10.24-4.02-37.17,4.85-50.48,8.01-12.02,20.2-25.56,35.32-14.66,1.89,1.36,12.41,11.92,10.5,13.98-8.36-3.35-8.24-10.87-18.99-6.48-8.98,3.66-20.84,26.33-25.53,35.46-2.76,5.37-6.42,10.72-5.48,17.02,3.81.38,6.71-.09,10.28-1.23,4.64-1.48,18.29-10.57,20.28-10.76,2.38-.23,9.6,2.81,11.37,4.57,5.54,5.48,3.78,23.28,3.07,30.9-.54,5.79-1.56,11.85-2.99,17.5h-8Z"/>
		<path class="cls-2" d="M379.75,527.04c11.35-15.35,37.88-14.61,31.06,9.91,9.36,2.33,14.72,9.76,15.94,19.09,19.03-5.52,35.84-3.97,45.51,14.97,8.86,17.35,6.33,35.59-15.98,37.04-5.03.33-13.75.71-16.54-4.02,23.04,2.54,27.08-7.74,18.78-27.28-3.79-8.92-10.41-18.99-21.2-17.62-10.3,1.3-12.53,7.42-18.18,14.75l-11.4-2.85c8.85-14.51-.05-27.81-16-29.99-.39-.5,5.05-6.35,5.55-7.92.65-2.06,1.36-9.6-2.57-7.58l-4.44,5.29-10.54-2.77v-1Z"/>
		<path class="cls-2" d="M1483.75,796.93c-22.27-27.07-50.17-17.92-54.99,16.5-.96,6.82-.09,12.69-.02,18.99.11,10.87.33,21.64,1.01,32.47-1.61.37-2.04-.56-3.03-1.46-3.17-2.91-10.09-18.54-11.71-23.28-17.75-51.81,22.72-88.72,68.75-55.22v11.99Z"/>
		<path class="cls-2" d="M379.75,266.14c24-17.84,58.19-12.6,64.55,19.94,2.34,11.97,1.41,30.78-15.25,21.24-17.7-10.14-14.9-29.67,6.69-26.19.48-24.43-46.45-9.34-51.73,3.76-4.86,12.07,7.38,17.58,13.73,25.22-7.24.07-12.38-6.38-18-9.99v-33.99ZM425.77,297.59c.84,2.52,6.01,2.82,7.86-.08,5.38-8.42-9.39-4.52-7.86.08"/>
		<path class="cls-2" d="M1483.75,407.08c-2.22-.46-3.38.43-5.15,1.35-9.03,4.71-22.24,17.96-29.37,25.63-1.5,1.62-4.39,6.83-5.5,7.5-1.75,1.06-13.15.64-13.99-.51l4.13-11.86c10.48,1.3,17.14-8.87,24.4-15.09,3.68-3.15,8.21-6.75,12.47-9.04-.18-1.55-1.47-1.55-2.59-1.9-4.64-1.45-9.32-1.72-14.1-3.9-21.1-9.58-11.52-31.66,9.23-30.22,7.97.55,13.93,5.2,20.46,9.04v19.99c-2.61-4.26-23.93-24.04-28-19.99-1.09,15.75,15.74,19.52,28,21.99v7Z"/>
		<path class="cls-2" d="M1450.75,906.88c17.78-8.02,15.55-28.92,8.5-43.98-4.4-9.4-9.76-9.12-10.49-21.5-.1-1.69-.87-11.23,1.99-10,4.92,2.66,12.45,18.36,16.02,19.98,2.06.94,12.23,2.43,13.55.59,2.03-9.01-9.84-13.78-15.51-18.62-1.03-.87-1.06-2.9-2.11-3.89-1.35-1.27-8.9-5.2-8.93-6.05l5.91-8.9c-1.59-2.66-7.52-3.11-6.55-6.64.3-1.09,6.55-8.92,7.12-8.91,7.86,6.56,11.13,5.09,4.57,15.36l5.8,5.91-6.86,9.67c7.64-2.58,13.31-3.02,20,2.01v28.99c-3.97,3.6-8.5,5.55-14,5.01-.28.19,2,5.62,2,6.49v17.99l-6,16.49h-15Z"/>
		<path class="cls-2" d="M1483.75,319.12v30.99c-3.58-.56-8.88,2.41-12.02.51-3.08-1.86-7.24-24.2-17.4-23.49-4.44.31-21.33,13.08-26.9,16.15-9.03,4.99-20.3,10.85-30.67,10.81,5.75-6.92,14.9-9.62,22.3-14.18,13.37-8.24,29.22-22.75,45.97-20.57,1.3.17,2.56,1.65,4.2,1.68,3.69.07,9.98-4.56,14.52-1.91M1480.51,327.35c-1.47-1.44-5.74-2.07-7.76-1.22l6.01,10.98c2.97-1.35,3.84-7.71,1.75-9.76"/>
		<path class="cls-2" d="M1483.75,709.96c-27.47,22.4-52.93,2.89-40.99-29.99,1.35-1.36,1.88.1,2.02,1.52.3,3.04-1.21,6.45-1.1,9.98.77,24.54,32.2,10.34,40.07-2.5v20.99Z"/>
		<path class="cls-2" d="M1483.75,460.06v8c-15,21.89-34.73-.3-30.56-20.05.52-2.44,2.76-7.04,5.28-7.77,6.99-2.02,22.38,13.37,25.28,19.82M1461.83,463.42c1.4,4.52,13.63-3.32,11.46-7.36-4.18-7.8-13.02,2.33-11.46,7.36"/>
		<path class="cls-2" d="M1483.75,613c-13.99,2.46-28.71,1.33-38.99-9.5-6.95-7.32-9.9-14.61-6.49-24.46,1.06-3.07,4.53-11.81,8.48-11.02v15.49c0,6.16,17.09,24.98,24.03,23.07,4.9-1.35,8.22-9.56,12.97-7.57v13.99Z"/>
		<path class="cls-2" d="M1483.75,665.98v17.99c-4.46-8.76-8-18.07-12.83-26.66-2.33-4.14-16.03-22.4-16.18-23.83-.19-1.84,2.98-12.45,4.51-12.46l10.08,6.96c-.34,4.2-2.41,5.28-1.11,10.05,2.18,8.01,11.45,20.32,15.53,27.96"/>
		<path class="cls-2" d="M1483.75,495.05c-10.36-2.24-22.51,1.95-26.01-11.49l11.6,4.4,14.41.09v7Z"/>
		<path class="cls-2" d="M696.75,241.15c-1.52-1.46,5.02-5.85,6.06-6.43,15.95-8.94,34.2-5.41,35.97,14.9,2.3,26.35-12.18,40.42-38.03,40.53l1,11.98c2.07.3,4.53-2.17,6.36-1.79,7.97,1.69-5.64,6.84-6.2,8.45-.72,16.67-6.79,47.25-26.92,50.05-16.64,2.31-20.02-11-13.95-23.94,7.25-15.47,31.72-23.17,24.45-43.01-1.6-4.35-5.03-5.35-6.74-9.22l9.5-6.2c25.09,19.56,38.16.37,35.49-25.81-1.92-18.82-13.88-14.62-26.98-9.51M686.74,316.13c-1.04-1.1-5.68,4.07-6.51,4.98-6.01,6.59-12.92,17.64-7.34,26.35,4.18,6.53,7.23-2.68,8.88-6.82,3.27-8.24,3.81-15.86,4.97-24.51"/>
		<path class="cls-2" d="M502.76,530.04c1.37-1.34,1.88.1,2.02,1.51.61,6.17-4.42,11.78-.46,18.4,6.84,11.43,42.54.92,44.36-10.47,1.98-12.38-2.61-16.51-10.81-24.14l4.86-10.84c7.36,5.83,16.55,7.26,24.74,1.78,6.57-4.4,13.34-21.91,22.79-29.2,15.9-12.25,29.89-1.42,24.52,17.52-2.68,9.45-17.61,19.02-26.37,22.62-3.46,1.42-15.18,4.02-16.68,5.31-1.16,1-2.54,7.52-3,9.5-5.49-.66-3.69-5.07-3-8.99l-12,2c7.22,27.48-15.35,50.79-42.79,43.28-18.46-5.06-14.29-24.66-8.19-38.28M576.75,505.04c7.31-.66,14.74-3.83,21.01-7.47,3.55-2.06,16.02-9.04,6.26-11.29-12.31-2.84-22.7,8.57-27.28,18.76"/>
		<path class="cls-2" d="M1245.74,275.14c.27,2.01.19,1.65-1.24,2.25-4.69,1.96-10.15,1.27-14.69,5.31-9.64,8.58,6.1,26.69,13.46,32.4,15.14,11.74,27.55.04,30.61-15.83l10.4-.88c3.59,2.98-.18,7.71.88,11.74,1.27,4.86,8.45,12.34,13.52,13.55,11.09,2.65,23.32,1.04,34,7,12.04,6.72,14.47,20.22.97,26.83-18.28,8.95-40.13-10.55-50.94-23.91l-10.96.52c-.93-4.95,4.56-3.92,6.97-6.49l-5.99-9.5c-11.53,6.58-21.89,12.69-35.54,8.04-13.11-4.46-26.69-22.99-22.97-37.07,2.59-9.81,22.4-15.88,31.52-13.96M1299.75,329.12c-.85.76,5.22,7.28,6.07,8.19,2.95,3.15,19.28,16.28,22.85,13.73,2.44-15.61-16.55-20.8-28.92-21.92"/>
		<path class="cls-2" d="M875.95,343.91c.85.54,5.54.61,7.38,1.12,7.82,2.17-.35,5.57-5.57,4.08l3,11.99c18.81-6.01,36.51-3.17,45.87,15.61,6.81,13.68,6.29,34.23-12.37,36.36-6.06.69-17.45.81-21.5-3.99,8.55-.87,20.76,2.93,23.18-8.42,1.95-9.11-7.58-33.58-17.15-36.1-11.26-2.97-19.46,4.69-24.74,13.56l-11.3-2.53c-1.89-1.12,2.35-6.19,2.78-8.23,4.99-23.76-29.56-23.76-40.21-39.33-5.33-7.79-5.57-17.66,4.03-21.83,17.05-7.4,31.92,8.94,39.58,22.22,1.52,2.63,6.31,15.01,7.03,15.47M836.76,312.12c-5.29,14.72,9.38,25.73,21.99,28.98,1.46-1.17-15.33-30.33-21.99-28.98"/>
		<path class="cls-2" d="M434.75,365.11c-3.37,4.29-10.38,3.39-14.96,6.53-11.89,8.14,4.93,27.6,12.48,33.42,14.87,11.46,27.82-.11,30.61-15.83l11.87-.14c-.12,6.46-2.18,8.28,1.18,14.32,9.73,17.48,31.69,7.58,47.15,17.84,12.78,8.48,11.44,22.46-3.34,27.31-16.63,5.46-38.65-11.82-47.19-25.26l-11.79.78c-.68-4.3,3.77-5.48,6.99-6.01l-6.01-9.98c-7.93,4.18-16.05,9.7-25.49,9.78-16.16.15-31.78-15.65-33.39-31.38-1.77-17.26,18.06-22.59,31.89-21.38M488.75,419.09c-.44,1.88,1.07,2.37,1.99,3.5,2.94,3.58,23.33,22.14,27,18.49,2.33-16.45-16.33-20.43-28.99-21.99"/>
		<path class="cls-2" d="M696.75,776.94c1.1,4.37,1.11,7.61,0,11.99,20.33.19,36.55,9.9,38.04,31.46,1.53,22.1-10.62,34.94-32.71,25.7-1.47-.62-9.11-4.96-9.35-5.68-.35-1.04-.61-2.81,1.4-2.39,7.02,1.47,13.05,8.47,20.58,2.35,8.52-6.92,6.02-38.59-4.25-43.65-10.07-4.96-18.33-.22-26.21,5.86l-9.45-6.26c-.32-1.57,5.95-6.16,6.71-9.13.71-2.79.54-10.55,0-13.51-1.16-6.4-16.08-17.29-20.74-23.25-22.7-29.05,14.77-44.49,29.85-12.85,2.87,6.01,4.83,14.4,6.01,20.99,1.75,9.81-1.46,12.6,10.1,17.88-3.05,4.59-5.95,1.04-9.98.5M669.86,729.08c-.56.32-2.85,6.17-3.03,7.46-1.51,10.89,7.22,20.08,14.9,26.4.54-8.17-1.17-15.95-3.97-23.51-.92-2.48-4.22-12.46-7.9-10.36"/>
		<path class="cls-2" d="M1438.75,505.06c3.34-2.68,10.92,11.3,11.78,13.71,7.91,22.31-10.15,32.12-30.16,30.14-18.52-1.83-27.59-16.63-29.69-33.79l-11.93.93c5.95,20.66-4.41,1.88-6.69,1.18-3.92-1.19-12.92.19-17.8-.2-13.51-1.09-32.27-7.85-35.06-22.93-3.26-17.63,14.54-19.17,26.85-12.85,13.69,7.03,23.3,26.93,41.4,18.01,3.61-1.78,4.72-5.87,7.79-8.18l7.48,9.44c-4.58,9.03-8.68,14.55-3.87,24.91,5.36,11.54,31.26,10.31,40.6,4.81,11.93-7.02,2.67-16.16-.71-25.19M1329.06,493.34c-.56.61-.85,1.44-1.07,2.22.78,5.38,29.56,8.7,34.76,7.48,2.65-2.36-15.13-12.26-17.73-12.75-4.37-.83-12.79-.42-15.95,3.05"/>
		<path class="cls-2" d="M798.75,611.01c7.07,2.33,14.55,13.73,15.75,20.72,3.25,18.85-17.92,26.48-33.3,25.29-16.37-1.27-26.46-14.88-29.5-30l-11.94,3.48c1.34,1.36,2.83,3.06,2.96,5.05.56,8.52-7.36-3.84-9.44-4.15-1.64-.25-7.05,1.54-10,1.64-14.67.51-37.93.61-44.34-15.74-6.71-17.14,7.85-23.6,22.77-18.76,12.33,4,22.34,17.81,35.54,16.47,8.65-.88,11.63-5.19,15.97-11.93l8.37,7.66c-.07,5.09-3.68,8.17-3.92,13.76-.24,5.57,2.59,13.54,7.7,16.37,8.75,4.85,34.3.9,39.82-7.91,5.87-9.36-8.69-19.57-6.45-21.94M722.75,617.99c-7.87-6.9-20.06-12.89-30.37-7.86-13.71,6.69,2.96,9.36,9.89,9.86,6.92.5,13.79-.33,20.48-2"/>
		<path class="cls-2" d="M870.59,849.75c2.5-10.53,10.79-12.27,5.15.15l12.03.57c1.38-4.94,1.06-9.35,2.47-14.56,3.44-12.69,13.74-21.87,26.97-23.02,31.91-2.79,39.63,18.12,22.02,42.01-2.06.42-1.7-.98-1.44-2.43,1.13-6.24,7.91-14.17,1.21-20.59-7.23-6.93-37.1-5.25-42.47,4.33-6.39,11.4-.79,17.86,5.2,27.19l-5.97,9.07c-2.4,1.31-6.64-6.1-10.95-7.14-21.33-5.12-27.31,21.58-45.25,26.87-14.63,4.31-23.46-4.39-19.13-19.12,5.3-18,34.09-22.79,50.16-23.33M861.74,864.91c-4.77-.79-35.34,6.04-33.99,11.46,8.2,7.9,18.64,3.62,26.47-2.5,1.09-.85,8.67-7.94,7.52-8.97"/>
		<path class="cls-2" d="M1211.09,422.42c5.45-5.47,27.51-5.17,36.02-6.48,6.04-.93,11.62-3,17.64-3.85l-3.5,13.98c-21.15,6.06-55.35,30.84-40.02,56.01,11.04,18.13,44.13,9.34,60.74,4.68,2.79-.78,15.48-5.97,16.78-4.71.14,1.11.03,1.98-.5,2.99-1.83,3.49-20.24,16.42-24.51,18.48-56.32,27.21-84.74-32.61-44.99-70.45-5.24,1.21-11.47.62-16.27,3.22-2.93,1.59-3.99,5.32-7.73,4.76.44-5.66,2.23-14.52,6.33-18.65"/>
		<path class="cls-2" d="M710.76,686.97c6.25-4.54,11.33-11.84,9.99-19.99,3.35-3.45,9.64,11.84,9.93,14.59,1.16,10.98-17.24,25.31-23.91,33.91-1.13,1.45-7.79,13.32-9,12.47l-6.65-12.49c10.29-17.1,18.95-49.45.65-64-23.83-18.94-46.76,17.47-57.44,34.59-1.76,2.82-4.75,10.64-6.53,12.25-1.1,1-1.68.71-3.05.67-.05-18.08,4.31-37.14,16.48-51,31.45-35.82,73.07.36,69.52,39"/>
		<path class="cls-2" d="M944.74,573.02c-.85-5.5-.32-12.52-3.14-17.35-1.36-2.33-4.54-3.31-3.85-6.64,5.4.72,13.71,2.38,17.65,6.33,6.55,6.56,4.44,26.95,5.35,36.13.5,5.01,2.53,10.3,2.97,15.03.17,1.8.88,3.71-1.43,3.44-2.1-.25-10.84-2.71-12.05-3.96-1.55-1.6-4.94-13.77-6.65-17.34-8.04-16.77-25.65-33.64-45.54-25.82-21.13,8.3-13.28,44.7-9.24,61.59,1.33,5.54,4.55,10.69,3.92,16.56-2.17,2.23-10.32-9.58-11.81-11.68-41.02-57.91,16.05-104.73,63.81-56.29"/>
		<path class="cls-2" d="M1035.75,692.98c1.34-1.3,18.46,7.48,21.75,8.74,16.2,6.2,42.75,15.83,55.77-.73,17.57-22.35-13.75-52.29-34.35-59.16l-1.16-14.83c.57-.63,9.97,4.16,11.76,4.72,8.53,2.69,34.41,5.56,39.26,10.74,4.39,4.7,5.46,14.37,4.97,20.51-3.97-.6-5.72-5.5-9.28-7.21-1.47-.71-11.96-3.35-12.71-2.77,15.28,17.59,19.75,50.63.01,66.47-18.72,15.02-45.83,4.82-62.03-8.99-2.07-1.76-16.25-15.31-13.98-17.5"/>
		<path class="cls-2" d="M466.76,463.06c3.47-3.68,5.38-11.44,5-16.48-.22-2.86-2.88-5.77-.52-7.48,5.88,2.94,14.34,10.52,14.55,17.51.23,7.7-9.85,26.69-12.35,35.65-.62,2.25-1.48,12.68-3.19,12.77-15.06-7-9.26-14.06-9.45-26.5-.23-15.1-8.53-38.04-24.62-42.39-25.83-6.98-35,26.29-38.95,44.91-1.69,7.97-1.57,17.09-4.99,23.98-3.06.03-7.21-23.75-7.48-27.49-.94-13.08,2.85-29.45,11.16-39.8,22.63-28.18,64.86-4.93,70.84,25.32"/>
		<path class="cls-2" d="M810.75,482.55l2.49-1.5c7.39,14.17,12.51,30.57,22.53,43.46,24.49,31.5,53.43,9.8,50.96-24.96-.51-7.17-7.32-23.43-6.98-26.96.21-2.14,7.39-12.2,9.93-10.49,1.24,13.51,24.78,33.1,25.15,44.42.2,6.22-4.74,16.55-11.08,18.5,1.23-8.38-2.32-16.91-8.99-21.99,1.39,37.19-43.54,68.63-70.99,33.46-5.81-7.44-13.02-24.62-13.02-33.96v-19.99Z"/>
		<path class="cls-2" d="M775.75,373.1c6.82-5.25,10.5-12.55,11.51-21,6.12,3.8,9.88,14.02,8.02,21.03-1.8,6.76-19.68,22.94-24.96,30.02-1.27,1.7-5.44,11.39-7.55,9.92-.9-4.11-6.29-8.12-6.01-12.41.15-2.33,5.72-12.31,7.01-16.05,5.21-15.22,7.14-36.89-7.11-47.91-16.79-12.98-34.62,2.78-44.74,16.07-5.88,7.72-14.08,25.6-19.19,30.8-.95.97-1.31,1.89-2.98,1.51-1.36-29.38,17.54-72,53.04-65.52,14.39,2.63,32.95,24.66,32.95,39.03v14.49Z"/>
		<path class="cls-2" d="M669.76,429.08c6.37-2.33,11.86-3.72,16.45-9.05,1.77-2.05.47-4.89,4.53-3.95,6.48,27.03-17.18,26.93-34.98,34.51-2.5,1.07-14.86,8.71-16.01,7.48.46-3.95-1.83-11.3.23-14.76.41-.69,11.12-7.37,13.23-9.26,13.86-12.37,28.13-38.53,11.05-53.97-19.36-17.52-56.6,8.87-74.03,19.99-1.78-1.29-1.72-2.06-1.06-4.03.91-2.76,13.33-18.36,16.02-20.98,35.05-34.06,83.98-13,71.87,36.85-1.59,6.55-4.49,11.23-7.31,17.17"/>
		<path class="cls-2" d="M968.98,267.91l-4.25-13.25c-.04-1.26,17.63,2.34,19.53,2.48,16.18,1.16,34.07-6.07,40.69,13.31.44,1.29,2.79,8.72.3,8.67-6.06-6.17-14.24-6.89-22.5-6.97l9.97,10.51c15.54,19.68,16.92,54.56-9.99,64.94-22.77,8.77-50.93-3.36-66.97-19.98,1.07-1.49,1.64-1.55,3.39-1.46,2.89.16,8.95,2.78,12.55,3.49,17.66,3.47,60.27,11.53,63.95-15.12,3.7-26.85-24.83-41.08-46.68-46.63"/>
		<path class="cls-2" d="M425.74,747.95c1.79,1.26-2.77,25.26-2.98,29.5-2.15,42.79,27.68,57.07,55.97,23.96,1.99-2.33,3.71-7.07,5.48-8.51,1.46-1.19,16.68-7.84,17.54-6.95-.59,11.24-14.58,16.49-12.75,28.25.32,2.08,2.49,9.91,5.74,8.28,4.87-2.44,10.02-16.95,10.02-22.54,5.48-1.65,8.64,8.73,8.74,12.78.4,15.36-35.2,24.06-37.76,4.22-19.45,14.19-57.06,15.16-66.03-11.46-4.14-12.28-4.04-28.83,1.5-40.56,1.41-2.98,11.03-19.4,14.53-16.95"/>
		<path class="cls-2" d="M1232.73,597.01c11.36-24.72,44.23-42.42,66.54-19.01,11.92,12.51,16.17,29.56,14.46,46.49-.22,2.17-.87,8.76-4.01,7.04-9.14-15.91-12.79-34.91-27.96-47.02-23.02-18.38-41.23,6.2-44.91,28.11-.63,3.77.61,7.13-.89,11.11-.41,1.09-7.89,11.49-8.76,12.23-1.26,1.08-1.68,1.32-3.45,1.04l1.72-25.37c-.23-2.12-8.82-12.06-11.75-10.16-2.49,1.55-2.22,9.24-1.96,12.04.31,3.34,5,13.39,1.38,14.45-5.5-.86-11.94-6.28-12.99-11.92-1.88-10.06,13.35-25.95,23.87-23.79,3.7.76,5.58,4.27,8.72,4.77"/>
		<path class="cls-2" d="M602.74,410.09c3.35-26.38,55.09-9.25,32.49,13.99-1.8.4-1.97-1.41-2.45-2.53-2.94-6.77-5.83-18.71-14.95-18.38-1.1,4.95-3.52,10.35-.96,15.29,1.85,3.57,15.98,14.79,15.85,18.12-.15,3.82-17.6-2.36-19.26-3.46-1.54-1.02-4.73-6.69-7.24-9.01-14.41-13.29-42.1-21.36-50.2,2.74-6.15,18.29,1.09,37.98,5.68,55.79l-1.56,2.36c-3.7,1.04-13.39-12.11-15.43-15.42-6.7-10.89-8.22-23.35-6.96-36,3.07-30.93,42.18-34.83,64.98-23.5"/>
		<path class="cls-2" d="M548.75,567.03c2.99-3.05,16.6,14.3,19.62,15.86,5.03,2.59,10.28.45,15.29-.95,3.04-7.93-20.94-15.42-20.9-17.41,3.24-4.53,11.31-5.93,16.39-4.45,12.9,3.77,16.06,38.42-3.41,36.94,9.63,21.98,6.82,57.51-20.94,63.53-20.21,4.39-38.57-3.22-52.6-17.51-3.09-3.15-5.92-7.58.93-7,8.3.7,21.46,7.56,31.39,8.68,30.25,3.43,49.53-11.23,33.74-41.72-4.19-8.1-12.83-13.26-15.33-17.67-.84-1.48-4.84-17.63-4.18-18.3"/>
		<path class="cls-2" d="M948.01,422.34c.6-.6,14.49-6.95,15.45-7.09,1.79-.27,2.2-.08,3.28,1.35-5.09,12.57-20.47,19.73-10.49,34.48l1.09.91c4.44,1.08,9.58-12.85,10.71-16.11.89-2.55.13-8.75,4.71-6.34,2.68,1.42,5.11,9.99,5.01,12.99-.37,12.26-24.56,19.93-33.09,12.08-2.64-2.43-2.98-6.07-5.45-8.53-20.86,15.75-58.73,14.47-66.21-14.81-5.17-20.26-.19-39.21,14.37-54.04l2.87.82c-.44,15.29-5.22,29.74-2.26,45.24,6.25,32.83,34.13,31.2,53.24,9.78,2.6-2.91,5.32-9.3,6.76-10.74"/>
		<path class="cls-2" d="M452.1,520.68c18.81,18.1,40.07-3.44,47.12-21.66,1.02-2.65,1.02-7.2,2.06-8.94.54-.9,13-11.04,13.96-11.06l2.37,1.5c-2.86,13.04-12.58,23.43-.88,35.05h3.03c5.24-2.77,4.17-20.12,3.99-25.52,4.49-.71,10.95,6.94,11.79,10.71,3.37,15.17-25.95,32.48-35.29,15.3-18.62,22.07-55.36,31.57-70.69.67-7.85-15.81-8.42-30.02-2.09-46.45,1.58-4.11,4.49-8.98,6.62-2.06,5.45,17.67,2.49,37.53,18.02,52.46"/>
		<path class="cls-2" d="M1228.1,793.28c12.49-12.79,39.25-14.44,54.64-6.35-2.19-21.28,37.19-18.3,37.94-1.43.1,2.34-2.02,13.2-5.41,12.42-2.55-4.5-10.21-20.53-16-20.07-2.83.23-3.64,7.16-3.56,9.54.3,9.56,16.19,15.58,18.04,24.52-.98.94-16.31-2.23-18.28-3.21-1.52-.76-4.61-5.49-6.71-7.29-14.88-12.78-43.66-20.94-51.31,3.71-6.31,20.32,5.49,39.45,9.27,58.74-2.49,3.48-12.13-7.27-13.99-9.43-13.14-15.22-19.94-45.46-4.62-61.15"/>
		<path class="cls-2" d="M574.73,667.99c1.31.9,7.18,25.88,8.99,30.51,8.24,21.02,28.57,40.65,48.53,18.48,10.25-11.38,8.54-18.98,13.05-30.94,1.65-4.36,8.98-9.26,11.96-13.05,2.62.1,2.58,2.38,2.51,4.44-.17,5.56-5.22,16.96-4.77,20.92.26,2.25,7.26,12.21,10.14,11.55,4.02-3.86,3.9-10.29,3.63-15.46-.16-3.1-3.06-9.71-.07-10.96,19.97,6.56,11.67,26.65-3.97,32.99-8.66,3.51-11.74.51-18.47-4.49-20.32,28.85-58.9,36.85-74.71-1.32-5.4-13.03-5.67-21.15-2.52-34.87.44-1.92,2.04-10.28,5.68-7.79"/>
		<path class="cls-2" d="M1186.75,832.41c.57-3.68,3.31-3.09,5.46-.46,3.75,4.61,8.33,20.2,12.15,26.84,11.17,19.38,32.76,35.78,49.8,12.01,5.59-7.79,8.43-17.99,9.63-27.45.24-1.85-1.05-3.57-.6-5.48.37-1.58,9.71-14.38,11.09-14.94,1.76-.43,1.6.66,1.98,1.95,1.59,5.4-1.55,17.09-1.34,23.29,16.01,23.82,16.39-.02,10.24-14.19-.92-5.69,12.94,1.29,14.39,7.64,2.12,9.28-5.51,19.86-13.45,24.12-8.04,4.31-11.29.56-18.32-2.84-9.11,22.86-39.91,41.22-62.03,23.5-5.7-4.57-18.99-23.12-18.99-30s-.97-17.75,0-23.99"/>
		<path class="cls-2" d="M914.75,686.98c1.59-1.74,6.87,6.39,7.74,7.02,5.18,3.79,11.41,1.75,16.19-1.59,5.35-3.73,25.53-30.99,28.6-37.38,4.08-8.5,3.09-10.27-6.96-8.95-6.7.88-19.15,9-22.98,8.87-2.29-.08-9.78-4.09-11.05-6.01-3.91-5.94-.32-24.48,1.11-31.77.54-2.78,5.39-23.18,6.84-23.14,1.59,2.86,5.95,7.3,6.96,10.02,1.62,4.37-4.01,17.96-5.38,23.53-1.2,4.89-2.6,9.8-3.05,14.84l2.01,1.15c15.5-12.21,49.41-7.24,43.68,17.64-2.57,11.18-23.38,39.55-34.03,43.96-14.06,5.82-26.41-5.12-29.69-18.19"/>
		<path class="cls-2" d="M762.74,535.03c-9.96-4.68-17.11-6.89-23.2,4.3-4.02,7.39-10.2,36.32-10.77,45.19-.16,2.47-.74,9.7,3.3,9.32,9.44-3.9,16.14-12.75,22.67-20.34,13.81-2.99,17.72,2.54,21.73,14.29,1.68,4.91,9.1,36.73,7.27,39.2l-12.8-8.68c.18-4.84-3.43-35.5-6.7-36.29-4.34,3.21-7.23,8.15-11.57,11.4-3.59,2.69-7.86,5.07-12.41,5.59-30.7,3.5-25.94-24.73-21.04-45.02,3.8-15.74,9.06-33.1,28.97-29.89,2.59.42,17.35,7.92,14.56,10.93"/>
		<path class="cls-2" d="M1116.11,269.5c10.13-9.9,27.78-2.05,34.08,8.7,3.19,5.44,3.59,11.98,7.06,16.91,2.1-2.52,4.35-5.03,6.33-7.65,3.35-4.43,12.22-21.56,14.61-23.38,1.56-1.19,14.72-3.55,15.56-2.93-5.64,8.59-25.1,40.15-34.55,41.92-15.67,2.93-14.88-8.99-18.97-18.93-1.69-4.11-6.94-17.35-12.54-11.56-2.79,2.89-8.73,31.61-9.63,37.35-2.41,15.45-2.57,29.81,17.69,26.18l-.59,3.09c-12.46,4.76-30.04,1.72-32.35-13.65-1.85-12.33,4.16-47.13,13.3-56.05"/>
		<path class="cls-2" d="M1171.74,686.97c-1.02,1.08-10.48-7.8-18.52-2.02-7.53,5.42-12.45,32.43-14.01,41.97-1.51,9.21-5.48,24.98,8.86,14.86,5.06-3.57,13.52-15.45,17.1-16.89,3.27-1.31,10.04-.65,12.97,1.17,8.04,5.01,14.22,42.87,14.59,52.88l-12.81-8.68c-.23-4.93-3.32-35.5-6.7-36.3-6.86,5.61-10.46,12.39-19.51,15.46-10.87,3.69-26.51.87-28.73-12.2-2.73-16.02,5.14-61.93,27.09-61.85,5.56.02,19.17,5.06,19.66,11.6"/>
		<path class="cls-2" d="M1438.4,614.35c1.7,1.66,6.45,7.85,7.56,9.93.77,1.43,4.34,11.39.28,7.72-1.86-1.68-3.11-4.94-4.98-7.02-8.76-9.8-14.34-7.1-22.02,2-7.48,8.85-15.44,24.82-6.13,34.64,7.08,7.47,13.12,4.95,22.48,5.52l4.16,10.3c-2.84,2.41-6.11,1.35-9.5,3.52-9.68,6.2-9.6,18.83-4.5,27.98-5.72-.07-15.36-1.14-14.99,7l8.11.6c-.17,2.62,6.07,11.1.48,10.32-18.47-2.59-30.6-21.94-8.67-29.98-2.43-10.38-.54-17.34,6.08-25.38-18.33-12.05-25.06-30.08-12.83-49.84,8.13-13.13,22.05-19.43,34.47-7.32"/>
		<path class="cls-2" d="M1367.75,338.09c8.65,2.87,13.44,12.3,12.99,21.02,24.8.09,17.31,27.5-.99,31.98v-11.98s6.99-1.02,6.99-1.02c.9-9.42-15.33-2.3-15.99-2.99,2.9-14.61-7.48-29.15-23-23.99.07-2.6-.43-11.16,1.22-12.77,1.26-1.23,10.35-2.1,13.73-4.77,3.38-2.67,7.95-10.85,7.38-15.29-1.4-10.98-27.18-35.91-37.35-23.66-3.83,4.61-3.2,11.21-6.98,15.5-2.84-8.95,3.94-25.87,12.29-30.18,16.01-8.28,37.89,12.31,39.59,27.79,1.33,12.15-4.38,20.36-9.88,30.36"/>
		<path class="cls-2" d="M1075.74,530.04c-6,14.5-10.17,25.02,9.76,27.73,8.44,1.14,27.08.33,30.96-8.49,4.99-11.35,1.05-16.23-4.71-25.73l6.01-9.49c4.42.32,4.83,6.25,8.93,7.54,4.13,1.3,13.82.89,17.56-1.55,2.05-1.33,8.11-10,9.48-9,.39,5.44,8.41,14.97,12.03,8.51-5.62-6.96-.56-8.73,3.48-14.49,11.67,16.18-1.18,40.55-20.97,24.93-5.11,7.82-14.99,9.37-23.52,7.04-1.22,12.92-5.49,26.37-17.97,32.53-14.91,7.35-44.15,4.65-43.08-17.06.33-6.79,4.94-19.98,12.04-22.46"/>
		<path class="cls-2" d="M914.75,680.96c-6.51,1.41-18.87.34-20.78,8.72-2.43,10.62,12.21,35.03,23.51,36.06,3.28.3,11.66-3.05,14.18-5.38,2.85-2.62,5.59-10.99,7.08-11.91,2.95-1.81,8.44,1.37,12.01.52-2.53,8.06-3.07,14,2.56,20.92,5.18,6.37,11.18,4.15,17.41,7.55-3.56,5.51-6.23,8.96-2.96,15.5,3.47.87,4.45-5.74,5.65-6.04l11.34,1.05c-8.18,17.88-36.52,20.07-32-5-10.78-.76-14.91-8.56-19.5-16.98-14.6,8.89-32.37,8.45-44.02-5-11.8-13.63-15.85-35.41,5.68-41.33,5.52-1.52,16.11-3.92,19.83,1.32"/>
		<path class="cls-2" d="M1177.76,540.04c6.66,1.36,11.66,4.55,18.73,2.23,8.23-2.7,11.33-9.38,12.75-17.22l10.02,4.98c-.3,9.51,1.26,23.47,12.46,26.53,8.84,2.41,32.91-9.94,35.58-18.46,3.96-12.62-7.96-13.2-12.08-19.02-2.8-3.95,5.15-.7,6.2-.2,25.16,12.01,21.61,36.58-3.15,46.18-18.6,7.21-31.9-1.57-43.16-15.95-7.55,5.52-15.03,8.76-24.41,5.38-8.85,22.48-29.53,8.58-30.94-9.93l2.06-1.12c1.98,1.36,8.14,2.25,8.8,4.24.79,2.4-1.32,6.99,2.61,7.36,5.46-3.8,4.69-9.06,4.53-14.98"/>
		<path class="cls-2" d="M1168.74,768.94c1.36,1.38-12.95,18.1,1.61,24.88,8.54,3.97,34.4,2.88,39.16-6.61,5.46-10.89.58-18.23-5.61-26.92l6.36-9.34c6.98,5.77,8.99,8.28,18.88,6.91,8.13-1.13,9.78-6.94,15.09-11.89,2.64,8.68,19.92,15.79,9.75,2.49l6.26-9.52c2.02-.43,1.39.82,1.99,1.96,9.11,17.14-1.33,37.09-20.86,24.14-6.24,6.97-14.14,11.12-23.64,7.89-1.26,12.93-3.04,25.1-14.68,32.83-12.05,8-42.63,8.64-45.24-9.42-1.15-7.93,2.1-25.03,10.91-27.4"/>
		<path class="cls-2" d="M999.73,813.92c2.34,6.31,5.41,11.3,13.01,9.99l-3.56-8.08c1.07-1.39,5.72-9.27,7.55-7.91,9.35,16.28-.58,40.14-20.49,25.16-6.75,8.55-13.87,9.8-24.49,8.82,1.35,16.8-7.69,33-24.75,36.74-18.48,4.04-38.91-2.56-33.97-24.96.71-3.23,5.95-16.57,9.22-16.75,1.37-.08,1.1,1.46.68,2.63-2.27,6.29-7.99,15.17-1.14,20.79,7.86,6.46,36.95,5.15,42.38-4.54,6.14-10.95.2-18.43-5.38-27.42l5.95-9.02c1.19-.89,5.5,5.12,7.09,5.95,11.61,6.09,21.25-3.21,27.91-11.42"/>
		<path class="cls-2" d="M971.75,507.03c-6.06-5.78-15.21-9.6-18.48-17.99-6.66-17.03,10.92-23.91,24.73-17.72,12.28,5.51,26.02,34.57,26.7,47.35.29,5.52-5.02,18.41-11.86,17.28-2.67-6.21-2.32-20.84-10.52-21.96-13.09-1.78-38.92,10.67-50.23,17.84l-11.26-4.89c-.89-1.3,6.89-10.68,7.54-10.84,1.01-.24,3.22,1.64,4.96,1.89,9.38,1.36,28.06-9.9,38.44-10.97M967.76,477.06c-7.27,14.41,7.49,24.19,17.97,30.99,1.26-1.69-4.38-14.49-5.61-16.87-1.06-2.03-9.82-16.08-12.36-14.12"/>
		<path class="cls-2" d="M1410.75,271.64c1.79-12.61,15.32-19.49,25.54-9.54,15.45,15.04-1.05,48.74-14,61.06-4.74,4.51-16.61,7.9-21.33,2.47,6.22-12.21,19.41-15.84,5.27-28.47-10.51-9.38-26.82-18.31-40.34-22.16l-2.15-12.34,12.88-.38c1.11,3.88,2.24,7.36,5.64,9.86l28.5,17.99c.58-5.79-.79-12.9,0-18.49M1417.75,285.63c-.57,4.24,0,10.45,0,14.99,0,.12,1.45,2,2.01,1.02,6.64-9.16,12.33-19.95,12.99-31.5-8.24-1.24-14.06,8.47-15,15.49"/>
		<path class="cls-2" d="M456.71,362.06c-.01-9.23,7.75-15.55,15.97-18.03-2.03-7.48-5.63-14.16-5.54-22.24.3-28.92,48.31-48.82,53.35-13.9.64,4.4,1.22,12.5-1.26,16.22l-3.61-15.36c-7.39-15.22-38.84,5.97-41.4,15.34-1.81,6.61,2.11,15.57,7.59,19.46,2.04,1.45,9.41,3.83,9.86,5.2l-.93,11.36c-8.73-1.99-13.3-3.38-20.92,2.57-6.02,4.69-5.75,10.47-7.08,17.42-5.86-2.17-9.1-6.11-15.99-2.98-1.65,4.65,5.78,4.46,6.07,5.57l-1.08,11.4c-18.23-7.44-20.75-35.84,4.97-32.03"/>
		<path class="cls-2" d="M862.74,280.14c1.44,4.96-.68,8.69.46,14.05,3.47,16.39,25.78,6.59,34.87.76,17.09-10.95,9.99-26.2-4.82-34.75l2.53-11.03c3.67-.2,5.78,2.7,9.47,3.03,11.4,1.01,18.96-8.61,20.51-19.04,6.15,1.64,8.31,8.16,15.99,4.99,1.27-4-4.23-4.59-4.9-6.66l1.9-10.32c17.46,8.13,14.85,38.96-8.98,29.98-1.45,8.98-10.03,15.79-19.03,16,3.42,12.72,5.58,25.15-3.02,36.45-8.35,10.97-29.36,19.02-41.48,10.53-8.31-5.82-10.4-26.52-3.51-33.99"/>
		<path class="cls-2" d="M1332.74,619c1.68,2-5.91,16.62,4.73,21.76,10.08,4.86,39.39-5.44,40.23-18.38.65-10.04-5.28-16.09-13.02-21.08l3.07-12.29c7.62,4.38,8.83,6.27,17.67,3.19,9.01-3.14,10.5-8.61,13.32-17.18,2.88,1.4,4.84,5.58,7.93,6.55,2.18.68,9.72,1.25,7.59-2.58l-5.22-4.44,3.7-10.52c15.47,10.75,12.8,39.78-10.53,30.09-4.47,9.44-10.86,14.21-21.49,14.9,6.17,20.52.21,38.41-20.72,45.75-23.79,8.33-35.94-5.14-31.83-28.82.42-2.41,1.28-7.15,4.55-6.94"/>
		<path class="cls-2" d="M731.73,293.12c1.28,7.02,7.98,10.28,14.23,12.28,21.45,6.83-.63-16.21-.97-22.94-.24-4.85,11.68-11.61,15.93-12.63,15.28-3.68,45.46,15.36,49.87,30.75,6.13,21.38-19,34.3-37.04,33.53-.51-2.83.67-1.64,2.19-2.25,10.71-4.25,23.7-5.62,21.71-21.15-1.44-11.23-23.68-31.77-34.77-33.03-1.4-.16-2.74.5-4.14.46,2.82,9.4,17.45,23.94,4.35,31.83-8.45,5.09-35.36,4.54-41.89-3.8-6.86-8.75,4.21-10.58,10.53-13.05"/>
		<path class="cls-2" d="M1126.41,393.75c8.96-8.63,2.68-22.06-3.49-29.99l5.82-9.18c.86-.63,5.86,5.07,8,6.03,5.06,2.26,13.73,1.81,18.27-1.48,1.2-.87,7.83-10.64,8.72-10.03,2.44,5.97,5.55,11.43,13.01,9.99,1.04-3.03-3.8-5.28-3.67-7.48.05-.78,6.23-9.58,7.66-8.5,8.8,16.64-.34,40.29-20.49,25-4.99,8.92-14.07,9.48-23.39,9.09-1.41,15.29-5.71,30.39-21.88,35.6-18.62,5.99-41.79,1.11-37.98-22.97.51-3.23,5.92-17.53,9.26-17.71,1.88-.1.87,1.82.67,2.62-1.57,6.56-7.29,11.61-2.4,19.07,5.87,8.96,34.95,6.62,41.89-.07"/>
		<path class="cls-2" d="M536.25,720.96c17.37-3.09,3.34-34.94-5.15-41.84-6.89-5.6-17.82-2.89-23.38,3.32-2.5,2.8-3.27,6.48-6.6,8.3l-11.37-2.78c4.24-7.02,5.35-10.58,1.87-18.35-4.07-9.08-9.06-7.86-16.87-12.14,2.96-4.87,6.94-8.04,4.53-14.51-2.02-3.17-5.58,2.81-5.59,5.01l-10.94-2.99c3.39-10.13,23.18-15.99,29.45-5.94,2.94,4.72,1.2,9.86.95,14.98,9.31,2.59,14.25,9.59,15.63,18.92,16.95-4.29,33.57-4.59,43.78,11.71,10.75,17.17,10.33,39.05-14.28,40.35-4.96.26-13.63.79-16.55-4.04,4.42-.54,10.32.74,14.5,0"/>
		<path class="cls-2" d="M548.76,329.11c1.64,1.48,9.36-11.02,10.95-12.53,16.54-15.71,34.56-.75,25.78,18.77-6.13,13.63-38.88,29.47-53.02,26.52-2.75-.57-14.73-6.85-11.82-10.3,3.38-4.01,20.35-2.16,22.07-10.98,1.71-8.75-8.24-32.92-12.45-41.48-1.09-2.22-5.01-7.11-5.35-8.72-.43-2.04,5.05-12.24,6.33-12.23l9.36,8.46c-5.85,8.77,1.39,18.8,4.41,27.75,1.59,4.72,2.85,9.85,3.74,14.76M578.66,325.2c-10.37-3.99-17.58,2.07-23.88,9.44-.91,1.07-6.83,8.69-6.02,9.46,7.17-1.42,14.71-4.71,20.92-8.57,2.43-1.52,11.51-6.59,8.99-10.33"/>
		<path class="cls-2" d="M884.94,794.11c1.92-1.12,7.18,1.86,10.08,1.61,4.48-.4,13.9-5.33,18.97-7.04,4.71-1.59,9.93-2.54,14.76-3.74.46-1.9-.7-1.92-1.67-2.81-3.36-3.06-8.16-5.31-11.31-8.68-18.84-20.14,7.96-37.47,26.88-19.88,8.83,8.21,22.32,36.88,18.59,48.34-.9,2.77-5.72,12.1-9,11.84-3.95-.31-3.4-20.28-11.19-22.59-7.41-2.19-31.94,7.37-39.65,10.93-2.6,1.2-10.68,6.77-12.13,6.81-1.78.06-11.5-5.04-11.5-6.45l7.17-8.32ZM924.84,755.04c-3.99,10.36,2.07,17.57,9.44,23.87,1.04.89,8.72,6.85,9.46,6.02-1.2-7.27-4.73-14.66-8.58-20.9-1.5-2.43-6.59-11.51-10.33-8.99"/>
		<path class="cls-2" d="M1289,516.31c3.21-3.05,10.22.59,13.29,2.72-.54,6.77-.75,9.83,1.69,16.26,1.01,2.65,6.31,12.74,9.87,8.12,4.53-5.88,1.73-24.32,12.26-24.3,13.51.03,20.65,6.66,25.81,18.24,10.03,22.52,11.91,57.8-22.56,53.54-5.78-.71-19.99-7.02-23.13-11.87-.87-1.34-.88-2.53,1-2,6.16,1.74,10.88,7.43,19.18,7.61,20.49.44,18.11-32.73,14.29-46.05-.61-2.13-4.2-13.16-7.92-10.54-3.75,11.67-3.6,30.36-21.57,24.03-5.98-2.11-18.57-14.82-21.49-20.5-2.09-4.07-4.53-11.64-.71-15.26"/>
		<path class="cls-2" d="M589.66,754.03c1.37,9.43,10.18,16.84,19.45,17.83,6.13-1.96-6.25-21.35-2.43-27.24,1.35-2.08,13.98-6.29,16.88-6.44,11.82-.62,30.34,16.74,35.99,26.46,18.06,31.05-11.62,45.42-38.8,39.27,2.33-3.59,8.42-1.55,12.39-2.1,29.27-4.05,13.75-35.51.26-48.52-2.04-1.96-13.57-11.88-13.02-4.56.61,8.12,9.48,21.19-.66,27.67-8.73,5.57-37.3-2.12-42.39-11.54-5.15-9.54,5.21-10.56,12.33-10.84"/>
		<path class="cls-2" d="M1260.71,703.94c-9.32-.96-14.21-14.51-24.71-10.21-7.49,3.07-25.88,35.69-27.48,44.99l-12.78,2.24.1-12.9,8.34-3.16,19.56-30.92c-17.98,6.79-48.05-9.9-25.47-26.97,13.44-10.16,32.71-1.22,45.39,6.56,11.64,7.14,21.48,15.04,17.05,30.37M1235.75,686.96c-7.46-8.15-19.65-12.48-30.37-14.76l-2.47,2.42c4.17,14.51,20.86,13.26,32.84,12.34"/>
		<path class="cls-2" d="M584.61,830.01l7.12,7.42,34.01,7.47c-3.88-9.44-10.06-21.6-3.83-31.32,7.79-12.17,25.44-2.76,29.63,8.04,4.93,12.72,1.87,47.35-9.3,56.27-3.04,2.43-8.49,5.33-12.54,4.58-4.7-3.44,8.19-17.95,1.6-25.63-6.11-7.13-42.57-12.77-52.63-11.45l-6.94-11.47,12.86-3.92ZM637.74,853.9c.55-4.92,2.63-9.49,3.05-14.45.28-3.28.81-21.23-2.52-21.48-9.53,5.15-9.54,15.92-5.97,24.9l5.45,11.03Z"/>
		<path class="cls-2" d="M654.75,528.04c4.22-.11,2.66,5.02,3.44,8.05,5.65,22.07,16.31,23.09,34.28,11.16,8.26-5.48,20.39-16.88,20.27-27.21-9.17.64-18.51,10.85-27.5,5-9.24-6.02-5.93-27.53-2.54-36.54,5.29-14.07,17.61-14.97,18.13,1.9-8.94,3.48-15.88,12.86-15.09,22.64,8.36,2.12,18.82-9.15,26.32-6.81,3.25,1.01,8.41,12.81,8.7,16.31,1.42,16.89-21.43,44.85-38.51,46.48-20.38,1.94-29.27-24.35-27.5-40.98"/>
		<path class="cls-2" d="M1055.75,800.93h-18.5c-5.36,0-13.85-6.81-14.52-12.47-1.67-14.09,13.35-20.65,25.51-19.51,10.12.96,33.56,13.05,40.42,20.57,3.9,4.27,7.37,16.64,2.59,21.38-5.85-2.42-14.24-12.87-20.75-11.8-5.21.86-10.56,9.32-13.57,13.51-6.92,9.63-13.5,20.84-16.67,32.31l-11.93,2.87-1.53-2.27,1.41-10.65,7.97-4.03,19.57-29.91ZM1067.74,791.95c-6.2-3.29-11.79-7.56-18.47-10.04-2.65-.98-13.37-5.06-14.47-1.37,2.92,15.1,20.8,13.52,32.46,13.36l.48-1.95Z"/>
		<path class="cls-2" d="M1326.75,779.93c-.48-2.77.57-1.69,2.19-2.25,9.44-3.31,21.83-5.41,21.89-18.23.05-11.27-15.53-26.02-24.78-31.3-4.14-2.36-9.4-5.6-14.31-4.18,1.75,9.58,15.08,19.16,6.85,29.33-7.63,9.44-45.95,7.58-46.59-6.02-.19-4.07,8.1-7.65,11.24-7.36,2.64.24,3.04,4.02,5,6.04,3.14,3.24,21.55,10.86,20.13,2.97-1.09-6.07-10.95-15.89-10.38-21.33.48-4.52,13.97-12.3,18.37-12.6,14.38-.97,40.92,15.85,46.57,29.26,9.12,21.67-17.56,36.94-36.18,35.67"/>
		<path class="cls-2" d="M1029.74,698.98c1.4,1.45-.08,1.81-1.48,1.99-6.87.86-12.11-.48-19.19,2.82-19.97,9.3,1.08,40.08,12.15,49.18,2.97,2.44,5.28,4.74,9.52,3.97-.38-8.07-5.28-15.15-3.93-23.43,2.27-13.97,26.13-7.7,34.92-4.03,14.72,6.14,20.7,20.58-.88,19.37-.74-9.36-11.03-17.32-19.99-17.8-3.54,8.11,6.18,18.11,3.7,26.21-1.12,3.65-14.45,7.8-18.26,7.72-11.59-.25-31.25-18.79-36.37-28.69-15.49-29.96,14.55-42.82,39.82-37.3"/>
		<path class="cls-2" d="M1090.75,318.12c14.6-39.34-21.8-39.31-46.33-23.81-20.27,12.82,2.94,8.8,10.74,9.9,24.27,3.42-.54,44.79-14.04,45.86-9.19.73-6.84-7.91-5.95-14.03,1.01-1.47,6.21-.77,8.61-1.4,4.44-1.16,15.21-9.83,14.02-14.88-.9-3.85-22.93.88-26.79-3.91-1.78-2.21-1.72-16.7-.81-19.77,2.3-7.74,19.96-19.46,27.33-22.66,28.85-12.51,47.23,3.48,39.72,33.7-.24.98-4.19,13.59-6.5,10.98"/>
		<path class="cls-2" d="M1053.74,561.02c-4.22.09-2.66-5.02-3.42-8.07-1.3-5.25-6.84-7.92-11.97-7.82-8.08.15-49.83,17.45-57.52,22.47-4.65,3.03-12.91,9.54-4.59,13.41,11.64-19.24,21.5-6.2,19.52,11.5-2.21,19.73-20.64,1.15-25.52-7.48-6.55-11.58-6.94-20.36,3.51-29.51,9.38-8.22,51.4-25.5,63.39-24.38,15.5,1.45,19.11,16.96,16.61,29.89M989.74,582.02c-6.94-.3-8.63,6.63-.97,6.52l.97-6.52Z"/>
		<path class="cls-2" d="M783.76,821.92c4.34-.13,2.44,4.62,3.22,7.26,1.59,5.45,5.53,8.41,11.26,8.52,7.86.16,50.72-17.4,58.43-22.37,3.29-2.12,9.2-6.14,7.93-10.69-2.02-7.24-5.56,1.71-7.33,3.29-17.2,15.37-20.4-25.68-9.88-26.76,15.24,3.92,30.97,26.44,21.19,41.06-6.91,10.34-52.1,29.1-64.5,29.57-17.53.67-23.28-15.11-20.32-29.9M847.75,800.92c6.94.3,8.63-6.63.97-6.52l-.97,6.52Z"/>
		<path class="cls-2" d="M670.76,530.03c-1.66-11.52-2.76-15.92-15.5-14.97-7.83.58-49.62,17.65-56.45,22.53-1.85,1.32-6.64,6.08-6.94,8.16l3.37,5.25c3.12-9.89,16.33-15.11,19.06-2.03,1.03,4.91,1.88,21.39-5.1,22.07-13.9-3.09-30.17-25.96-22.31-39.36,6.62-11.3,36.24-22.84,48.86-27.13,17.3-5.87,36.24-7.04,37.97,15.99.23,3.02,1.23,9.68-2.97,9.48M608.73,558.01c1.08-2.76,1.02-4.93-1.47-6.94-6.42,3.04-5.5,6.45,1.47,6.94"/>
		<path class="cls-2" d="M919.25,358.1c-1.83-.29-7.87-3.22-9.44-4.56-12.62-10.76-.72-35.92,4.45-48.41,8.84-21.31,19.88-48.47,47.42-28.43,10.11,7.36,21.77,22.45.6,23.46-16.96.8-26.2-10.42-8.54-19.04-3.53-9.39-10.14-.94-13.42,4.09-4.42,6.8-20.74,45.15-21.58,52.39-.81,6.96-1.13,14.08,6.44,16.56,3.25,1.06,8.63-.04,8.56,3.94-4.51-.49-10.18.67-14.5,0M954.75,292.61c1.71,2.28,5.3,2.28,7.01,0l-3.5-5.46-3.5,5.46Z"/>
		<path class="cls-2" d="M1329.75,469.05c-.15-3.49,4.31-4.48,6.01-6.47,3.01-3.52,2.6-8.74.65-12.68-3.59-7.27-25.91-21.79-33.75-26.24-2.55-1.45-9.56-5.92-11.99-4.15l-.78,1.22c-3.56,8.91,8.91,22.24,8.91,28.84,0,2.34-3.13,8.57-5.07,9.98-9.06,6.58-40.93-2.28-51.98-4.98l11.47-8.43,34.01,7.92,1.09-2.03c-11.46-14.87-9.15-45.02,14.84-41.86,11.81,1.56,42.8,22.97,44.49,35.48,1.57,11.62-7.1,21.27-17.9,23.4"/>
		<path class="cls-2" d="M795.74,390.1c1.28,1.3-5.48,8.46-6.38,10.11-13.26,24.42,20.17,28.08,36.8,25.79,8.51-1.17,17.56-7.36,13.58-16.9-17.37,7.95-26.93-6.74-14.96-21.47,19.12-23.53,25.43,14.57,19.75,30.74-13.82,39.38-87.78,24.72-61.21-17.2,1.1-1.73,10.46-13.05,12.43-11.06M826.82,396.49c.7,2.34,7.39,4.01,8.93,1.08-.02-6.58-10.49-6.3-8.93-1.08"/>
		<path class="cls-2" d="M755.75,743.95h-14.5c-1,0-6.73,3.2-7.84,4.16-8.98,7.75-.87,23.3,4.53,31.14,4.99,7.24,16.09,19.77,25.73,14.09,7.32-4.31-.56-5.39-2.94-8.16-6.69-7.78-2.8-18.68,7.61-20.15,26.62-3.77,25.07,13.03,8.42,26.41-20.33,16.35-45.13,9-57.18-12.84-14.05-25.47,4.4-42.32,30.4-38.38,2.2.33,6.15.75,5.77,3.73M768.92,773.25c.19,2.24,3.96,8.21,6.35,4.71,4.02-7.2-6.83-10.44-6.35-4.71"/>
		<path class="cls-2" d="M613.76,594.01c1.43-1.46,1.81.1,1.99,1.48.87,6.79-1.18,11.41,2.6,18.41,9.58,17.74,42.19-4.57,47.29-17.49,1.7-4.3,1.46-11.49-3.41-13.39-1.8-.7-2.21,3.1-3.47,4.51-3.48,3.9-9.26,5.41-14.31,4.26-11.9-2.71-12.04-43.02,10.21-27.19,21.62,15.39,24.36,44.58,2.58,61.39-29.21,22.55-52.92.23-43.48-31.98M643.91,574.18l-1.89,4.34,2.37,2.32c1.4.28,6.78-3,7.35-4.35.99-2.37-6.57-3.12-7.83-2.32"/>
		<path class="cls-2" d="M815.74,537.03c-1.91,1.78-19.5-11.78-28.43.07-6.87,9.11-3.04,26.85,1.26,36.6,3.83,8.68,10.49,17.78,20.16,9.82-7.13-4.05-6.71-19.38,1.73-21.28,13.38-3.01,36.95,9.48,17.98,21.97-19,12.51-46.12,8.25-55.89-13.5-13.05-29.05,3.84-56.74,36.07-40.05.95.49,8.95,4.66,7.12,6.36M816.81,568.08c-2.73,1.91,1.44,14.5,5.44,5.91,2.01-4.33-3.19-7.48-5.44-5.91"/>
		<path class="cls-2" d="M759.75,747.96c22.41,4.74,19.33-18.86,15.92-33.42-2.04-8.73-15.77-42.05-22.58-46.47-4.72-3.06-6.32,6.22-10.9,6.93-1.68.26-11.14-1.11-11.44-2.54,5.44-9.65,23.65-13.04,32.92-7.9,15.74,8.73,34.13,59.14,28.57,76.38-4.03,12.51-23.88,15.84-32.49,7.02"/>
		<path class="cls-2" d="M1051.73,683.97c-1.55,1.57-1.76-.15-1.96-1.51-.6-4.04.16-9.79-3.51-12.5-5.99-4.42-22.12-1.23-29.05.99-10.57,3.38-38.41,17.6-44.53,26.49-2.83,4.11,5.95,6.18,6.87,9.21l.18,12.3c-13.02-5.15-17.58-25.96-8.02-36.5,11.74-12.95,46.88-31.57,64.38-30.4,16.58,1.11,20.41,18.62,15.63,31.93"/>
		<path class="cls-2" d="M801.74,504.05c-9.06-1.93-14.21-15.98-14.03-24.45.22-10.63,17.11-23.1,25.51-28.57,11.92-7.76,42.52-23.96,54.57-11.51,5.26,5.43,8.1,19.39,3.97,26.04-2,.69-1.87-1.85-2.03-2.99-.68-4.89.69-8.52-4.98-11.01-14.28-6.27-42.26,9.4-54.31,17.67-2.87,1.97-14.82,10.82-15.96,13.07-3.01,5.95,6.15,6.65,7.11,9.4.51,1.46.95,11.55.16,12.34"/>
		<path class="cls-2" d="M1406.73,802.92c-1.44,1.37-1.82-.06-1.99-1.48-.53-4.52,1.05-9.29-3.63-12.38-12.27-8.13-42.71,5.73-54.39,12.35-3.77,2.13-19.38,11.83-19.85,15.24l.33,2.26c8.59,4.22,9.01,9.09,6.53,18-5.25-1.62-10.87-10.52-11.75-15.73-2.76-16.36,4.45-21.56,16.45-30.07,14.34-10.16,38.91-21.62,56.73-19.09,13.47,1.91,16.3,20.53,11.57,30.9"/>
		<path class="cls-2" d="M773.71,435.14c-2.54-1.52-8.69-1.47-10.47-3.05-1.14-1.01-5.31-11.22-4.48-12,10.62-.05,23.13,14.15,22.92,24.38-.32,15.64-31.03,51.36-45.23,57.78-13.26,5.99-24.29,1.46-28.92-12.46-.53-1.6-2.51-11.21.23-9.24,5.42,11.03,6.62,13.82,18.98,9,11.28-4.4,22.46-15.74,29.98-25.01,3-3.7,19.42-26.07,16.99-29.4"/>
		<path class="cls-2" d="M848.76,760.92l.5-1.99c6.31.31,11.81,3.59,15.95-3.03,8.42-13.49-.05-43.39-5.43-57.46-1.35-3.54-6.19-15.46-8.53-17.45-4.78-4.07-7.17,4.5-11.04,5.01-1.88.25-10.99-1.64-11.45-3.54,6.35-9,24.53-9.79,32.93-3.92,8.15,5.71,17.17,31.64,19.39,41.6,6.16,27.71,4.03,55.79-32.31,40.78"/>
		<path class="cls-2" d="M1177.73,848.91c-2.73,2.74-2.01-8.03-2.23-9.25-1.04-5.7-7.08-7.33-12.27-7.73-16.22-1.24-42.46,11.06-55.8,20.17-2.33,1.59-9.54,6.12-9.74,8.35-.47,4.51,6.93,5.79,7.89,9.18l-.84,11.26c-3.08,3.29-11.24-11.7-11.76-14.73-2.26-13.29.48-18.41,10.28-26.23,14.25-11.37,44.36-25.87,62.74-22.77,14.47,2.43,16.04,20.35,11.72,31.75"/>
		<path class="cls-2" d="M1446.75,305.13c26.68.82,9.31-33.09,1.8-45.29-3.86-6.27-18.91-26.53-24.83-29.18-1.09-.49-1.91-.95-2.99-.04-4.25,8.99-7.91,10.58-17.98,9.53,3.12-9.87,15.58-16.05,25.51-15.79,12.52.33,29.76,23.83,35.9,33.87,9.45,15.45,23.07,45.47-5.18,49.64-3.22.48-12.37,1.81-12.23-2.73"/>
		<path class="cls-2" d="M1157.75,560.01c-14.31,1.52-27.02.63-21.94,19.44,1.82,6.75,12.15,20.08,19.52,20.54,5.77.36,31.03-18.79,36.44-23.46,2.7-2.34,11.15-12.27,13.01-13.03,1.49-.62,12.85,1.58,12.95,3.02l-5.03,11.47c-2.22.12-4.23-1.1-6.47-1.08-7.5.07-35.13,26.49-48.68,30.39-30.78,8.87-53.46-39.07-21.61-48.6,6.12-1.83,16.71-3.2,21.81,1.3"/>
		<path class="cls-2" d="M1179.79,301.16c3.03.04,6.17-.95,8.38-3.11,5.43-5.31,14.86-28.84,20.56-37.43,9.01-13.59,17.79-20.03,34.8-14.75,28.95,8.97,26.89,38.99-1.59,47.96-1.35.43-4.47,1.86-5.19-.21,4.62-2.8,15.68-8.64,16.83-14.23,2.59-12.67-25.79-29.21-34.85-20.78-5.15,4.8-16.95,28.44-20.16,35.83-1.62,3.73-3.88,14.05-5.76,16.23-.94,1.09-10.7,4.44-11.59,4.32-2.61-.36-.47-4.65-.56-6.27-.14-2.34-1.59-4.94-.87-7.57"/>
		<path class="cls-2" d="M1266.76,662.98c1.41-1.75,1.77.17,1.97,1.51.88,5.92.32,12.83,4.17,17.84,8.52,11.06,34.05-6.19,35.69-17.08,1.02-6.81-28.14-44.7-36.39-49.25-.44-.71,1.04-9.96,1.54-11.52.37-1.15-.72-1.75,1.51-1.47,3.51.44,7.67,4.59,11.5,5.05-.23,1.85-1.08,3.52-1.08,5.45,0,7.82,23.14,32.98,27.92,43.16,6.46,13.78,4.33,25.24-7.35,35.27-24.89,21.38-45.8-1.77-39.46-28.96"/>
		<path class="cls-2" d="M584.75,881.39c-.13.85-2.26,6.06-2.82,7.18-9.84,19.68-35.93,9.69-44.57-5.79-6.73-12.06-2.88-21.3,3.58-32.18,5.43-9.15,21.3-25.7,24.27-33.73,1.38-3.74-1.09-7.28-.02-8.95l11.08-5.99c1.53,3.54,3.58,10.45,1.97,13.97-1.06,2.31-14.64,14.94-17.9,19.09-3.39,4.32-17.84,25.14-17.57,29.33.75,11.52,28.53,29.7,36.41,16.49,3.35-5.61,1.87-11.91,3.59-17.91.38-.28,1.99,1.31,1.99,1.5,0,4.96.7,12.48,0,16.99"/>
		<path class="cls-2" d="M1049.48,380.82l3.9-7.59,12.37-.13-4.58,12.91c-8.76,2.57-17.45,5.49-25.78,9.22-4.83,2.16-26.48,13.13-28.44,16.54-5.88,10.26,11.16,40.17,23.71,32.71,5.01-2.98,7.12-8.7,10.26-12.74.69-.89,1.67-2.87,2.84-1.16-5.99,29.34-40.43,36.15-48.96,3.93-9.11-34.45,33.18-39.89,54.67-53.69"/>
		<path class="cls-2" d="M1364.25,898.89c-19.24-2.73-23.01-22.75-12.33-37.31,11.77-16.05,24.49-16.82,41.13-7.47,10.05,5.64,27.17,22.24,35.76,25.26,3.63,1.28,7.04-1.4,8.98-.04l4.96,11.04c-13.17,7.14-15.69-1.81-23.99-8.99-8.14-7.04-23.35-18.82-32.96-23.02-10.65-4.65-21.55,9.48-24.52,18.56-6.04,18.44,7.5,18.16,21.47,19.98.28.38-1.31,1.99-1.5,1.99-5.07,0-12.31.66-17,0"/>
		<path class="cls-2" d="M1350.74,408.1l-.49,1.99c-8.09.46-15.59-3.15-23.31-4.69-13.74-2.73-38.6-4.14-48.17-14.82-1.76-1.97-2.65-5.65-3.7-6.55-2.12-1.83-7.32-2.72-10.32-5.72-11.92-11.94-1.44-23.4,11.98-25.78,5.04-.89,16.56,4.25,17.04,9.09.58,5.78-11.29,21.84-3.57,28.52,3.68,3.18,19.06,3.96,24.76,5.24,12.46,2.78,24.66,6.4,35.79,12.72M1279.75,366.11c-3.3-.22-6.27,1.96-7.85,4.71-.79,2.88,1.32,5.52,3.37,7.26l4.49-11.98Z"/>
		<path class="cls-2" d="M1000.75,578.03c10.31-2.04,21.01-.56,31.49-1.02,14.49-.64,29.35-5.53,42.84,3.18,2.18,1.4,3.74,4.1,5.93,5.07,4.45,1.96,8.31,1.1,13.23,4.77,12.53,9.34,1.4,23.63-9.79,27.22-3.52,1.13-14.57-1.88-16.21-5.22-3.05-6.24,7.67-30.13-10-30.08-11.75.03-23.17,2.95-35.99,2.07-6.34-.44-16.91-1.39-21.51-5.98M1080.75,591.02l.49,12.99c7.02-3.92,7.6-10.21-.49-12.99"/>
		<path class="cls-2" d="M1323.33,688.55c10.14-8.68,23.56-24.84,38.06-25.52,2.22-.1,4.02,1.02,5.82.92,2.42-.13,6.06-3.17,9.29-3.73,18.15-3.13,22.12,8.81,15.76,23.75-3.22,7.56-11.79,8.83-19.34,8.84-1.81-6.14-11.57-21.19-18.51-20.56-4.02.37-20.43,17.01-25.17,20.69-7.92,6.16-18.47,14.1-28.47,15.01,6-8.11,15.04-12.95,22.58-19.4M1371.75,667.99l6.18,8.3,2.81,1.68c.81-8.03-.38-11.11-8.99-9.99"/>
		<path class="cls-2" d="M923.41,575.35c4.97,4.97,3.7,14.26,2.2,20.52-6.49.56-25.33,4.88-25.83,12.69-.28,4.35,12.23,28.96,14.47,36.43,2.1,7.04,5.46,17.14,3.01,23.98-5.92-7.09-7.43-17.41-11.02-25.97-6.7-16-16.86-28.5-11.99-46.99,2.02-7.67.77-4.26.71-11.5-.04-5.02,4.05-15.08,9.51-16.29,5.42-1.2,15.16,3.34,18.95,7.13M913.75,586c-4.58-7.06-12.61-4.47-11.99,4.01l11.99-4.01Z"/>
		<path class="cls-2" d="M981.75,853.92c5.71-6.16,52.59,6.65,62.27,7.82,9.01-5.95,7.41-18.25,7.9-27.66,11.9-6.25,21.77-3.96,28.27,7.9,4.48,8.18,2.31,14.93-6.44,18.42-5.39,2.15-9.32.52-13.29,1.71-1.98.59-3.77,4.05-7.88,5.11-15.18,3.93-30.79-2.88-45.44-6.19-6.86-1.55-18.43-1.79-24.1-4.89-.92-.5-2.64-.74-1.27-2.22M1063.76,843.91l-2.01,12.99c8.39-1.69,9.18-8.71,2.01-12.99"/>
		<path class="cls-2" d="M434.75,771.94c6.26.82,12.96,4.99,19.39,4.89,8.52-.14,22.16-6.79,26.58-14.39-1.97-2.48-3.78.72-7.35.46-18.89-1.36-2.18-34.08,9.18-31.3,11.17,2.74,6.1,25.94,2.95,33.59-9.87,24.02-41.42,40.51-50.75,6.74M473.9,750.8c.78,1.24,8.98,3.15,7.69-3.13-1.93-9.37-11.08-2.29-7.69,3.13"/>
		<path class="cls-2" d="M1059.75,505.05c6.45.53,12.79,5.14,19.45,5.02,8.33-.15,22.88-6.95,26.55-15.01-6.14,1.16-12.98,2.36-15.33-5.17-4.11-13.15,17.91-36.51,23.04-19.04,9.24,31.53-36.77,81.03-53.7,34.2M1098.88,482.39c1.11,3.36,9.84,4.68,7.67-2.62-1.79-6.01-9.78-3.77-7.67,2.62"/>
		<path class="cls-2" d="M1174.75,668.97c2.77-9.75,6.2-16.49,3.31-26.8-1.75-6.25-7.4-17.23-14.32-18.17,6.98,17.27-10.1,18.8-21.48,9.96-18.7-14.52-2.64-20.83,13.87-18.86,20.26,2.41,53.6,30.7,29.52,49.29-3.04,2.35-6.95,4.93-10.91,4.58M1154.75,623c-2.38.13-5.56-.67-7.59.91-6.58,5.11,9.23,13.22,7.59-.91"/>
		<path class="cls-2" d="M507.09,332.46c6.49-5.66,18.45-4.03,25.35.46,2.42,1.58,5.53,3.26,1.31,4.66-4.12,1.36-8.11,1.63-12.38,3.65-9.97,4.73-17.95,17.77-17.62,28.86l7.26-5.22c22.21-6.43,16.4,50.52-3.68,26.12-11.48-13.94-14.57-46.05-.24-58.54M509.87,380.41c2.53,5.57,10.78,5.73,8.45-1.35-1.83-5.55-9.41-2.29-8.45,1.35"/>
		<path class="cls-2" d="M1229.75,382.09c.62-6.36,5.11-11.88,5.02-18.44-.11-8.11-7.05-24.98-16.03-26.53,3.86,5.89,2.34,14.13-5.48,15.01-18.68,2.1-40.5-27.2-4.04-24,17.51,1.54,44.37,19.68,39.05,40-1.5,5.73-12.27,14.39-18.53,13.96M1209.75,336.11c-4.82-.52-10.55-.1-8.56,6.05l6.56,1.51,2-7.56Z"/>
		<path class="cls-2" d="M416.75,695.97c20.49,6.58,28.04,4.22,25.98-18.48-.36-3.99-3.61-17.07-7.68-18.32-9.11-2.8-20.88,9.64-25.78,9.71-3.18.05-8.16-3.43-11.52-3.92-1.36-1.85,4.59-5.06,5.79-5.7,24.6-13.11,58.29-5.91,55.25,27.24-1.57,17.16-17.02,21.6-31.75,16.66-1.1-.37-12.22-5.49-10.29-7.2"/>
		<path class="cls-2" d="M623.75,349.1c-.5-3.03.77-1.59,2.43-2.01,9.39-2.4,20.02-3.56,17.34-16.25-1.49-7.07-14.01-24.74-22.18-23.69-8.3,1.07-13.61,18.61-17.58,20.49-.91.43-9.82,1.5-11.49,1.53-1.35.02-1.96.14-1.49-1.5,1.8-6.34,15.54-19.35,21.45-22.55,44.87-24.3,68.71,50.2,11.53,44"/>
		<path class="cls-2" d="M1148.75,463.07c.92-.86,17.53,8.16,23.86.36,4.77-5.88,2.19-34.3-5.81-36.93-8.63-2.83-19.89,9.47-25.51,9.64-2.04.06-12.9-3.3-11.07-6.08,1.94-2.96,16.59-7.92,20.48-8.52,24.73-3.86,43.08,7.32,40.05,34.04-2.05,18.12-22.47,19.83-36.04,13.03-.82-.41-7.5-4.09-5.96-5.53"/>
		<path class="cls-2" d="M1312.74,245.15c-23.63-10.19-30.27,2.66-24.28,24.78,3.74,13.79,7.72,14.41,20.26,8.7,10.16-4.62,11.39-10.2,24.01-1.99-21.19,19.06-65.61,14.11-61.71-21.71,1.56-14.28,11.22-20.29,25.22-18.77,1.81.2,19.82,5.97,16.49,9"/>
		<path class="cls-2" d="M507.92,754.1c.53-.84,11.71-5.23,13.76-4.08-1.17,4.47,11.1,24.38,14.43,23.83,6.59-1.09,3.82-20.15,5.13-24.92,16.07-7.54,16.97-.88,12.24,13.24-3.53,10.52-18.25,25.62-29.68,18.22-4.85-3.14-19.39-20.69-15.88-26.29"/>
		<path class="cls-2" d="M712.89,417.22c12.99-6.03,40.07,13.22,36.42,26.85-1.77,6.64-21.93,23.87-28.41,19.82-1.73-4.49-4.77-8.71-4.14-13.8,4.66,1.63,24.45-11.05,23.9-14.37-1.07-6.47-20.93-4.24-25.82-4.74l-1.95-13.75Z"/>
		<path class="cls-2" d="M741.71,362.06c-5.57-.68-18.66,19.47-16.94,22,8.88,3.24,17.35-2.9,25.34-5.82l7.63,12.84c-11.21,8.05-41.11,2.8-43.82-11.74-1.22-6.54,10.21-27.72,16.56-29.06,4.16-.88,12.74,9.63,11.22,11.78"/>
		<path class="cls-2" d="M1008.48,363.38c5.86,5.81,3.13,29.29-2.38,35.79l-14.35-5.09c.12-2.57,2.44-3.5,3.5-5.98,1.51-3.55,4.25-20.56,1.55-22.57-8.59-.32-13.98,10.23-19.75,15.45-2.57.51-11.93-5.68-12.06-7.37,6.69-11.23,20.3-16.12,32.99-14.25,2.21.33,9.09,2.63,10.49,4.01"/>
		<path class="cls-2" d="M595.9,664.12c-4.6,8.34,16.83,15.81,17.72,18.53,1.33,4.01-3.12,9.43-3.93,13.3-15.55-1.74-29.61-36.36-14.65-44.16,4.98-2.59,29.55-6.25,31.55-.13.67,2.05-1.43,13.92-3.39,14.32-8.29-4.82-18.33-3.05-27.31-1.87"/>
		<path class="cls-2" d="M1082.76,761.94c3.66,3.7,28.17,1.89,28.96-1.56-3.03-8.91-13.21-11.18-20.53-15.43l2.64-12.91c15.35-.82,30.13,27.29,21.79,39.27-4.04,5.81-28.04,10.27-33.29,6.55-3.5-2.48.1-11.96.44-15.92"/>
		<path class="cls-2" d="M1033.39,503.69c2.14-2.23,12.51-16.59,9.24-18.53-3.02-.17-6.14-.37-9.15.14-4.25.72-13.44,6.51-16.06,5.65-1.84-.6-8.08-10.57-5.23-12.93,9.3-7.67,40.08-1.48,41.58,12.52.97,8.99-8.62,25.97-17.38,29.34-2.6-1.78-11.47-8.3-9.19-11.84.74-1.15,4.82-2.93,6.19-4.35"/>
		<path class="cls-2" d="M1437.64,359.21c.22,3.14,3.76,13.58,1.13,15.45-4.53-2.57-26.23,3.81-26.94,8.08-1.01,6.08,22.03,9.65,23,10.99,2.35,3.23-1.03,9.42-.08,13.36-15.42,1.79-33.17-18.51-29.79-33.28,1.75-7.63,24.98-16.78,32.68-14.59"/>
		<path class="cls-2" d="M1143.92,390.32c-.6-4.71,5.57-7.2,9.57-8.01,6.68-1.36,4.37,2.47,6.04,6.51,1.39,3.37,9.64,18.14,13.62,17.2,6.01-6.73,4.29-16.67,4.05-24.93,2.28-1.93,13.23-4.85,14.41-1.35,1.79,14.36-9.5,33.54-24.82,34.91-7.99.72-21.97-17.24-22.87-24.33"/>
		<path class="cls-2" d="M1066.49,444.83c-2.22,2.29-14.25-2.92-14.67-5.39,3.76-6.58,7.6-16.4,7.88-24.02.42-11.54-20.25,6.21-21.59,10.73l-12.28-7.19c1.31-6.91,14.12-12.95,20.51-13.8,6.06-.81,17.56.35,22.39,4.44,6.41,5.43,2.44,28.22-2.23,35.22"/>
		<path class="cls-2" d="M1050.77,356.61c12.69-18.23,42.62-17.38,55.96.02,5.62,7.33,5.08,16.93,1.24,25.18-.35.75-2.56,4.5-3.73,2.3-.2-13.53-9.4-26.08-21.8-31.19-11.11-4.58-12.14,1.47-18.35,9.08l-13.32-5.4Z"/>
		<path class="cls-2" d="M1335.74,376.11c23.84-5.63,46.47,22.24,38.51,44.97-1.77,5.06-12.87,12.75-17.99,13.03-4.65.25,2.02-6.17,2.68-7.33,5.79-10.26,6.27-19.54,2.28-30.66-4.24-11.8-9.78-7.83-20.35-7.14l-5.12-12.87Z"/>
		<path class="cls-2" d="M1082.4,665.33c-7.9-8.45-19.15-12.86-30.64-10.35-3.25-3.2,11.77-9.1,13.93-9.55,7.67-1.59,13.84,1.76,19.54,6.58,12.26,10.35,15.58,29.23,8.71,43.65-6.27,13.17-8.52,2.6-13.06-4.37-.29-1.8,8.57-8.24,8.87-12.88.22-3.37-5.01-10.57-7.35-13.07"/>
		<path class="cls-2" d="M662.02,848.08c-1.17-25.99,24.08-49.96,46.71-28.66-2.42,3.21-6.44.65-9.31.88-10.16.79-21.88,8.04-27.1,16.68-5.95,9.85.66,11.88,6.2,19.41-4.48,5.71-5.62,17.58-12.3,6.54-2.52-4.17-3.98-10.01-4.2-14.85"/>
		<path class="cls-2" d="M416.74,590.02c-2.81,14.06,4.34,29.64,16.67,36.81,9.05,5.27,12.18-1.33,18.82-6.6.61-.04,9.84,5.61,10.47,6.3,3.18,3.45-6.8,7.7-9.4,8.51-13.77,4.34-30.11.57-39.54-10.58-4.82-5.7-8.17-11.87-6.58-19.54.34-1.66,6.81-18.01,9.55-14.92"/>
		<path class="cls-2" d="M615.97,470.33c-1.12-5.54,2.07-17.16,6.28-21.24,1.26-.02,2.39,11.17,3.22,13.75,2.15,6.65,11.41,16.18,17.57,19.42,11.17,5.88,12.24-.92,19.33-8.02,7.19,2.88,18.29,3.76,7.88,11.81-8.58,6.63-24.81,7.42-34.78,3.78-6.6-2.41-18.09-12.53-19.5-19.5"/>
		<path class="cls-2" d="M496.75,263.14h-14.5c-4.28,0-16.08,9.43-18.91,13.08-8.46,10.91-3.83,13.21,3.39,22.37l-6.5,11.53c-8.36-4.07-10.09-17.12-9.46-25.48,1.12-14.99,15.17-34.34,31.78-30.79,3.73.8,14.82,4.74,14.2,9.29"/>
		<path class="cls-2" d="M1041.75,456.07c3.96-.22,6.38,3.17,10.02,4.47,9.07,3.23,19.87,1.67,28.36-2.59,11.6-5.82,7.17-10.23,5.06-20.87,1.72-1.49,10.88-8.45,12.55-7.01,5.59,19.24-10.08,41.59-29.6,43.88-3.15.37-9.54.56-12.45-.34-3.18-.98-16.29-15.2-13.94-17.54"/>
		<path class="cls-2" d="M1067.75,806.93c1.01-1.15,7.29,5.81,8.67,6.82,8.12,5.95,16.75,7.26,26.72,6.06,12.72-1.54,11.61-7.61,11.75-18.74l12.39-3.96c4.36,5.97-1.43,15.36-5.51,20.34-8.06,9.82-19.31,15.61-32.25,14.19-14.85-1.63-20.42-10.78-21.77-24.7"/>
		<path class="cls-2" d="M1203.75,519.03c-.05-13.83-8.19-25.11-20.32-31.17-11.57-5.77-12.79-.64-19.37,8.24l-12.3-3.58c-3.7-2.8,6.1-9.51,8.31-10.66,15.37-8.04,36.27-4.58,46.68,9.68,4.97,6.8,4.46,11.4,2.3,19.29-.29,1.05-3.15,10.46-5.29,8.19"/>
		<path class="cls-2" d="M937.1,403.44c10.7-11,27.71-14.77,41.9-8.1,5.25,2.47,9.18,11.13,10.29,16.69.27,1.38,1.32,7.9-1.54,6.56-.71-.33-5.06-6.4-6.99-8.02-6.18-5.2-16.43-7.92-24.48-7.48-12.99.71-14.01,5.83-13.66,17.85l-13.23,3.21c-3.95-5.77,3.46-16.36,7.71-20.72"/>
		<path class="cls-2" d="M667.76,311.12c-1.23-5.63-1.16-10.35-3.83-15.67-3.47-6.94-14.27-15.38-21.68-17.39-9.59-2.6-12.02,9.98-15,10.18l-11.49-3.62c-3.16-2.39,4.32-8.44,6.3-9.68,14.27-8.97,35.49-5.92,46.72,6.67,5.79,6.49,5.88,11.01,4.53,19.56-.24,1.51-2.78,11.91-5.54,9.94"/>
		<path class="cls-2" d="M1236.92,645.26c-1.31-6.19,6.45-9.54,11.29-11.3,12.84-4.68,30.44-5.45,27.29,13.3-3.07,18.33-35.97,10.37-38.58-1.99M1260.69,650.93c1.03-2.62,1.5-11.83-1.59-12.87-12.9-1.31-2.69,16.39,1.59,12.87"/>
		<path class="cls-2" d="M794.99,793.19c-2.06-12.94,2.44-14.31,13.59-11.59,8.98,2.19,22.59,8.33,20.97,19.56-.63,4.36-7.3,10.66-11.54,11.54-9.18,1.89-21.64-10.81-23.02-19.51M816.62,791.06c-7.52-3.59-9.75,1.39-8.92,8.41,1.11,9.47,11.39-4.51,8.92-8.41"/>
		<path class="cls-2" d="M497.99,867.16c-1.69-9.35,1.4-28.36,13.4-29.22,7.67-.55,13.21,19.38,13.15,25.47-.16,18.6-24.23,16.55-26.55,3.76M517.72,860.85c.14-2.55-1.36-7.87-4.44-7.92-3.94.88-6.97,3.56-9.52,6.49-.89,3.99,11.76,2.56,13.96,1.42"/>
		<path class="cls-2" d="M548.95,387.37c-1.64-7.26,11.31-17.38,17.42-20.14,5.12-2.31,9.65-3.24,14.73,0,3.33,2.13,5.88,10.29,5.45,14.09-1.71,15.19-34.98,17.69-37.61,6.04M562.04,378.58c-.44,5.68,17.27,15.31,9.76-.03-3.34-6.83-9.52-3.05-9.76.03"/>
		<path class="cls-2" d="M846.44,635.31c2.05,1.71,5.74,7.72,6.12,10.44,1.66,12.04-22.83,27.14-32.77,18.7-5.48-4.65,4.58-22.14,8.57-26.37,4.51-4.78,12.53-7.42,18.09-2.78M828.85,651.32c.91,2.89,12.29,5.4,12.9,2.15-.68-3.35-5.68-8.77-8.94-9.06-2.55-.23-4.64,4.77-3.96,6.92"/>
		<path class="cls-2" d="M1387.01,444.81c-4.43-4.73,4.89-22.2,8.74-26.23,13.71-14.33,30.48,4.42,21.51,16.51-5.28,7.12-22.72,17.78-30.26,9.72M1396.91,432.92c4.14,1.51,9.25,4.99,12.79.66-3.85-7.04-13.5-14.23-12.79-.66"/>
		<path class="cls-2" d="M1029,605.27c4.47-4.18,24.67,4.06,28.78,8.2,10.97,11.05-2.65,27.58-14.94,21.92-10.39-4.78-20.56-18.9-13.85-30.12M1039.95,624.28c2.09,7.02,11.86-5.51,8.9-8.87-5.59-6.35-10.84,2.35-8.9,8.87"/>
		<path class="cls-2" d="M1163.01,698.22c2.98-3.19,18.61-3.7,23.12-3.14,10.57,1.31,16.3,7.68,12.66,18.43-7.71,22.76-46.26-4.07-35.79-15.29M1185.61,702.11c-7.57-2.38-10.63.47-7.65,8.14,4.48,11.51,8.68-2.16,7.65-8.14"/>
		<path class="cls-2" d="M599.75,817.92c2.06-12.51-9.41-28.92-21.17-32.31-9.86-2.84-11.27,7.95-15.37,8.36l-11.45-5.53c9.47-12.71,30.72-13.69,43.31-5.33,4.06,2.7,11.99,11.47,12.34,16.45.14,2.04-4.39,22.29-7.66,18.36"/>
		<path class="cls-2" d="M465.75,540.04c1.22-1.23,7.98,3.19,9.32,4.17,8.04,5.87,31.07,41.35,36.47,51.5,1.06,2,2.47,3.85,2.19,6.3-3.57-1.81-7.82-2.28-11.37-4.12-8.24-4.26-17.52-26.4-22.82-35.17-1.8-2.97-15.45-21.03-13.8-22.68"/>
		<path class="cls-2" d="M829.75,596.01c2.5-.37,4.12.17,6.34,1.15,10.5,4.61,36.24,39.04,44.07,49.91,1.34,1.86,2.61,3.84,3.59,5.9-.71.54-11.26-2.07-12.81-2.68-6.93-2.74-22.15-28.64-27.78-36.21-1.53-2.06-14.94-16.68-13.41-18.07"/>
		<path class="cls-2" d="M488.75,844.9l-65.37,8.71-13.64-8.2c.02-2.15,15.61-2.29,17.5-2.5,13.86-1.59,48.58-8.58,59.44-.43.51.38,2.49,2,2.07,2.42"/>
		<path class="cls-2" d="M1470.04,517.25c-.15-3.23-1.53-7.74,1.2-10.18,2.05,2.78,6.26,6.34,7.96,9.02,3.51,5.53,1.18,45.68,1.5,55.48.14,4.17,3.01,9.82-.46,13.43-5.02-4.96-7.69-13.66-8.38-20.59-1.48-14.75-1.15-32.04-1.83-47.15"/>
		<path class="cls-2" d="M1423.75,479.04c-3.67.54-7.8,3.7-11.21,4.34-4.55.86-27.56-11.26-33.81-13.81-4.85-1.98-10.1-3.06-14.95-5.05-1.08-.44-4.82-1.32-4.02-2.95,4.99-3.94,12.66-2.8,18.43-1.45,5.99,1.4,39.46,13.4,43.82,16.17,1.24.78,2.11.91,1.73,2.75"/>
		<path class="cls-2" d="M1283.75,467.07l-3.71,6.01c-15.09.15-31.65-1.08-46.08-5.75-1.32-.43-2.66.4-2.21-1.75l7.3-4.24c14.5,4.17,29.66,5.34,44.69,5.74"/>
		<polygon class="cls-2" points="810.75 685.98 806.88 695.49 814.77 699.5 810.13 710.04 800.17 705.98 802.73 697.02 795.83 693.37 801.35 683.05 810.75 685.98"/>
		<path class="cls-2" d="M855.77,555.03l9.98,5.01c.12,2.61-2.84,3.61-3.59,5.95-1.49,4.6,3.2,3.83,5.57,6.53l-5.99,10.5-9.84-6.47,3.85-6.96-5.55-3.53,5.58-11.02Z"/>
		<polygon class="cls-2" points="1245.77 715.97 1255.68 722.56 1250.73 731.95 1241.39 727.87 1236.44 732.82 1227.77 726.38 1233.33 717.98 1241.14 722.92 1245.77 715.97"/>
		<path class="cls-2" d="M1151.77,321.12l9.38,5.08c3.57-9.65,9.18-4.96,13.51,1.27l-5.03,7.53-8.24-3.78-5.13,5.84-9.59-6.52,5.09-9.42Z"/>
		<path class="cls-2" d="M1380.76,551.03l9.92,2.96,2.07-7.96,10.99,3.01c-1.09,9.33-1.88,13.52-11.95,9.01l-2.6,7.02-11.45-3.05,3.02-10.99Z"/>
		<path class="cls-2" d="M627.74,540.03c-1.57-12.68,5.05-5.6,13.01-5.99l-2.04,10.95-8.96-.96-1.02,8-11.92-3.62,1.92-9.92,9.01,1.55Z"/>
		<polygon class="cls-2" points="1366.77 818.91 1375.67 820.88 1378.34 813.85 1389.63 817.5 1387.74 826.92 1376.78 824.94 1375.74 832.92 1363.74 829.9 1366.77 818.91"/>
		<path class="cls-2" d="M995.89,796.07l-3.63,5.85-9.4-6.1c-1.15-1.96,4.07-7.93,5.37-9.83l7.87,4.79,5.97-5.74,8.49,6.38-6.46,8.4-8.22-3.75Z"/>
		<path class="cls-2" d="M446.67,329.05c2.35-9.3,6.6-5.03,12.65-1.98l-4.59,11.04-7.33-2.91-5.14,6.85-8.1-4.92,5.14-11.01,7.37,2.93Z"/>
		<polygon class="cls-2" points="839.66 718.05 837.85 727.29 843.67 731.55 838.27 741.86 828.75 737.94 832.83 728.55 825.83 724.36 830.4 715.04 839.66 718.05"/>
		<polygon class="cls-2" points="833.83 484.13 842.67 484.97 843.77 478.08 855.82 480.71 854.26 490.09 844.83 489.12 842.12 497.13 831.76 495.01 833.83 484.13"/>
		<polygon class="cls-2" points="811.75 745.96 810.17 754.99 817.74 755.95 815.18 768 804.75 766.93 805.75 757.95 798.77 756.92 800.68 745.36 811.75 745.96"/>
		<path class="cls-2" d="M824.89,354.23c.31-.53,6.43-2.93,5.88-6.12h1.47s6.02,6.03,6.02,6.03l4.99-5.02,8.46,9.37-7.59,6.53-6.73-4.86-5.14,4.91c-1.38-2.44-8.77-8.42-7.36-10.85"/>
		<polygon class="cls-2" points="542.68 789.01 539.98 796.45 545.62 802.24 540.26 810.91 531.75 806.91 535.67 798.56 528.77 793.43 534.31 784.94 542.68 789.01"/>
		<path class="cls-2" d="M872.75,671.98c13.31.51,21.21-18.91,34.99-7.5-4.74.44-8.88,1.6-13.03,3.96-6.51,3.7-11.73,13.03-20.3,6.37-1.11-.87-2.06-1.02-1.66-2.83"/>
		<path class="cls-2" d="M537.75,615.99c-3.77-.06-7.08-.23-10.81.7-9.05,2.25-15.96,15.31-25.18,3.81,12.28-.13,25.25-18,36-4.5"/>
		<path class="cls-2" d="M951.1,375.45c-1.24,1.39-3.65,5.94-5.71,5.58l-10.61-9.42,9.48-9.48,10.48,10.48c-.79,1.4-2.75,1.86-3.63,2.85"/>
		<path class="cls-2" d="M599.75,346.1v13c-5.22-.62-9.81-1.93-15,0l.92-13.56,14.07.57Z"/>
		<polygon class="cls-2" points="566.75 288.15 562.71 302.1 550.83 299.06 553.69 285.55 566.75 288.15"/>
		<polygon class="cls-2" points="887.76 766.94 901.72 770.98 898.68 782.86 885.17 780 887.76 766.94"/>
		<path class="cls-2" d="M929.76,490.05l13.57,3.94c1.71,2.32-2.26,9.1-2.68,11.97l-13.91-2.91,3.01-12.99Z"/>
		<polygon class="cls-2" points="1129.75 770.95 1143.26 766.98 1147.75 779.92 1132.75 783.94 1129.75 770.95"/>
		<polygon class="cls-2" points="1024.76 360.1 1038.75 364.11 1034.73 377.1 1020.75 373.09 1024.76 360.1"/>
		<polygon class="cls-2" points="732.82 708.04 744.74 702.96 750.73 715.47 737.83 720.89 732.82 708.04"/>
		<polygon class="cls-2" points="1128.75 450.08 1122.26 462.04 1109.77 454.57 1116.38 444.12 1128.75 450.08"/>
		<path class="cls-2" d="M1113.74,609.02l14.01-2.02c-.6,4.89.82,9.36,1.99,13.99l-12.95,1.98-3.05-13.96Z"/>
		<polygon class="cls-2" points="1393.75 705.98 1385.25 716.92 1374.83 708.34 1382.35 698.01 1393.75 705.98"/>
		<polygon class="cls-2" points="765.74 495.06 779.74 492.05 782.75 505.03 768.75 508.05 765.74 495.06"/>
		<polygon class="cls-2" points="614.76 576.02 627.76 578.02 625.78 592.57 612.75 591 614.76 576.02"/>
		<polygon class="cls-2" points="601.71 291.18 598.71 303.09 583.75 299.12 589.37 287.2 601.71 291.18"/>
		<polygon class="cls-2" points="1138.75 499.06 1134.74 511.05 1120.79 506.44 1125.38 495.12 1138.75 499.06"/>
		<path class="cls-2" d="M577.76,451.07l11.95,4.04c.84.96-2.96,13.41-4.58,13.9l-11.38-2.95,4.02-14.99Z"/>
		<polygon class="cls-2" points="995.75 607 1008.76 609.02 1006.72 622.98 993.75 621.99 995.75 607"/>
		<polygon class="cls-2" points="989.75 631.99 1003.65 634.08 1002.74 646.99 988.86 644.89 989.75 631.99"/>
		<polygon class="cls-2" points="797.75 393.1 809.74 388.09 815.75 402.08 804.23 406.98 797.75 393.1"/>
		<polygon class="cls-2" points="979.77 300.18 994.75 298.12 995.75 311.13 981.76 313.12 979.77 300.18"/>
		<path class="cls-2" d="M1319.73,854.9l-10.97-7.01c-.44-.64,7.82-11.77,8.6-11.93l10.37,7.45-8.01,11.5Z"/>
		<polygon class="cls-2" points="1217.76 386.09 1230.75 389.1 1226.71 403.06 1213.75 400.08 1217.76 386.09"/>
		<polygon class="cls-2" points="807.76 334.11 821.75 337.12 819.74 350.11 805.2 347.12 807.76 334.11"/>
		<path class="cls-2" d="M982.78,453.11l12.44-5.04,5.5,11.51c-.06.86-13.03,6.11-13.93,5.46l-4.01-11.93Z"/>
		<path class="cls-2" d="M518.83,824.02l12.91-5.1,4.99,11.5c-.05.75-13.11,5.99-13.9,5.42l-4-11.82Z"/>
		<path class="cls-2" d="M1334.74,309.12c4.75.28,9.54-.33,13.99-1.99l1.57,13.02-14.57,1.98-1-13Z"/>
		<path class="cls-2" d="M523.74,399.08c4.9.6,9.36-.82,14-1.99l1.01,14-14.01,1-1-13.01Z"/>
		<polygon class="cls-2" points="830.83 760.03 843.74 760.95 841.74 775.94 828.74 773.93 830.83 760.03"/>
		<path class="cls-2" d="M691.75,458.06v13.99h-13.01c.5-2.61-1.29-14.25,1.46-14.74l11.54.75Z"/>
		<polygon class="cls-2" points="578.75 727.96 577.75 740.96 563.89 739.81 564.72 727.39 578.75 727.96"/>
		<polygon class="cls-2" points="707.75 394.09 706.75 408.09 693.75 408.08 694.75 393.58 707.75 394.09"/>
		<path class="cls-2" d="M1447.75,474.07c-3.16,2.96-5.62,4.73-7.82,8.66-4.19,7.47-3.43,19.07-15.17,18.31.12-2.75,2.88-3.89,4.21-6.28,4.47-8.06,6.34-22.47,18.79-20.69"/>
		<path class="cls-2" d="M1454.75,814.94l-6.59,11.06-10.48-5.65c-.33-2.12,5.21-8.2,6.67-10.33l10.4,4.93Z"/>
		<polygon class="cls-2" points="815.77 682.97 826.75 686.99 822.7 697.95 811.75 694.96 815.77 682.97"/>
		<path class="cls-2" d="M1388.74,550.03l-12-3.01,2.94-10.57c1.99-1.46,8.39,1.46,10.65,2.55l-1.59,11.04Z"/>
		<polygon class="cls-2" points="990.83 770.99 1000.83 776.53 995.26 786.9 985.82 780.33 990.83 770.99"/>
		<path class="cls-2" d="M1154.83,306.18l10,5.57c.26,1.58-4.98,10.29-5.57,10.34l-9.49-6.54,5.07-9.37Z"/>
		<path class="cls-2" d="M1235.89,703.1c1.98-1.16,8.51,3.52,9.77,5.55l-5.54,9.23-9.18-6.4,4.96-8.38Z"/>
		<path class="cls-2" d="M828.75,729.97l-5.6,10.91-9.32-4.5c.54-2.14,2.59-8.75,4.57-9.32l10.34,2.91Z"/>
		<polygon class="cls-2" points="1379.79 828.96 1391.32 831.86 1389.73 841.89 1378.88 839.78 1379.79 828.96"/>
		<polygon class="cls-2" points="857.74 506.05 846.86 503.94 847.69 493.47 858.31 494.98 857.74 506.05"/>
		<polygon class="cls-2" points="521.77 794.93 531.75 798.94 526.15 808.85 517.83 804.27 521.77 794.93"/>
	</g>
	<g>
		<path class="cls-6" d="M1295.18,411.29c-3.73-4.74-12.05,12.43-12.88,14.08-61.84,122.75,133.42,127.18,187.3,187.69l10.1,22.49c55.24-116.07-47.04-127.47-123.96-164.14-25.89-12.34-63.23-25.44-60.55-60.12"/>
		<path class="cls-6" d="M1295.18,411.29c-2.68,34.68,34.66,47.78,60.55,60.12,76.92,36.67,179.21,48.07,123.96,164.14l-10.1-22.49c-53.88-60.51-249.14-64.94-187.3-187.69.83-1.65,9.16-18.82,12.88-14.08"/>
		<path class="cls-6" d="M1432.01,376.03c0,24.42-19.8,44.22-44.22,44.22s-44.22-19.8-44.22-44.22,19.8-44.22,44.22-44.22,44.22,19.8,44.22,44.22"/>
	</g>
	<text class="cls-4" transform="translate(438.66 847.32)">
		<tspan x="0" y="0">A</tspan>
	</text>
	<text class="cls-4" transform="translate(469.09 847.32)">
		<tspan x="0" y="0">r</tspan>
	</text>
	<text class="cls-4" transform="translate(486.4 847.32)">
		<tspan x="0" y="0">a</tspan>
	</text>
	<text class="cls-4" transform="translate(511.59 847.32)">
		<tspan x="0" y="0">b</tspan>
	</text>
	<text class="cls-4" transform="translate(537.75 847.32)">
		<tspan x="0" y="0"> </tspan>
	</text>
	<text class="cls-4" transform="translate(550.61 847.32)">
		<tspan x="0" y="0">Y</tspan>
	</text>
	<text class="cls-4" transform="translate(578.66 847.32)">
		<tspan x="0" y="0">o</tspan>
	</text>
	<text class="cls-4" transform="translate(605.1 847.32)">
		<tspan x="0" y="0">u</tspan>
	</text>
	<text class="cls-4" transform="translate(630.97 847.32)">
		<tspan x="0" y="0">t</tspan>
	</text>
	<text class="cls-4" transform="translate(647.48 847.32)">
		<tspan class="cls-7" x="0" y="0">h I</tspan>
		<tspan x="52.71" y="0">n</tspan>
	</text>
	<text class="cls-4" transform="translate(726.03 847.32)">
		<tspan x="0" y="0">n</tspan>
	</text>
	<text class="cls-4" transform="translate(751.98 847.32)">
		<tspan x="0" y="0">o</tspan>
	</text>
	<text class="cls-4" transform="translate(778.55 847.32)">
		<tspan x="0" y="0">v</tspan>
	</text>
	<text class="cls-4" transform="translate(801.9 847.32)">
		<tspan x="0" y="0">a</tspan>
	</text>
	<text class="cls-4" transform="translate(827.09 847.32)">
		<tspan x="0" y="0">t</tspan>
	</text>
	<text class="cls-4" transform="translate(843.61 847.32)">
		<tspan class="cls-7" x="0" y="0">io</tspan>
		<tspan x="39.35" y="0">n</tspan>
	</text>
	<text class="cls-4" transform="translate(908.74 847.32)">
		<tspan x="0" y="0"> </tspan>
	</text>
	<text class="cls-4" transform="translate(921.82 847.32)">
		<tspan x="0" y="0">&amp;</tspan>
	</text>
	<text class="cls-4" transform="translate(948.35 847.32)">
		<tspan x="0" y="0"> </tspan>
	</text>
	<text class="cls-4" transform="translate(959.59 847.32)">
		<tspan x="0" y="0">T</tspan>
	</text>
	<text class="cls-4" transform="translate(987.59 847.32)">
		<tspan x="0" y="0">e</tspan>
	</text>
	<text class="cls-4" transform="translate(1012.65 847.32)">
		<tspan class="cls-1" x="0" y="0">chn</tspan>
		<tspan x="75.69" y="0">o</tspan>
	</text>
	<text class="cls-4" transform="translate(1114.72 847.32)">
		<tspan x="0" y="0">l</tspan>
	</text>
	<text class="cls-4" transform="translate(1128.04 847.32)">
		<tspan x="0" y="0">o</tspan>
	</text>
	<text class="cls-4" transform="translate(1154.62 847.32)">
		<tspan x="0" y="0">g</tspan>
	</text>
	<text class="cls-4" transform="translate(1180.94 847.32)">
		<tspan x="0" y="0">y</tspan>
	</text>
	<text class="cls-4" transform="translate(1203.91 847.32)">
		<tspan x="0" y="0"> </tspan>
	</text>
	<text class="cls-4" transform="translate(1216.82 847.32)">
		<tspan x="0" y="0">S</tspan>
	</text>
	<text class="cls-4" transform="translate(1244.74 847.32)">
		<tspan x="0" y="0">u</tspan>
	</text>
	<text class="cls-4" transform="translate(1270.6 847.32)">
		<tspan class="cls-1" x="0" y="0">mmit </tspan>
		<tspan x="119.97" y="0">2</tspan>
	</text>
	<text class="cls-4" transform="translate(1416.99 847.32)">
		<tspan x="0" y="0">0</tspan>
	</text>
	<text class="cls-4" transform="translate(1443.5 847.32)">
		<tspan x="0" y="0">2</tspan>
	</text>
	<text class="cls-4" transform="translate(1470.12 847.32)">
		<tspan x="0" y="0">5</tspan>
	</text>
	<polygon class="cls-5" points="521.79 642.95 489.51 629.37 481.87 663.55 472.36 629.85 440.87 645.18 461.29 616.73 429.67 601.67 464.65 599.9 456.71 565.79 479.9 592.03 501.61 564.55 495.56 599.05 530.58 598.89 499.84 615.67 521.79 642.95"/>
	<path class="cls-6" d="M492.65,773.23v-16.38c0-3.71-.73-6.37-2.18-7.97-1.43-1.6-3.81-2.4-7.14-2.4-1.79,0-3.63.18-5.5.54v26.2h-12.19c-8.1,0-14.01-1.62-17.72-4.86-3.52-3.07-5.28-7.81-5.28-14.2,0-4.14.72-7.76,2.18-10.88l6.4-1.12c-1.66,3.39-2.5,7.16-2.5,11.29,0,5.21,1.23,8.95,3.68,11.23,2.71,2.5,7.36,3.74,13.95,3.74h5.57v-25.47c3.86-.83,7.86-1.25,12-1.25,5.27,0,9.08,1.27,11.42,3.81,2.13,2.3,3.2,5.81,3.2,10.53v12.38h14.27v-26.01h6.02v30.81h-26.17ZM463.21,782.99c0,.98-.34,1.81-1.02,2.49-.68.7-1.49,1.06-2.43,1.06-1,0-1.83-.34-2.5-1.02-.66-.66-.99-1.5-.99-2.53,0-.96.33-1.77.99-2.43.68-.68,1.51-1.02,2.5-1.02s1.75.33,2.43.99c.68.66,1.02,1.48,1.02,2.46M472.84,782.99c0,.98-.33,1.81-.99,2.49-.66.7-1.46,1.06-2.4,1.06-1,0-1.85-.34-2.53-1.02-.68-.68-1.02-1.53-1.02-2.53s.34-1.77,1.02-2.43c.7-.68,1.55-1.02,2.53-1.02s1.74.33,2.4.99c.66.66.99,1.48.99,2.46M511.43,786.6c-.98,0-1.81-.34-2.49-1.02-.7-.68-1.06-1.52-1.06-2.53s.35-1.81,1.06-2.5c.68-.68,1.51-1.02,2.49-1.02s1.84.33,2.53.99c.73.68,1.09,1.52,1.09,2.53s-.36,1.82-1.09,2.53c-.7.68-1.55,1.02-2.53,1.02M529.54,790.06c-2.24,0-4.51-.3-6.82-.9l.64-4.99c2.03.75,4.23,1.12,6.62,1.12,2.9,0,5.03-.8,6.4-2.4,1.56-1.77,2.33-4.7,2.33-8.8v-31.67h6.02v26.01h7.2v4.8h-7.2v.32c0,11.01-5.07,16.51-15.2,16.51M551.01,768.43h2.18c6.95,0,12.92-1.13,17.89-3.39-6.8-6.4-12.05-10.2-15.74-11.39l.54-4.19c6.91-5.25,13.21-7.87,18.91-7.87,4.2,0,7.43,1.02,9.69,3.07,1.98,1.83,2.98,4.19,2.98,7.07,0,4.99-2.62,9.51-7.87,13.57,3.03,2.09,6.17,3.13,9.44,3.13h4v4.8h-4.86c-4.73,0-9.17-1.62-13.31-4.86-6.16,3.24-13.57,4.86-22.2,4.86h-1.63v-4.8ZM561.5,751.34c2.39.92,7.12,4.54,14.21,10.88,3.8-2.86,5.69-6.09,5.69-9.69,0-1.9-.58-3.41-1.73-4.54-1.28-1.26-3.12-1.89-5.54-1.89-3.48,0-7.69,1.75-12.64,5.25M592.03,768.43h9.18v-41.4h6.02v46.2h-15.2v-4.8ZM619.66,727.03h6.02v46.2h-6.02v-46.2ZM671.74,773.23c-8.11,0-14.01-1.62-17.72-4.86-3.52-3.07-5.28-7.81-5.28-14.2,0-4.14.72-7.76,2.18-10.88l6.4-1.12c-1.66,3.39-2.49,7.16-2.49,11.29,0,5.21,1.23,8.95,3.68,11.23,2.71,2.5,7.36,3.74,13.95,3.74h11.17v-26.01h6.01v30.81h-17.89ZM670.43,786.6c-1,0-1.84-.34-2.49-1.02-.7-.68-1.06-1.52-1.06-2.53s.35-1.81,1.06-2.5c.68-.68,1.51-1.02,2.49-1.02s1.84.33,2.53.99c.73.68,1.09,1.52,1.09,2.53s-.36,1.82-1.09,2.53c-.7.68-1.55,1.02-2.53,1.02M701.57,727.03h6.02v41.4h7.23v4.8h-13.24v-46.2ZM713.84,768.43h9.57v-26.01h6.02v26.01h7.29v4.8h-22.88v-4.8ZM722.03,786.6c-.98,0-1.81-.34-2.5-1.02-.7-.68-1.05-1.52-1.05-2.53s.35-1.81,1.05-2.5c.68-.68,1.51-1.02,2.5-1.02s1.85.33,2.53.99c.72.68,1.09,1.52,1.09,2.53s-.36,1.82-1.09,2.53c-.7.68-1.55,1.02-2.53,1.02M779.17,773.23c-4.18,0-7.22-.36-9.12-1.09-1.98-.75-3.44-2.13-4.38-4.16-1.45,3.8-4.75,5.7-9.89,5.7-4.61,0-7.43-1.88-8.48-5.63-1.26,3.46-4.18,5.18-8.77,5.18h-2.82v-4.8h2.82c2.43,0,4.15-.63,5.15-1.89,1.07-1.34,1.6-3.7,1.6-7.07v-13.12h6.02v11.93c0,3.9.27,6.52.8,7.84.75,1.85,2.31,2.78,4.7,2.78,4.5,0,6.75-3.52,6.75-10.56v-14.62h5.85v16.8c0,3.33.7,5.51,2.11,6.56,1.24.89,3.72,1.34,7.45,1.34h2.14c.36-2.99.54-6.01.54-9.09,0-6.53-.72-12.55-2.17-18.08l5.82-1.06c1.58,5.61,2.37,11.81,2.37,18.59,0,2.69-.15,5.9-.45,9.63h7.2v4.8h-15.26ZM761.41,736.4c-.98,0-1.8-.33-2.46-.99-.68-.68-1.02-1.54-1.02-2.56,0-.94.34-1.75,1.02-2.43.66-.68,1.48-1.02,2.46-1.02s1.8.33,2.46.99c.66.66.99,1.48.99,2.46s-.33,1.85-.99,2.53c-.66.68-1.48,1.02-2.46,1.02M766.24,728.6c-.94,0-1.73-.32-2.37-.96-.64-.64-.96-1.43-.96-2.37s.32-1.77.96-2.43c.64-.66,1.43-.99,2.37-.99s1.7.33,2.34.99c.64.66.96,1.47.96,2.43s-.32,1.71-.96,2.37c-.64.64-1.42.96-2.34.96M771.11,736.4c-.98,0-1.8-.33-2.46-.99-.68-.68-1.02-1.54-1.02-2.56,0-.94.34-1.75,1.02-2.43.66-.68,1.48-1.02,2.46-1.02s1.77.33,2.43.99c.68.68,1.02,1.5,1.02,2.46s-.34,1.82-1.02,2.53c-.66.68-1.47,1.02-2.43,1.02M793.51,768.43h9.18v-41.4h6.02v41.4h7.2v4.8h-22.4v-4.8ZM814.94,768.43h9.18v-41.4h6.02v46.2h-15.2v-4.8ZM855.35,727.03h6.01v41.4h7.23v4.8h-13.25v-46.2ZM867.62,768.43h9.57v-26.01h6.02v26.01h10.17v4.8h-25.76v-4.8ZM876.68,782.99c0,.98-.34,1.81-1.02,2.49-.68.7-1.5,1.06-2.46,1.06s-1.8-.34-2.46-1.02c-.66-.66-.99-1.5-.99-2.53,0-.96.33-1.77.99-2.43.66-.68,1.48-1.02,2.46-1.02s1.78.33,2.46.99c.68.66,1.02,1.48,1.02,2.46M886.31,782.99c0,.98-.33,1.81-.99,2.49-.66.7-1.47,1.06-2.43,1.06s-1.81-.34-2.49-1.02c-.68-.68-1.02-1.53-1.02-2.53s.34-1.77,1.02-2.43c.68-.68,1.51-1.02,2.49-1.02s1.77.33,2.43.99c.66.66.99,1.48.99,2.46M892.46,768.43h27.07c.3-2.67.45-4.9.45-6.72,0-5.12-1.05-8.82-3.14-11.1-2.24-2.43-5.97-3.65-11.2-3.65-2.6,0-5.03.15-7.29.45v-4.7c2.3-.36,4.91-.54,7.81-.54,7.02,0,12.11,1.62,15.29,4.86,3.01,3.07,4.51,7.81,4.51,14.21,0,3.8-.35,7.8-1.06,12h-32.44v-4.8ZM907.91,786.6c-.98,0-1.81-.34-2.5-1.02-.68-.68-1.02-1.52-1.02-2.53s.34-1.81,1.02-2.5c.68-.68,1.52-1.02,2.5-1.02s1.86.33,2.56.99c.7.68,1.06,1.52,1.06,2.53s-.35,1.82-1.06,2.53c-.7.68-1.56,1.02-2.56,1.02M942.47,789.8c-3.37,0-6.78-.33-10.24-.99l.42-5.02c3.67.83,7.16,1.25,10.46,1.25,8.34,0,12.51-3.41,12.51-10.24v-1.57h-6.59c-11.45,0-17.18-5.09-17.18-15.26,0-4.63,1.35-8.43,4.06-11.39,2.96-3.24,7.11-4.86,12.45-4.86,4.8,0,9.19.77,13.18,2.3v24.41h7.2v4.8h-7.2v1.25c0,4.31-1.42,7.82-4.26,10.53-3.35,3.2-8.29,4.8-14.81,4.8M955.62,748.02c-2.13-1.02-4.77-1.54-7.9-1.54s-5.42.99-7.17,2.98c-1.75,1.96-2.62,4.58-2.62,7.84,0,7.42,3.98,11.13,11.93,11.13h5.76v-20.41ZM967.84,768.43h9.18v-41.4h6.01v46.2h-15.2v-4.8ZM1001.08,789.8c-3.37,0-6.78-.33-10.24-.99l.42-5.02c3.67.83,7.16,1.25,10.46,1.25,8.34,0,12.51-3.41,12.51-10.24v-1.57h-6.59c-11.45,0-17.18-5.09-17.18-15.26,0-4.63,1.35-8.43,4.06-11.39,2.96-3.24,7.11-4.86,12.45-4.86,4.8,0,9.19.77,13.18,2.3v24.41h7.2v4.8h-7.2v1.25c0,4.31-1.42,7.82-4.26,10.53-3.35,3.2-8.29,4.8-14.81,4.8M1014.23,748.02c-2.13-1.02-4.77-1.54-7.9-1.54s-5.42.99-7.17,2.98c-1.75,1.96-2.62,4.58-2.62,7.84,0,7.42,3.98,11.13,11.93,11.13h5.76v-20.41ZM1026.46,768.43h9.57v-26.01h6.02v26.01h7.29v4.8h-22.88v-4.8ZM1039.03,735.41c-.98,0-1.81-.34-2.5-1.02-.68-.68-1.02-1.51-1.02-2.49s.34-1.86,1.02-2.56,1.51-1.06,2.5-1.06,1.85.35,2.56,1.06c.7.68,1.06,1.54,1.06,2.56s-.35,1.81-1.06,2.49c-.73.68-1.58,1.02-2.56,1.02M1048.34,768.43h21.02c-.08-6.29-1.54-11.22-4.35-14.78-2.69-3.41-6.95-5.95-12.8-7.62v-4.45l24.83-15.61v6.11l-17.82,10.94c5.2,2.13,9.07,5.08,11.61,8.83,2.82,4.14,4.32,9.66,4.51,16.57h6.01v4.8h-33.02v-4.8ZM1080.39,768.43h9.57v-26.01h6.02v26.01h6.75v4.8h-22.33v-4.8ZM1087.07,736.4c-.98,0-1.8-.33-2.46-.99-.68-.68-1.02-1.54-1.02-2.56,0-.94.34-1.75,1.02-2.43.66-.68,1.48-1.02,2.46-1.02s1.77.33,2.43.99c.68.68,1.02,1.5,1.02,2.46s-.34,1.82-1.02,2.53c-.66.68-1.47,1.02-2.43,1.02M1096.77,736.4c-.98,0-1.81-.33-2.49-.99-.7-.68-1.06-1.54-1.06-2.56,0-.94.35-1.75,1.06-2.43.68-.68,1.51-1.02,2.49-1.02s1.77.33,2.43.99c.64.68.96,1.5.96,2.46s-.32,1.85-.96,2.53c-.66.68-1.47,1.02-2.43,1.02M1101.75,768.43h9.18v-41.4h6.02v46.2h-15.2v-4.8ZM1129.38,727.03h6.02v46.2h-6.02v-46.2ZM1152.32,789.8c-3.37,0-6.78-.33-10.24-.99l.42-5.02c3.67.83,7.16,1.25,10.46,1.25,8.34,0,12.51-3.41,12.51-10.24v-1.57h-6.59c-11.45,0-17.18-5.09-17.18-15.26,0-4.63,1.35-8.43,4.06-11.39,2.96-3.24,7.11-4.86,12.45-4.86,4.8,0,9.19.77,13.18,2.3v30.46c0,4.31-1.42,7.82-4.25,10.53-3.35,3.2-8.29,4.8-14.81,4.8M1165.47,748.02c-2.13-1.02-4.77-1.54-7.9-1.54s-5.42.99-7.17,2.98c-1.75,1.96-2.62,4.58-2.62,7.84,0,7.42,3.98,11.13,11.93,11.13h5.76v-20.41ZM1195.78,790.06c-2.24,0-4.51-.3-6.81-.9l.64-4.99c2.03.75,4.23,1.12,6.62,1.12,2.9,0,5.03-.8,6.4-2.4,1.56-1.77,2.33-4.7,2.33-8.8v-31.67h6.02v31.13c0,11.01-5.07,16.51-15.2,16.51M1222.87,727.03h6.02v41.4h7.23v4.8h-13.25v-46.2ZM1235.14,768.43h21.02c-.08-6.29-1.54-11.22-4.35-14.78-2.69-3.41-6.95-5.95-12.8-7.62v-4.45l24.83-15.61v6.11l-17.82,10.94c5.2,2.13,9.07,5.08,11.61,8.83,2.82,4.14,4.32,9.66,4.51,16.57h6.01v4.8h-33.02v-4.8ZM1267.18,768.43h9.57v-26.01h6.02v26.01h6.75v4.8h-22.33v-4.8ZM1273.87,736.4c-.98,0-1.8-.33-2.46-.99-.68-.68-1.02-1.54-1.02-2.56,0-.94.34-1.75,1.02-2.43.66-.68,1.48-1.02,2.46-1.02s1.77.33,2.43.99c.68.68,1.02,1.5,1.02,2.46s-.34,1.82-1.02,2.53c-.66.68-1.47,1.02-2.43,1.02M1283.56,736.4c-.98,0-1.81-.33-2.49-.99-.7-.68-1.06-1.54-1.06-2.56,0-.94.35-1.75,1.06-2.43.68-.68,1.51-1.02,2.49-1.02s1.77.33,2.43.99c.64.68.96,1.5.96,2.46s-.32,1.85-.96,2.53c-.66.68-1.47,1.02-2.43,1.02M1288.54,768.43h9.57v-26.01h6.02v30.81h-15.58v-4.8ZM1296.73,786.6c-.98,0-1.81-.34-2.49-1.02-.7-.68-1.06-1.52-1.06-2.53s.35-1.81,1.06-2.5c.68-.68,1.51-1.02,2.49-1.02s1.84.33,2.53.99c.72.68,1.09,1.52,1.09,2.53s-.36,1.82-1.09,2.53c-.7.68-1.55,1.02-2.53,1.02M1326.01,762.54h-6.08l-10.43-35.07,6.02-.83,10.49,35.9ZM1312.31,773.23v-4.8h20.25v-41.4h6.08v46.2h-26.33ZM1351.06,727.03h6.02v46.2h-6.02v-46.2ZM1396.23,773.23c-11.45,0-17.18-5.09-17.18-15.26,0-4.63,1.35-8.43,4.06-11.39,2.96-3.24,7.11-4.86,12.45-4.86,4.8,0,9.19.77,13.18,2.3v24.41h7.26v4.8h-19.77ZM1402.82,748.02c-2.13-1.02-4.77-1.54-7.9-1.54s-5.42.99-7.17,2.98c-1.75,1.96-2.62,4.58-2.62,7.84,0,7.42,3.98,11.13,11.93,11.13h5.76v-20.41ZM1390.18,736.4c-.98,0-1.8-.33-2.46-.99-.66-.68-.99-1.54-.99-2.56,0-.94.33-1.75.99-2.43.66-.68,1.48-1.02,2.46-1.02s1.78.33,2.46.99c.68.68,1.02,1.5,1.02,2.46s-.34,1.82-1.02,2.53c-.68.68-1.5,1.02-2.46,1.02M1399.88,736.4c-.98,0-1.81-.33-2.5-.99-.68-.68-1.02-1.54-1.02-2.56,0-.94.34-1.75,1.02-2.43.68-.68,1.51-1.02,2.5-1.02s1.77.33,2.43.99c.66.68.99,1.5.99,2.46s-.33,1.85-.99,2.53c-.66.68-1.47,1.02-2.43,1.02M1439.89,773.23c-7.61,0-12.66-2.06-15.13-6.17-1.15,4.12-4.49,6.17-10.01,6.17h-.99v-4.8c2.65,0,4.59-.69,5.82-2.08,1.49-1.66,2.24-4.54,2.24-8.64,0-4.52,1.36-8.25,4.09-11.2,2.99-3.2,7.08-4.8,12.29-4.8,9.34,0,14.01,4.9,14.01,14.68v12.03h6.56v4.8h-18.88ZM1446.32,757.42c0-7.29-2.88-10.94-8.64-10.94-3.03,0-5.42,1-7.17,3.01-1.75,1.94-2.62,4.56-2.62,7.87,0,7.38,3.98,11.07,11.93,11.07h6.49v-11.01ZM1457.75,773.23v-4.8h5.18c1.51,0,2.78.12,3.81.35-3.24-2.05-4.86-5.74-4.86-11.07,0-4.52,1.38-8.25,4.13-11.2,2.96-3.2,7.05-4.8,12.25-4.8,9.34,0,14.01,4.9,14.01,14.68v16.83h-34.52ZM1486.38,757.42c0-7.29-2.88-10.94-8.64-10.94-3.03,0-5.42,1-7.17,3.01-1.75,1.94-2.62,4.56-2.62,7.87,0,7.38,3.98,11.07,11.93,11.07h6.49v-11.01ZM1472.75,736.4c-.98,0-1.8-.33-2.46-.99-.68-.68-1.02-1.54-1.02-2.56,0-.94.34-1.75,1.02-2.43.66-.68,1.48-1.02,2.46-1.02s1.78.33,2.46.99c.68.68,1.02,1.5,1.02,2.46s-.34,1.82-1.02,2.53c-.68.68-1.5,1.02-2.46,1.02M1482.45,736.4c-.98,0-1.81-.33-2.5-.99-.68-.68-1.02-1.54-1.02-2.56,0-.94.34-1.75,1.02-2.43s1.51-1.02,2.5-1.02,1.77.33,2.43.99c.66.68.99,1.5.99,2.46s-.33,1.85-.99,2.53c-.66.68-1.47,1.02-2.43,1.02"/>
</svg>