<svg width="252" height="252" viewBox="0 0 252 252" fill="none" xmlns="http://www.w3.org/2000/svg">
	<circle cx="126" cy="126" r="126" fill="#0F172A"/>
	<g clip-path="url(#clip0_4_29859)">
		<path d="M68.61 180.808C59.1664 178.192 49.7915 175.026 40.7471 170.544C36.2318 168.281 31.799 165.696 27.6278 162.361C25.5491 160.679 23.5392 158.813 21.7496 156.565C19.9738 154.316 18.3631 151.655 17.5096 148.443C16.6974 145.261 16.8488 141.621 18.0465 138.684C19.2029 135.748 20.9649 133.408 22.8647 131.45C26.7468 127.657 31.1382 125.148 35.5847 123.037C44.5191 118.877 53.8526 116.491 63.1861 114.625C54.0729 117.531 45.0422 120.988 36.8512 125.959C32.8039 128.452 28.8943 131.343 25.9483 134.907C24.5304 136.711 23.4016 138.669 22.8372 140.658C22.2452 142.646 22.4242 144.588 23.0574 146.393C24.4203 150.064 27.9032 153.154 31.6338 155.555C35.4195 157.972 39.6183 159.868 43.9271 161.444C52.5723 164.595 61.6856 166.583 70.8264 168.021H70.8402C74.0477 168.525 76.2779 171.829 75.8236 175.393C75.3693 178.957 72.3958 181.435 69.1882 180.93C68.9955 180.899 68.789 180.853 68.5963 180.808H68.61Z" fill="#00AA8B"/>
		<path d="M89.452 177.764C80.738 172.288 70.193 163.707 64.0808 155.524L67.192 173.772L59.0836 190C67.2057 184.371 79.6504 179.92 89.4658 177.764H89.452Z" fill="#00AA8B"/>
		<path d="M175.519 111C183.489 111.459 191.433 112.621 199.321 114.35C207.181 116.185 215.014 118.541 222.503 122.395C226.247 124.322 229.937 126.616 233.268 129.813C234.92 131.419 236.517 133.27 237.77 135.579C239.023 137.858 239.917 140.657 239.986 143.579C240.041 146.516 239.243 149.376 238.059 151.747C236.889 154.163 235.319 156.075 233.723 157.803C230.432 161.184 226.784 163.646 223.081 165.772C215.606 169.902 207.828 172.686 199.954 174.827C192.093 176.968 184.136 178.452 176.152 179.462C160.197 181.481 144.132 181.756 128.232 180.18C144.118 178.574 159.853 176.632 175.367 173.558C183.104 171.921 190.799 170.177 198.302 167.822C202.06 166.675 205.777 165.405 209.398 163.937C213.032 162.499 216.584 160.878 219.956 158.981C223.315 157.1 226.509 154.913 229.097 152.312C231.726 149.743 233.42 146.653 233.475 143.701C233.53 140.734 231.782 137.522 229.193 134.815C226.605 132.107 223.439 129.783 220.094 127.733C213.348 123.71 205.97 120.621 198.467 117.99C190.965 115.298 183.269 113.157 175.519 111.031V111Z" fill="#00AA8B"/>
	</g>
	<path d="M75.875 121.416L81.4121 111.309V110.693H69.9863C68.4629 110.693 67.0127 110.547 65.6357 110.254C64.2588 109.961 63.1309 109.375 62.252 108.496C61.373 107.617 60.9336 106.299 60.9336 104.541C60.9336 102.812 61.373 101.523 62.252 100.674C63.1309 99.7949 64.2588 99.209 65.6357 98.916C67.042 98.623 68.4922 98.4766 69.9863 98.4766H89.5859C91.8418 98.4766 93.6289 99.1504 94.9473 100.498C96.2949 101.816 96.9688 103.398 96.9688 105.244C96.9688 105.742 96.9248 106.226 96.8369 106.694C96.7783 107.163 96.6172 107.617 96.3535 108.057L88.4434 121.24C89.791 121.797 91.1094 122.544 92.3984 123.481C93.7168 124.39 94.874 125.547 95.8701 126.953C96.8955 128.359 97.7012 130.029 98.2871 131.963C98.873 133.867 99.166 136.064 99.166 138.555C99.166 141.338 98.873 143.828 98.2871 146.025C97.0859 150.273 95.0938 153.525 92.3105 155.781C90.875 156.953 89.4248 157.847 87.96 158.462C86.4365 159.136 84.8398 159.619 83.1699 159.912C81.5293 160.205 79.918 160.352 78.3359 160.352C77.2227 160.352 75.9336 160.234 74.4688 160C71.627 159.502 68.9609 158.521 66.4707 157.056C65.2109 156.353 64.0977 155.503 63.1309 154.507C62.1641 153.511 61.3877 152.397 60.8018 151.167C60.2451 149.937 59.9668 148.574 59.9668 147.08C59.9668 145.557 60.4062 144.253 61.2852 143.169C62.1641 142.085 63.4531 141.543 65.1523 141.543C66.3535 141.543 67.4668 141.88 68.4922 142.554C69.5469 143.228 70.4258 144.268 71.1289 145.674C71.5977 146.523 72.4473 147.329 73.6777 148.091C74.9375 148.823 76.5488 149.189 78.5117 149.189C81.7051 149.189 83.917 148.281 85.1475 146.465C86.4072 144.648 87.0371 142.451 87.0371 139.873C87.0371 137.354 86.2461 135.2 84.6641 133.413C83.082 131.626 81.2363 130.732 79.127 130.732C77.7207 130.732 76.5781 130.308 75.6992 129.458C74.8203 128.608 74.3809 127.451 74.3809 125.986C74.3809 124.727 74.8789 123.203 75.875 121.416ZM108.043 141.982V138.467C108.043 137.236 108.043 135.625 108.043 133.633C108.072 131.641 108.087 129.883 108.087 128.359C108.087 126.895 108.087 125.371 108.087 123.789C108.116 122.178 108.131 121.006 108.131 120.273C108.131 118.574 108.307 116.846 108.658 115.088C109.391 111.543 110.694 108.364 112.569 105.552C113.507 104.146 114.562 102.915 115.733 101.86C116.876 100.806 118.106 99.9854 119.425 99.3994C120.772 98.7842 122.193 98.4766 123.688 98.4766C125.592 98.5938 127.101 99.1943 128.214 100.278C129.356 101.333 129.928 102.607 129.928 104.102C129.928 106.182 128.844 108.057 126.676 109.727C125.504 110.664 124.493 111.543 123.644 112.363C122.823 113.154 122.208 114.048 121.798 115.044C121.563 115.659 121.373 116.377 121.227 117.197C121.109 118.018 121.021 118.97 120.963 120.054C120.904 121.138 120.875 122.412 120.875 123.877C121.461 122.676 122.486 121.855 123.951 121.416C125.416 120.947 126.822 120.713 128.17 120.713C128.58 120.713 129.034 120.742 129.532 120.801C130.03 120.83 130.558 120.874 131.114 120.933C132.228 121.079 133.385 121.372 134.586 121.812C135.787 122.222 136.974 122.822 138.146 123.613C139.288 124.375 140.328 125.4 141.266 126.689C142.174 127.949 142.906 129.517 143.463 131.392C144.049 133.237 144.342 135.42 144.342 137.939V141.982C144.342 144.883 143.99 147.373 143.287 149.453C142.555 151.504 141.632 153.218 140.519 154.595C139.405 155.942 138.16 156.997 136.783 157.759C135.436 158.491 134.088 159.062 132.74 159.473C131.422 159.883 130.191 160.132 129.049 160.22C127.936 160.308 127.086 160.352 126.5 160.352C125.709 160.352 124.713 160.308 123.512 160.22C122.281 160.132 120.978 159.897 119.601 159.517C118.253 159.106 116.891 158.521 115.514 157.759C114.137 156.997 112.892 155.928 111.778 154.551C110.665 153.174 109.757 151.475 109.054 149.453C108.38 147.402 108.043 144.912 108.043 141.982ZM120.875 137.236V143.652C120.934 144.648 121.153 145.513 121.534 146.245C121.856 146.919 122.369 147.52 123.072 148.047C123.775 148.574 124.771 148.838 126.061 148.838C127.35 148.838 128.331 148.574 129.005 148.047C129.679 147.52 130.177 146.919 130.499 146.245C130.851 145.513 131.07 144.648 131.158 143.652V137.236C131.07 136.24 130.851 135.376 130.499 134.644C130.177 133.999 129.664 133.413 128.961 132.886C128.287 132.329 127.32 132.051 126.061 132.051C124.771 132.051 123.775 132.329 123.072 132.886C122.369 133.413 121.856 133.999 121.534 134.644C121.153 135.376 120.934 136.24 120.875 137.236ZM150.758 141.982V116.055C150.758 113.184 151.168 110.752 151.988 108.76C152.779 106.768 153.805 105.112 155.064 103.794C156.324 102.476 157.716 101.436 159.239 100.674C160.792 99.9121 162.286 99.3408 163.722 98.96C165.187 98.5791 166.49 98.3447 167.633 98.2568C168.775 98.1689 169.625 98.125 170.182 98.125H171.676C172.232 98.125 173.097 98.1689 174.269 98.2568C175.44 98.3447 176.729 98.5791 178.136 98.96C179.571 99.3408 181.051 99.9121 182.574 100.674C184.01 101.406 185.387 102.446 186.705 103.794C187.936 105.112 188.946 106.782 189.737 108.804C190.528 110.796 190.924 113.213 190.924 116.055V141.982C190.924 144.883 190.528 147.373 189.737 149.453C188.946 151.504 187.921 153.218 186.661 154.595C185.431 155.942 184.068 156.997 182.574 157.759C181.021 158.521 179.557 159.092 178.18 159.473C176.744 159.883 175.44 160.132 174.269 160.22C173.097 160.308 172.232 160.352 171.676 160.352H170.182C169.625 160.352 168.775 160.308 167.633 160.22C166.461 160.132 165.143 159.897 163.678 159.517C162.242 159.106 160.763 158.521 159.239 157.759C157.804 157.056 156.412 155.986 155.064 154.551C153.805 153.174 152.765 151.475 151.944 149.453C151.153 147.402 150.758 144.912 150.758 141.982ZM165.172 114.561V144.268C165.26 145.322 165.538 146.23 166.007 146.992C166.388 147.666 166.959 148.296 167.721 148.882C168.512 149.438 169.596 149.717 170.973 149.717C172.32 149.717 173.375 149.438 174.137 148.882C174.898 148.296 175.47 147.666 175.851 146.992C176.261 146.23 176.539 145.322 176.686 144.268V114.561C176.539 113.506 176.261 112.598 175.851 111.836C175.47 111.162 174.898 110.547 174.137 109.99C173.375 109.404 172.32 109.111 170.973 109.111C169.596 109.111 168.512 109.404 167.721 109.99C166.959 110.547 166.388 111.162 166.007 111.836C165.538 112.598 165.26 113.506 165.172 114.561Z" fill="white"/>
	<path d="M202 65.5C207.799 65.5 212.5 70.201 212.5 76C212.5 81.799 207.799 86.5 202 86.5C196.201 86.5 191.5 81.799 191.5 76C191.5 70.201 196.201 65.5 202 65.5Z" stroke="white" stroke-width="7"/>
	<defs>
		<clipPath id="clip0_4_29859">
			<rect width="223" height="79" fill="white" transform="translate(17 111)"/>
		</clipPath>
	</defs>
</svg>
