<svg xmlns="http://www.w3.org/2000/svg" width="24" height="24" viewBox="0 0 24 24" fill="none">
  <path d="M6.79978 17.2136C6.72235 17.213 6.75397 17.2118 6.77134 17.2112C6.77162 17.2111 6.77191 17.2111 6.77219 17.2111C6.77631 17.211 6.77738 17.2108 6.77854 17.2106C6.78132 17.2102 6.78509 17.2097 6.83445 17.2085C6.83263 17.2082 6.83164 17.2079 6.83164 17.2075C6.83164 17.2039 6.89602 17.2003 6.97312 17.1967C6.97273 17.1967 6.97232 17.1966 6.9719 17.1966C6.96391 17.1957 6.95403 17.1946 6.98228 17.1939C7.0182 17.193 7.05154 17.1924 7.0803 17.1919C7.14234 17.189 7.19778 17.1861 7.22069 17.1833C7.22787 17.1824 7.2318 17.1815 7.2318 17.1806C7.2318 17.1797 7.22934 17.1789 7.22472 17.1781C7.20786 17.1776 7.18784 17.1771 7.1693 17.1767C7.14323 17.1761 7.12009 17.1756 7.11253 17.1752C7.09434 17.1741 7.12305 17.1729 7.14439 17.172C7.14788 17.1719 7.15118 17.1717 7.15404 17.1716C7.14347 17.1709 7.13215 17.1702 7.12059 17.1695C7.12702 17.1694 7.13373 17.1694 7.14061 17.1693C7.22643 17.1687 7.22533 17.168 7.22374 17.1668C7.22305 17.1663 7.22229 17.1657 7.2285 17.165C7.2325 17.1646 7.26653 17.1644 7.2943 17.1642C7.30247 17.1641 7.3101 17.1641 7.31627 17.164C7.33741 17.1638 7.31456 17.1636 7.28758 17.1634C7.25258 17.1631 7.21054 17.1628 7.24852 17.1623C7.36954 17.1609 7.28744 17.1602 7.22533 17.1597C7.20711 17.1596 7.19065 17.1594 7.1815 17.1593C7.15186 17.1589 7.18123 17.1583 7.22154 17.1578C7.25351 17.1574 7.22182 17.1567 7.1815 17.1561C7.16626 17.1559 7.16588 17.1556 7.16551 17.1553C7.16513 17.155 7.16479 17.1546 7.14769 17.1541C7.10447 17.153 7.08352 17.1525 7.06675 17.152C7.06197 17.1519 7.05762 17.1517 7.05308 17.1516C7.03874 17.1512 7.02692 17.1507 7.015 17.1503C7.00073 17.1497 6.98624 17.1491 6.9669 17.1486C6.98736 17.1474 7.01268 17.1463 7.03795 17.1451C7.05106 17.1445 7.12492 17.1439 7.24669 17.1435C7.36855 17.1431 7.52745 17.1428 7.69213 17.1428C7.85681 17.1428 8.01571 17.1431 8.13758 17.1435C8.25934 17.1439 8.33333 17.1445 8.34644 17.1451C8.37258 17.1463 8.39874 17.1475 8.41956 17.1487C8.44493 17.1502 8.46241 17.1517 8.46241 17.1532C8.46241 17.1542 8.45848 17.1553 8.45142 17.1563C8.4507 17.1564 8.4499 17.1565 8.4491 17.1566C8.48965 17.1575 8.52654 17.1583 8.53968 17.159C8.55053 17.1595 8.52889 17.1598 8.51039 17.1601C8.49765 17.1604 8.48637 17.1605 8.48817 17.1607C8.48913 17.1608 8.49163 17.161 8.49464 17.1612C8.50691 17.1619 8.52773 17.1631 8.48817 17.1641C8.47061 17.1646 8.436 17.1652 8.40296 17.1657C8.35571 17.1665 8.31168 17.1672 8.3252 17.1676C8.34897 17.1682 8.32885 17.1689 8.31104 17.1695C8.29405 17.1702 8.27921 17.1707 8.30665 17.171C8.33944 17.1714 8.32607 17.1717 8.30628 17.1721C8.29255 17.1725 8.27579 17.1728 8.26905 17.1734C8.26126 17.174 8.23829 17.1744 8.21875 17.1748C8.19126 17.1753 8.17059 17.1757 8.20862 17.1763C8.25087 17.1769 8.27775 17.1776 8.26441 17.1781C8.25833 17.1784 8.25981 17.1787 8.26136 17.179C8.26341 17.1793 8.26553 17.1797 8.25037 17.1801C8.23787 17.1804 8.20591 17.1807 8.17762 17.1809C8.16879 17.181 8.16036 17.181 8.15296 17.1811C8.15336 17.1813 8.15396 17.1816 8.15491 17.1818C8.16006 17.1819 8.16575 17.1819 8.17163 17.1819C8.20114 17.1821 8.23734 17.1824 8.25538 17.1827C8.28392 17.1833 8.26605 17.1837 8.24707 17.1842C8.2323 17.1846 8.21689 17.185 8.22242 17.1854C8.22619 17.1857 8.23926 17.1861 8.2522 17.1864C8.27143 17.1869 8.29035 17.1874 8.27833 17.1878C8.27382 17.1879 8.25374 17.188 8.23377 17.1881C8.23365 17.1881 8.23352 17.1881 8.2334 17.1881C8.23205 17.1881 8.23072 17.1881 8.22937 17.1881C8.24467 17.189 8.26154 17.1898 8.2793 17.1907C8.28446 17.1908 8.28955 17.1908 8.29456 17.1909C8.31904 17.1913 8.34283 17.1916 8.37659 17.1919C8.4132 17.1921 8.43448 17.1927 8.45692 17.1934C8.47161 17.1938 8.48679 17.1943 8.50709 17.1946C8.51895 17.1948 8.49827 17.195 8.47694 17.1952C8.45704 17.1954 8.43661 17.1956 8.44166 17.1958C8.44419 17.196 8.45276 17.1961 8.46192 17.1962C8.46999 17.1963 8.47854 17.1964 8.48377 17.1965C8.48862 17.1967 8.47736 17.1969 8.46302 17.1972C8.45416 17.1974 8.44416 17.1977 8.43592 17.1979C8.44881 17.1985 8.46117 17.1992 8.47266 17.1998C8.4908 17.1999 8.51434 17.2 8.54457 17.2001C8.56625 17.2002 8.59217 17.2002 8.61866 17.2003C8.65472 17.2004 8.69198 17.2005 8.72169 17.2006C8.74491 17.2007 8.75416 17.2008 8.74452 17.2008C8.74002 17.2009 8.73155 17.2009 8.72389 17.2009C8.71511 17.2009 8.70731 17.201 8.70753 17.201C8.70771 17.201 8.71392 17.201 8.72145 17.201C8.73346 17.2011 8.74897 17.2011 8.74953 17.2012C8.75158 17.2015 8.74661 17.2019 8.74171 17.2022C8.73626 17.2026 8.73098 17.2029 8.73561 17.2032C8.7408 17.2035 8.71772 17.204 8.69471 17.2045C8.67866 17.2048 8.66269 17.2051 8.65614 17.2054C8.64972 17.2057 8.66248 17.2059 8.67494 17.2062C8.68989 17.2065 8.70433 17.2069 8.68409 17.2071C8.67998 17.2072 8.65497 17.2072 8.62367 17.2073C8.60149 17.2074 8.57612 17.2075 8.55274 17.2075C8.55274 17.2079 8.55172 17.2082 8.54981 17.2086C8.55321 17.2086 8.55666 17.2086 8.56019 17.2086C8.56027 17.2086 8.56035 17.2086 8.56043 17.2086C8.64004 17.2089 8.74893 17.2093 8.68397 17.2098C8.66746 17.2099 8.63696 17.21 8.60951 17.2101C8.58255 17.2102 8.55843 17.2103 8.55335 17.2104C8.54761 17.2105 8.56416 17.2106 8.58216 17.2107C8.60744 17.211 8.63568 17.2112 8.60939 17.2114C8.60759 17.2114 8.60562 17.2114 8.60365 17.2115C8.58494 17.2116 8.55728 17.2119 8.5016 17.2121C8.48673 17.2128 8.46933 17.2136 8.45033 17.2143C8.41865 17.2155 8.38254 17.2167 8.34644 17.2179C8.32867 17.2185 8.25285 17.2191 8.13147 17.2195C8.00992 17.2199 7.85371 17.2202 7.69213 17.2202C7.53057 17.2202 7.37446 17.2199 7.25292 17.2195C7.13153 17.2191 7.05571 17.2185 7.03795 17.2179C7.00931 17.217 6.98063 17.216 6.9542 17.2151C6.95085 17.215 6.9476 17.215 6.94456 17.2149C6.92192 17.2145 6.87644 17.2142 6.83091 17.2138C6.82045 17.2138 6.80997 17.2137 6.79978 17.2136ZM11.2998 17.2136C11.2223 17.213 11.254 17.2118 11.2713 17.2112C11.2716 17.2111 11.2719 17.2111 11.2722 17.2111C11.2763 17.211 11.2774 17.2108 11.2785 17.2106C11.2813 17.2102 11.2851 17.2097 11.3345 17.2085C11.3326 17.2082 11.3316 17.2079 11.3316 17.2075C11.3316 17.2039 11.396 17.2003 11.4731 17.1967C11.4727 17.1967 11.4723 17.1966 11.4719 17.1966C11.4639 17.1957 11.454 17.1946 11.4823 17.1939C11.5182 17.193 11.5515 17.1924 11.5803 17.1919C11.6423 17.189 11.6978 17.1861 11.7207 17.1833C11.7279 17.1824 11.7318 17.1815 11.7318 17.1806C11.7318 17.1797 11.7293 17.1789 11.7247 17.1781C11.7079 17.1776 11.6878 17.1771 11.6693 17.1767C11.6432 17.1761 11.6201 17.1756 11.6125 17.1752C11.5943 17.1741 11.6231 17.1729 11.6444 17.172C11.6479 17.1719 11.6512 17.1717 11.654 17.1716C11.6435 17.1709 11.6322 17.1702 11.6206 17.1695C11.627 17.1694 11.6337 17.1694 11.6406 17.1693C11.7264 17.1687 11.7253 17.168 11.7237 17.1668C11.723 17.1663 11.7223 17.1657 11.7285 17.165C11.7325 17.1646 11.7665 17.1644 11.7943 17.1642C11.8025 17.1641 11.8101 17.1641 11.8163 17.164C11.8374 17.1638 11.8146 17.1636 11.7876 17.1634C11.7526 17.1631 11.7105 17.1628 11.7485 17.1623C11.8695 17.1609 11.7874 17.1602 11.7253 17.1597C11.7071 17.1596 11.6906 17.1594 11.6815 17.1593C11.6519 17.1589 11.6812 17.1583 11.7215 17.1578C11.7535 17.1574 11.7218 17.1567 11.6815 17.1561C11.6663 17.1559 11.6659 17.1556 11.6655 17.1553C11.6651 17.155 11.6648 17.1546 11.6477 17.1541C11.6045 17.153 11.5835 17.1525 11.5668 17.152C11.562 17.1519 11.5576 17.1517 11.5531 17.1516C11.5387 17.1512 11.5269 17.1507 11.515 17.1503C11.5007 17.1497 11.4862 17.1491 11.4669 17.1486C11.4874 17.1474 11.5127 17.1463 11.5379 17.1451C11.5511 17.1445 11.6249 17.1439 11.7467 17.1435C11.8686 17.1431 12.0275 17.1428 12.1921 17.1428C12.3568 17.1428 12.5157 17.1431 12.6376 17.1435C12.7593 17.1439 12.8333 17.1445 12.8464 17.1451C12.8726 17.1463 12.8987 17.1475 12.9196 17.1487C12.9449 17.1502 12.9624 17.1517 12.9624 17.1532C12.9624 17.1542 12.9585 17.1553 12.9514 17.1563C12.9507 17.1564 12.9499 17.1565 12.9491 17.1566C12.9897 17.1575 13.0265 17.1583 13.0397 17.159C13.0505 17.1595 13.0289 17.1598 13.0104 17.1601C12.9976 17.1604 12.9864 17.1605 12.9882 17.1607C12.9891 17.1608 12.9916 17.161 12.9946 17.1612C13.0069 17.1619 13.0277 17.1631 12.9882 17.1641C12.9706 17.1646 12.936 17.1652 12.903 17.1657C12.8557 17.1665 12.8117 17.1672 12.8252 17.1676C12.849 17.1682 12.8289 17.1689 12.811 17.1695C12.7941 17.1702 12.7792 17.1707 12.8066 17.171C12.8394 17.1714 12.8261 17.1717 12.8063 17.1721C12.7926 17.1725 12.7758 17.1728 12.769 17.1734C12.7613 17.174 12.7383 17.1744 12.7188 17.1748C12.6913 17.1753 12.6706 17.1757 12.7086 17.1763C12.7509 17.1769 12.7778 17.1776 12.7644 17.1781C12.7583 17.1784 12.7598 17.1787 12.7614 17.179C12.7634 17.1793 12.7655 17.1797 12.7504 17.1801C12.7379 17.1804 12.7059 17.1807 12.6776 17.1809C12.6688 17.181 12.6604 17.181 12.653 17.1811C12.6534 17.1813 12.654 17.1816 12.6549 17.1818C12.6601 17.1819 12.6658 17.1819 12.6716 17.1819C12.7011 17.1821 12.7373 17.1824 12.7554 17.1827C12.7839 17.1833 12.766 17.1837 12.7471 17.1842C12.7323 17.1846 12.7169 17.185 12.7224 17.1854C12.7262 17.1857 12.7393 17.1861 12.7522 17.1864C12.7714 17.1869 12.7904 17.1874 12.7783 17.1878C12.7738 17.1879 12.7537 17.188 12.7338 17.1881C12.7336 17.1881 12.7335 17.1881 12.7334 17.1881C12.732 17.1881 12.7307 17.1881 12.7294 17.1881C12.7447 17.189 12.7615 17.1898 12.7793 17.1907C12.7845 17.1908 12.7896 17.1908 12.7946 17.1909C12.819 17.1913 12.8428 17.1916 12.8766 17.1919C12.9132 17.1921 12.9345 17.1927 12.9569 17.1934C12.9716 17.1938 12.9868 17.1943 13.0071 17.1946C13.019 17.1948 12.9983 17.195 12.9769 17.1952C12.957 17.1954 12.9366 17.1956 12.9417 17.1958C12.9442 17.196 12.9528 17.1961 12.9619 17.1962C12.97 17.1963 12.9785 17.1964 12.9838 17.1965C12.9886 17.1967 12.9774 17.1969 12.963 17.1972C12.9542 17.1974 12.9442 17.1977 12.9359 17.1979C12.9488 17.1985 12.9612 17.1992 12.9727 17.1998C12.9908 17.1999 13.0143 17.2 13.0446 17.2001C13.0662 17.2002 13.0922 17.2002 13.1187 17.2003C13.1547 17.2004 13.192 17.2005 13.2217 17.2006C13.2449 17.2007 13.2542 17.2008 13.2445 17.2008C13.24 17.2009 13.2316 17.2009 13.2239 17.2009C13.2151 17.2009 13.2073 17.201 13.2075 17.201C13.2077 17.201 13.2139 17.201 13.2214 17.201C13.2335 17.2011 13.249 17.2011 13.2495 17.2012C13.2516 17.2015 13.2466 17.2019 13.2417 17.2022C13.2363 17.2026 13.231 17.2029 13.2356 17.2032C13.2408 17.2035 13.2177 17.204 13.1947 17.2045C13.1787 17.2048 13.1627 17.2051 13.1561 17.2054C13.1497 17.2057 13.1625 17.2059 13.1749 17.2062C13.1899 17.2065 13.2043 17.2069 13.1841 17.2071C13.18 17.2072 13.155 17.2072 13.1237 17.2073C13.1015 17.2074 13.0761 17.2075 13.0527 17.2075C13.0527 17.2079 13.0517 17.2082 13.0498 17.2086C13.0532 17.2086 13.0567 17.2086 13.0602 17.2086C13.0603 17.2086 13.0604 17.2086 13.0604 17.2086C13.14 17.2089 13.2489 17.2093 13.184 17.2098C13.1675 17.2099 13.137 17.21 13.1095 17.2101C13.0826 17.2102 13.0584 17.2103 13.0534 17.2104C13.0476 17.2105 13.0642 17.2106 13.0822 17.2107C13.1074 17.211 13.1357 17.2112 13.1094 17.2114C13.1076 17.2114 13.1056 17.2114 13.1036 17.2115C13.0849 17.2116 13.0573 17.2119 13.0016 17.2121C12.9867 17.2128 12.9693 17.2136 12.9503 17.2143C12.9187 17.2155 12.8825 17.2167 12.8464 17.2179C12.8287 17.2185 12.7528 17.2191 12.6315 17.2195C12.5099 17.2199 12.3537 17.2202 12.1921 17.2202C12.0306 17.2202 11.8745 17.2199 11.7529 17.2195C11.6315 17.2191 11.5557 17.2185 11.5379 17.2179C11.5093 17.217 11.4806 17.216 11.4542 17.2151C11.4508 17.215 11.4476 17.215 11.4446 17.2149C11.4219 17.2145 11.3764 17.2142 11.3309 17.2138C11.3205 17.2138 11.31 17.2137 11.2998 17.2136ZM11.2998 13.022C11.2223 13.0214 11.254 13.0202 11.2713 13.0195C11.2716 13.0195 11.2719 13.0195 11.2722 13.0195C11.2763 13.0194 11.2774 13.0192 11.2785 13.019C11.2813 13.0186 11.2851 13.0181 11.3345 13.0169C11.3326 13.0166 11.3316 13.0163 11.3316 13.0159C11.3316 13.0123 11.396 13.0087 11.4731 13.0051C11.4727 13.0051 11.4723 13.005 11.4719 13.005C11.4639 13.0041 11.454 13.003 11.4823 13.0022C11.5182 13.0014 11.5515 13.0007 11.5803 13.0002C11.6423 12.9974 11.6978 12.9945 11.7207 12.9917C11.7279 12.9908 11.7318 12.9899 11.7318 12.989C11.7318 12.9881 11.7293 12.9873 11.7247 12.9865C11.7079 12.986 11.6878 12.9855 11.6693 12.9851C11.6432 12.9845 11.6201 12.984 11.6125 12.9836C11.5943 12.9825 11.6231 12.9813 11.6444 12.9804C11.6479 12.9803 11.6512 12.9801 11.654 12.98C11.6435 12.9793 11.6322 12.9786 11.6206 12.9779C11.627 12.9778 11.6337 12.9778 11.6406 12.9777C11.7264 12.9771 11.7253 12.9764 11.7237 12.9752C11.723 12.9747 11.7223 12.9741 11.7285 12.9734C11.7325 12.973 11.7665 12.9728 11.7943 12.9726C11.8025 12.9725 11.8101 12.9725 11.8163 12.9724C11.8374 12.9722 11.8146 12.972 11.7876 12.9718C11.7526 12.9715 11.7105 12.9712 11.7485 12.9707C11.8695 12.9692 11.7874 12.9686 11.7253 12.9681C11.7071 12.968 11.6906 12.9678 11.6815 12.9677C11.6519 12.9673 11.6812 12.9667 11.7215 12.9662C11.7535 12.9658 11.7218 12.9651 11.6815 12.9645C11.6663 12.9643 11.6659 12.964 11.6655 12.9637C11.6651 12.9634 11.6648 12.963 11.6477 12.9625C11.6045 12.9614 11.5835 12.9609 11.5668 12.9604C11.562 12.9603 11.5576 12.9601 11.5531 12.96C11.5387 12.9596 11.5269 12.9591 11.515 12.9586C11.5007 12.9581 11.4862 12.9575 11.4669 12.957C11.4874 12.9558 11.5127 12.9547 11.5379 12.9535C11.5511 12.9529 11.6249 12.9523 11.7467 12.9519C11.8686 12.9515 12.0275 12.9512 12.1921 12.9512C12.3568 12.9512 12.5157 12.9515 12.6376 12.9519C12.7593 12.9523 12.8333 12.9529 12.8464 12.9535C12.8726 12.9547 12.8987 12.9559 12.9196 12.9571C12.9449 12.9586 12.9624 12.9601 12.9624 12.9616C12.9624 12.9626 12.9585 12.9636 12.9514 12.9647C12.9507 12.9648 12.9499 12.9649 12.9491 12.965C12.9897 12.9659 13.0265 12.9667 13.0397 12.9673C13.0505 12.9678 13.0289 12.9682 13.0104 12.9685C12.9976 12.9687 12.9864 12.9689 12.9882 12.9691C12.9891 12.9692 12.9916 12.9694 12.9946 12.9696C13.0069 12.9703 13.0277 12.9714 12.9882 12.9725C12.9706 12.973 12.936 12.9736 12.903 12.9741C12.8557 12.9749 12.8117 12.9756 12.8252 12.9759C12.849 12.9766 12.8289 12.9773 12.811 12.9779C12.7941 12.9786 12.7792 12.9791 12.8066 12.9794C12.8394 12.9798 12.8261 12.9801 12.8063 12.9805C12.7926 12.9808 12.7758 12.9812 12.769 12.9818C12.7613 12.9824 12.7383 12.9828 12.7188 12.9832C12.6913 12.9837 12.6706 12.9841 12.7086 12.9847C12.7509 12.9853 12.7778 12.986 12.7644 12.9865C12.7583 12.9868 12.7598 12.9871 12.7614 12.9874C12.7634 12.9877 12.7655 12.9881 12.7504 12.9885C12.7379 12.9888 12.7059 12.9891 12.6776 12.9893C12.6688 12.9893 12.6604 12.9894 12.653 12.9895C12.6534 12.9897 12.654 12.99 12.6549 12.9902C12.6601 12.9902 12.6658 12.9903 12.6716 12.9903C12.7011 12.9905 12.7373 12.9908 12.7554 12.9911C12.7839 12.9917 12.766 12.9921 12.7471 12.9926C12.7323 12.993 12.7169 12.9934 12.7224 12.9938C12.7262 12.9941 12.7393 12.9944 12.7522 12.9948C12.7714 12.9953 12.7904 12.9958 12.7783 12.9962C12.7738 12.9963 12.7537 12.9964 12.7338 12.9965C12.7336 12.9965 12.7335 12.9965 12.7334 12.9965C12.732 12.9965 12.7307 12.9965 12.7294 12.9965C12.7447 12.9974 12.7615 12.9982 12.7793 12.9991C12.7845 12.9992 12.7896 12.9992 12.7946 12.9993C12.819 12.9997 12.8428 13 12.8766 13.0002C12.9132 13.0005 12.9345 13.0011 12.9569 13.0018C12.9716 13.0022 12.9868 13.0026 13.0071 13.003C13.019 13.0032 12.9983 13.0034 12.9769 13.0036C12.957 13.0038 12.9366 13.004 12.9417 13.0042C12.9442 13.0043 12.9528 13.0045 12.9619 13.0046C12.97 13.0047 12.9785 13.0048 12.9838 13.0049C12.9886 13.0051 12.9774 13.0053 12.963 13.0056C12.9542 13.0058 12.9442 13.0061 12.9359 13.0063C12.9488 13.0069 12.9612 13.0076 12.9727 13.0082C12.9908 13.0083 13.0143 13.0084 13.0446 13.0085C13.0662 13.0086 13.0922 13.0086 13.1187 13.0087C13.1547 13.0088 13.192 13.0089 13.2217 13.009C13.2449 13.0091 13.2542 13.0092 13.2445 13.0092C13.24 13.0093 13.2316 13.0093 13.2239 13.0093C13.2151 13.0093 13.2073 13.0093 13.2075 13.0094C13.2077 13.0094 13.2139 13.0094 13.2214 13.0094C13.2335 13.0095 13.249 13.0095 13.2495 13.0096C13.2516 13.0099 13.2466 13.0103 13.2417 13.0106C13.2363 13.011 13.231 13.0113 13.2356 13.0116C13.2408 13.0119 13.2177 13.0124 13.1947 13.0129C13.1787 13.0132 13.1627 13.0135 13.1561 13.0138C13.1497 13.0141 13.1625 13.0143 13.1749 13.0146C13.1899 13.0149 13.2043 13.0153 13.1841 13.0155C13.18 13.0156 13.155 13.0156 13.1237 13.0157C13.1015 13.0158 13.0761 13.0159 13.0527 13.0159C13.0527 13.0163 13.0517 13.0166 13.0498 13.017C13.0532 13.017 13.0567 13.017 13.0602 13.017C13.0603 13.017 13.0604 13.017 13.0604 13.017C13.14 13.0173 13.2489 13.0177 13.184 13.0182C13.1675 13.0183 13.137 13.0184 13.1095 13.0185C13.0826 13.0186 13.0584 13.0186 13.0534 13.0187C13.0476 13.0189 13.0642 13.019 13.0822 13.0191C13.1074 13.0193 13.1357 13.0196 13.1094 13.0198C13.1076 13.0198 13.1056 13.0198 13.1036 13.0199C13.0849 13.02 13.0573 13.0203 13.0016 13.0205C12.9867 13.0212 12.9693 13.022 12.9503 13.0227C12.9187 13.0239 12.8825 13.0251 12.8464 13.0263C12.8287 13.0269 12.7528 13.0275 12.6315 13.0279C12.5099 13.0283 12.3537 13.0286 12.1921 13.0286C12.0306 13.0286 11.8745 13.0283 11.7529 13.0279C11.6315 13.0275 11.5557 13.0269 11.5379 13.0263C11.5093 13.0254 11.4806 13.0244 11.4542 13.0234C11.4508 13.0234 11.4476 13.0233 11.4446 13.0233C11.4219 13.0229 11.3764 13.0226 11.3309 13.0222C11.3205 13.0221 11.31 13.0221 11.2998 13.022ZM15.2998 13.022C15.2223 13.0214 15.254 13.0202 15.2713 13.0195C15.2716 13.0195 15.2719 13.0195 15.2722 13.0195C15.2763 13.0194 15.2774 13.0192 15.2785 13.019C15.2813 13.0186 15.2851 13.0181 15.3345 13.0169C15.3326 13.0166 15.3316 13.0163 15.3316 13.0159C15.3316 13.0123 15.396 13.0087 15.4731 13.0051C15.4727 13.0051 15.4723 13.005 15.4719 13.005C15.4639 13.0041 15.454 13.003 15.4823 13.0022C15.5182 13.0014 15.5515 13.0007 15.5803 13.0002C15.6423 12.9974 15.6978 12.9945 15.7207 12.9917C15.7279 12.9908 15.7318 12.9899 15.7318 12.989C15.7318 12.9881 15.7293 12.9873 15.7247 12.9865C15.7079 12.986 15.6878 12.9855 15.6693 12.9851C15.6432 12.9845 15.6201 12.984 15.6125 12.9836C15.5943 12.9825 15.6231 12.9813 15.6444 12.9804C15.6479 12.9803 15.6512 12.9801 15.654 12.98C15.6435 12.9793 15.6322 12.9786 15.6206 12.9779C15.627 12.9778 15.6337 12.9778 15.6406 12.9777C15.7264 12.9771 15.7253 12.9764 15.7237 12.9752C15.723 12.9747 15.7223 12.9741 15.7285 12.9734C15.7325 12.973 15.7665 12.9728 15.7943 12.9726C15.8025 12.9725 15.8101 12.9725 15.8163 12.9724C15.8374 12.9722 15.8146 12.972 15.7876 12.9718C15.7526 12.9715 15.7105 12.9712 15.7485 12.9707C15.8695 12.9692 15.7874 12.9686 15.7253 12.9681C15.7071 12.968 15.6906 12.9678 15.6815 12.9677C15.6519 12.9673 15.6812 12.9667 15.7215 12.9662C15.7535 12.9658 15.7218 12.9651 15.6815 12.9645C15.6663 12.9643 15.6659 12.964 15.6655 12.9637C15.6651 12.9634 15.6648 12.963 15.6477 12.9625C15.6045 12.9614 15.5835 12.9609 15.5668 12.9604C15.562 12.9603 15.5576 12.9601 15.5531 12.96C15.5387 12.9596 15.5269 12.9591 15.515 12.9586C15.5007 12.9581 15.4862 12.9575 15.4669 12.957C15.4874 12.9558 15.5127 12.9547 15.5379 12.9535C15.5511 12.9529 15.6249 12.9523 15.7467 12.9519C15.8686 12.9515 16.0275 12.9512 16.1921 12.9512C16.3568 12.9512 16.5157 12.9515 16.6376 12.9519C16.7593 12.9523 16.8333 12.9529 16.8464 12.9535C16.8726 12.9547 16.8987 12.9559 16.9196 12.9571C16.9449 12.9586 16.9624 12.9601 16.9624 12.9616C16.9624 12.9626 16.9585 12.9636 16.9514 12.9647C16.9507 12.9648 16.9499 12.9649 16.9491 12.965C16.9897 12.9659 17.0265 12.9667 17.0397 12.9673C17.0505 12.9678 17.0289 12.9682 17.0104 12.9685C16.9976 12.9687 16.9864 12.9689 16.9882 12.9691C16.9891 12.9692 16.9916 12.9694 16.9946 12.9696C17.0069 12.9703 17.0277 12.9714 16.9882 12.9725C16.9706 12.973 16.936 12.9736 16.903 12.9741C16.8557 12.9749 16.8117 12.9756 16.8252 12.9759C16.849 12.9766 16.8289 12.9773 16.811 12.9779C16.7941 12.9786 16.7792 12.9791 16.8066 12.9794C16.8394 12.9798 16.8261 12.9801 16.8063 12.9805C16.7926 12.9808 16.7758 12.9812 16.769 12.9818C16.7613 12.9824 16.7383 12.9828 16.7188 12.9832C16.6913 12.9837 16.6706 12.9841 16.7086 12.9847C16.7509 12.9853 16.7778 12.986 16.7644 12.9865C16.7583 12.9868 16.7598 12.9871 16.7614 12.9874C16.7634 12.9877 16.7655 12.9881 16.7504 12.9885C16.7379 12.9888 16.7059 12.9891 16.6776 12.9893C16.6688 12.9893 16.6604 12.9894 16.653 12.9895C16.6534 12.9897 16.654 12.99 16.6549 12.9902C16.6601 12.9902 16.6658 12.9903 16.6716 12.9903C16.7011 12.9905 16.7373 12.9908 16.7554 12.9911C16.7839 12.9917 16.766 12.9921 16.7471 12.9926C16.7323 12.993 16.7169 12.9934 16.7224 12.9938C16.7262 12.9941 16.7393 12.9944 16.7522 12.9948C16.7714 12.9953 16.7904 12.9958 16.7783 12.9962C16.7738 12.9963 16.7537 12.9964 16.7338 12.9965C16.7336 12.9965 16.7335 12.9965 16.7334 12.9965C16.732 12.9965 16.7307 12.9965 16.7294 12.9965C16.7447 12.9974 16.7615 12.9982 16.7793 12.9991C16.7845 12.9992 16.7896 12.9992 16.7946 12.9993C16.819 12.9997 16.8428 13 16.8766 13.0002C16.9132 13.0005 16.9345 13.0011 16.9569 13.0018C16.9716 13.0022 16.9868 13.0026 17.0071 13.003C17.019 13.0032 16.9983 13.0034 16.9769 13.0036C16.957 13.0038 16.9366 13.004 16.9417 13.0042C16.9442 13.0043 16.9528 13.0045 16.9619 13.0046C16.97 13.0047 16.9785 13.0048 16.9838 13.0049C16.9886 13.0051 16.9774 13.0053 16.963 13.0056C16.9542 13.0058 16.9442 13.0061 16.9359 13.0063C16.9488 13.0069 16.9612 13.0076 16.9727 13.0082C16.9908 13.0083 17.0143 13.0084 17.0446 13.0085C17.0662 13.0086 17.0922 13.0086 17.1187 13.0087C17.1547 13.0088 17.192 13.0089 17.2217 13.009C17.2449 13.0091 17.2542 13.0092 17.2445 13.0092C17.24 13.0093 17.2316 13.0093 17.2239 13.0093C17.2151 13.0093 17.2073 13.0093 17.2075 13.0094C17.2077 13.0094 17.2139 13.0094 17.2214 13.0094C17.2335 13.0095 17.249 13.0095 17.2495 13.0096C17.2516 13.0099 17.2466 13.0103 17.2417 13.0106C17.2363 13.011 17.231 13.0113 17.2356 13.0116C17.2408 13.0119 17.2177 13.0124 17.1947 13.0129C17.1787 13.0132 17.1627 13.0135 17.1561 13.0138C17.1497 13.0141 17.1625 13.0143 17.1749 13.0146C17.1899 13.0149 17.2043 13.0153 17.1841 13.0155C17.18 13.0156 17.155 13.0156 17.1237 13.0157C17.1015 13.0158 17.0761 13.0159 17.0527 13.0159C17.0527 13.0163 17.0517 13.0166 17.0498 13.017C17.0532 13.017 17.0567 13.017 17.0602 13.017C17.0603 13.017 17.0604 13.017 17.0604 13.017C17.14 13.0173 17.2489 13.0177 17.184 13.0182C17.1675 13.0183 17.137 13.0184 17.1095 13.0185C17.0826 13.0186 17.0584 13.0186 17.0534 13.0187C17.0476 13.0189 17.0642 13.019 17.0822 13.0191C17.1074 13.0193 17.1357 13.0196 17.1094 13.0198C17.1076 13.0198 17.1056 13.0198 17.1036 13.0199C17.0849 13.02 17.0573 13.0203 17.0016 13.0205C16.9867 13.0212 16.9693 13.022 16.9503 13.0227C16.9187 13.0239 16.8825 13.0251 16.8464 13.0263C16.8287 13.0269 16.7528 13.0275 16.6315 13.0279C16.5099 13.0283 16.3537 13.0286 16.1921 13.0286C16.0306 13.0286 15.8745 13.0283 15.7529 13.0279C15.6315 13.0275 15.5557 13.0269 15.5379 13.0263C15.5093 13.0254 15.4806 13.0244 15.4542 13.0234C15.4508 13.0234 15.4476 13.0233 15.4446 13.0233C15.4219 13.0229 15.3764 13.0226 15.3309 13.0222C15.3205 13.0221 15.31 13.0221 15.2998 13.022ZM5.94132 7.96404C6.05205 7.8866 6.26555 7.91823 6.38299 7.93559C6.38514 7.93588 6.3873 7.93616 6.38945 7.93645C6.41732 7.94056 6.44369 7.94163 6.47458 7.9428C6.54824 7.94557 6.64776 7.94935 6.85547 7.99871C6.9159 7.99689 6.97635 7.9959 7.03678 7.9959C7.68944 7.9959 8.34209 8.06028 8.99474 8.13738C9.00299 8.13698 9.01137 8.13657 9.01984 8.13616C9.18354 8.12817 9.38652 8.11828 9.51406 8.14653C9.67621 8.18246 9.78634 8.21579 9.87679 8.24456C10.3952 8.3066 10.9136 8.36203 11.432 8.38494C11.5944 8.39212 11.7569 8.39605 11.9194 8.39605C12.069 8.39605 12.2187 8.39359 12.3683 8.38897C12.4554 8.37212 12.5382 8.3521 12.6151 8.33355C12.723 8.30749 12.8191 8.28434 12.8985 8.27679C13.0897 8.25859 13.3067 8.28731 13.4678 8.30865C13.4941 8.31213 13.519 8.31544 13.542 8.31829C13.6699 8.30772 13.7979 8.29641 13.9259 8.28484C13.9344 8.29128 13.943 8.29799 13.9518 8.30486C14.061 8.39069 14.1952 8.38959 14.4065 8.38799C14.4985 8.3873 14.6052 8.38655 14.7307 8.39276C14.8116 8.39676 14.8532 8.43079 14.8872 8.45855C14.8972 8.46672 14.9065 8.47436 14.916 8.48053C14.9485 8.50166 14.9828 8.47882 15.0232 8.45184C15.0757 8.41684 15.1387 8.37479 15.222 8.41278C15.4871 8.53379 15.604 8.45169 15.6924 8.38958C15.7183 8.37136 15.7418 8.3549 15.7658 8.34576C15.8439 8.31612 15.955 8.34548 16.039 8.3858C16.1056 8.41776 16.2389 8.38607 16.34 8.34576C16.3782 8.33051 16.4299 8.33013 16.4907 8.32977C16.5537 8.32939 16.6266 8.32905 16.7046 8.31194C16.9016 8.26872 17.0063 8.24778 17.0905 8.23101C17.1145 8.22623 17.1368 8.22188 17.1591 8.21734C17.2297 8.20299 17.3173 8.19117 17.4059 8.17925C17.512 8.16498 17.6197 8.15049 17.7016 8.13115C17.914 8.15162 18.1264 8.17694 18.3387 8.2022C18.4478 8.21532 18.5524 8.28918 18.6296 8.41094C18.7067 8.53281 18.75 8.69171 18.75 8.85639C18.75 9.02107 18.7067 9.17996 18.6296 9.30183C18.5524 9.4236 18.4478 9.49758 18.3387 9.5107C18.119 9.53684 17.8992 9.56299 17.6795 9.58382C17.4118 9.60919 17.1441 9.62667 16.8764 9.62667C16.6892 9.62667 16.5019 9.62274 16.3146 9.61568C16.2954 9.61495 16.2761 9.61415 16.2568 9.61336C16.0995 9.65391 15.9425 9.69079 15.8319 9.70394C15.7405 9.71479 15.6739 9.69315 15.6169 9.67464C15.5777 9.6619 15.5429 9.65063 15.5078 9.65242C15.4889 9.65339 15.4631 9.65589 15.4321 9.65889C15.3051 9.67116 15.0896 9.69199 14.8929 9.65242C14.8057 9.63486 14.7043 9.60026 14.6075 9.56722C14.4692 9.51997 14.3401 9.47593 14.275 9.48946C14.1606 9.51323 14.0294 9.49311 13.9135 9.4753C13.8029 9.4583 13.7062 9.44347 13.6512 9.4709C13.5855 9.50369 13.5294 9.49033 13.4461 9.47053C13.3883 9.45681 13.3174 9.44005 13.221 9.4333C13.1097 9.42552 13.031 9.40254 12.9641 9.38301C12.8699 9.35552 12.799 9.33485 12.6934 9.37288C12.5761 9.41512 12.4535 9.44201 12.3569 9.42866C12.3129 9.42258 12.2626 9.42406 12.2103 9.42561C12.1409 9.42766 12.068 9.42979 12.0015 9.41463C11.9466 9.40213 11.9013 9.37016 11.8612 9.34187C11.8487 9.33304 11.8367 9.32462 11.825 9.31721C11.7813 9.31762 11.7377 9.31822 11.694 9.31916C11.6869 9.32431 11.6795 9.33001 11.6717 9.33589C11.6328 9.3654 11.5849 9.40159 11.5256 9.41963C11.4318 9.44817 11.3494 9.4303 11.2626 9.41133C11.1949 9.39656 11.1246 9.38114 11.0439 9.38667C10.9889 9.39044 10.9263 9.40351 10.8642 9.41646C10.772 9.43568 10.681 9.45461 10.6177 9.44258C10.594 9.43807 10.5736 9.418 10.5534 9.39802C10.5534 9.3979 10.5533 9.39778 10.5532 9.39766C10.5518 9.3963 10.5504 9.39498 10.5491 9.39363C10.395 9.40893 10.2409 9.42579 10.0868 9.44356C10.0735 9.44872 10.06 9.4538 10.0466 9.45882C9.98129 9.4833 9.91781 9.50708 9.87642 9.54085C9.83156 9.57745 9.71878 9.59873 9.59994 9.62117C9.52211 9.63587 9.44164 9.65104 9.37595 9.67134C9.33755 9.68321 9.30112 9.66252 9.26364 9.64119C9.22867 9.62129 9.19277 9.60086 9.15352 9.60591C9.13386 9.60845 9.11263 9.61701 9.08997 9.62618C9.07002 9.63424 9.04892 9.64279 9.02684 9.64803C9.00632 9.65288 8.96063 9.64161 8.90203 9.62728C8.86582 9.61842 8.82468 9.60841 8.78149 9.60018C8.66736 9.61307 8.55319 9.62543 8.43906 9.63692C8.41525 9.65506 8.39458 9.6786 8.37823 9.70882C8.36649 9.7305 8.3565 9.75642 8.34624 9.78292C8.33227 9.81897 8.31782 9.85624 8.2979 9.88595C8.28234 9.90916 8.26398 9.91842 8.25166 9.90878C8.24591 9.90428 8.24151 9.89581 8.2375 9.88814C8.23292 9.87937 8.22883 9.87156 8.22383 9.87179C8.22023 9.87196 8.21648 9.87818 8.21187 9.8857C8.2045 9.89772 8.19493 9.91323 8.18036 9.91378C8.12613 9.91583 8.0645 9.91087 8.00412 9.90597C7.93698 9.90052 7.87135 9.89523 7.81907 9.89986C7.7605 9.90506 7.67703 9.88198 7.59343 9.85897C7.53511 9.84292 7.4767 9.82695 7.42659 9.82039C7.37748 9.81397 7.32635 9.82674 7.27684 9.83919C7.21741 9.85414 7.16024 9.86859 7.11166 9.84835C7.10183 9.84424 7.08963 9.81922 7.07433 9.78792C7.06348 9.76574 7.05099 9.74038 7.03678 9.717C6.97494 9.717 6.91309 9.71597 6.85125 9.71407C6.84907 9.71746 6.84682 9.72092 6.84457 9.72445C6.84454 9.72453 6.8445 9.72461 6.84447 9.72469C6.79367 9.8043 6.72417 9.91319 6.62652 9.84823C6.60169 9.83171 6.58607 9.80121 6.57199 9.77376C6.55816 9.7468 6.54581 9.72268 6.52772 9.71761C6.50717 9.71186 6.48292 9.72842 6.45647 9.74642C6.41935 9.77169 6.37787 9.79993 6.33626 9.77364C6.33342 9.77185 6.33036 9.76988 6.32718 9.7679C6.29702 9.7492 6.25236 9.72153 6.20792 9.66585C6.07609 9.65099 5.94424 9.63358 5.8124 9.61458C5.59264 9.58291 5.37284 9.54679 5.15311 9.5107C5.0462 9.49293 4.94368 9.4171 4.86808 9.29573C4.79248 9.17418 4.75 9.01796 4.75 8.85639C4.75001 8.69482 4.79249 8.53871 4.86808 8.41717C4.94368 8.29578 5.0462 8.21997 5.15311 8.2022C5.32743 8.17356 5.50182 8.14489 5.67616 8.11846C5.6853 8.1151 5.69448 8.11186 5.70361 8.10881C5.77158 8.08617 5.83464 8.0407 5.89774 7.99516C5.91224 7.98471 5.92676 7.97422 5.94132 7.96404ZM7.50974 3.1313C7.58718 3.14351 7.55555 3.16704 7.53819 3.17998C7.5379 3.18022 7.53762 3.18046 7.53733 3.1807C7.53322 3.18377 7.53215 3.18667 7.53098 3.19008C7.5282 3.1982 7.52443 3.20917 7.47507 3.23206C7.47689 3.23872 7.47788 3.24538 7.47788 3.25204C7.47788 3.32398 7.4135 3.39591 7.3364 3.46784C7.3368 3.46875 7.33721 3.46968 7.33762 3.47061C7.34561 3.48865 7.3555 3.51102 7.32724 3.52508C7.29132 3.54295 7.25799 3.55509 7.22922 3.56506C7.16718 3.62219 7.11175 3.67933 7.08884 3.73647C7.08166 3.75437 7.07773 3.77228 7.07773 3.79019C7.07773 3.80668 7.08019 3.82317 7.08481 3.83966C7.10166 3.84927 7.12168 3.8584 7.14023 3.86686C7.16629 3.87876 7.18944 3.88935 7.19699 3.8981C7.21519 3.91918 7.18647 3.94309 7.16513 3.96085C7.16164 3.96375 7.15834 3.96649 7.15549 3.96903C7.16606 3.98313 7.17737 3.99723 7.18894 4.01134C7.1825 4.01228 7.17579 4.01323 7.16892 4.01419C7.08309 4.02623 7.08419 4.04102 7.08578 4.06431C7.08648 4.07445 7.08723 4.08621 7.08102 4.10005C7.07702 4.10896 7.04299 4.11354 7.01523 4.11729C7.00706 4.11839 6.99942 4.11942 6.99325 4.12047C6.97212 4.12405 6.99496 4.12782 7.02194 4.13229C7.05694 4.13807 7.09898 4.14502 7.061 4.15419C6.93999 4.18341 7.02209 4.19629 7.0842 4.20603C7.10242 4.20889 7.11888 4.21148 7.12802 4.21413C7.15766 4.22273 7.12829 4.23498 7.08798 4.24424C7.05602 4.25158 7.08771 4.26627 7.12802 4.27741C7.14327 4.28162 7.14365 4.28732 7.14401 4.29403C7.14439 4.30097 7.14473 4.309 7.16184 4.3176C7.20506 4.33931 7.226 4.35085 7.24277 4.36013C7.24755 4.36277 7.2519 4.36524 7.25644 4.3677C7.27079 4.37548 7.2826 4.38513 7.29453 4.3949C7.3088 4.40659 7.32329 4.41846 7.34263 4.42749C7.32216 4.4509 7.29684 4.4743 7.27158 4.49771C7.25846 4.50973 7.1846 4.52126 7.06283 4.52976C6.94097 4.53826 6.78207 4.54304 6.61739 4.54304C6.45271 4.54304 6.29382 4.53826 6.17195 4.52976C6.05018 4.52126 5.9762 4.50973 5.96308 4.49771C5.93694 4.47349 5.91079 4.44927 5.88996 4.42505C5.86459 4.39555 5.84711 4.36604 5.84711 4.33654C5.84711 4.3159 5.85104 4.29526 5.8581 4.27462C5.85883 4.2725 5.85963 4.27037 5.86042 4.26825C5.81987 4.25091 5.78299 4.2336 5.76984 4.22141C5.75899 4.21134 5.78063 4.204 5.79914 4.19772C5.81188 4.19339 5.82315 4.18956 5.82136 4.18569C5.82039 4.18361 5.81789 4.18077 5.81489 4.17734C5.80262 4.16336 5.78179 4.1396 5.82136 4.11792C5.83892 4.10831 5.87352 4.09713 5.90656 4.08647C5.95381 4.07122 5.99785 4.05699 5.98432 4.04981C5.96055 4.03721 5.98067 4.02275 5.99848 4.00997C6.01547 3.99778 6.03031 3.98712 6.00288 3.98106C5.97009 3.97382 5.98345 3.96764 6.00324 3.95846C6.01697 3.95209 6.03373 3.94427 6.04048 3.93365C6.04826 3.92138 6.07124 3.91271 6.09077 3.90533C6.11826 3.89495 6.13893 3.88714 6.1009 3.8755C6.05866 3.86257 6.03177 3.84905 6.04512 3.83841C6.0512 3.83356 6.04972 3.82802 6.04817 3.82225C6.04611 3.81461 6.04399 3.80657 6.05915 3.79924C6.07165 3.79319 6.10362 3.7882 6.13191 3.78377C6.14073 3.78239 6.14916 3.78107 6.15657 3.77979C6.15616 3.77497 6.15556 3.77016 6.15461 3.76534C6.14947 3.76456 6.14377 3.76375 6.13789 3.76289C6.10838 3.7586 6.07219 3.75332 6.05415 3.74678C6.02561 3.73644 6.04348 3.72737 6.06245 3.7178C6.07722 3.71034 6.09264 3.70259 6.08711 3.6937C6.08334 3.68764 6.07027 3.68073 6.05732 3.67389C6.0381 3.66373 6.01917 3.65369 6.0312 3.64672C6.03571 3.64411 6.05578 3.64186 6.07576 3.63964C6.07588 3.63963 6.076 3.63962 6.07612 3.63961C6.07748 3.63946 6.0788 3.63931 6.08015 3.63916C6.06485 3.62217 6.04799 3.60519 6.03022 3.58821C6.02506 3.58674 6.01997 3.58525 6.01496 3.58378C5.99048 3.57658 5.9667 3.56958 5.93293 3.56502C5.89633 3.56007 5.87505 3.54764 5.85261 3.53455C5.83791 3.52597 5.82274 3.5171 5.80244 3.50986C5.79057 3.50563 5.81126 3.50161 5.83259 3.49748C5.85249 3.49363 5.87291 3.48967 5.86787 3.48534C5.86533 3.48318 5.85677 3.48084 5.8476 3.47834C5.83954 3.47614 5.83099 3.47381 5.82575 3.47138C5.8209 3.46912 5.83217 3.46408 5.8465 3.45762C5.85536 3.45363 5.86537 3.4491 5.8736 3.44434C5.86071 3.43176 5.84835 3.41918 5.83686 3.4066C5.81872 3.40397 5.79518 3.40169 5.76496 3.39989C5.74328 3.3986 5.71736 3.3975 5.69086 3.39637C5.6548 3.39483 5.61754 3.39323 5.58783 3.39104C5.56461 3.38932 5.55536 3.3873 5.565 3.38594C5.5695 3.38531 5.57797 3.38482 5.58563 3.38438C5.59441 3.38388 5.60222 3.38343 5.60199 3.38288C5.60182 3.38248 5.5956 3.38206 5.58808 3.38156C5.57606 3.38075 5.56055 3.37969 5.56 3.37808C5.55795 3.37211 5.56291 3.36531 5.56781 3.35866C5.57326 3.35126 5.57855 3.34403 5.57392 3.33826C5.56872 3.33181 5.5918 3.32261 5.61481 3.31339C5.63086 3.30697 5.64683 3.30053 5.65338 3.29501C5.65981 3.28959 5.64704 3.28396 5.63459 3.2785C5.61963 3.27195 5.60519 3.26565 5.62543 3.26029C5.62954 3.25921 5.65456 3.25787 5.68586 3.25618C5.70804 3.25498 5.7334 3.25361 5.75678 3.25204C5.75678 3.24523 5.75781 3.23841 5.75971 3.23159C5.75632 3.23135 5.75286 3.23111 5.74933 3.23086C5.74925 3.23085 5.74917 3.23085 5.74909 3.23085C5.66948 3.22525 5.56059 3.21759 5.62555 3.20682C5.64207 3.20409 5.67257 3.20237 5.70002 3.20081C5.72697 3.19929 5.7511 3.19793 5.75617 3.19593C5.76191 3.19367 5.74536 3.191 5.72736 3.18808C5.70209 3.18399 5.67384 3.17942 5.70014 3.17483C5.70193 3.17452 5.7039 3.17418 5.70588 3.17383C5.72458 3.17051 5.75225 3.16559 5.80793 3.16069C5.82279 3.14616 5.8402 3.13163 5.8592 3.11709C5.89087 3.09287 5.92699 3.06865 5.96308 3.04443C5.98085 3.03265 6.05667 3.02135 6.17805 3.01301C6.2996 3.00468 6.45582 3 6.61739 3C6.77895 3 6.93507 3.00468 7.05661 3.01301C7.178 3.02135 7.25381 3.03265 7.27158 3.04443C7.30022 3.06364 7.32889 3.08286 7.35532 3.10208C7.35868 3.10309 7.36192 3.1041 7.36496 3.1051C7.38761 3.1126 7.43308 3.11955 7.47861 3.1265C7.48907 3.1281 7.49956 3.1297 7.50974 3.1313ZM17.7002 3.13129C17.7777 3.14349 17.746 3.16702 17.7287 3.17996C17.7284 3.1802 17.7281 3.18044 17.7278 3.18067C17.7237 3.18374 17.7226 3.18665 17.7215 3.19005C17.7187 3.19817 17.7149 3.20914 17.6656 3.23203C17.6674 3.23869 17.6684 3.24535 17.6684 3.25201C17.6684 3.32394 17.604 3.39586 17.5269 3.46779C17.5273 3.46869 17.5277 3.46962 17.5281 3.47055C17.5361 3.48859 17.546 3.51096 17.5177 3.52502C17.4818 3.54289 17.4485 3.55502 17.4197 3.56499C17.3577 3.62212 17.3022 3.67925 17.2793 3.73638C17.2721 3.75428 17.2682 3.77219 17.2682 3.79009C17.2682 3.80658 17.2707 3.82307 17.2753 3.83956C17.2921 3.84916 17.3122 3.85829 17.3307 3.86676C17.3568 3.87865 17.3799 3.88924 17.3875 3.89799C17.4057 3.91907 17.3769 3.94298 17.3556 3.96073C17.3521 3.96363 17.3488 3.96637 17.346 3.96891C17.3565 3.98301 17.3678 3.99711 17.3794 4.01121C17.373 4.01215 17.3663 4.0131 17.3594 4.01407C17.2736 4.0261 17.2747 4.04089 17.2763 4.06418C17.277 4.07432 17.2777 4.08608 17.2715 4.09991C17.2675 4.10883 17.2335 4.11341 17.2057 4.11715C17.1975 4.11825 17.1899 4.11928 17.1837 4.12033C17.1626 4.12391 17.1854 4.12769 17.2124 4.13215C17.2474 4.13793 17.2895 4.14488 17.2515 4.15405C17.1305 4.18327 17.2126 4.19615 17.2747 4.20589C17.2929 4.20874 17.3094 4.21133 17.3185 4.21398C17.3481 4.22258 17.3188 4.23483 17.2785 4.24409C17.2465 4.25143 17.2782 4.26612 17.3185 4.27725C17.3337 4.28147 17.3341 4.28716 17.3345 4.29387C17.3349 4.30081 17.3352 4.30884 17.3523 4.31743C17.3955 4.33915 17.4165 4.35069 17.4332 4.35996C17.438 4.36261 17.4424 4.36507 17.4469 4.36753C17.4613 4.37531 17.4731 4.38496 17.485 4.39473C17.4993 4.40642 17.5138 4.41829 17.5331 4.42732C17.5126 4.45072 17.4873 4.47412 17.4621 4.49752C17.4489 4.50954 17.3751 4.52108 17.2533 4.52958C17.1314 4.53808 16.9725 4.54285 16.8079 4.54285C16.6432 4.54285 16.4843 4.53807 16.3624 4.52958C16.2407 4.52108 16.1667 4.50954 16.1536 4.49752C16.1274 4.47331 16.1013 4.44909 16.0804 4.42487C16.0551 4.39537 16.0376 4.36587 16.0376 4.33637C16.0376 4.31574 16.0415 4.2951 16.0486 4.27446C16.0493 4.27234 16.0501 4.27021 16.0509 4.26809C16.0103 4.25075 15.9735 4.23345 15.9603 4.22126C15.9495 4.21119 15.9711 4.20385 15.9896 4.19757C16.0024 4.19325 16.0136 4.18942 16.0118 4.18555C16.0109 4.18347 16.0084 4.18063 16.0054 4.1772C15.9931 4.16321 15.9723 4.13946 16.0118 4.11779C16.0294 4.10817 16.064 4.097 16.097 4.08633C16.1443 4.07108 16.1883 4.05686 16.1748 4.04969C16.151 4.03708 16.1711 4.02262 16.189 4.00985C16.2059 3.99766 16.2208 3.987 16.1934 3.98094C16.1606 3.9737 16.1739 3.96752 16.1937 3.95834C16.2074 3.95197 16.2242 3.94416 16.231 3.93353C16.2387 3.92127 16.2617 3.91259 16.2812 3.90522C16.3087 3.89484 16.3294 3.88703 16.2914 3.87539C16.2491 3.86246 16.2222 3.84895 16.2356 3.83831C16.2417 3.83346 16.2402 3.82792 16.2386 3.82215C16.2366 3.81451 16.2345 3.80647 16.2496 3.79914C16.2621 3.79309 16.2941 3.7881 16.3224 3.78368C16.3312 3.7823 16.3396 3.78098 16.347 3.77969C16.3466 3.77488 16.346 3.77007 16.3451 3.76525C16.3399 3.76447 16.3342 3.76365 16.3284 3.7628C16.2989 3.7585 16.2627 3.75323 16.2446 3.74669C16.2161 3.73635 16.234 3.72728 16.2529 3.71771C16.2677 3.71026 16.2831 3.7025 16.2776 3.69361C16.2738 3.68755 16.2607 3.68065 16.2478 3.67381C16.2286 3.66365 16.2096 3.65361 16.2217 3.64664C16.2262 3.64403 16.2463 3.64178 16.2662 3.63956C16.2664 3.63955 16.2665 3.63954 16.2666 3.63953C16.268 3.63938 16.2693 3.63923 16.2706 3.63908C16.2553 3.6221 16.2385 3.60512 16.2207 3.58814C16.2155 3.58667 16.2105 3.58518 16.2054 3.58371C16.181 3.57651 16.1572 3.56951 16.1234 3.56495C16.0868 3.56001 16.0655 3.54758 16.0431 3.53448C16.0284 3.5259 16.0132 3.51704 15.9929 3.5098C15.981 3.50556 16.0017 3.50155 16.0231 3.49742C16.043 3.49357 16.0634 3.48961 16.0583 3.48528C16.0558 3.48312 16.0472 3.48078 16.0381 3.47828C16.03 3.47608 16.0215 3.47376 16.0162 3.47132C16.0114 3.46906 16.0226 3.46403 16.037 3.45757C16.0458 3.45358 16.0558 3.44904 16.0641 3.44428C16.0512 3.43171 16.0388 3.41913 16.0273 3.40655C16.0092 3.40392 15.9857 3.40165 15.9554 3.39984C15.9338 3.39855 15.9078 3.39745 15.8813 3.39632C15.8453 3.39478 15.808 3.39319 15.7783 3.39099C15.7551 3.38928 15.7458 3.38725 15.7555 3.38589C15.76 3.38526 15.7684 3.38478 15.7761 3.38434C15.7849 3.38383 15.7927 3.38338 15.7925 3.38283C15.7923 3.38243 15.7861 3.38202 15.7786 3.38151C15.7665 3.3807 15.751 3.37964 15.7505 3.37804C15.7484 3.37206 15.7534 3.36527 15.7583 3.35862C15.7637 3.35122 15.769 3.34398 15.7644 3.33822C15.7592 3.33177 15.7823 3.32257 15.8053 3.31336C15.8213 3.30693 15.8373 3.30049 15.8439 3.29497C15.8503 3.28956 15.8375 3.28392 15.8251 3.27847C15.8101 3.27192 15.7957 3.26562 15.8159 3.26026C15.82 3.25918 15.845 3.25784 15.8763 3.25615C15.8985 3.25495 15.9239 3.25358 15.9473 3.25201C15.9473 3.2452 15.9483 3.23838 15.9502 3.23157C15.9468 3.23133 15.9433 3.23108 15.9398 3.23083C15.9397 3.23083 15.9396 3.23082 15.9396 3.23082C15.86 3.22522 15.7511 3.21756 15.816 3.2068C15.8325 3.20406 15.863 3.20234 15.8905 3.20079C15.9174 3.19927 15.9416 3.1979 15.9466 3.19591C15.9524 3.19365 15.9358 3.19097 15.9178 3.18806C15.8926 3.18397 15.8643 3.1794 15.8906 3.17481C15.8924 3.1745 15.8944 3.17416 15.8964 3.17381C15.9151 3.17049 15.9427 3.16557 15.9984 3.16067C16.0133 3.14614 16.0307 3.13161 16.0497 3.11708C16.0813 3.09286 16.1175 3.06864 16.1536 3.04442C16.1713 3.03264 16.2472 3.02134 16.3685 3.01301C16.4901 3.00468 16.6463 3 16.8079 3C16.9694 3 17.1255 3.00468 17.2471 3.01301C17.3685 3.02134 17.4443 3.03264 17.4621 3.04442C17.4907 3.06364 17.5194 3.08285 17.5458 3.10207C17.5492 3.10307 17.5524 3.10408 17.5554 3.10509C17.5781 3.11258 17.6236 3.11953 17.6691 3.12649C17.6795 3.12808 17.69 3.12968 17.7002 3.13129ZM4.70022 12.708C4.77765 13.1801 4.74603 14.0904 4.72866 14.5911C4.72838 14.6003 4.72809 14.6095 4.72781 14.6187C4.72369 14.7375 4.72262 14.8499 4.72146 14.9817C4.71868 15.2957 4.71491 15.72 4.66555 16.6057C4.66737 16.8633 4.66836 17.1211 4.66836 17.3787C4.66836 17.5573 4.66809 17.7358 4.66758 17.9143C4.63561 19.0603 5.60277 20.136 6.75 20.1466C7.76083 20.1688 8.77166 20.1951 9.7825 20.2231C9.81765 20.2227 9.8534 20.2223 9.88952 20.2219C10.5875 20.2139 11.4529 20.204 11.9967 20.2323C12.6881 20.2682 13.1576 20.3015 13.5433 20.3303C14.6122 20.3603 15.6811 20.3888 16.75 20.4127C17.6681 20.4513 18.5837 19.8738 18.9836 19.0087C19.1445 18.6698 19.229 18.294 19.2304 17.9143C19.2313 17.6735 19.2318 17.4328 19.2318 17.192C19.2318 16.5541 19.2293 15.916 19.2247 15.2781C19.2079 14.9066 19.1878 14.5534 19.1693 14.2259C19.1432 13.7657 19.1201 13.3559 19.1125 13.0175C19.0943 12.202 19.1231 11.277 19.1444 10.5901C19.1479 10.4779 19.1512 10.3719 19.154 10.2738C19.1435 9.72828 19.1322 9.18261 19.1206 8.63707C19.127 8.60064 19.1337 8.56393 19.1406 8.52663C19.1876 8.27149 19.2086 7.9843 19.2176 7.62855C19.2246 7.38321 19.193 7.09686 19.0833 6.77603C18.9772 6.46864 18.797 6.12605 18.4906 5.80316C18.2916 5.59804 18.1868 5.4906 18.1 5.39889C18.0742 5.37239 18.0492 5.348 18.0227 5.3251C17.9312 5.2466 17.807 5.20856 17.6624 5.17982C17.4725 5.14307 17.2554 5.11884 16.9678 5.05398C16.8929 5.03748 16.8206 5.02607 16.75 5.01881C15.802 4.93647 15.3531 5.01044 15.0068 5.06752C14.8962 5.08574 14.796 5.1022 14.6935 5.11135C14.3608 5.14099 13.8869 5.11162 13.5287 5.07131C13.2447 5.03934 12.6765 5.07103 12.2456 5.11135C12.0827 5.12659 11.8623 5.12697 11.6028 5.12734C11.3342 5.12771 11.0235 5.12806 10.6911 5.14516C9.85099 5.18838 9.40454 5.20933 9.04564 5.22609C8.94332 5.23087 8.84802 5.23523 8.75281 5.23977C8.45195 5.25411 8.07859 5.26593 7.70058 5.27785C7.37244 5.2882 7.04076 5.29867 6.75 5.31102C6.66797 5.31569 6.59159 5.32523 6.52244 5.33787C5.86128 5.38248 5.21753 5.75851 4.82777 6.34065C4.62592 6.63652 4.45124 6.94329 4.28784 7.19766C4.12429 7.45033 3.97406 7.62743 3.80787 7.62855C3.64597 7.62965 3.47215 7.44128 3.40844 7.05504C3.34393 6.67342 3.43113 6.126 3.7178 5.64774C4.27949 4.6837 5.33061 3.98021 6.48544 3.88292C6.57395 3.87487 6.66113 3.87013 6.75 3.86859C7.81941 3.84578 8.88889 3.83044 9.95829 3.83044C10.7567 3.83044 11.5551 3.83437 12.3535 3.84143C12.4357 3.84215 12.5179 3.84295 12.6001 3.84374C13.2709 3.8032 13.9403 3.76631 14.412 3.75317C14.8015 3.74231 15.0854 3.76395 15.3285 3.78246C15.4959 3.7952 15.6439 3.80647 15.7937 3.80468C15.8742 3.80372 15.9841 3.80122 16.1166 3.79821C16.2929 3.79421 16.5093 3.78931 16.75 3.78588C17.3745 3.77019 18.1457 3.97098 18.7239 4.38068C19.1078 4.64289 19.4796 5.04042 19.7342 5.47175C20.109 6.08864 20.2248 6.74438 20.2829 7.06421C20.3176 7.24316 20.3359 7.43422 20.336 7.62855C20.3365 7.98363 20.3232 8.35198 20.311 8.68989C20.2941 9.16134 20.2792 9.57366 20.3066 9.80816C20.3394 10.0884 20.3261 10.3273 20.3063 10.6826C20.2926 10.929 20.2758 11.2314 20.269 11.6423C20.2613 12.1168 20.2383 12.4525 20.2188 12.7378C20.1913 13.1394 20.1706 13.4415 20.2086 13.8919C20.2509 14.3921 20.2778 14.9149 20.2644 15.3266C20.2583 15.5142 20.2598 15.7287 20.2614 15.9519C20.2634 16.2474 20.2655 16.5582 20.2504 16.842C20.2379 17.0759 20.2059 17.2692 20.1776 17.4402C20.1688 17.4936 20.1604 17.5448 20.153 17.5944C20.1532 17.701 20.1535 17.8077 20.1539 17.9143C20.1542 18.0045 20.1512 18.0933 20.1449 18.1832C20.1475 18.2176 20.1501 18.2533 20.1521 18.2914C20.1616 18.481 20.1599 18.7207 20.0899 19.0073C19.9771 19.4602 19.7598 19.8242 19.482 20.1511C19.2636 20.4055 19.0061 20.6408 18.6818 20.8714C18.4608 21.0286 18.1911 21.1872 17.9029 21.3031C17.5004 21.4688 17.0645 21.5404 16.75 21.5301C16.7337 21.5296 16.7178 21.529 16.7023 21.5283C16.6012 21.5238 16.5143 21.5037 16.4283 21.4838C16.428 21.4836 16.4276 21.4835 16.4272 21.4834C16.4214 21.482 16.4155 21.4807 16.4097 21.4794C15.7528 21.4947 15.0958 21.5115 14.4389 21.5293C14.3819 21.5345 14.3244 21.5396 14.2674 21.5446C13.9889 21.569 13.7182 21.5928 13.5417 21.6266C13.3505 21.6632 12.8696 21.6845 12.3629 21.7069C12.031 21.7216 11.6879 21.7368 11.4079 21.7571C11.2441 21.769 11.0888 21.7483 10.929 21.7269C10.7799 21.707 10.6268 21.6866 10.4595 21.6917C10.3756 21.6942 10.2851 21.7028 10.1885 21.7119C10.1034 21.72 10.0135 21.7285 9.91935 21.7338C9.83186 21.7386 9.63703 21.7274 9.3872 21.713C9.2328 21.7042 9.05738 21.6942 8.87326 21.6859C8.3866 21.6988 7.89986 21.7112 7.4132 21.7227C7.31168 21.7408 7.22358 21.7643 7.15385 21.7946C7.10381 21.8162 7.06121 21.8422 7.01745 21.8687C6.95791 21.9047 6.89629 21.942 6.81138 21.9717C6.79164 21.9786 6.77085 21.9843 6.75 21.9886C6.684 21.9988 6.61735 21.9994 6.56857 21.9904C6.53638 21.9844 6.51142 21.9744 6.48929 21.9653C6.46385 21.9548 6.4414 21.9452 6.41329 21.9431C6.39301 21.9415 6.3714 21.9457 6.3447 21.9505C6.30181 21.9581 6.24527 21.9675 6.16288 21.9557C5.85559 21.9124 5.51235 21.8137 5.19856 21.6721C4.84799 21.5161 4.53626 21.309 4.30289 21.1281C4.03888 20.9279 3.71735 20.5742 3.48181 20.1719C3.31525 19.8927 3.18764 19.5944 3.09821 19.3336C3.00978 19.0784 2.92648 18.8094 2.87285 18.5412C2.82951 18.3261 2.80517 18.1123 2.80597 17.9143C2.80632 17.8388 2.80922 17.7664 2.81591 17.698C2.82002 17.6561 2.84503 17.6041 2.87633 17.5388C2.89851 17.4926 2.92388 17.4393 2.94726 17.3787C2.94726 17.1151 2.94828 16.8513 2.95019 16.5877C2.94679 16.5784 2.94334 16.5688 2.93981 16.5592C2.93973 16.5591 2.93965 16.5589 2.93957 16.5588C2.85996 16.3422 2.75107 16.0458 2.81603 15.6295C2.83254 15.5236 2.86304 15.457 2.89049 15.397C2.91745 15.338 2.94157 15.2854 2.94665 15.2082C2.95239 15.1206 2.93584 15.0172 2.91784 14.9045C2.89256 14.7462 2.86432 14.5693 2.89061 14.3919C2.89241 14.3798 2.89438 14.3668 2.89635 14.3532C2.91506 14.2246 2.94272 14.0342 2.9984 13.8447C3.01327 13.2826 3.03067 12.7204 3.04967 12.1583C3.08135 11.2213 3.11746 10.2842 3.15356 9.34728C3.17133 8.89147 3.24715 8.45432 3.36853 8.13201C3.49008 7.80967 3.64629 7.62855 3.80787 7.62855C3.96943 7.62857 4.12554 7.80969 4.24708 8.13201C4.36847 8.45433 4.44429 8.89145 4.46205 9.34728C4.49069 10.0906 4.51937 10.8341 4.5458 11.5774C4.54915 11.6164 4.5524 11.6555 4.55544 11.6945C4.57808 11.9843 4.62356 12.2531 4.66909 12.5222C4.67955 12.584 4.69003 12.6459 4.70022 12.708Z" fill="white"/>
</svg>