<svg xmlns="http://www.w3.org/2000/svg" width="24" height="24" viewBox="0 0 24 24" fill="none">
	<path d="M14.9076 14.9291C14.8211 14.9819 14.7116 14.9121 14.6513 14.8737C14.6502 14.873 14.6491 14.8724 14.648 14.8717C14.6337 14.8626 14.6192 14.8566 14.6023 14.8498C14.562 14.8334 14.5074 14.8112 14.4068 14.7257C14.3723 14.7161 14.3382 14.7058 14.3044 14.6945C13.939 14.5727 13.594 14.3898 13.253 14.1949C13.2482 14.1937 13.2434 14.1925 13.2385 14.1914C13.1444 14.1684 13.0276 14.1399 12.9651 14.0893C12.8857 14.025 12.8346 13.9728 12.7931 13.9286C12.6362 13.8384 12.4785 13.7503 12.3186 13.6691C12.0936 13.6501 11.9796 13.3445 11.9265 13.125C11.9457 12.9965 11.9611 12.8679 11.9707 12.7394C11.9779 12.6435 11.9818 12.5476 11.9818 12.4517C11.9818 12.3635 11.9793 12.2751 11.9747 12.1869C11.9579 12.1354 11.9378 12.0866 11.9193 12.0412C11.8932 11.9775 11.8701 11.9208 11.8625 11.874C11.8443 11.7611 11.8731 11.6331 11.8944 11.538C11.8979 11.5225 11.9012 11.5078 11.904 11.4942C11.8935 11.4187 11.8822 11.3432 11.8706 11.2677C11.877 11.2627 11.8837 11.2576 11.8906 11.2524C11.9764 11.188 11.9753 11.1088 11.9737 10.9841C11.973 10.9298 11.9723 10.8668 11.9785 10.7927C11.9825 10.745 12.0165 10.7205 12.0443 10.7004C12.0525 10.6945 12.0601 10.689 12.0663 10.6834C12.0874 10.6642 12.0646 10.644 12.0376 10.6201C12.0026 10.5891 11.9605 10.5519 11.9985 10.5028C12.1195 10.3464 12.0374 10.2774 11.9753 10.2252C11.9571 10.2099 11.9406 10.1961 11.9315 10.1819C11.9019 10.1358 11.9312 10.0703 11.9715 10.0207C12.0035 9.98137 11.9718 9.90273 11.9315 9.84309C11.9163 9.82053 11.9159 9.79004 11.9155 9.75412C11.9151 9.71694 11.9148 9.67394 11.8977 9.62793C11.8545 9.51166 11.8335 9.44987 11.8168 9.40019C11.812 9.38603 11.8076 9.37284 11.8031 9.35966C11.7887 9.31802 11.7769 9.26635 11.765 9.21403C11.7507 9.15142 11.7362 9.08788 11.7169 9.03953C11.7374 8.91421 11.7627 8.78888 11.7879 8.66357C11.8011 8.59921 11.8749 8.53745 11.9967 8.49194C12.1186 8.44643 12.2775 8.42087 12.4421 8.42087C12.6068 8.42087 12.7657 8.44643 12.8876 8.49194C13.0093 8.53745 13.0833 8.59921 13.0964 8.66357C13.1226 8.79324 13.1487 8.92293 13.1696 9.0526C13.1949 9.21057 13.2124 9.36854 13.2124 9.52651C13.2124 9.63701 13.2085 9.74752 13.2014 9.85802C13.2007 9.8694 13.1999 9.88078 13.1991 9.89216C13.2397 9.98499 13.2765 10.0776 13.2897 10.1429C13.3005 10.1968 13.2789 10.2361 13.2604 10.2698C13.2476 10.2929 13.2364 10.3134 13.2382 10.3342C13.2391 10.3453 13.2416 10.3605 13.2446 10.3789C13.2569 10.4538 13.2777 10.581 13.2382 10.697C13.2206 10.7485 13.186 10.8083 13.153 10.8654C13.1057 10.9471 13.0617 11.0232 13.0752 11.0617C13.099 11.1292 13.0789 11.2066 13.061 11.275C13.0441 11.3403 13.0292 11.3973 13.0566 11.4298C13.0894 11.4686 13.0761 11.5016 13.0563 11.5508C13.0426 11.5849 13.0258 11.6268 13.019 11.6836C13.0113 11.7493 12.9883 11.7958 12.9688 11.8353C12.9413 11.8908 12.9206 11.9327 12.9586 11.995C13.0009 12.0642 13.0278 12.1366 13.0144 12.1936C13.0083 12.2195 13.0098 12.2492 13.0114 12.2801C13.0134 12.321 13.0155 12.364 13.0004 12.4033C12.9879 12.4357 12.9559 12.4624 12.9276 12.4861C12.9188 12.4935 12.9104 12.5006 12.903 12.5074C12.9034 12.5332 12.904 12.559 12.9049 12.5848C12.9101 12.589 12.9158 12.5933 12.9216 12.5979C12.9511 12.6209 12.9873 12.6492 13.0054 12.6841C13.0339 12.7395 13.016 12.7881 12.9971 12.8394C12.9823 12.8793 12.9669 12.9208 12.9724 12.9684C12.9762 13.0008 12.9893 13.0378 13.0022 13.0744C13.0082 13.0915 13.0142 13.1085 13.0193 13.125L12.6642 12.6324C12.7018 12.6333 12.7354 12.6379 12.7571 12.6538C12.769 12.6625 12.774 12.6854 12.779 12.7081C12.779 12.7082 12.779 12.7083 12.779 12.7085C12.7794 12.71 12.7797 12.7115 12.7801 12.713C12.8711 12.7273 12.9627 12.74 13.0546 12.7519C13.0637 12.7495 13.0729 12.7472 13.082 12.745C13.1263 12.7339 13.1693 12.7232 13.2032 12.6989C13.2399 12.6726 13.3097 12.6734 13.3834 12.6743C13.4316 12.6749 13.4814 12.6755 13.5246 12.6685C13.5499 12.6644 13.5637 12.6908 13.578 12.7181C13.5913 12.7435 13.6049 12.7695 13.6285 12.7721C13.6403 12.7733 13.6549 12.7692 13.6705 12.7647C13.6842 12.7608 13.6987 12.7566 13.7127 12.7558C13.7257 12.755 13.7477 12.7742 13.776 12.7987C13.7935 12.8139 13.8134 12.8311 13.8349 12.847C13.9029 12.856 13.9707 12.8656 14.0383 12.876C14.0573 12.8632 14.0763 12.8448 14.095 12.8191C14.1085 12.8008 14.1223 12.778 14.1364 12.7548C14.1556 12.7232 14.1755 12.6906 14.196 12.6661C14.2121 12.647 14.2253 12.6416 14.2291 12.6531C14.2309 12.6584 14.2307 12.6673 14.2305 12.6753C14.2303 12.6845 14.2301 12.6926 14.233 12.6933C14.2351 12.6938 14.2392 12.6887 14.2441 12.6824C14.252 12.6724 14.2623 12.6594 14.2706 12.6616C14.3016 12.6698 14.3346 12.686 14.3668 12.7019C14.4027 12.7196 14.4378 12.7369 14.4685 12.7422C14.5029 12.7482 14.5424 12.7857 14.5819 12.8231C14.6095 12.8493 14.6371 12.8753 14.6631 12.8909C14.6885 12.9061 14.7212 12.9036 14.7529 12.901C14.7909 12.8979 14.8274 12.8949 14.8482 12.9231C14.8524 12.9289 14.8514 12.9549 14.85 12.9874C14.8491 13.0105 14.8481 13.0369 14.8486 13.0617C14.8832 13.0732 14.9175 13.0858 14.9516 13.0991C14.9539 13.0963 14.9562 13.0934 14.9586 13.0905C14.9586 13.0904 14.9587 13.0904 14.9587 13.0903C15.0123 13.0243 15.0857 12.9339 15.1198 13.0138C15.1285 13.0341 15.1276 13.0659 15.1268 13.0946C15.126 13.1227 15.1253 13.1479 15.1338 13.1561C15.1435 13.1654 15.1623 13.1542 15.1828 13.1421C15.2116 13.125 15.2437 13.106 15.2587 13.1387C15.2597 13.1409 15.2608 13.1434 15.262 13.1458C15.273 13.1692 15.2892 13.2038 15.2965 13.2649C15.3656 13.3036 15.4339 13.3447 15.5017 13.3874C15.6147 13.4584 15.7263 13.5337 15.8379 13.6089C15.8922 13.6457 15.9256 13.7368 15.9295 13.8661C15.9334 13.9955 15.9078 14.1516 15.8567 14.3049C15.8056 14.4582 15.7325 14.5983 15.6517 14.6995C15.571 14.8006 15.4896 14.8534 15.4242 14.8503C15.3175 14.8449 15.2108 14.8396 15.1048 14.8321C15.0987 14.8336 15.0925 14.835 15.0864 14.8362C15.0412 14.8449 14.9915 14.8763 14.9418 14.9077C14.9304 14.915 14.9189 14.9222 14.9076 14.9291ZM21.0624 17.0716C20.8851 17.5432 20.2889 18.3054 19.9165 18.6761C19.9098 18.6831 19.9032 18.6901 19.8965 18.697C19.8096 18.7867 19.7282 18.872 19.6308 18.97C19.396 19.1988 19.0839 19.5273 18.3094 20.0363C18.0926 20.1955 17.869 20.3451 17.6388 20.4848C16.1006 21.4226 14.2873 21.898 12.5 21.8565C11.402 21.8342 10.3125 21.6241 9.29165 21.2381C9.25735 21.2266 9.22255 21.2147 9.18748 21.2025C8.50579 20.9734 7.70268 20.5685 7.25002 20.2382C6.67136 19.8232 6.32484 19.4865 6.05065 19.2049C4.41233 17.6602 3.35047 15.5559 3.06643 13.3555C3.00703 12.9052 2.97871 12.454 2.9804 12C2.98136 11.7573 2.99074 11.5185 3.00888 11.2769C3.0567 10.6398 3.16627 10.0067 3.33689 9.38991C3.4224 9.02736 3.52219 8.68467 3.63025 8.37192C3.78208 7.9321 3.95049 7.5507 4.11359 7.24826C4.50209 6.51542 5.10807 5.78512 5.61038 5.30665C5.69195 5.2277 5.77034 5.15465 5.84361 5.08804C6.23301 4.69826 6.65614 4.34058 7.10759 4.02097C7.14177 4.0056 7.17635 3.99055 7.21162 3.9755C7.65281 3.79156 8.13971 3.48694 8.97807 3.14611C9.34383 3.00006 9.7765 2.85183 10.3006 2.73392C10.6393 2.65902 10.8199 2.66465 10.9669 2.66802C11.0101 2.66925 11.051 2.6706 11.0913 2.6708C11.2299 2.67147 11.37 2.63007 11.539 2.58582C11.7556 2.52905 12.0246 2.46602 12.38 2.49926C12.4208 2.50311 12.4608 2.50696 12.5 2.5108C13.5417 2.62412 14.0067 2.65518 14.3786 2.66065C14.4907 2.66453 14.5934 2.67013 14.696 2.68481C15.0293 2.73059 15.4836 2.89637 15.805 3.06047C16.0625 3.18655 16.5961 3.37987 16.9974 3.5523C17.1494 3.61608 17.3441 3.72433 17.5665 3.86263C17.7967 4.00573 18.0562 4.18124 18.3332 4.37192C19.0308 4.85902 19.3568 5.18265 19.6193 5.43636C19.6935 5.5098 19.7615 5.57937 19.8286 5.64978C20.0409 5.8721 20.2878 6.16417 20.5173 6.4765C20.7931 6.84924 21.0418 7.25165 21.2215 7.56355C21.6272 8.40416 21.905 9.30303 22.0487 10.2174C22.1236 10.6889 22.0944 11.1513 21.9897 11.4868C21.8848 11.8208 21.7218 12.0005 21.5579 12C21.3926 11.9997 21.2371 11.8239 21.1001 11.5342C20.963 11.2412 20.8508 10.8586 20.7622 10.4562C20.5856 9.64664 20.2881 8.8679 19.8892 8.14952C19.4035 7.27401 18.7683 6.488 18.0262 5.82369C17.5071 5.35882 16.9319 4.95618 16.3163 4.62891C16.253 4.59521 16.1891 4.56224 16.1248 4.53009C15.5803 4.30831 15.0177 4.15655 14.621 4.06607C14.2936 3.99056 14.0574 3.92376 13.8522 3.87068C13.7103 3.83443 13.5854 3.80596 13.4552 3.79272C13.3852 3.78565 13.2901 3.77809 13.1752 3.77182C12.9918 3.76173 12.7604 3.75542 12.5 3.75878C12.0922 3.76315 11.6234 3.79539 11.1803 3.84289C10.8578 3.87633 10.4826 3.9235 10.1252 3.99545C9.61459 4.09563 9.14615 4.24922 8.92933 4.36694C8.54765 4.57074 8.10828 4.7984 7.73619 5.03318C7.38074 5.25545 7.08711 5.48025 6.94831 5.63831C6.78299 5.82731 6.6197 5.96109 6.38667 6.17558C6.22598 6.32491 6.03155 6.51368 5.80049 6.79902C5.53497 7.12926 5.35316 7.36929 5.2027 7.578C4.99373 7.87218 4.84432 8.1058 4.71076 8.48989C4.56318 8.91691 4.43563 9.3658 4.32521 9.71595C4.27416 9.87625 4.22946 10.0617 4.19018 10.2579C4.13818 10.5163 4.09692 10.7908 4.05376 11.0416C4.0181 11.2484 3.97409 11.4182 3.93811 11.5719C3.92694 11.6193 3.91665 11.6651 3.90776 11.7097C3.9048 11.8061 3.90349 11.9028 3.90387 12C3.90416 12.0725 3.9054 12.1449 3.90759 12.2169C3.91341 12.2441 3.91994 12.2726 3.92685 12.3022C3.96155 12.45 4.00761 12.6332 4.04782 12.8549C4.11234 13.2087 4.14531 13.5183 4.19804 13.8466C4.23949 14.1013 4.29355 14.3666 4.39479 14.6584C4.46376 14.8572 4.55899 15.0779 4.66264 15.2906C4.81628 15.6081 4.99007 15.907 5.09719 16.1225C5.13721 16.2034 5.15873 16.2805 5.18104 16.3569C5.1811 16.3573 5.18117 16.3576 5.18124 16.358C5.18276 16.3631 5.18432 16.3683 5.18585 16.3735C5.50181 16.871 5.87027 17.3337 6.28134 17.7517C6.31962 17.7854 6.35849 17.8193 6.39725 17.8524C6.5864 18.0147 6.77797 18.1618 6.91657 18.2402C7.06603 18.326 7.40027 18.5854 7.77754 18.8181C8.02376 18.9716 8.28692 19.1147 8.50953 19.2145C8.63957 19.273 8.74871 19.3532 8.86452 19.4337C8.97236 19.5087 9.08523 19.5835 9.22195 19.6368C9.29049 19.6635 9.36648 19.6858 9.44822 19.7084C9.52011 19.7282 9.59649 19.7482 9.67525 19.7712C9.74813 19.7925 9.90388 19.8604 10.1083 19.9368C10.2341 19.984 10.3803 20.0348 10.5342 20.0805C10.9516 20.1684 11.3731 20.2239 11.7971 20.248C11.8867 20.2373 11.9649 20.2188 12.027 20.1921C12.0718 20.1729 12.1094 20.1487 12.1479 20.1239C12.2002 20.09 12.2538 20.0546 12.3264 20.0265C12.3831 20.0045 12.4493 19.9958 12.494 20.0055C12.496 20.0059 12.498 20.0064 12.5 20.0069C12.5179 20.0116 12.5322 20.0191 12.5454 20.026C12.562 20.0347 12.577 20.0424 12.5951 20.0419C12.6082 20.0416 12.6217 20.0352 12.6383 20.0274C12.6647 20.0149 12.6989 19.9988 12.7512 19.9966C12.9448 19.9888 13.1678 19.9791 13.3836 19.9602C13.6245 19.9395 13.8587 19.907 14.0421 19.8664C14.2477 19.8215 14.545 19.7763 14.8406 19.7102C15.0472 19.6645 15.2518 19.6097 15.4243 19.5497C15.5928 19.4914 15.7591 19.4065 15.9161 19.3192C16.105 19.2145 16.2806 19.1064 16.4438 19.0378C16.4769 19.024 16.5276 19.0239 16.5916 19.0228C16.6369 19.022 16.6892 19.0206 16.7459 19.0135C16.9406 18.8953 17.1307 18.7701 17.316 18.6377C17.3205 18.6303 17.3251 18.6226 17.3297 18.6149C17.3298 18.6147 17.3298 18.6146 17.3299 18.6145C17.4344 18.4388 17.5643 18.204 17.8705 18.0183C17.9485 17.9707 18.0108 17.9545 18.0671 17.9393C18.1224 17.9244 18.1721 17.9105 18.2233 17.8676C18.2815 17.8189 18.3331 17.7439 18.3873 17.6615C18.4637 17.5457 18.5446 17.4157 18.6638 17.3179C18.6719 17.3112 18.6807 17.304 18.6898 17.2965C18.7759 17.2248 18.9013 17.1166 19.0456 17.0199C19.3548 16.6418 19.6333 16.2367 19.8759 15.8094C20.2805 15.0972 20.5843 14.3218 20.7677 13.5135C20.8579 13.1198 20.9705 12.7445 21.1066 12.457C21.2428 12.1728 21.3957 12.0002 21.5579 12C21.7187 11.9995 21.8787 12.1758 21.984 12.5028C22.089 12.8316 22.122 13.2845 22.0551 13.7475C21.9475 14.5004 21.7497 15.2445 21.4635 15.9569C21.4503 15.995 21.4367 16.0332 21.4228 16.071C21.3191 16.3522 21.232 16.6207 21.133 16.8879C21.1102 16.9492 21.0868 17.0105 21.0624 17.0716Z" fill="white"/>
</svg>