<svg xmlns="http://www.w3.org/2000/svg" width="24" height="24" viewBox="0 0 24 24" fill="none">
  <path d="M21.4424 1.96788C22.3767 2.50132 22.871 3.82958 22.4182 4.87481C21.7503 6.56775 21.0608 8.31489 20.3792 9.93932C20.2652 10.2111 20.2103 10.1675 20.1714 10.241C20.0647 10.4418 20.0877 10.5976 20.0211 10.7484C19.6976 11.4817 19.4087 12.1731 19.0932 12.8932C18.7683 13.6351 18.7167 13.202 18.565 13.4443C18.2684 13.9175 18.6948 13.5846 18.6713 13.8079C18.4222 14.3867 18.1587 14.9659 17.8966 15.5407C17.9302 15.3882 17.9643 15.2359 18.0003 15.0826C17.893 15.3359 17.7077 15.6858 17.8127 15.2317C17.7567 15.3189 17.7002 15.3986 17.6435 15.4887C17.7249 15.5521 17.5514 16.0073 17.5895 16.0704C17.6276 16.1335 17.7167 15.8743 17.7209 15.8778C17.7821 15.9218 17.272 16.9275 17.2343 16.9997C17.1346 17.1904 17.0902 16.9704 17.0299 17.1425C16.9261 17.4385 17.2358 17.3375 16.7696 17.6078C16.8072 17.8046 16.7496 17.7975 16.6633 17.993C16.652 18.0188 16.7182 18.0218 16.7151 18.0339C16.6381 18.3514 16.6224 18.0774 16.616 18.0766C16.5057 18.0641 16.421 18.404 16.3843 18.4681C15.9518 19.2252 15.6339 19.7942 15.2752 20.599C15.2497 20.6569 15.2223 20.7116 15.1898 20.7685C15.1145 21.0006 14.5514 21.5213 14.2955 21.533C14.0695 21.5768 14.17 21.4693 14.0533 21.4553C13.9133 21.6612 13.6626 21.7195 13.2924 21.4746C13.0975 21.5423 13.1446 21.464 12.8731 21.3201C12.6483 21.2151 12.2008 20.8884 12.2468 20.5493C12.36 20.8605 12.4026 20.8153 12.6571 21.066C12.6813 21.2612 13.8704 21.645 13.7834 21.4104C13.7421 21.35 13.3806 21.3519 13.3697 21.3232C13.3219 21.2245 13.5249 21.2008 13.6782 21.2458C13.6363 21.2575 13.5847 21.2659 13.5373 21.2721C13.9136 21.4163 13.6485 21.0256 13.9464 21.3421C13.9878 21.3775 13.9774 21.4214 14.0491 21.4533C14.059 21.4341 13.9752 21.403 14.0403 21.3851C14.1039 21.3687 14.2543 21.4123 14.2519 21.3387C14.2471 21.2394 13.9995 21.3415 13.9755 21.3318C13.9753 21.3324 13.9752 21.3331 13.975 21.3337C13.7952 21.3013 14.1551 21.2493 14.1648 21.2246C14.2484 21.1316 14.1696 21.1112 14.2823 21.0067C14.3456 20.9503 14.5201 20.848 14.5638 20.7838C14.6078 20.7249 14.4952 20.7713 14.5216 20.73C14.5463 20.6906 14.6124 20.6693 14.6357 20.6154C14.6451 20.5927 14.6 20.564 14.6045 20.5539C14.6484 20.4421 14.7058 20.5669 14.7528 20.4584C14.7584 20.4442 14.7632 20.4214 14.7657 20.3952C14.7859 20.2647 14.7853 20.0746 14.6943 20.2358C14.7253 20.1295 14.7579 20.0268 14.7908 19.9219C14.7504 19.9802 14.7139 20.0425 14.6715 20.0983C14.7717 19.9161 14.7217 19.7955 14.7634 19.6729C14.8052 19.5503 14.9499 19.4833 14.9532 19.3313C14.9605 19.0071 14.7299 19.7249 14.6764 19.8041C14.6554 19.8349 14.6277 19.6733 14.6334 19.6524C14.659 19.5597 14.7579 19.4775 14.7827 19.4081C14.8712 19.1593 14.8561 18.9793 14.9343 18.7398C15.2007 17.9242 15.5534 16.9215 15.8382 16.1618C15.9444 15.8789 16.0964 15.7439 16.1443 15.6171C16.2565 15.3204 16.1973 15.2548 16.2961 14.9964C16.443 14.6117 16.7228 14.0988 16.8643 13.7853C16.9622 13.5682 16.9709 13.3397 16.9922 13.2815C17.2861 12.4727 17.6763 11.5019 17.9402 10.8399C18.0643 10.5285 18.2035 10.4127 18.2268 10.3475C18.3274 10.0673 18.2293 10.114 18.3258 9.89278C18.3779 9.77326 18.4527 9.77693 18.4617 9.76177C18.5404 9.62785 18.4659 9.56513 18.5076 9.45276C18.7473 8.80653 19.05 8.21277 19.3117 7.5826C19.3307 7.5369 19.3671 7.55619 19.377 7.52564C19.4189 7.39407 19.3352 7.42955 19.3843 7.29422C19.4861 7.01264 19.6102 6.7313 19.7356 6.43977C19.748 6.41089 19.8021 6.41733 19.8289 6.35059C19.8556 6.28375 19.8295 6.21453 19.8741 6.11062C19.9905 5.83911 20.1542 5.59071 20.2734 5.30154C20.293 5.25367 20.258 5.17058 20.2875 5.09877C20.3799 4.87341 20.5673 4.55997 20.6467 4.36698C20.6705 4.3091 20.6938 4.2515 20.7167 4.19414C20.8136 3.94417 20.7066 3.73331 20.5251 3.58638C20.4807 3.55099 20.4612 3.47519 20.4304 3.4606C20.364 3.43193 20.3951 3.50104 20.3322 3.48327C20.2373 3.46114 20.1428 3.46465 20.0314 3.50413C18.8965 3.91995 17.7537 4.32721 16.6104 4.7557C16.0599 4.96189 15.4092 5.26485 14.8711 5.44778C14.6473 5.52368 14.5804 5.46665 14.4235 5.52416C14.1438 5.62707 14.1274 5.73813 13.8361 5.85677C13.6036 5.95133 13.2999 5.95934 13.0574 6.0559C12.8148 6.15246 12.7351 6.28384 12.458 6.39894C12.2298 6.49366 11.8915 6.57311 11.6419 6.67328C9.35473 7.59144 7.09408 8.47287 4.74424 9.26598C4.38163 9.38835 4.00453 9.52429 3.62135 9.65749C3.42627 9.72307 3.31609 9.82831 3.23728 10.0425C3.2274 10.0784 3.13225 10.0131 3.15512 10.1435C3.17166 10.2139 3.26291 10.2911 3.33032 10.3902C3.39192 10.4788 3.46948 10.5456 3.59497 10.5975C5.22193 11.2301 6.88238 11.9805 8.52648 12.5664C9.19227 12.8036 9.87493 13.0127 10.5577 13.2165C10.7374 13.291 10.9987 13.542 11.056 13.7279C11.9838 15.9132 12.957 18.0623 12.928 20.2372C12.9261 20.3759 12.6848 20.3844 12.5972 20.332C12.6178 20.2481 12.6485 20.1665 12.6738 20.0775C12.3698 20.0814 12.4464 20.0728 12.355 19.7294C12.299 19.518 12.2393 19.723 12.1682 19.6245C12.0761 19.4968 11.7102 18.8744 11.9352 18.9407C11.8896 18.91 11.8464 18.8821 11.8017 18.8523C11.607 18.3775 11.3991 17.9226 11.1835 17.4668C11.1461 17.3881 11.0882 17.4039 11.0499 17.3225C10.9468 17.1041 10.9217 16.911 10.8351 16.6791C10.7881 16.5531 10.7165 16.5581 10.6631 16.3903C10.6099 16.2225 10.6995 16.1956 10.525 16.0019C10.4652 16.188 10.3177 15.501 10.2298 15.2689C10.2172 15.2351 10.0211 14.9905 9.98125 14.8382C9.94104 14.6855 9.92657 14.4375 9.81086 14.2199C9.80105 14.2014 9.78974 14.185 9.77753 14.1699L10.0827 14.4831C9.99459 14.482 9.91437 14.5115 9.81853 14.4797C9.73628 14.4523 9.66447 14.3475 9.56284 14.3061C9.46125 14.2648 9.21808 14.2376 9.17703 14.2232C9.02871 14.1718 9.20881 14.1846 9.10924 14.1445C8.62827 13.9517 8.07433 13.7146 7.58399 13.5676C7.52372 13.5494 7.58385 13.6365 7.57533 13.6355C7.15015 13.5553 7.39085 13.5614 7.30207 13.4703C7.21604 13.3822 6.44202 13.1224 6.39949 13.2187C6.42222 13.0867 6.2171 13.1171 6.17163 13.1042C5.99472 13.0537 6.06837 12.9598 5.88959 12.9303C5.82402 12.9194 5.9159 13.0361 5.85107 13.0094C5.69082 12.9433 5.58824 12.7728 5.37666 12.6802C5.32558 12.6578 5.2893 12.703 5.19725 12.6665C5.10511 12.63 4.73975 12.421 4.87849 12.5971C4.67524 12.4214 4.6098 12.4515 4.3363 12.3462C4.26707 12.3194 4.20874 12.2027 4.05114 12.173C3.99783 12.163 3.96927 12.2436 3.89371 12.216C3.72086 12.1532 3.58972 12.0094 3.3724 11.9242C3.29342 11.8932 3.21253 11.8642 3.13038 11.8364C2.68607 11.6914 2.23297 11.3384 2.05185 10.8625C1.99482 10.7028 2.08378 10.714 2.02901 10.4891C2.01825 10.4593 1.90061 10.1855 1.92061 10.0158C1.91079 9.91034 2.07818 9.42163 2.14141 9.33917C2.21882 9.19072 2.16732 9.12316 2.23339 9.05016C2.43907 8.85298 2.38081 9.10833 2.48527 8.75275C2.62581 8.74263 2.77053 8.62555 2.87955 8.69425C2.89883 8.55049 3.04443 8.56334 3.19075 8.49811C3.2058 8.4912 3.22093 8.48275 3.23599 8.47227C3.37376 8.3763 3.41424 8.10245 3.54205 8.33347C3.60219 8.27728 3.88661 8.11388 3.93638 8.09117C4.08324 8.02469 4.02777 8.12232 4.13815 8.07092C4.15761 8.06195 4.11944 8.02346 4.24968 7.98028C4.33519 7.952 4.95442 7.72525 4.99368 7.71788C5.44176 7.63393 4.78123 7.84903 4.70876 7.93296C4.6878 7.92577 4.66699 7.91848 4.645 7.91185C4.45077 7.95911 4.59557 8.02433 4.68895 8.01727C4.78234 8.01021 4.92268 7.90507 5.00556 7.91336C5.04691 7.91762 5.07182 8.05104 4.96053 8.07514C5.08795 8.07177 4.94868 8.1699 5.00687 8.18958C5.07081 8.21111 5.58347 8.03465 5.56051 7.96456C5.46471 7.9974 5.34748 8.04365 5.25046 8.07645C5.08037 8.003 5.30928 7.45138 5.71973 7.48534C6.01735 7.50968 5.63429 7.75921 6.19734 7.43687C6.10329 7.46632 6.02107 7.4841 5.93537 7.5102C5.893 7.42347 6.06578 7.47197 6.12526 7.41728C6.15374 7.39076 5.92246 7.4041 6.09483 7.31594C6.29766 7.38714 6.36883 7.21331 6.62821 7.11524C6.5645 7.16503 6.50065 7.21474 6.43694 7.26454C6.91086 7.19479 5.90208 7.60451 6.77561 7.33955C6.67437 7.38188 6.57169 7.41875 6.47074 7.46346C6.53836 7.49211 6.50974 7.66057 6.56545 7.67322C6.71158 7.70648 6.8683 7.59551 7.0142 7.54901C7.07801 7.52854 7.053 7.58045 7.05835 7.57871C7.14583 7.55094 7.10647 7.50309 7.18057 7.47159C7.27384 7.43198 7.56772 7.38355 7.60989 7.36097C7.71908 7.30275 7.48744 7.26552 7.49551 7.25331C7.54931 7.17362 7.71518 7.16153 7.68182 7.09582C7.33916 7.27683 6.27858 7.60174 7.17554 7.13945C6.87544 7.12473 6.89344 6.94409 7.26124 6.79379C7.56546 6.66936 7.38949 6.80441 7.57482 6.81224C7.59867 6.81297 8.02309 6.69199 8.02652 6.63653C8.05073 6.75234 8.22103 6.79961 8.17299 6.94622C8.16598 6.96774 7.99428 7.02404 8.08713 7.09309C8.13363 7.12782 8.25531 7.19582 8.26326 7.25907C8.28303 7.20569 8.30252 7.14667 8.32217 7.09135C8.57142 6.98533 8.62365 7.01553 8.79035 7.03948C8.77233 7.01033 8.59504 6.92559 8.80456 6.89356C8.81544 6.89226 8.84171 6.93655 8.94933 6.9234C9.16669 6.89641 9.21386 6.89561 9.11229 7.09206C9.49657 6.8588 9.64347 6.98114 10.051 6.77806C9.9 6.63009 9.76729 6.7299 9.39151 6.90879C9.3588 6.87241 9.33521 6.83314 9.30181 6.79652C9.85495 6.70107 9.5957 6.78615 9.85659 6.59073C9.92043 6.54288 10.3112 6.42356 10.1388 6.35023C10.0981 6.33301 9.86178 6.42452 9.87239 6.36961C9.87449 6.35913 10.1552 6.23017 10.185 6.23229C10.5576 6.25642 10.0235 6.56804 10.8842 6.18915C10.9079 6.17862 10.897 6.12326 10.9417 6.0984C11.0257 6.05175 11.0493 6.1118 11.1237 6.06829C11.1981 6.02473 11.2782 5.90242 11.4258 5.93316C11.6955 5.98879 11.2086 6.25925 10.9517 6.27203C10.9248 6.4856 12.5688 5.87948 12.6649 5.82637C13.0846 5.59462 12.3593 5.90779 12.3028 5.87232C12.2792 5.8572 12.1882 5.58816 12.0652 5.83035C12.0288 5.90208 12.2853 5.88356 12.1577 5.96307C12.03 6.04259 12.0556 5.9439 12.0436 5.94215C12.0023 5.93618 11.8661 6.0198 11.8429 6.01577C11.4871 5.95604 11.4194 5.69125 11.9478 5.9233C12.0855 5.77536 11.6466 5.78406 11.8355 5.64818C12.0652 5.48303 12.2969 5.53505 12.3311 5.52857C12.7405 5.45016 12.2304 5.43804 12.7221 5.31982C12.9958 5.25398 12.3736 5.58339 12.9678 5.34952C13.4651 5.15362 13.1717 5.19243 13.156 5.03873C13.1524 5.00274 13.4119 4.86058 13.0435 5.01382C13.0466 5.05425 13.0445 5.10979 13.0333 5.15228C12.9317 5.15967 12.711 5.03367 12.66 5.04534C12.4109 5.10326 12.4576 5.19386 12.2758 5.13422C12.4214 5.21925 12.231 5.20614 12.1795 5.25466C11.9877 5.43413 12.2986 5.35888 11.7434 5.42599C11.8311 5.45862 11.9121 5.49253 11.9976 5.52572C11.9372 5.5504 11.8768 5.57514 11.8164 5.59982C11.6783 5.50751 11.3594 5.64431 11.6064 5.40799C11.2392 5.50331 11.1064 5.58393 11.0654 5.7109C11.0576 5.73511 11.0072 5.76234 10.9454 5.78734C10.9675 5.81056 11.0143 5.89024 11.0083 5.90436C10.9545 6.02905 10.7589 5.92082 10.7829 5.84288C10.7382 5.8562 10.7023 5.86564 10.6896 5.8687C10.6087 5.88802 10.74 5.77682 10.6703 5.78131C10.6474 5.78288 10.4337 5.87581 10.4212 5.85507C10.3418 5.72187 10.739 5.69173 9.9875 5.87631C10.0184 6.0129 10.3425 5.85997 10.3079 6.03011C10.2708 6.21287 10.0086 6.0836 10.0351 6.28105C10.0087 6.25678 9.99265 6.23431 9.96681 6.20511C9.70474 6.39277 9.64452 6.24247 9.54301 6.24206C9.34576 6.2409 8.55423 6.54606 9.31704 6.41232C9.2175 6.46422 9.11316 6.50988 9.01358 6.56005C8.88884 6.29685 8.99231 6.38162 8.47649 6.52592C8.36288 6.55766 8.28258 6.45135 8.22728 6.63358C8.19019 6.48875 7.89553 6.69401 7.85882 6.68839C7.62288 6.65085 8.29041 6.22868 8.47481 6.4406C8.56146 6.29924 8.60812 6.42623 8.7384 6.35872C8.9266 6.26119 8.94482 6.22632 9.21371 6.23297C9.39516 6.01551 8.29004 6.51 8.91162 6.08004C9.53341 5.65003 13.496 4.06725 14.4191 3.69453C16.0915 3.01939 16.9686 2.65835 18.4896 2.10238C18.5879 2.06638 19.1049 1.86834 19.3997 1.8034C19.6504 1.73608 19.7984 1.75182 19.6759 1.83567C19.6575 1.84865 19.5481 1.89141 19.4534 1.94802C19.3539 2.01995 19.2724 2.10393 19.5081 2.09517C19.5295 2.09235 19.5527 2.08929 19.5778 2.08614C19.4257 2.05509 19.7822 1.89247 19.8202 1.88605C20.5737 1.68033 20.2131 1.43264 21.4424 1.96788ZM20.9165 4.7039C20.9915 4.53432 21.0408 4.41647 21.0703 4.33558C21.1434 4.08132 20.9419 4.34161 20.7852 4.17526C20.7806 4.18841 20.7756 4.2018 20.77 4.21544C20.7314 4.31042 20.6929 4.40526 20.6542 4.50036C20.6815 4.4737 20.7085 4.44744 20.7358 4.42078C20.7358 4.42064 20.7359 4.42051 20.736 4.42037C20.7962 4.51473 20.8563 4.60954 20.9165 4.7039ZM14.491 20.3213C14.4817 20.3052 14.472 20.2894 14.4621 20.2737C14.4542 20.2471 14.4466 20.2201 14.4396 20.1921C14.4997 20.0689 14.5594 19.9462 14.6195 19.823C14.6338 19.8463 14.6485 19.8692 14.6628 19.8925C14.609 20.0248 14.5553 20.1568 14.5034 20.2902C14.4993 20.3008 14.4952 20.3112 14.491 20.3213ZM10.8284 6.3557C10.6158 6.33888 10.6879 6.48304 10.4215 6.50409C10.4922 6.604 10.5653 6.70027 10.6372 6.7985C10.8145 6.71397 10.8406 6.65633 11.0499 6.60942C11.0134 6.5824 10.9764 6.55537 10.9404 6.52794C10.9101 6.5479 10.878 6.56971 10.8484 6.58842C10.7602 6.50769 11.0731 6.37456 10.829 6.35524C10.8288 6.35539 10.8286 6.35555 10.8284 6.3557ZM8.98626 7.09068C8.88334 7.11248 8.47671 7.20176 8.44103 7.26727C8.3201 7.48938 9.37378 6.98559 8.62157 7.4225C8.63336 7.44298 8.63763 7.46575 8.64566 7.48738C8.7951 7.4406 8.94369 7.39291 9.09361 7.34419C9.0537 7.26097 9.02738 7.17395 8.98626 7.09068ZM19.7598 3.19284C19.6054 3.23653 18.9179 3.57523 19.1875 3.58731C19.2668 3.59072 19.5335 3.33114 19.6571 3.29222C19.7371 3.26699 19.6778 3.37704 19.8222 3.29103C19.8027 3.25948 19.7844 3.22326 19.7595 3.19323C19.7596 3.1931 19.7597 3.19297 19.7598 3.19284ZM19.8771 2.64569C19.8278 2.66305 19.7818 2.68266 19.7348 2.70551C19.6309 2.75623 19.5268 2.80795 19.4226 2.85815C19.5421 2.89546 19.6989 2.80963 19.785 2.84084C19.8033 2.84845 19.8179 2.86236 19.8281 2.88478C19.8209 2.88954 19.8138 2.89436 19.8067 2.89925C19.7759 2.9191 19.7453 2.93887 19.7144 2.95878C19.6717 2.9438 19.6294 2.92862 19.5872 2.91345C19.4783 3.03056 19.5718 3.03389 19.3152 3.10706C19.5157 3.22664 19.5879 3.31208 19.868 3.0642C19.8877 3.04263 19.9093 3.01877 19.934 2.9927C19.9124 3.11551 20.046 3.43027 20.1386 3.1653C20.1642 3.11428 20.0347 3.10047 20.0302 3.09596C19.9878 3.00976 20.0575 2.93559 20.0179 2.854C19.9984 2.81609 19.898 2.84033 19.8664 2.79348C19.8491 2.76966 19.9373 2.66758 19.8771 2.64569ZM20.2096 3.07263C20.1825 3.12958 20.28 3.25857 20.3567 3.24837C20.4962 3.23825 20.3131 3.05856 20.2096 3.07263ZM14.4909 20.3219C14.4909 20.3217 14.491 20.3215 14.491 20.3213C14.4911 20.3215 14.4911 20.3216 14.4912 20.3217C14.4911 20.3218 14.491 20.3218 14.4909 20.3219ZM9.51193 6.96485C9.41365 7.05234 9.24108 7.109 9.28011 7.17557C9.21902 7.18233 9.15738 7.18955 9.09629 7.19631C9.10477 7.21754 9.1138 7.23861 9.1222 7.25961C9.29535 7.21048 9.46801 7.16159 9.64124 7.11268C9.59887 7.06321 9.55799 7.01294 9.51193 6.96485ZM7.66101 7.59552C7.44692 7.66683 7.66016 7.69793 7.63114 7.76196C7.60212 7.826 7.39964 7.85787 7.44672 7.91679C7.57214 7.8732 7.70292 7.82762 7.82984 7.78322C7.76949 7.72251 7.71866 7.65673 7.66059 7.59568C7.66073 7.59562 7.66087 7.59557 7.66101 7.59552ZM19.2728 8.59331C19.3504 8.4596 19.4005 8.54686 19.4269 8.2321C19.4268 8.23231 19.4268 8.23252 19.4267 8.23273C19.2599 8.47558 19.069 8.79774 19.0092 9.11547C19.1586 8.96625 19.1509 8.80381 19.2728 8.59331ZM11.411 6.38765C11.4498 6.30656 11.1496 6.36235 11.1076 6.43991C11.0397 6.56544 11.3518 6.51093 11.411 6.38765ZM17.4917 14.5362C17.584 14.8238 17.9483 14.4946 18.0332 14.0312C18.0405 13.9911 17.8729 14.2451 17.8708 14.1492C17.8707 14.1395 17.9358 13.9893 17.9259 13.9417C17.9161 13.8942 17.8425 13.9105 17.8429 13.8392C17.8437 13.7141 18.02 13.5012 17.9968 13.3979C17.9936 13.3843 17.8556 13.5049 17.8489 13.5133C17.7398 13.6502 17.7809 13.8406 17.772 13.8649C17.7259 13.99 17.6542 13.9396 17.623 13.9635C17.5643 14.0085 17.5578 14.1264 17.5523 14.1327C17.4076 14.2928 17.5992 13.8715 17.5938 13.8021C17.5792 13.6151 17.4497 13.731 17.5559 13.3391C17.5661 13.3019 17.741 12.8781 17.4377 13.379C17.6741 12.2518 17.1207 13.8662 17.0927 14.0543C17.0799 14.141 17.2034 14.0513 17.2182 14.113C17.2521 14.2537 17.191 14.4462 17.3073 14.4733C17.5521 14.5294 17.4994 14.2235 17.6058 14.0698C17.6488 14.1076 17.6949 14.1339 17.7306 14.1864C17.6851 14.1094 17.4845 14.5151 17.4913 14.536C17.4914 14.5361 17.4916 14.5361 17.4917 14.5362ZM18.2951 11.7646C18.4593 11.5558 18.3071 11.5143 18.477 11.3309C18.4229 11.0875 18.2808 11.468 18.2559 11.509C18.1427 11.6963 18.0026 11.6349 17.9642 11.8575C18.0764 11.8207 18.1843 11.7972 18.2951 11.7646ZM17.4119 13.7984C17.4016 13.6107 17.2895 13.8943 17.2709 13.9002C17.0715 13.9655 17.4397 13.1292 17.4119 13.7984ZM18.7196 3.24298C18.6365 3.2681 18.7145 3.32017 18.6507 3.36778C18.5869 3.41561 18.3191 3.44572 18.3417 3.48774C18.3646 3.52979 18.8565 3.4781 18.4149 3.67049C18.4394 3.68973 18.4412 3.71024 18.4569 3.73001C18.5811 3.68465 18.7065 3.63929 18.8307 3.59392C18.736 3.54746 18.6383 3.49789 18.5472 3.45285C18.5956 3.36992 18.6619 3.4286 18.6656 3.42723C18.6656 3.42716 18.6655 3.42708 18.6655 3.42701C18.7931 3.3731 18.906 3.18647 18.7196 3.24298ZM20.2046 6.66254C20.3715 6.75718 20.2502 6.48874 20.2594 6.40217C20.2688 6.31565 20.3769 6.23488 20.2849 6.24465C20.1821 6.34955 20.1859 6.65204 20.2048 6.66263C20.2047 6.6626 20.2047 6.66257 20.2046 6.66254ZM18.809 10.4791C18.8454 10.2637 18.7869 10.2768 18.9364 10.0551C18.8899 10.0475 18.8426 10.0394 18.7968 10.032C18.7188 10.2244 18.8481 10.2604 18.7091 10.4634C18.6863 10.4967 18.6186 10.3788 18.5845 10.5565C18.6565 10.5296 18.7345 10.5044 18.809 10.4791ZM19.0439 9.43299C18.9593 9.66329 19.2324 9.98203 19.2444 9.50036C19.246 9.42889 19.1075 9.25975 19.0439 9.43299ZM20.7542 2.88367C20.4148 2.73163 20.7925 2.94026 20.8236 3.04605C20.0871 2.76122 20.9506 3.05036 20.8418 3.27909C20.9361 3.28698 21.1538 3.35204 21.0396 3.17589C20.9868 3.10483 20.9707 3.16942 20.9673 3.16537C20.8593 3.05628 20.9304 2.98694 20.7542 2.88367ZM18.1391 12.1791C18.1424 12.1634 18.0736 12.1624 18.0803 12.1112C18.0871 12.0599 18.171 11.9713 18.1385 11.9462C18.1059 11.9211 17.9928 12.1209 17.9937 12.1965C17.9949 12.2721 18.1092 12.3204 18.1391 12.1791ZM18.8807 10.7514C18.9152 10.5407 18.569 10.7693 18.5532 10.8118C18.4168 11.1861 18.8155 10.7126 18.8807 10.7514ZM21.7085 3.33008C21.3102 2.87777 21.4024 3.38557 21.3479 3.65971C21.3824 3.6861 21.4163 3.71657 21.4482 3.74785C21.2467 3.61463 21.0757 3.43415 21.2988 3.94843C21.3008 3.63082 21.3742 3.88602 21.3821 3.89256C21.6955 3.91225 21.4082 3.36317 21.7087 3.33056C21.7086 3.3304 21.7085 3.33024 21.7085 3.33008ZM17.8246 12.7833C17.7441 12.9869 17.5783 13.5334 17.7917 13.3329C17.8027 13.1495 17.8135 12.9667 17.8246 12.7833ZM13.8932 4.61464C13.7009 4.61066 13.5468 4.66919 13.3417 4.75034C13.5636 4.77766 13.4454 4.83416 13.3915 4.88109C13.3095 4.952 13.539 4.86345 13.542 4.8697C13.5718 4.9629 13.4301 5.03174 13.764 4.90523C13.6931 4.96788 13.6234 5.03038 13.5524 5.09281C13.8091 5.00221 13.8914 5.03968 14.0804 5.0526C13.857 4.9325 14.1053 4.9674 14.2601 4.80888C14.3373 4.72963 13.9911 4.61685 13.8926 4.61488C13.8928 4.6148 13.893 4.61472 13.8932 4.61464ZM21.388 2.8034C21.3196 2.78401 21.2473 2.78212 21.1792 2.77772C21.1292 2.74249 21.0775 2.70979 21.0241 2.68076C21.0338 2.65108 21.045 2.6207 21.0522 2.59096C20.9835 2.54019 20.9911 2.59416 20.9677 2.58548C20.9678 2.58534 20.9679 2.58519 20.9679 2.58505C20.6264 2.47746 20.5046 2.45482 20.2229 2.34966C20.2227 2.44255 20.2226 2.53545 20.2225 2.62834C20.2754 2.61956 20.33 2.61423 20.3849 2.61233C20.4197 2.56634 20.4572 2.52156 20.4981 2.47852C20.5614 2.51854 20.6194 2.56227 20.6727 2.60936C20.7284 2.60902 20.7953 2.61592 20.8455 2.62034C20.963 2.95935 20.5135 2.5694 20.4741 2.69711C20.469 2.74283 20.938 2.93435 21.0171 2.97165C21.031 2.97527 21.0554 2.74146 21.1538 2.95735C21.1723 3.00047 20.876 3.27551 21.2599 3.21568C21.3176 3.2146 21.4632 2.96364 21.388 2.8034ZM19.1166 2.47229C19.5103 2.61151 18.3025 2.75827 18.8579 2.7869C18.7641 2.95286 18.7889 2.94195 18.9645 2.99316C18.98 2.99783 18.8967 3.0648 18.9062 3.06583C19.0559 3.07447 19.1998 2.98698 19.2389 3.08916C19.2717 3.07077 19.3026 3.05376 19.3353 3.03537C19.1545 2.99254 19.3609 2.84201 19.4197 2.72734C19.4465 2.67533 19.349 2.69858 19.3711 2.65356C19.3794 2.63706 19.5184 2.61225 19.5112 2.57641C19.4939 2.49575 19.3736 2.42269 19.214 2.41777C19.2139 2.4177 19.2139 2.41762 19.2139 2.41754C19.181 2.43549 19.1494 2.45413 19.1166 2.47229ZM20.5108 7.51345C20.3532 7.50917 20.2326 7.69652 20.3216 7.27952C20.2868 7.288 20.252 7.29715 20.2172 7.30563C20.1933 7.37238 20.1702 7.43706 20.1456 7.50476C20.47 7.86716 19.8669 8.05054 20.2477 7.93089C20.2891 7.91778 20.3167 7.74778 20.3397 7.93573C20.3399 7.93556 20.3401 7.93538 20.3402 7.9352C20.4003 7.70969 20.3625 7.66312 20.5108 7.51345ZM20.991 6.03525C20.9006 5.42349 20.5555 6.65635 20.7112 6.4896C20.7252 6.47462 20.8668 5.94071 20.991 6.03525ZM19.6498 10.1171C19.7438 9.8967 19.5938 9.81958 19.5286 9.81955C19.4634 9.81948 19.4586 9.99627 19.4418 10.0126C19.3867 10.0657 19.4223 9.92058 19.3486 9.98863C19.3244 10.0113 19.1139 10.3765 19.1135 10.3969C19.1113 10.5104 19.2976 10.4178 19.3011 10.4518C19.3126 10.5631 19.1957 10.6611 19.2535 10.7151C19.3764 10.8309 19.3163 10.537 19.3295 10.4967C19.37 10.3753 19.4481 10.4186 19.5 10.3364C19.552 10.2542 19.547 10.185 19.5842 10.109C19.5965 10.0838 19.6448 10.1282 19.6498 10.1171ZM19.6148 9.24991C19.6399 9.52944 19.9945 9.01513 19.9937 8.93697C19.9906 8.70671 19.603 9.11613 19.6148 9.24991ZM20.0228 2.60067C20.198 2.51154 19.8971 2.46688 19.676 2.54739C19.6175 2.56682 19.5664 2.58857 19.5365 2.60883C19.5525 2.61934 19.6224 2.62457 19.7042 2.62332C19.8318 2.6174 19.9787 2.62505 20.0228 2.60067ZM21.7679 3.4838C21.6546 3.26623 21.5861 3.63462 21.6032 3.79759C21.7503 3.88738 21.7176 3.78925 21.6956 3.66423C21.6697 3.5393 21.8448 3.66327 21.7679 3.4838ZM18.5437 12.4735C18.5626 12.4321 18.7296 11.711 18.53 12.0839C18.5148 12.1124 18.343 12.5952 18.3481 12.639C18.3585 12.7273 18.4946 12.5798 18.5437 12.4735ZM21.8996 4.71555C21.8904 4.69556 21.8831 4.67642 21.8772 4.65838C21.8484 4.51837 21.8529 4.44244 21.7087 4.50065C21.7087 4.50081 21.7086 4.50097 21.7085 4.50113C21.7595 4.19405 22.0193 4.20573 22.0254 4.12476C22.0153 3.84743 21.8067 4.09702 21.7409 3.94239C21.7932 4.29055 21.6596 4.18218 21.593 4.41467C21.5859 4.4352 21.5831 4.48331 21.5801 4.53956C21.5779 4.62027 21.5852 4.71451 21.6067 4.74326C21.6422 4.79074 21.8233 4.7468 21.8996 4.71555ZM18.1872 13.4438C18.3209 13.2314 18.2273 12.9504 18.0719 13.2572C17.996 13.4067 18.1056 13.5736 18.1872 13.4438ZM8.41795 6.58347C8.47074 6.61737 8.52451 6.65067 8.57977 6.68315C8.4986 6.72623 8.41744 6.76958 8.33635 6.81288C8.39832 6.77294 8.46047 6.73319 8.52305 6.69328C8.35666 6.73641 8.2516 6.67811 8.41753 6.58363C8.41767 6.58358 8.41781 6.58353 8.41795 6.58347ZM2.63569 8.81312C2.52591 8.84185 2.51524 9.08432 2.54227 9.07191C2.70836 9.00227 2.77656 8.7829 2.63569 8.81312ZM19.5346 2.26327C19.2878 2.33483 19.481 2.47172 19.6455 2.46509C19.6664 2.46329 19.6868 2.46019 19.7063 2.45546C19.5816 2.45373 19.7004 2.24748 19.5684 2.25751C19.5588 2.25768 19.5476 2.2595 19.5346 2.26327ZM4.70876 7.93296C4.73997 7.94366 4.77137 7.9543 4.80548 7.96397C4.71102 7.96804 4.6896 7.95514 4.70876 7.93296ZM18.7863 12.4452C18.8197 12.4118 18.9533 12.1194 18.948 12.0706C18.9364 11.969 18.7187 12.1516 18.7023 12.3038C18.7004 12.3206 18.7529 12.4784 18.7865 12.4446C18.7864 12.4448 18.7864 12.445 18.7863 12.4452ZM8.02486 6.63011C8.02614 6.63212 8.02666 6.63429 8.02652 6.63653C8.02608 6.63438 8.02521 6.63231 8.02486 6.63011ZM6.3979 13.2299C6.39759 13.2258 6.39803 13.222 6.39949 13.2187C6.39888 13.2222 6.39885 13.2262 6.3979 13.2299ZM19.8191 10.4192C20.0739 10.406 20.051 10.1315 19.8724 10.2697C19.8627 10.2775 19.8292 10.3953 19.8191 10.4192Z" fill="white"/>
</svg>