<svg xmlns="http://www.w3.org/2000/svg" width="24" height="24" viewBox="0 0 24 24" fill="none">
	<path d="M7.24935 5.44229C6.14649 6.59731 5.48219 8.28855 5.47936 9.92125C5.47632 10.1538 5.49385 10.3818 5.52989 10.6092C5.56479 10.8157 5.50019 10.8173 5.50502 10.8782C5.52196 11.0461 5.62809 11.1193 5.66105 11.2358C5.82626 11.8057 6.10108 12.3298 6.43878 12.8676C6.79951 13.4208 6.45296 13.2897 6.55268 13.509C6.76164 13.9376 6.731 13.4578 6.89108 13.5616C7.20627 13.9817 7.54475 14.4032 7.89763 14.8188C7.78779 14.7399 7.6792 14.6603 7.57102 14.5775C7.72697 14.7554 7.93099 15.0314 7.60606 14.79C7.65177 14.8677 7.69162 14.9434 7.74047 15.0225C7.829 14.9727 8.12856 15.2718 8.19823 15.2582C8.26714 15.2448 8.09161 15.0838 8.0965 15.0812C8.15713 15.0422 8.77453 15.8083 8.82229 15.8652C8.94051 16.0136 8.73667 15.9841 8.85596 16.0916C9.06099 16.2764 9.10741 15.9698 9.13899 16.4701C9.32073 16.4986 9.29074 16.5478 9.42006 16.6876C9.43709 16.706 9.4676 16.6481 9.47654 16.6547C9.71258 16.8257 9.47406 16.7511 9.47071 16.7567C9.41327 16.8504 9.66455 17.0361 9.70327 17.0904C10.1845 17.7676 10.5379 18.256 11.0493 18.967C11.1595 19.1138 11.5243 19.5733 11.5954 19.7471C11.6686 19.9131 11.5541 19.8671 11.5667 19.9677C11.7991 20.0136 11.8979 20.1481 11.9045 20.5156C12.0744 20.5944 11.9718 20.6148 12.0623 20.8482C12.1314 21.0242 12.3178 21.3438 12.2339 21.5918L11.9392 21.2971C11.9604 21.3049 11.9807 21.3149 12.0001 21.3272C11.9777 21.3261 11.9575 21.3256 11.9392 21.3257L12.2053 21.5918C12.2001 21.3875 12.1455 21.385 12.0711 21.1238C12.0792 21.0135 11.7245 20.0609 11.6118 20.2017C11.5649 20.2634 11.7506 20.536 11.7393 20.5529C11.69 20.6448 11.5448 20.517 11.5114 20.3626C11.5416 20.3918 11.5746 20.4286 11.6048 20.4613C11.5508 20.0951 11.317 20.48 11.4917 20.0972C11.5117 20.0491 11.5549 20.0418 11.5658 19.9718C11.545 19.9699 11.5388 20.051 11.5042 20.0023C11.4691 19.9523 11.4851 19.8133 11.4162 19.8335C11.317 19.8617 11.4707 20.0557 11.473 20.0762C11.4737 20.0761 11.4743 20.076 11.4749 20.0759C11.5024 20.2451 11.339 19.9452 11.3217 19.9393C11.2158 19.8819 11.2098 19.9661 11.0865 19.8623C11.0157 19.8015 10.9105 19.6098 10.8541 19.5471C10.799 19.4853 10.8328 19.6173 10.7929 19.578C10.7534 19.5392 10.7421 19.4609 10.6954 19.4173C10.675 19.3985 10.6329 19.4312 10.6236 19.4218C10.5224 19.3206 10.6673 19.3286 10.5824 19.2285C10.5256 19.1608 10.2699 19.009 10.3666 19.1783C10.3007 19.113 10.2369 19.0475 10.17 18.9808C10.196 19.0364 10.2264 19.0901 10.2477 19.1459C10.1574 18.9951 10.0338 18.9914 9.95885 18.9146C9.88291 18.837 9.89881 18.6895 9.7768 18.6337C9.51967 18.5173 9.98791 18.9608 10.0184 19.0337C10.0319 19.0619 9.89104 19.0285 9.87761 19.0169C9.81786 18.9638 9.80104 18.8516 9.75705 18.8063C9.59952 18.6449 9.44819 18.6003 9.2881 18.4538C8.74798 17.9601 8.04827 17.3406 7.52373 16.8401C7.32861 16.654 7.27803 16.473 7.19103 16.388C6.98698 16.1882 6.90562 16.2181 6.72857 16.0391C6.46492 15.7736 6.15629 15.3321 5.9611 15.0803C5.82602 14.9079 5.63824 14.7997 5.60041 14.7561C5.06672 14.1542 4.49798 13.3035 4.19445 12.6525C4.0495 12.3493 4.07255 12.1617 4.04465 12.0993C3.92918 11.8229 3.88678 11.9213 3.81713 11.6827C3.78123 11.5526 3.84359 11.5088 3.84121 11.491C3.82193 11.3335 3.72525 11.3255 3.69385 11.2039C3.58754 10.7831 3.55543 10.3519 3.57321 9.92125C3.58496 9.65441 3.60894 9.39042 3.63757 9.124C3.64291 9.07551 3.68327 9.08411 3.68439 9.05241C3.68903 8.91629 3.6176 8.97174 3.63059 8.82935C3.65865 8.53405 3.724 8.2338 3.80608 7.92979C3.81426 7.89969 3.86853 7.89866 3.88603 7.83027C3.90384 7.7615 3.86935 7.69611 3.9029 7.58894C3.99104 7.30924 4.14104 7.05588 4.25965 6.77284C4.2792 6.72606 4.24487 6.64335 4.27628 6.5727C4.37321 6.35066 4.58373 6.05759 4.68586 5.88057C5.01963 5.29287 5.36001 4.76338 5.7892 4.28827C5.8904 4.1767 6.02521 4.12212 6.08059 4.06816C6.20652 3.94665 6.07321 4.00002 6.20094 3.87559C7.25164 2.86398 8.58524 2.15189 10.0147 1.80074C10.5736 1.65874 11.2718 1.51305 11.8344 1.5217C11.9036 1.52238 11.9563 1.53028 12.0001 1.54078C12.1041 1.56592 12.1583 1.60476 12.2728 1.60872C12.562 1.62134 12.6233 1.52637 12.934 1.54828C13.1835 1.56774 13.4489 1.70881 13.699 1.75484C13.9509 1.8024 14.0887 1.73691 14.3797 1.80842C14.6189 1.86764 14.9292 2.02063 15.1777 2.11558C17.4681 2.96849 19.339 4.90069 20.0341 7.28109C20.2792 8.09795 20.445 9.04468 20.3533 9.92125C20.3517 9.93862 20.3499 9.95593 20.3481 9.97319C20.3372 10.0608 20.2508 9.92684 20.2597 10.2043C20.2621 10.3515 20.3296 10.5694 20.2759 10.9138C19.9308 13.0169 18.4109 14.5569 17.1783 15.8968C15.3116 17.9813 13.4673 19.9593 12.482 21.5397C12.4338 21.6326 12.2027 21.5857 12.1389 21.5157C12.1877 21.4564 12.247 21.4056 12.3057 21.3514C12.03 21.2441 12.0916 21.258 12.1819 20.9691C12.2436 20.7935 12.0865 20.9061 12.08 20.7981C12.0572 20.6554 12.1931 19.9998 12.3162 20.1989C12.3032 20.1498 12.291 20.1032 12.2798 20.0539C12.4672 19.6277 12.6912 19.2268 12.9301 18.8389C12.9726 18.7705 12.9276 18.7309 12.9715 18.6622C13.0899 18.4777 13.2346 18.3711 13.3787 18.202C13.4577 18.1098 13.4195 18.0488 13.5296 17.9368C13.641 17.8245 13.7063 17.8911 13.7829 17.6646C13.5998 17.6841 14.0994 17.2926 14.2507 17.1346C14.2727 17.1112 14.3866 16.8505 14.4944 16.762C14.603 16.6723 14.802 16.5724 14.9295 16.395C14.9894 16.3117 14.9766 16.2096 15.0507 16.131C15.103 16.0755 15.2195 16.0639 15.2907 15.9985C15.3622 15.9329 15.4683 15.7447 15.4947 15.7172C15.5896 15.6179 15.5178 15.7609 15.5865 15.6967C15.9176 15.3862 16.3049 15.0318 16.5788 14.6841C16.6124 14.6415 16.5172 14.6555 16.5206 14.6488C16.7134 14.3293 16.639 14.5263 16.7459 14.4894C16.8527 14.4548 17.2861 13.9038 17.2037 13.8326C17.3193 13.8995 17.3375 13.7165 17.3589 13.6827C17.4427 13.5517 17.5144 13.6451 17.577 13.5042C17.5997 13.4528 17.4742 13.4916 17.5113 13.446C17.6018 13.3346 17.7806 13.2997 17.9005 13.1468C17.9293 13.1098 17.8922 13.0668 17.9397 12.9985C17.989 12.931 18.2273 12.6728 18.045 12.7471C18.2322 12.6185 18.2122 12.5532 18.3284 12.344C18.3572 12.2914 18.4738 12.2608 18.5061 12.131C18.5168 12.0872 18.4391 12.0517 18.4659 11.9925C18.5258 11.8577 18.6637 11.7615 18.7329 11.5841C18.8629 11.2507 18.8969 10.8734 18.9658 10.5203C18.9841 10.4236 19.0677 10.4577 19.0829 10.3124C19.0854 10.2907 19.0233 10.113 19.0313 10.014C19.0327 9.99794 19.0379 9.964 19.0441 9.92125C19.0616 9.80046 19.0839 9.61363 19.0842 9.56593C19.0853 9.4572 19.0005 9.4436 19.0125 9.38409C19.0452 9.2118 19.1798 9.33456 18.9926 9.14775C19.0778 9.07047 19.0531 8.95192 19.1605 8.89732C19.0266 8.84563 19.1321 8.73613 19.0658 8.60769C18.9994 8.47898 18.7384 8.42475 18.9859 8.33542C18.9421 8.27903 18.8226 8.03129 18.8052 7.9894C18.7574 7.86419 18.8467 7.91233 18.808 7.81806C18.801 7.80155 18.76 7.83372 18.7295 7.72357C18.7148 7.64938 18.5208 7.13588 18.5091 7.10483C18.427 6.72974 18.6381 7.27189 18.7126 7.33172C18.7047 7.35031 18.6967 7.36873 18.6892 7.38805C18.7255 7.55267 18.7977 7.42568 18.7946 7.34401C18.7916 7.2623 18.6918 7.14793 18.7002 7.07517C18.7045 7.03855 18.8357 7.00393 18.8585 7.10112C18.8562 6.98801 18.9516 7.10455 18.9714 7.0512C18.997 6.9911 18.8063 6.54462 18.7362 6.57716C18.7739 6.65861 18.8238 6.75794 18.8581 6.84185C18.7863 6.99667 18.2544 6.86597 18.2613 6.51768C18.2595 6.25797 18.5387 6.53357 18.1685 6.11744C18.2083 6.19166 18.2341 6.25851 18.2673 6.32706C18.1883 6.38197 18.218 6.22276 18.1584 6.1842C18.1303 6.16636 18.1677 6.36023 18.0653 6.23425C18.1094 6.04389 17.9355 6.02537 17.8023 5.83786C17.8594 5.8763 17.9161 5.91606 17.9725 5.95651C17.831 5.56941 18.3823 6.32501 17.986 5.64473C18.0448 5.7193 18.0974 5.79796 18.1555 5.87384C18.1718 5.80714 18.3367 5.78832 18.3395 5.73577C18.3461 5.59658 18.2094 5.48652 18.1334 5.37274C18.0999 5.32276 18.1542 5.32868 18.1514 5.32451C18.105 5.25561 18.0695 5.30565 18.0225 5.25088C17.9645 5.18168 17.8407 4.94297 17.8067 4.91517C17.7221 4.8428 17.7544 5.05672 17.7403 5.05404C17.6533 5.03743 17.5949 4.90173 17.5451 4.95616C17.8199 5.16922 18.3336 5.98843 17.7162 5.368C17.7688 5.62875 17.598 5.66638 17.3814 5.4232C17.1972 5.22382 17.361 5.31451 17.3203 5.15941C17.3167 5.13842 17.0859 4.84498 17.0349 4.86925C17.1288 4.79741 17.1132 4.63643 17.2575 4.60924C17.279 4.60497 17.3858 4.72341 17.4161 4.61583C17.4316 4.56181 17.4487 4.4289 17.5017 4.39416C17.4471 4.40071 17.3879 4.4106 17.3322 4.4193C17.1475 4.25975 17.1525 4.20458 17.1041 4.05446C17.0871 4.08426 17.0865 4.27074 16.9739 4.11619C16.9682 4.10806 16.9954 4.064 16.938 3.98322C16.821 3.82149 16.7953 3.78278 17.0077 3.76231C16.6343 3.57395 16.6605 3.38767 16.2767 3.19469C16.2443 3.40246 16.3935 3.43494 16.7235 3.63458C16.7094 3.68093 16.6885 3.72152 16.6741 3.76832C16.3307 3.3877 16.5212 3.54048 16.2353 3.45762C16.1661 3.43631 15.8626 3.22411 15.9018 3.39843C15.9112 3.43837 16.1044 3.55539 16.0564 3.58208C16.0477 3.58593 15.8041 3.46307 15.7891 3.44151C15.5992 3.16251 16.1377 3.32232 15.3555 2.97997C15.3336 2.97121 15.3022 3.01779 15.2579 3.0054C15.1746 2.98233 15.2004 2.92331 15.1243 2.90541C15.0475 2.8875 14.9178 2.92602 14.8415 2.8092C14.6961 2.59427 15.2015 2.70265 15.3712 2.87516C15.5575 2.71278 14.0076 2.12495 13.892 2.15879C13.4433 2.12646 14.1722 2.25578 14.192 2.32426C14.2014 2.35066 14.1133 2.6189 14.3405 2.49651C14.4094 2.4606 14.2118 2.32442 14.3514 2.33583C14.4922 2.3485 14.4144 2.41194 14.4221 2.42041C14.4484 2.4495 14.5959 2.4667 14.6097 2.48448C14.8181 2.75237 14.7024 2.9949 14.4794 2.49291C14.2955 2.52722 14.6036 2.78329 14.3934 2.77729C14.1416 2.77194 14.0091 2.60358 13.9797 2.58935C13.6406 2.43208 14.0056 2.71426 13.5859 2.55548C13.3479 2.47147 13.9804 2.50856 13.4157 2.40566C12.9395 2.33446 13.1866 2.44497 13.1289 2.58598C13.1155 2.61942 12.8592 2.62405 13.2025 2.66091C13.2184 2.62406 13.2451 2.57644 13.2732 2.5448C13.3548 2.58728 13.455 2.80569 13.4962 2.82159C13.7005 2.89893 13.7144 2.79997 13.8083 2.94636C13.7526 2.79752 13.8769 2.91017 13.9379 2.89882C14.1646 2.85935 13.918 2.74134 14.3244 3.00767C14.2862 2.93038 14.2514 2.85613 14.2118 2.78011C14.2672 2.79506 14.3227 2.81068 14.3778 2.82692C14.4175 2.98097 14.6995 3.06633 14.4019 3.10265C14.6907 3.24672 14.8164 3.27388 14.9245 3.20569C14.9449 3.19276 14.9931 3.2051 15.0464 3.22727C15.0487 3.19597 15.0733 3.10725 15.0863 3.10089C15.2034 3.04586 15.2463 3.25492 15.1787 3.29422C15.2137 3.31446 15.2407 3.33186 15.2501 3.33826C15.3093 3.37882 15.1587 3.36959 15.2013 3.41302C15.2156 3.42654 15.398 3.50594 15.3899 3.52928C15.337 3.67721 15.1131 3.41975 15.6296 3.81475C15.7155 3.70271 15.4358 3.57846 15.5754 3.48839C15.729 3.39192 15.772 3.66429 15.905 3.5184C15.9006 3.55317 15.8921 3.57919 15.8834 3.61658C16.1592 3.68951 16.0717 3.8301 16.1189 3.90458C16.2125 4.04532 16.7918 4.48419 16.3564 3.9739C16.4425 4.0197 16.5251 4.07471 16.6083 4.12512C16.4428 4.36729 16.4774 4.23353 16.7894 4.56453C16.8572 4.63875 16.7928 4.75297 16.9675 4.7098C16.8564 4.80753 17.1256 4.94707 17.131 4.98092C17.165 5.18101 16.6097 4.85388 16.7181 4.60892C16.569 4.6139 16.6585 4.51224 16.5531 4.4471C16.4 4.35492 16.3673 4.3617 16.259 4.15567C16.0173 4.14132 16.8475 4.69976 16.2602 4.46884C15.7928 4.13625 13.1253 3.10164 12.0001 3.31129C11.8884 3.31519 11.7953 3.32115 11.7242 3.32665C10.3313 3.47303 9.63174 3.76096 8.55828 4.37671C8.44354 4.42628 7.7171 4.9997 7.76791 4.75954C7.77194 4.72334 8.06277 4.41915 7.70202 4.53908C7.80548 4.55253 7.67324 4.72191 7.66583 4.73953C7.48459 5.13871 7.6771 5.00674 7.24935 5.44229ZM4.92006 6.23823C5.42543 5.40937 4.98249 5.97688 4.87176 5.67479C4.80484 5.78555 4.74054 5.89787 4.67882 6.01175C4.70843 5.98903 4.73791 5.96691 4.76775 5.94464C4.76782 5.94451 4.7679 5.94438 4.76797 5.94425C4.817 6.04378 4.8677 6.14186 4.92006 6.23823ZM10.3362 19.3925C10.29 19.3857 10.2436 19.3789 10.1966 19.3704C10.1355 19.2772 10.0716 19.1834 10.0046 19.0884C10.0303 19.0848 10.0559 19.0808 10.0816 19.0773C10.1695 19.1839 10.25 19.2851 10.3362 19.3925ZM15.5065 2.90191C15.6242 3.06273 15.6849 2.91216 15.858 3.09209C15.891 2.97485 15.9186 2.85773 15.947 2.7397C15.7727 2.66486 15.7153 2.68542 15.5446 2.5697C15.5495 2.61428 15.5545 2.65925 15.5581 2.70369C15.5917 2.71122 15.6278 2.71896 15.6601 2.72731C15.6571 2.84423 15.3666 2.71781 15.5059 2.90185C15.5061 2.90187 15.5063 2.90189 15.5065 2.90191ZM17.0634 3.86687C17.13 3.93935 17.3727 4.2369 17.4424 4.23896C17.6931 4.23748 16.806 3.58178 17.507 4.01334C17.5202 3.99375 17.5385 3.97959 17.5542 3.96272C17.4502 3.85458 17.3428 3.75035 17.2308 3.64836C17.1781 3.72408 17.1158 3.79031 17.0634 3.86687ZM7.15757 3.56618C7.27778 3.47904 7.83608 3.01842 7.58314 3.05904C7.50541 3.07062 7.32155 3.3782 7.22186 3.44615C7.15581 3.4902 7.17743 3.37019 7.07016 3.48981C7.09782 3.51443 7.12576 3.54382 7.15776 3.56573C7.1577 3.56588 7.15763 3.56603 7.15757 3.56618ZM7.24108 4.11222C7.3446 4.0083 7.45094 3.90256 7.56141 3.80297C7.41775 3.79005 7.28493 3.97003 7.19305 3.87483C7.21917 3.84121 7.24529 3.80809 7.27209 3.77479C7.31494 3.77829 7.35725 3.78248 7.39937 3.78701C7.46021 3.65278 7.37522 3.66836 7.58561 3.54551C7.35324 3.4661 7.25335 3.39595 7.0482 3.81806C7.0436 3.68318 6.75734 3.4558 6.7361 3.80624C6.73287 3.87055 6.89465 3.77386 6.90121 3.77879C6.98203 3.83222 6.94236 3.94258 7.02188 3.99038C7.0575 4.012 7.14128 3.94205 7.1886 3.97484C7.21096 3.99112 7.18075 4.11495 7.24108 4.11222ZM6.70724 3.94902C6.70661 3.8746 6.49244 3.88491 6.40479 4.0056C6.27087 4.1919 6.61391 4.03748 6.70724 3.94902ZM10.3367 19.393C10.3365 19.3928 10.3364 19.3927 10.3362 19.3925C10.3363 19.3925 10.3365 19.3925 10.3367 19.3926C10.3367 19.3927 10.3367 19.3929 10.3367 19.393ZM16.7102 3.50694C16.8314 3.53604 16.9619 3.64746 16.999 3.58014C17.0342 3.62693 17.0694 3.6742 17.1033 3.72152C17.1174 3.70355 17.1312 3.6852 17.1451 3.6674C17.0224 3.54788 16.8957 3.43198 16.7651 3.31971C16.7467 3.38186 16.7265 3.44305 16.7102 3.50694ZM18.0071 4.78369C18.1367 4.94883 18.1024 4.74789 18.1704 4.75107C18.2394 4.75465 18.3277 4.92893 18.3695 4.867C18.2928 4.7659 18.2101 4.66229 18.1272 4.5638C18.0909 4.64062 18.0461 4.71019 18.0074 4.78401C18.0073 4.7839 18.0072 4.7838 18.0071 4.78369ZM3.94147 10.0642C3.95105 9.98597 3.97767 9.96428 3.98795 9.92125C3.99793 9.88217 3.9929 9.82529 3.95183 9.68558C3.95182 9.68579 3.95181 9.686 3.95181 9.68622C3.93229 9.75896 3.9141 9.83813 3.89992 9.92125C3.86104 10.1574 3.8609 10.4193 3.93773 10.6427C3.99532 10.4414 3.91414 10.305 3.94147 10.0642ZM15.1489 2.4806C15.0691 2.514 15.3077 2.67397 15.3879 2.64892C15.521 2.60704 15.2736 2.42857 15.1489 2.4806ZM6.88505 14.8266C7.1652 14.8488 7.06418 14.4207 6.73732 14.177C6.7085 14.1561 6.8297 14.3927 6.75149 14.3588C6.74353 14.3554 6.6547 14.2439 6.61137 14.2336C6.56799 14.2236 6.54422 14.2923 6.48667 14.2641C6.38492 14.214 6.30644 13.9822 6.21186 13.9582C6.19909 13.9552 6.22366 14.1201 6.22699 14.129C6.28061 14.2764 6.4568 14.3173 6.47189 14.3342C6.55068 14.4222 6.47428 14.4636 6.47827 14.4994C6.48594 14.5668 6.5795 14.6175 6.58196 14.6245C6.64295 14.8093 6.39099 14.4855 6.33172 14.4607C6.17176 14.3977 6.19999 14.5566 5.93467 14.3026C5.90967 14.2787 5.65395 13.9464 5.90649 14.4192C5.10475 13.7219 6.14304 14.907 6.29584 14.9901C6.36218 15.035 6.34621 14.8932 6.40465 14.9044C6.5378 14.9298 6.66934 15.0544 6.74627 14.9633C6.90815 14.7724 6.63016 14.705 6.55659 14.5548C6.60849 14.5325 6.65253 14.5031 6.71277 14.4921C6.62661 14.5021 6.86378 14.826 6.88469 14.8269C6.88481 14.8268 6.88493 14.8267 6.88505 14.8266ZM5.11478 12.9484C5.06326 12.7097 4.93472 12.8004 4.91351 12.5687C4.70074 12.4635 4.88273 12.7944 4.89883 12.8353C4.96588 13.0264 4.83345 13.1029 4.98108 13.2549C5.02103 13.1472 5.06984 13.0509 5.11478 12.9484ZM6.23856 14.6145C6.07829 14.5474 6.25763 14.7581 6.2535 14.7759C6.20964 14.976 5.6993 14.3158 6.23856 14.6145ZM8.09114 3.31581C8.1612 3.28076 8.0798 3.2404 8.12886 3.18603C8.17808 3.13031 8.41909 3.07399 8.39189 3.03572C8.36602 2.99425 7.91341 3.10164 8.29631 2.86366C8.27041 2.84725 8.26571 2.82732 8.24792 2.80955C8.1373 2.86721 8.02616 2.92801 7.91824 2.9909C8.01623 3.0219 8.11639 3.05734 8.20838 3.0908C8.17862 3.17707 8.10716 3.12828 8.10384 3.13015C8.10388 3.13022 8.10392 3.13029 8.10396 3.13036C7.99557 3.19965 7.93469 3.39614 8.09114 3.31581ZM4.30261 8.0813C4.48173 8.14861 4.31965 7.91657 4.31864 7.83288C4.31646 7.75048 4.41455 7.66669 4.32461 7.6827C4.23313 7.79018 4.28152 8.07495 4.30285 8.08136C4.30277 8.08134 4.30269 8.08132 4.30261 8.0813ZM4.56298 11.8046C4.45253 11.6351 4.4135 11.6782 4.39532 11.4284C4.35397 11.4506 4.31175 11.4733 4.27125 11.4957C4.32989 11.6857 4.45104 11.6296 4.4781 11.8588C4.48317 11.8964 4.35416 11.8602 4.4477 12.0047C4.48233 11.9381 4.52355 11.8696 4.56298 11.8046ZM4.12982 10.8904C4.18365 11.1244 4.5835 11.2113 4.33537 10.8407C4.29984 10.7857 4.09328 10.7165 4.12982 10.8904ZM6.49936 4.58351C6.77188 4.32425 6.42745 4.5829 6.31876 4.61885C6.90813 3.95378 6.25735 4.69308 6.06127 4.64244C6.02698 4.76196 5.99117 4.99603 6.16247 4.84694C6.23443 4.78559 6.16964 4.77389 6.17349 4.76979C6.29976 4.64998 6.35325 4.72762 6.49936 4.58351ZM5.33436 13.2863C5.32421 13.2758 5.28252 13.3296 5.24687 13.298C5.21107 13.2661 5.19412 13.1543 5.15536 13.1663C5.11566 13.1784 5.20162 13.3726 5.26186 13.4104C5.32183 13.4482 5.42564 13.3811 5.33436 13.2863ZM4.79426 11.9349C4.68016 11.7766 4.57812 12.1547 4.5992 12.1957C4.76257 12.5282 4.71565 11.951 4.79426 11.9349ZM6.2459 5.48875C6.42058 5.07792 6.06131 5.18315 5.78802 5.34186C5.78605 5.38732 5.78398 5.43346 5.78298 5.47811C5.75864 5.25174 5.81323 4.90758 5.52885 5.54113C5.76997 5.25771 5.62635 5.53598 5.63282 5.5424C5.84135 5.73284 6.04703 5.23061 6.24567 5.48906C6.24575 5.48896 6.24583 5.48886 6.2459 5.48875ZM5.62891 13.8322C5.74484 13.9939 6.10397 14.3668 6.05195 14.102C5.90945 14.0146 5.76914 13.926 5.62891 13.8322ZM12.3934 2.65199C12.5434 2.73104 12.6797 2.74047 12.8674 2.75794C12.7107 2.6366 12.8221 2.63705 12.8831 2.61893C12.9753 2.59164 12.7624 2.56979 12.7622 2.56351C12.776 2.46739 12.9152 2.46346 12.6018 2.4379C12.6823 2.41013 12.7617 2.38318 12.8446 2.3583C12.6029 2.32847 12.5516 2.26266 12.3977 2.17587C12.5397 2.37474 12.3454 2.24219 12.1638 2.33347C12.0753 2.37886 12.3202 2.61063 12.394 2.65202C12.3938 2.65201 12.3936 2.652 12.3934 2.65199ZM6.55649 5.17071C6.5596 5.11504 6.55188 5.05391 6.55184 4.99553C6.5807 4.95807 6.61034 4.92108 6.63997 4.88412C6.66606 4.90064 6.69246 4.91886 6.71827 4.93399C6.76694 4.89549 6.71997 4.88375 6.72977 4.86774C6.72988 4.86785 6.73 4.86796 6.73012 4.86807C6.87303 4.64017 6.96014 4.56786 7.17498 4.50046C7.11319 4.43109 7.0514 4.36173 6.98961 4.29236C6.95979 4.33078 6.92989 4.36961 6.90075 4.40832C6.91606 4.46217 6.93176 4.51587 6.94797 4.56921C6.88976 4.58632 6.83202 4.60405 6.77377 4.62284C6.75516 4.66637 6.7316 4.71688 6.71782 4.75602C6.37812 4.73156 6.85475 4.49902 6.78588 4.42093C6.73835 4.36526 6.37792 4.73289 6.36782 4.82229C6.36628 4.83467 6.58181 4.88367 6.38446 4.95301C6.35497 4.96308 6.02838 4.69786 6.15651 5.07218C6.1756 5.12458 6.43812 5.21413 6.55649 5.17071ZM7.94029 4.10789C7.56089 4.03753 8.55753 3.72166 8.07393 3.77199C8.11378 3.60136 8.09717 3.61326 7.92877 3.59132C7.91371 3.58926 7.97147 3.51232 7.96284 3.51282C7.8267 3.52715 7.72164 3.6372 7.65909 3.54755C7.63456 3.57135 7.61149 3.59362 7.58734 3.61768C7.76045 3.62283 7.61814 3.80561 7.60393 3.92505C7.5969 3.9791 7.67385 3.93776 7.66867 3.9843C7.66662 4.00108 7.55527 4.05281 7.5733 4.08475C7.61482 4.15593 7.74059 4.19794 7.87533 4.17507C7.87538 4.17514 7.87543 4.17521 7.87548 4.17527C7.8974 4.1529 7.91814 4.13022 7.94029 4.10789ZM4.77457 8.79129C4.62209 8.81376 4.54831 9.00289 4.53633 8.62157C4.50446 8.63488 4.47277 8.64901 4.44096 8.66279C4.43305 8.72645 4.42625 8.78793 4.41961 8.85223C4.82316 9.09779 4.30645 9.38596 4.63359 9.19673C4.6691 9.1764 4.6473 9.02733 4.72296 9.17985C4.72306 9.17967 4.72316 9.17948 4.72326 9.1793C4.71656 8.97791 4.66881 8.94413 4.77457 8.79129ZM5.0011 7.46503C4.86226 6.91105 4.63028 8.03619 4.77521 7.87741C4.78289 7.86318 4.8684 7.37895 5.0011 7.46503ZM5.00623 11.0683C4.96321 10.8774 4.79928 10.8982 4.74395 10.9315C4.6887 10.9652 4.78179 11.0908 4.77755 11.1105C4.76221 11.1769 4.70991 11.0575 4.68783 11.1448C4.67759 11.1738 4.72709 11.544 4.74258 11.5579C4.81107 11.6334 4.89771 11.4594 4.92155 11.4798C4.99758 11.5432 4.97012 11.6757 5.0479 11.6723C5.21295 11.665 4.98472 11.5263 4.97091 11.491C4.92889 11.3902 5.0163 11.3717 5.00947 11.2904C5.00318 11.2092 4.96001 11.1679 4.94792 11.0981C4.94399 11.0749 5.00823 11.0781 5.00623 11.0683ZM4.53327 10.4727C4.68354 10.6699 4.76376 10.1411 4.73955 10.0856C4.64397 9.90472 4.45405 10.369 4.53327 10.4727ZM7.1489 4.2094C7.05702 4.40855 7.45708 4.16548 7.54106 4.06004C7.49859 4.04235 7.18107 4.13808 7.1489 4.2094ZM6.17345 5.58346C6.25965 5.42207 5.94753 5.4874 5.86047 5.6185C5.92079 5.77073 5.94656 5.68514 6.00929 5.60769C6.07227 5.53079 6.10816 5.70957 6.17345 5.58346ZM5.79996 13.112C5.77626 13.0812 5.34954 12.5987 5.49979 12.9351C5.50886 12.9617 5.77297 13.3287 5.81089 13.3421C5.88436 13.3735 5.85069 13.2 5.79996 13.112ZM5.8748 6.40402C5.81865 6.26488 5.8694 6.18457 5.70529 6.18875C5.70522 6.18886 5.70515 6.18898 5.70509 6.18909C5.7948 5.95786 6.04181 6.10373 6.06347 6.05805C6.14363 5.89818 5.8818 5.92767 5.89041 5.79574C5.79427 6.05343 5.72256 5.9151 5.60676 6.0871C5.58051 6.1259 5.55877 6.3268 5.59092 6.37442C5.62249 6.42189 5.79983 6.41511 5.8748 6.40402ZM6.34908 13.819C6.25327 13.623 5.98234 13.5794 6.1397 13.837C6.21811 13.9631 6.40902 13.9393 6.34908 13.819ZM16.859 4.58214C16.8691 4.52351 16.8777 4.4641 16.8844 4.40363C16.9516 4.44691 17.0184 4.49127 17.0846 4.53679C17.0281 4.50525 16.9714 4.47429 16.9142 4.44397C17.0127 4.55669 16.9977 4.6683 16.8593 4.5824C16.8592 4.58231 16.8591 4.58223 16.859 4.58214ZM19.133 9.08678C19.0927 9.15599 19.2534 9.26817 19.2635 9.25147C19.3391 9.11978 19.1886 8.98854 19.133 9.08678ZM7.66006 4.3783C7.85936 4.2515 7.58401 4.15436 7.45527 4.23577C7.555 4.21585 7.54742 4.45225 7.66006 4.3783ZM18.7126 7.33172C18.7243 7.30403 18.7358 7.27605 18.7463 7.24565C18.7475 7.32771 18.7335 7.34691 18.7126 7.33172ZM5.92475 12.9107C5.919 12.8695 5.79105 12.6345 5.75323 12.6138C5.67246 12.5727 5.66533 12.8249 5.76894 12.9096C5.78017 12.9193 5.92909 12.9518 5.92444 12.9103C5.92455 12.9104 5.92465 12.9106 5.92475 12.9107ZM17.0299 4.87352C17.0312 4.87157 17.0329 4.87016 17.0349 4.86925C17.0332 4.87059 17.0317 4.87223 17.0299 4.87352ZM17.1937 13.8272C17.1976 13.8285 17.201 13.8302 17.2037 13.8326C17.2006 13.8309 17.197 13.8294 17.1937 13.8272ZM5.31266 11.1633C5.51041 11.0192 5.34567 10.8729 5.27281 11.0461C5.26904 11.056 5.30704 11.1439 5.31266 11.1633ZM9.4956 7.33318C10.058 6.68605 10.9795 6.21695 11.8521 6.23188C11.9579 6.23283 11.9515 6.30128 11.9806 6.30965C11.9874 6.31172 11.994 6.31304 12.0004 6.31373C12.0678 6.32114 12.1141 6.25691 12.1674 6.26476C12.4501 6.30713 12.7112 6.36541 12.9673 6.47042C13.2288 6.58433 13.0285 6.73928 13.0969 6.81832C13.221 6.97677 13.187 6.66819 13.2775 6.63989C13.4707 6.7408 13.6473 6.87337 13.8039 7.01913C13.7469 7.01033 13.6905 7.00292 13.6347 6.99572C13.7094 7.04891 13.7877 7.15499 13.6269 7.13185C13.6429 7.16587 13.6546 7.20154 13.67 7.23579C13.7343 7.15864 13.8642 7.24578 13.9118 7.20993C13.9602 7.17303 13.8802 7.12759 13.8836 7.12412C13.9372 7.06624 14.1583 7.38795 14.1653 7.4144C14.1994 7.47921 14.0694 7.52272 14.1152 7.55814C14.1912 7.61862 14.3358 7.40548 14.1752 7.72538C14.2909 7.69446 14.2522 7.73519 14.2876 7.79127C14.2924 7.79871 14.3371 7.75451 14.3408 7.75656C14.4408 7.80937 14.3 7.81774 14.2957 7.82248C14.2173 7.8952 14.3174 7.94968 14.3217 7.97445C14.3741 8.2757 14.3819 8.47975 14.4463 8.74109C14.4609 8.79626 14.5525 8.95513 14.5461 9.01512C14.5408 9.07329 14.459 9.06089 14.4287 9.09594C14.619 9.10072 14.6502 9.14937 14.543 9.26815C14.682 9.28926 14.5738 9.29851 14.6079 9.36938C14.6361 9.42655 14.8039 9.53595 14.665 9.60835C14.6769 9.52798 14.6109 9.53694 14.5664 9.45242C14.556 9.42366 14.513 9.12527 14.3777 9.17426C14.3092 9.19754 14.3887 9.27811 14.3757 9.28409C14.3015 9.3142 14.2011 9.2785 14.2268 9.23092C14.244 9.239 14.2617 9.24956 14.279 9.25897C14.358 9.14279 14.0041 9.2787 14.3094 9.14399C14.3466 9.12672 14.3882 9.12231 14.4262 9.09742C14.4084 9.09779 14.37 9.12611 14.3589 9.11096C14.3478 9.09592 14.4208 9.04498 14.3519 9.05587C14.2521 9.072 14.306 9.13108 14.3011 9.13777C14.3017 9.1377 14.3023 9.13764 14.3029 9.13757C14.2594 9.1931 14.2343 9.10074 14.2236 9.09879C14.1557 9.08491 14.113 9.11443 14.0527 9.08731C14.0186 9.07218 14.0197 9.01133 14.004 8.99346C13.9883 8.97607 13.9523 9.02151 13.9384 9.01104C13.9245 9.00088 13.9538 8.97309 13.9372 8.96109C13.93 8.95603 13.8796 8.97346 13.8768 8.97093C13.8458 8.9441 13.9583 8.92967 13.9405 8.90037C13.9287 8.88014 13.8067 8.8534 13.7956 8.90907C13.7774 8.89191 13.7619 8.8748 13.7454 8.85773C13.7364 8.87686 13.7319 8.89414 13.7196 8.91348C13.7276 8.86578 13.6362 8.88515 13.6201 8.86614C13.604 8.84736 13.6925 8.77873 13.632 8.77763C13.505 8.77835 13.6154 8.88057 13.6027 8.90569C13.598 8.91484 13.5093 8.92644 13.5056 8.92436C13.489 8.91377 13.5358 8.86941 13.5273 8.8584C13.4966 8.81972 13.4118 8.83312 13.3765 8.8049C13.2558 8.70635 13.1128 8.60336 13.0067 8.53021C12.968 8.50314 13.0045 8.41526 12.985 8.40254C12.9399 8.37392 12.8868 8.43349 12.8495 8.41173C12.7946 8.37993 12.7518 8.2735 12.707 8.23417C12.6763 8.20672 12.6121 8.2619 12.6029 8.25987C12.4694 8.22872 12.3159 8.18645 12.2062 8.17309C12.1557 8.16656 12.138 8.07904 12.1262 8.08051C12.0766 8.08768 12.0857 8.16223 12.0485 8.15327C12.0284 8.1487 12.0254 8.07797 12.0226 8.07514C12.013 8.06612 12.0061 8.074 12.0004 8.08735C11.9911 8.10909 11.9851 8.14529 11.9735 8.14737C11.8671 8.16681 11.7576 8.11952 11.6473 8.13647C11.6394 8.13763 11.6304 8.09769 11.6257 8.101C11.6063 8.11627 11.6324 8.17611 11.6119 8.18645C11.5695 8.20838 11.5212 8.21277 11.4716 8.22298C11.4667 8.22399 11.4456 8.17567 11.4347 8.17998C11.4236 8.18437 11.4344 8.23382 11.4171 8.23818C11.3718 8.24961 11.3031 8.21637 11.2555 8.23861C11.2476 8.24239 11.2693 8.30285 11.2584 8.30831C11.2242 8.32518 11.1437 8.30817 11.1136 8.32679C11.0151 8.38744 10.9588 8.48464 10.8872 8.56134C10.8703 8.5792 10.8116 8.55682 10.8016 8.56625C10.7795 8.58725 10.8364 8.60607 10.8174 8.62901C10.6642 8.81538 10.5302 9.02936 10.4813 9.27325C10.4614 9.36999 10.5056 9.49136 10.4887 9.58198C10.4866 9.59284 10.4791 9.6012 10.4693 9.60835C10.4444 9.62643 10.4049 9.63675 10.405 9.65735C10.406 9.7086 10.5048 9.71205 10.5192 9.76011C10.5306 9.79808 10.4399 9.85818 10.4542 9.90116C10.4685 9.94328 10.5658 9.94192 10.5884 9.98327C10.6069 10.0174 10.5815 10.0817 10.603 10.1196C10.8014 10.4638 11.0752 10.7024 11.3861 10.9317C11.5002 11.0139 11.644 11.0443 11.7776 11.1576C11.7905 11.1683 11.7556 11.2568 11.8056 11.2436C11.833 11.2361 11.8747 11.1609 11.9305 11.1595C11.9536 11.1589 11.9769 11.1587 12.0004 11.1588C12.3031 11.1645 12.6931 11.1976 12.9618 10.9687C13.436 10.494 12.9552 10.0412 13.9191 9.6233C13.9663 9.5967 14.1972 9.61005 14.2627 9.63038C14.2156 9.6475 14.1596 9.66209 14.1062 9.67743C14.3935 9.70904 14.3197 9.70499 14.2878 9.78921C14.2673 9.84101 14.3939 9.80886 14.4261 9.84161C14.4699 9.88219 14.5809 10.096 14.3979 10.0269C14.4286 10.0438 14.458 10.06 14.4877 10.0773C14.4906 10.2184 14.5011 10.3623 14.5043 10.5149C14.5049 10.5412 14.5607 10.5633 14.5603 10.5912C14.5591 10.6665 14.5008 10.703 14.476 10.7704C14.4622 10.807 14.5221 10.8426 14.4942 10.8877C14.4656 10.9328 14.3851 10.8858 14.4387 10.9977C14.565 11.0149 14.3836 11.1565 14.3458 11.2198C14.3411 11.2288 14.3741 11.3646 14.3336 11.3968C14.2937 11.4293 14.1961 11.4433 14.1756 11.5243C14.1658 11.5624 14.2118 11.6339 14.1881 11.666C14.1714 11.6886 14.096 11.6616 14.0699 11.6834C14.0441 11.7052 14.031 11.8 14.0211 11.8102C13.9869 11.8466 13.9929 11.7718 13.9662 11.7925C13.8377 11.8933 13.6736 11.9825 13.5571 12.0956C13.5426 12.1096 13.5978 12.1464 13.5967 12.1494C13.5188 12.2844 13.5398 12.1787 13.4813 12.1507C13.4261 12.1258 13.2166 12.2642 13.2553 12.3593C13.1936 12.2431 13.1829 12.3577 13.1698 12.3673C13.1213 12.4037 13.0894 12.2938 13.0507 12.3467C13.036 12.366 13.1013 12.4234 13.0796 12.4293C13.0245 12.4443 12.9373 12.3443 12.8666 12.3537C12.8494 12.3559 12.8604 12.4102 12.8301 12.4173C12.7996 12.4251 12.6579 12.3919 12.7445 12.4895C12.645 12.4185 12.6427 12.4717 12.5518 12.4871C12.5285 12.4907 12.4845 12.4086 12.4413 12.4432C12.4266 12.4549 12.4398 12.5395 12.4147 12.5437C12.357 12.5536 12.2931 12.4719 12.2225 12.4738C12.15 12.4757 12.077 12.4952 12.0004 12.5076C11.9355 12.5182 11.8703 12.5237 11.806 12.5092C11.7682 12.5004 11.7841 12.4156 11.7309 12.4091C11.7237 12.4086 11.6498 12.4756 11.6125 12.4633C11.5898 12.4567 11.4817 12.386 11.4603 12.3769C11.4239 12.3628 11.3996 12.4426 11.3817 12.4221C11.3303 12.3623 11.4088 12.2551 11.2964 12.4001C11.2952 12.3042 11.2513 12.3019 11.2697 12.1882C11.2118 12.302 11.2153 12.1777 11.1582 12.2033C11.1016 12.2292 10.9798 12.4431 11.058 12.1937C11.0265 12.2165 10.916 12.2312 10.8991 12.2279C10.8498 12.219 10.9024 12.163 10.8654 12.1574C10.8589 12.1563 10.8449 12.2043 10.8092 12.1825C10.785 12.1698 10.6098 12.0751 10.6038 12.0619C10.5268 11.9278 10.6913 12.0565 10.7415 12.0205C10.7394 12.0352 10.7373 12.05 10.7357 12.0648C10.7775 12.1122 10.7973 11.9972 10.7869 11.9628C10.7765 11.9284 10.7111 11.9495 10.7105 11.907C10.7104 11.8858 10.7819 11.7728 10.8001 11.8012C10.7921 11.7498 10.851 11.7326 10.8587 11.6926C10.8664 11.6496 10.759 11.5703 10.7187 11.631C10.7392 11.647 10.768 11.6616 10.789 11.6774C10.759 11.8081 10.4294 12.1239 10.4293 11.9118C10.4365 11.7622 10.5988 11.756 10.3904 11.7349C10.4095 11.7559 10.4216 11.7795 10.4393 11.7988C10.3856 11.8785 10.4132 11.7683 10.3781 11.7801C10.3604 11.7856 10.3728 11.8794 10.3132 11.8634C10.357 11.7243 10.2439 11.812 10.1781 11.7587C10.2116 11.755 10.2447 11.7508 10.2776 11.7459C10.2381 11.5849 10.493 11.7512 10.3348 11.5486C10.3604 11.5647 10.3825 11.5846 10.41 11.598C10.4305 11.5498 10.5404 11.4483 10.5505 11.4163C10.578 11.3333 10.5127 11.3431 10.4894 11.3126C10.4793 11.2995 10.5134 11.2765 10.5125 11.2754C10.4993 11.2575 10.4635 11.3042 10.4465 11.2936C10.4246 11.2801 10.4137 11.19 10.4016 11.1866C10.3689 11.1769 10.3217 11.2936 10.314 11.298C10.2601 11.3235 10.2647 11.2613 10.2133 11.3134C10.3143 11.3514 10.4957 11.5948 10.2117 11.5027C10.1874 11.6411 10.0636 11.7511 9.96513 11.6736C9.886 11.6095 9.97814 11.6095 9.99436 11.523C9.99546 11.5122 9.9349 11.3943 9.89262 11.4219C9.98408 11.3489 10.0378 11.2522 10.1463 11.1934C10.1621 11.1848 10.1874 11.2243 10.2496 11.148C10.2808 11.1097 10.3472 11.0242 10.3966 10.9865C10.3584 11.0083 10.3155 11.0328 10.2752 11.0548C10.224 11.0129 10.2545 10.9755 10.2979 10.9C10.2718 10.9211 10.1798 11.0335 10.1836 10.9674C10.1841 10.9638 10.2231 10.9315 10.2289 10.8969C10.2404 10.8267 10.2495 10.8118 10.391 10.7543C10.2669 10.7247 10.395 10.6174 10.3074 10.5627C10.1503 10.6729 10.2097 10.6839 10.2899 10.739C10.2542 10.7674 10.2178 10.7939 10.182 10.8231C10.199 10.6598 10.2262 10.7214 10.1092 10.7061C10.0801 10.7023 10.0558 10.6061 9.95744 10.695C9.93416 10.7163 9.96806 10.77 9.92311 10.7873C9.91434 10.7909 9.856 10.7325 9.86397 10.7203C9.96203 10.575 10.1188 10.6604 9.97622 10.4844C9.97232 10.4795 9.9203 10.4995 9.90838 10.4912C9.88611 10.4755 9.9457 10.4508 9.92439 10.4377C9.90322 10.425 9.81135 10.428 9.87627 10.3715C9.99624 10.2731 10.1154 10.3584 10.066 10.437C10.2409 10.3785 10.1329 10.0448 10.1202 10.0238C10.0301 9.94231 10.1043 10.094 10.0568 10.1154C10.0359 10.124 9.761 10.1962 9.95104 10.1917C10.0069 10.189 10.062 10.1185 10.0994 10.1408C10.1367 10.1621 10.0532 10.1737 10.0482 10.1775C10.0311 10.1908 10.0707 10.2142 10.0608 10.2219C9.91174 10.3444 9.65023 10.4223 10.0044 10.2094C9.90522 10.1948 9.79554 10.3317 9.72066 10.2972C9.62854 10.2509 9.74175 10.1675 9.74564 10.159C9.79023 10.0447 9.63098 10.2017 9.66399 10.0643C9.68417 9.99029 9.80611 10.1401 9.76581 9.9905C9.73557 9.86469 9.68134 9.94175 9.53165 9.95358C9.49674 9.95637 9.44333 9.88279 9.47348 9.98815C9.51247 9.98545 9.56406 9.98334 9.60058 9.98432C9.5761 10.0128 9.39189 10.0906 9.38817 10.1071C9.37028 10.1844 9.46877 10.1588 9.36203 10.227C9.4822 10.168 9.41669 10.2337 9.44798 10.245C9.56362 10.2856 9.57502 10.1883 9.49128 10.369C9.54406 10.3324 9.59686 10.2991 9.6507 10.2655C9.65728 10.2813 9.66407 10.2969 9.67096 10.3125C9.54879 10.3748 9.59629 10.4638 9.43983 10.4211C9.43645 10.5364 9.48192 10.5689 9.58736 10.5517C9.60757 10.5485 9.62064 10.56 9.62929 10.5761C9.65523 10.5617 9.73797 10.5236 9.74933 10.5219C9.84889 10.5065 9.7077 10.6071 9.64325 10.621C9.64544 10.634 9.64621 10.6447 9.64622 10.6486C9.64631 10.6736 9.57456 10.656 9.56376 10.6812C9.56016 10.6898 9.59923 10.7444 9.57846 10.7556C9.44542 10.8288 9.49158 10.6787 9.51565 10.9227C9.64017 10.8621 9.56706 10.7855 9.71095 10.7432C9.86384 10.6953 9.70045 10.8409 9.87725 10.7591C9.85119 10.778 9.82871 10.7924 9.79862 10.8132C9.91243 10.8437 9.77365 10.9249 9.75689 10.9668C9.72319 11.0495 9.86636 11.2397 9.86507 10.987C9.89318 11.0047 9.91561 11.0264 9.94274 11.0437C9.70969 11.2154 9.7901 11.1347 9.84804 11.284C9.86098 11.3164 9.76971 11.4065 9.90824 11.3363C9.79031 11.4277 9.92675 11.4492 9.91956 11.4674C9.87645 11.5971 9.58842 11.514 9.77934 11.3268C9.67417 11.358 9.7817 11.2759 9.74196 11.2521C9.68469 11.2169 9.65624 11.2225 9.69919 11.1063C9.53758 11.1212 9.81527 11.3819 9.53179 11.303C9.2303 11.267 8.66656 10.1209 8.69716 9.60835C8.69334 9.55919 8.69123 9.51779 8.68984 9.48594C8.67735 8.8511 8.75527 8.48842 9.03138 7.9752C9.05333 7.92098 9.28554 7.55131 9.36773 7.72235C9.37769 7.74718 9.33257 7.92338 9.52017 7.87523C9.44117 7.85656 9.45115 7.75746 9.44961 7.74665C9.40965 7.50273 9.31032 7.5485 9.4956 7.33318ZM10.9357 7.99364C10.7392 8.08578 10.9309 8.084 11.0413 8.30645C11.0602 8.29341 11.0792 8.2808 11.0986 8.26858C11.085 8.25918 11.0713 8.2499 11.0575 8.24075C11.0575 8.24077 11.0574 8.24078 11.0574 8.2408C11.0152 8.15939 10.9746 8.07694 10.9357 7.99364ZM13.6618 8.9972C13.6288 9.00123 13.596 9.00576 13.5637 9.00981C13.5643 8.9835 13.5642 8.95728 13.5636 8.93053C13.5848 8.9245 13.6064 8.91839 13.6277 8.91258C13.6389 8.9409 13.6491 8.96932 13.6618 8.9972ZM10.1115 10.4522C10.0477 10.5289 10.1908 10.4572 10.1501 10.5395C10.2526 10.48 10.353 10.4221 10.4555 10.365C10.4242 10.3407 10.3795 10.3513 10.39 10.3032C10.3569 10.3225 10.3238 10.3423 10.2908 10.3622C10.3011 10.3653 10.3126 10.3683 10.3219 10.3714C10.23 10.4265 10.1861 10.3668 10.1112 10.4522C10.1113 10.4522 10.1114 10.4522 10.1115 10.4522ZM10.3691 10.801C10.3689 10.8279 10.3801 10.9357 10.4262 10.9138C10.5772 10.8381 10.3501 10.719 10.5722 10.7632C10.5899 10.748 10.6081 10.7342 10.626 10.7197C10.6138 10.6916 10.6016 10.6642 10.5896 10.6366C10.5163 10.6922 10.4424 10.7448 10.3691 10.801ZM10.4005 8.53989C10.3691 8.56077 10.3594 8.73292 10.476 8.74177C10.5086 8.74618 10.4132 8.61279 10.4338 8.59354C10.4465 8.58194 10.5053 8.64254 10.4976 8.5993C10.4667 8.58016 10.4327 8.5584 10.4006 8.54011C10.4006 8.54003 10.4005 8.53996 10.4005 8.53989ZM10.0453 8.20966C10.0325 8.25266 10.0241 8.29833 10.0148 8.34192C10.1099 8.36726 10.0925 8.28571 10.2031 8.3586C10.2053 8.37305 10.2076 8.3873 10.21 8.40161C10.1816 8.39206 10.153 8.38268 10.1244 8.37361C10.166 8.44151 10.207 8.44295 10.157 8.48401C10.3479 8.55621 10.4346 8.61655 10.3245 8.42067C10.4032 8.4975 10.699 8.69027 10.5239 8.50258C10.4921 8.46668 10.4431 8.48015 10.4368 8.47637C10.3577 8.42726 10.3239 8.37299 10.249 8.32688C10.215 8.30611 10.199 8.32938 10.1516 8.30117C10.1283 8.28751 10.0826 8.21963 10.0453 8.20966ZM10.4684 8.42934C10.507 8.47141 10.6329 8.5263 10.6296 8.48785C10.6264 8.42578 10.4817 8.40123 10.4684 8.42934ZM13.662 8.99732C13.6619 8.99728 13.6619 8.99724 13.6618 8.9972C13.6619 8.99719 13.6621 8.99717 13.6622 8.99716C13.6621 8.99721 13.662 8.99727 13.662 8.99732ZM10.358 10.6705C10.4119 10.6659 10.4269 10.6999 10.4878 10.6543C10.4822 10.6724 10.4771 10.6906 10.472 10.7091C10.4905 10.6956 10.5089 10.6821 10.5272 10.6687C10.5184 10.6322 10.511 10.5959 10.505 10.5596C10.4557 10.596 10.4063 10.6326 10.358 10.6705ZM10.5759 11.0247C10.6047 11.0642 10.6487 10.9622 10.6912 10.9341C10.7331 10.9055 10.7334 10.9618 10.7792 10.9065C10.7627 10.8871 10.7459 10.8667 10.73 10.8467C10.6789 10.9059 10.6259 10.9652 10.5759 11.0248C10.5759 11.0248 10.5759 11.0248 10.5759 11.0247ZM11.7531 7.77219C11.7207 7.75416 11.7196 7.67404 11.675 7.77523C11.6751 7.77522 11.6751 7.77521 11.6752 7.7752C11.7435 7.82872 11.8155 7.87766 11.8712 7.81121C11.8272 7.73098 11.8039 7.80083 11.7531 7.77219ZM10.284 10.2606C10.2207 10.2702 10.1945 10.3472 10.2536 10.3373C10.3481 10.3196 10.3792 10.2445 10.284 10.2606ZM13.2063 7.52572C13.3589 7.39273 13.3599 7.13907 13.1931 7.16165C13.1797 7.16391 13.2282 7.25684 13.1885 7.27891C13.1847 7.28101 13.1458 7.25644 13.1241 7.27579C13.1024 7.29517 13.0858 7.35621 13.0587 7.37226C13.0124 7.40051 12.9829 7.29511 12.9382 7.34175C12.9327 7.34809 12.9388 7.44107 12.9395 7.44494C12.9573 7.50752 13.0394 7.42616 13.0462 7.42867C13.0789 7.44036 13.0362 7.51464 13.0348 7.53629C13.0318 7.57694 13.0732 7.55593 13.0737 7.5594C13.0822 7.64837 12.9932 7.57762 12.9662 7.59957C12.8951 7.65801 12.8935 7.74139 12.7948 7.74919C12.7847 7.74958 12.6993 7.70856 12.7727 7.84311C12.4902 7.94192 12.8271 7.98664 12.8789 7.97206C12.9036 7.96229 12.9192 7.87827 12.9459 7.85107C13.0079 7.78915 13.0548 7.79915 13.1107 7.69521C13.2273 7.47575 13.0883 7.58377 13.0686 7.52706C13.0976 7.48134 13.1233 7.43547 13.1561 7.39309C13.1115 7.44926 13.1959 7.53562 13.2061 7.52614C13.2062 7.526 13.2062 7.52586 13.2063 7.52572ZM12.4619 7.53599C12.4199 7.45043 12.3946 7.60519 12.3589 7.50792C12.2913 7.63922 12.3795 7.64447 12.3872 7.65456C12.4255 7.69852 12.3903 7.8474 12.443 7.81159C12.45 7.72013 12.458 7.62808 12.4619 7.53599ZM12.9049 7.75914C12.8372 7.81437 12.8963 7.84175 12.8914 7.85652C12.8435 8.01136 12.6905 7.90377 12.9049 7.75914ZM10.0175 8.56787C10.0032 8.58366 10.0765 8.60726 10.0885 8.63307C10.1007 8.65838 10.0161 8.68427 10.0596 8.70317C10.1039 8.71975 10.258 8.68368 10.2383 8.78555C10.2638 8.79378 10.2813 8.80325 10.3037 8.81204C10.3155 8.78854 10.3285 8.76515 10.3413 8.74218C10.2668 8.71947 10.1879 8.69704 10.1147 8.67831C10.0676 8.63614 10.1417 8.66277 10.142 8.66213C10.142 8.6621 10.1419 8.66206 10.1418 8.66202C10.1498 8.63274 10.0498 8.53272 10.0175 8.56787ZM11.2931 7.73645C11.231 7.55659 11.2644 7.77123 11.2586 7.79926C11.2517 7.82743 11.202 7.77227 11.2426 7.84387C11.2892 7.88497 11.299 7.75677 11.293 7.73622C11.2931 7.7363 11.2931 7.73638 11.2931 7.73645ZM12.1524 7.49146C12.1007 7.53443 12.1078 7.58408 12.0517 7.52591C12.0528 7.57192 12.0538 7.61892 12.0547 7.66422C12.0971 7.66658 12.1014 7.53306 12.1503 7.59007C12.158 7.59957 12.1325 7.70435 12.1718 7.67323C12.1661 7.61564 12.1597 7.5518 12.1524 7.49146ZM11.9194 7.65817C11.9678 7.64949 12.01 7.27649 11.908 7.44727C11.893 7.47303 11.8816 7.66527 11.9194 7.65817ZM10.3165 8.11869C10.2428 8.18727 10.3629 8.13974 10.4215 8.1612C10.3097 8.35825 10.4277 8.12811 10.5797 8.24748C10.557 8.19277 10.5063 8.06852 10.4425 8.08576C10.4159 8.09336 10.4628 8.12637 10.4616 8.12723C10.4218 8.14875 10.3574 8.08178 10.3165 8.11869ZM12.5614 7.5511C12.5572 7.55288 12.5456 7.61624 12.5317 7.62579C12.518 7.63526 12.505 7.58561 12.4931 7.62328C12.4815 7.66116 12.5202 7.70279 12.5421 7.67912C12.5642 7.6551 12.5995 7.53597 12.5614 7.5511ZM12.2191 7.32869C12.166 7.37023 12.223 7.61291 12.2304 7.613C12.3183 7.61117 12.2129 7.40261 12.2191 7.32869ZM10.2071 7.65736C10.187 7.84195 10.4102 7.91608 10.5457 7.9633C10.5361 7.93782 10.527 7.91196 10.5181 7.88639C10.5848 8.0337 10.6327 8.19293 10.6678 7.98582C10.575 8.01634 10.6061 7.93581 10.6016 7.92834C10.4284 7.70203 10.3999 7.90266 10.2072 7.65727C10.2072 7.6573 10.2071 7.65733 10.2071 7.65736ZM12.6858 7.66062C12.7305 7.67414 12.8676 7.6789 12.8596 7.54146C12.7991 7.57894 12.741 7.61872 12.6858 7.66062ZM9.37023 9.73869C9.30216 9.79268 9.30681 9.8412 9.31822 9.90347C9.41472 9.83649 9.43027 9.87289 9.45726 9.88802C9.4979 9.91121 9.48776 9.8455 9.49485 9.84481C9.59249 9.83715 9.61054 9.87542 9.60083 9.78461C9.63643 9.80474 9.6725 9.82351 9.7083 9.8416C9.70637 9.77482 9.76938 9.7537 9.84513 9.71025C9.65708 9.75882 9.77291 9.70214 9.67734 9.65534C9.62937 9.63003 9.4047 9.70956 9.37024 9.73888C9.37024 9.73882 9.37024 9.73876 9.37023 9.73869ZM10.0746 7.73289C10.0888 7.76743 10.1131 7.80913 10.1322 7.84598C10.1247 7.85939 10.1169 7.87256 10.1097 7.88606C10.086 7.867 10.0615 7.84682 10.0384 7.82887C10.0183 7.83801 10.055 7.86037 10.054 7.86744C10.0538 7.86733 10.0537 7.86723 10.0536 7.86712C10.0389 7.96812 10.015 7.98789 9.89916 7.98375C9.97261 8.04062 10.0461 8.09749 10.1195 8.15436C10.1209 8.13812 10.1227 8.12187 10.1246 8.10569C10.0903 8.06873 10.0562 8.03139 10.0225 7.99377C10.0546 7.99806 10.0862 8.00284 10.1178 8.00816C10.1126 7.9865 10.1088 7.96204 10.1034 7.94175C10.3405 8.06516 10.1122 8.05842 10.195 8.12896C10.2479 8.17235 10.3348 8.06755 10.315 8.02041C10.3122 8.0133 10.1494 7.90383 10.2598 7.93398C10.2782 7.93792 10.5764 8.2305 10.3754 7.9529C10.3478 7.91275 10.145 7.74728 10.0746 7.73289ZM9.59586 8.1286C9.8707 8.1882 9.45627 8.3389 9.72027 8.32064C9.80762 8.41628 9.81107 8.40662 9.92438 8.42792C9.93444 8.42998 9.95131 8.46881 9.95617 8.46896C10.0252 8.46871 10.0182 8.41825 10.1121 8.47449C10.1116 8.46403 10.1115 8.4543 10.1111 8.44377C10.0037 8.42168 9.97559 8.33471 9.91673 8.26582C9.88991 8.2347 9.86521 8.25058 9.8415 8.22369C9.83288 8.21367 9.87468 8.19577 9.84555 8.17448C9.77955 8.12637 9.67389 8.08539 9.59889 8.09126C9.59883 8.09122 9.59876 8.09118 9.59869 8.09113C9.59722 8.10349 9.59696 8.11616 9.59586 8.1286ZM11.2585 7.11502C11.3161 7.25238 11.3777 7.27782 11.2983 7.3774C11.312 7.40363 11.3256 7.42967 11.3389 7.45607C11.3543 7.44864 11.3694 7.44154 11.3854 7.43459C11.3234 6.99878 11.547 7.45194 11.4093 7.16681C11.3943 7.1358 11.3588 7.18341 11.3808 7.08391C11.3808 7.08384 11.3807 7.08378 11.3806 7.08372C11.3249 7.12654 11.3328 7.1789 11.2585 7.11502ZM10.9038 7.36378C10.9216 7.7007 11.1433 7.44334 11.0665 7.38973C11.0577 7.38426 10.9604 7.50266 10.9038 7.36378ZM12.007 6.83988C12.0047 6.8397 12.0025 6.8397 12.0004 6.83988C11.9352 6.84538 11.936 7.00527 11.9436 7.06352C11.9511 7.12201 11.9922 7.06592 12.0004 7.0711C12.0007 7.07127 12.0009 7.0715 12.0011 7.0718C12.0107 7.08783 12.005 7.10106 12.0004 7.11589C11.9966 7.12832 11.9935 7.14187 12.0004 7.15907C12.0015 7.16171 12.0027 7.16444 12.0043 7.16727C12.013 7.18071 12.1177 7.24342 12.1221 7.23698C12.1516 7.1983 12.1184 7.05783 12.1269 7.0424C12.157 6.99173 12.1893 7.06626 12.2026 6.99344C12.2321 6.83792 12.1485 6.99739 12.1376 6.99979C12.102 7.00553 12.1088 6.91731 12.0817 6.89869C12.0546 6.88021 12.0359 6.91025 12.0117 6.90386C12.0036 6.90174 12.0106 6.84045 12.007 6.83988ZM11.8025 7.20248C11.8604 7.07009 11.6814 6.94649 11.6624 6.98028C11.6176 7.07505 11.78 7.26403 11.8025 7.20248ZM10.0556 8.16924C10.0182 8.06498 9.87207 8.13655 9.88002 8.19343C9.91655 8.20698 10.0692 8.20325 10.0556 8.16924ZM10.2366 7.63129C10.2124 7.69184 10.4084 7.79391 10.4392 7.7639C10.3719 7.64226 10.3698 7.67913 10.3426 7.69523C10.3155 7.71146 10.2564 7.58391 10.2366 7.63129ZM12.7217 7.09235C12.7081 7.08443 12.4897 7.14798 12.5881 7.21974C12.5953 7.22416 12.7302 7.24105 12.7463 7.22508C12.7793 7.19093 12.752 7.10717 12.7217 7.09235ZM10.3413 7.28958C10.3826 7.40517 10.3581 7.42169 10.4633 7.51612C10.4634 7.5161 10.4634 7.51607 10.4634 7.51605C10.4276 7.59559 10.2502 7.37557 10.2392 7.3918C10.2031 7.44815 10.3758 7.56801 10.3889 7.64278C10.4155 7.54125 10.4814 7.66291 10.5355 7.63283C10.5472 7.62619 10.5454 7.52757 10.5241 7.48092C10.5025 7.43424 10.3904 7.32723 10.3413 7.28958ZM13.0051 7.15964C12.9555 7.0906 12.8325 7.2494 12.9062 7.30999C12.9406 7.33963 13.0336 7.20137 13.0051 7.15964ZM9.8878 11.2802C9.92039 11.2406 9.95304 11.2013 9.98566 11.1622C10.0103 11.1744 10.0353 11.1858 10.0603 11.1968C10.0358 11.192 10.0115 11.1866 9.98701 11.1807C10.0017 11.2276 9.94582 11.3033 9.88788 11.2803C9.88785 11.2803 9.88782 11.2803 9.8878 11.2802ZM11.317 12.2543C11.3272 12.3069 11.4046 12.1716 11.4015 12.1588C11.3834 12.0654 11.3047 12.1819 11.317 12.2543ZM9.63054 7.98299C9.56436 8.04372 9.80051 8.1275 9.84113 8.09853C9.78541 8.09718 9.66818 7.94954 9.63054 7.98299ZM10.7415 12.0205C10.7446 11.9985 10.7479 11.9766 10.7506 11.9543C10.7594 11.9919 10.7547 12.0114 10.7415 12.0205ZM12.747 6.87645C12.7395 6.8546 12.648 6.81591 12.6299 6.83594C12.5937 6.87752 12.6347 7.02418 12.6847 6.99489C12.69 6.99163 12.7544 6.89779 12.7468 6.8764C12.7468 6.87642 12.7469 6.87643 12.747 6.87645ZM9.8875 11.4261C9.88916 11.4244 9.8909 11.4231 9.89262 11.4219C9.89092 11.4233 9.88923 11.4248 9.8875 11.4261ZM13.2607 12.3691C13.2586 12.3659 13.2568 12.3626 13.2553 12.3593C13.257 12.3625 13.259 12.3657 13.2607 12.3691ZM12.0779 6.57143C12.0479 6.3387 11.9624 6.4619 12.0267 6.57667C12.0301 6.58266 12.0696 6.5707 12.0779 6.57143Z" fill="white"/>
</svg>