<svg width="291" height="586" viewBox="0 0 291 586" fill="none" xmlns="http://www.w3.org/2000/svg">
<g clip-path="url(#clip0_34_27226)">
<path d="M32.6375 42.6005C34.8185 40.3945 37.402 38.9064 40.2452 37.6925C41.6992 37.079 42.9585 36.0347 44.6462 36.0216C44.7111 36.0216 44.789 35.9955 44.8279 35.9433C47.2037 33.4762 50.8777 33.5806 53.4872 31.5443C54.0974 31.0744 54.9412 30.8786 55.7201 30.6567C66.0931 27.55 76.466 24.5085 87.0726 22.2895C98.0038 20.0182 109.026 18.9217 120.152 19C126.669 19.0522 133.173 19.6657 139.677 20.0573C140.015 20.0834 140.313 20.4489 140.638 20.6578H140.664C139.067 20.4489 137.483 20.1748 135.886 20.0704C127.694 19.5091 119.49 19.3002 111.298 19.966C108.896 20.1618 106.481 20.2923 104.092 20.8014C104.625 20.8014 105.17 20.8144 105.702 20.8014C108.507 20.71 111.324 20.6186 114.128 20.5142C117.335 20.3967 120.567 20.0443 123.761 20.1748C129.94 20.4359 136.107 20.9189 142.274 21.3888C147.908 21.8195 153.413 23.0074 158.904 24.2866C160.124 24.5738 161.384 24.6913 163.11 24.9524C161.825 24.3388 160.981 23.9342 160.137 23.5295L160.098 23.5687C160.826 23.6992 161.565 23.7775 162.267 23.9734C163.305 24.2605 164.24 24.2214 165.343 23.9734C167.135 23.5817 169.069 23.6862 170.939 23.8037C177.56 24.1953 183.83 26.2838 190.205 27.8894C193.606 30.1476 197.695 30.2781 201.434 31.4921C205.199 32.7191 209.094 33.6198 212.742 35.1209C215.248 36.1522 217.714 37.327 220.233 38.3712C220.376 38.4365 220.467 38.6584 220.57 38.802L220.609 38.7498C217.909 37.9274 215.248 37.0006 212.508 36.2957C208.432 35.2515 204.563 33.3587 200.279 33.0977C200.967 34.1811 200.954 34.2333 202.278 34.638C204.342 35.2645 206.446 35.7606 208.484 36.4393C211.561 37.4444 214.599 38.5279 217.649 39.6113C220.064 40.4728 222.414 41.491 224.855 42.2611C231.164 44.2453 236.708 47.7305 242.264 51.1505C245.756 53.3043 248.976 55.928 252.52 58.0166C255.96 60.0529 258.752 62.7941 261.27 65.7442C265.074 70.2084 268.943 74.6335 271.721 79.8941C273.577 83.4185 275.797 86.7601 277.615 90.3107C280.38 95.6756 282.237 101.419 284.197 107.11C286.897 114.955 288.403 123.062 289.585 131.233C290.493 137.525 291.195 143.882 290.935 150.265C290.584 158.919 290.221 167.6 288.157 176.071C286.91 181.188 285.807 186.371 283.626 191.213C282.6 193.485 281.704 195.821 280.744 198.106C280.614 198.406 280.38 198.654 279.991 198.837C280.562 197.348 281.185 195.886 281.691 194.385C283.12 190.091 284.496 185.77 285.872 181.462C286.002 181.045 286.482 180.483 285.586 180.235C285.482 180.209 285.482 179.478 285.586 179.126C287.975 171.242 289.234 163.175 289.455 154.925C289.507 152.693 289.702 150.461 289.65 148.242C289.637 147.628 290.169 146.519 288.897 146.297C288.923 145.761 288.949 145.226 288.975 144.704C288.897 144.704 288.819 144.704 288.741 144.704C288.806 145.226 288.858 145.735 288.923 146.257C288.858 146.453 288.715 146.636 288.715 146.832C288.78 151.596 286.936 156.061 286.586 160.76C286.521 161.556 286.586 162.365 286.586 163.253C286.248 162.992 286.015 162.809 285.482 162.418C285.106 164.323 284.794 165.968 284.47 167.613C284.599 167.652 284.742 167.691 284.872 167.743C285.106 167.091 285.352 166.438 285.586 165.798C285.716 165.798 285.833 165.798 285.963 165.798C285.963 166.268 286.092 166.79 285.937 167.195C285.093 169.323 284.509 171.477 284.625 173.8C283.86 174.557 283.535 175.471 283.431 176.907C284.444 175.797 284.716 174.844 284.574 173.761C284.989 173.226 285.547 172.051 285.521 171.751C285.521 171.62 285.43 171.411 285.495 171.359C286.832 170.106 286.43 168.239 287.313 166.738C287.313 167.535 287.417 168.357 287.287 169.14C287.001 170.941 286.716 172.743 286.235 174.505C286.002 175.38 286.015 176.528 284.742 176.907C284.483 176.985 284.392 177.729 284.275 178.173C283.834 179.766 283.418 181.358 282.99 182.964C282.847 182.924 282.704 182.898 282.561 182.859C282.691 182.037 282.821 181.201 283.003 180.105C282.639 180.457 282.47 180.614 282.198 180.875C281.562 177.664 283.834 175.092 284.067 171.999C283.73 172.142 283.548 172.168 283.522 172.247C282.367 175.85 281.315 179.491 280.069 183.055C278.394 187.833 277.057 192.728 274.668 197.244C273.785 198.902 273.188 200.716 272.461 202.452C272.279 202.883 272.11 203.34 271.864 203.745C269.371 207.791 266.853 211.825 264.386 215.806C266.879 214.357 268.982 211.655 270.163 208.352C270.254 208.104 270.436 207.883 270.63 207.7C271.669 206.721 272.734 205.755 273.889 204.867C272.682 207.608 271.383 210.297 269.371 212.647C269.553 212.986 269.735 213.326 269.903 213.652C268.761 215.558 267.761 217.568 266.424 219.33C264.853 221.406 263.334 223.56 261.101 225.035C260.037 225.74 259.388 226.719 259.492 228.168C258.816 228.168 258.141 227.985 257.7 228.22C257.259 228.468 257.038 229.12 256.726 229.603C255.947 230.791 255.207 232.018 254.377 233.167C254.221 233.389 253.675 233.311 253.338 233.441C253.013 233.559 252.715 233.767 252.481 234.185H253.624C252.935 235.229 252.377 236.104 251.806 236.965C251.715 236.926 251.637 236.887 251.559 236.848C251.78 236.339 252.001 235.817 252.221 235.308C252.118 235.242 252.001 235.19 251.884 235.125C250.664 236.965 249.456 238.806 248.236 240.647C249.664 240.255 251.079 240.098 251.728 238.493C252.001 237.827 252.935 237.448 253.481 236.874C255.467 234.799 257.388 232.658 259.375 230.595C261.049 228.859 262.789 227.202 264.477 225.492C264.736 225.23 265.1 224.813 265.048 224.539C264.788 223.259 265.879 223.468 266.359 223.194C266.424 222.607 266.32 221.967 266.58 221.602C268.904 218.221 271.28 214.879 273.642 211.524C273.798 211.303 273.928 211.068 274.045 210.859C274.33 211.081 274.512 211.185 274.499 211.224C273.798 213.195 273.344 215.232 272.11 217.033C270.137 219.918 267.943 222.607 265.723 225.283C264.801 226.392 264.035 227.671 263.153 228.833C262.023 230.321 260.634 231.614 259.31 232.945C257.804 234.459 256.337 235.96 255.168 237.814C254.351 239.119 252.935 240.046 251.819 241.169C251.43 241.573 251.144 242.082 250.819 242.539C250.586 242.866 250.404 243.283 250.092 243.505C247.392 245.398 245.25 247.891 243.03 250.254C240.278 253.178 237.409 256.05 235.318 259.548C235.111 259.887 234.799 260.161 234.513 260.449C231.138 263.842 227.763 267.249 224.361 270.617C223.024 271.949 221.596 273.176 220.259 274.507C219.778 274.99 219.441 275.604 219.116 276.047C218.104 276.778 217.052 277.353 216.221 278.149C213.495 280.773 210.886 283.501 208.146 286.111C207.134 287.09 205.835 287.769 204.771 288.696C203.369 289.923 202.071 291.268 200.733 292.56C200.642 292.651 200.539 292.808 200.552 292.912C200.837 294.648 199.383 295.288 198.487 296.306C196.215 298.891 194.021 301.541 191.737 304.112C187.336 309.085 183.713 314.646 179.884 320.037C179.494 320.585 179.196 321.199 178.871 321.786C175.483 327.843 171.627 333.652 168.667 339.957C167.343 342.776 166.005 345.583 164.733 348.428C164.474 349.016 164.435 349.695 164.305 350.308C166.083 351.078 166.239 351 167.005 349.708C168.135 347.789 169.303 345.896 170.484 344.003C170.601 343.82 170.874 343.729 171.263 343.455C171.134 345.687 170.381 347.475 169.498 349.199C167.304 353.532 165.019 357.827 162.877 362.187C159.371 369.34 155.827 376.493 152.543 383.751C151.011 387.119 150.05 390.76 148.804 394.259C148.544 394.977 148.466 395.838 147.285 396.504C147.804 394.194 147.973 392.118 148.778 390.33C149.544 388.646 149.154 386.91 149.687 385.278C147.064 389.755 146.052 394.807 144.234 399.637C144.182 398.762 144.143 397.888 144.078 396.909C142.858 397.47 143.442 398.827 142.572 399.728V396.869C142.416 396.843 142.261 396.817 142.105 396.791C141.806 397.966 141.482 399.128 141.235 400.316C140.988 401.464 140.807 402.613 140.3 403.723C140.495 400.316 140.69 396.909 140.885 393.502C140.742 393.476 140.599 393.449 140.456 393.436C139.924 395.12 139.275 396.778 138.872 398.488C138.236 401.177 137.717 403.905 137.224 406.62C137.029 407.704 136.522 408.461 135.484 409.087C134.757 407.782 135.068 406.438 135.03 405.158C135.004 404.219 135.185 403.279 135.211 402.339C135.224 401.804 135.276 401.19 135.042 400.733C133.355 397.431 133.939 393.906 133.978 390.447C134.017 386.792 134.173 383.15 134.341 379.495C134.38 378.634 134.744 377.785 134.848 376.911C134.965 375.958 135.328 374.914 134.147 374.052C132.991 375.814 133.082 377.825 132.654 379.783C131.42 379.26 131.044 378.268 131.057 377.081C131.057 375.201 130.59 373.334 131.083 371.455C131.187 371.063 131.057 370.606 130.849 370.175C130.2 371.259 130.291 372.46 130.265 373.621C130.161 377.524 130.2 381.44 129.966 385.343C129.888 386.623 129.161 387.876 128.733 389.142C128.499 389.834 128.201 390.512 128.045 391.23C127.513 393.645 126.786 395.982 125.708 398.24C125.436 395.904 127.188 393.515 125.28 391.27C125.098 394.415 124.28 397.405 123.579 400.407C123.384 400.381 123.203 400.355 123.021 400.329C123.021 399.611 123.073 398.893 123.008 398.175C122.969 397.731 122.865 397.117 122.579 396.922C121.969 396.517 121.671 397.157 121.346 397.587C121.281 397.679 121.112 397.692 120.996 397.731C120.801 397.574 120.593 397.405 120.307 397.183C120.048 397.64 119.814 398.057 119.464 398.684C117.971 396.582 118.944 393.906 117.309 392.118C116.322 393.136 116.75 394.285 117.036 395.355C117.685 397.783 117.815 400.211 117.114 402.639C116.906 403.37 116.465 404.036 116.14 404.728C115.971 404.701 115.816 404.675 115.647 404.649C115.296 402.443 114.959 400.224 114.608 398.018C114.491 398.018 114.375 398.018 114.271 398.031V401.543C114.141 401.582 113.998 401.634 113.868 401.673C113.414 401.047 112.739 400.472 112.57 399.767C112.219 398.345 111.272 397.47 110.207 396.413C109.753 397.835 110.051 399.506 108.429 400.42C107.974 400.342 107.338 400.237 106.455 400.081C106.871 400.89 107.169 401.464 107.52 402.13C107.117 402.469 106.728 402.809 106.364 403.122C104.482 402.626 103.69 401.138 102.872 399.31C102.664 399.728 102.561 399.898 102.509 400.081C102.457 400.263 102.444 400.472 102.405 400.733C101.834 400.864 101.262 401.007 100.483 401.19C100.003 399.532 99.5616 397.953 99.0813 396.282C98.0038 397.078 98.4971 398.201 98.1855 399.402C97.8739 398.919 97.6792 398.671 97.5494 398.397C96.0824 395.199 94.7192 392.001 94.2259 388.437C93.3561 382.263 92.1877 376.141 91.2529 369.993C90.6298 365.881 91.0322 361.743 91.2529 357.631C91.3438 355.934 92.0968 354.289 92.5122 352.605C92.655 352.018 92.7329 351.418 92.7848 350.817C92.8757 349.551 92.8238 348.259 93.0315 347.019C93.2392 345.779 93.7066 344.578 94.0961 343.259C94.4336 343.377 94.7841 343.494 95.3554 343.703C96.0045 341.654 96.6796 339.604 97.3027 337.555C98.0946 334.905 98.8476 332.242 99.6006 329.579C101.431 323.183 104.105 317.126 107.039 311.2C108.649 307.937 110.623 304.843 112.388 301.658C118.594 290.38 125.578 279.598 132.667 268.881C133.939 266.949 135.159 265.239 137.496 264.639C137.73 264.586 137.899 264.299 138.34 263.921C137.678 265.226 136.86 266.218 136.691 267.315C136.432 268.998 135.289 270.095 134.653 271.479C133.874 273.189 132.835 274.638 131.524 276.139C133.043 276.387 133.55 275.408 134.121 274.625C136.367 271.57 138.509 268.45 140.807 265.435C144.13 261.088 147.532 256.807 150.92 252.512C153.594 249.118 156.282 245.724 158.995 242.357C160.098 240.999 161.189 239.602 162.461 238.414C164.448 236.561 165.629 234.133 167.239 232.005C169.355 229.212 171.341 226.327 173.405 223.494C173.899 222.829 173.276 222.019 174.029 221.262C175.924 219.356 177.586 217.216 179.312 215.14C181.584 212.399 183.843 209.632 186.089 206.864C186.842 205.938 187.556 204.985 188.296 204.045C188.816 203.392 189.646 202.922 189.724 201.995C189.581 201.917 189.426 201.852 189.283 201.774C188.971 202.544 188.66 203.314 188.348 204.084C186.621 204.959 185.038 205.938 183.856 207.582C182.337 209.71 180.611 211.681 179.001 213.757C177.949 215.114 177.002 216.576 175.911 217.908C175.197 218.782 174.171 219.422 173.509 220.322C171.848 222.594 170.303 224.943 168.719 227.28C168.602 227.45 168.615 227.724 168.472 227.828C166.81 229.016 165.512 230.491 164.642 232.384C164.512 232.658 163.747 232.893 163.461 232.762C162.604 232.358 162.202 232.841 161.786 233.389C158.437 237.71 155.035 242.004 151.751 246.377C150.556 247.983 149.7 249.849 148.609 251.533C146.129 255.345 143.585 259.13 141.066 262.916C140.924 262.837 140.768 262.746 140.625 262.668C141.248 261.349 141.858 260.031 142.494 258.686C142.118 258.504 141.845 258.373 141.573 258.229C147.493 250.397 153.4 242.591 159.281 234.759C159.54 234.407 159.592 233.898 159.787 233.337C158.748 233.219 158.385 233.95 157.969 234.472C155.503 237.605 153.062 240.751 150.608 243.897C147.986 247.252 145.376 250.606 142.741 253.961C142.624 254.105 142.416 254.17 141.897 254.483C142.235 253.765 142.365 253.361 142.598 253.008C145.156 249.262 147.687 245.515 150.297 241.821C151.972 239.459 153.841 237.227 155.503 234.851C158.086 231.144 160.748 227.463 163.02 223.56C164.435 221.106 165.759 218.599 167.369 216.276C169.199 213.613 171.082 210.976 173.003 208.366C173.457 207.752 174.093 207.282 174.73 206.656C175.392 208.47 174.652 209.736 173.639 211.381C174.444 211.107 174.898 211.068 175.197 210.82C175.768 210.363 176.313 209.827 176.781 209.253C181.662 203.118 187.232 197.596 192.321 191.644C193.152 190.665 193.931 189.647 194.774 188.681C195.073 188.342 195.501 187.819 195.826 187.859C197.02 187.989 197.553 186.971 197.734 186.358C198.254 184.569 199.604 183.212 200.201 181.162C199.396 181.332 198.825 181.449 197.968 181.632C198.487 180.457 198.994 179.452 199.37 178.408C199.682 177.546 199.838 176.633 200.058 175.745C200.123 175.484 200.032 175.119 200.175 174.975C201.655 173.487 201.577 171.451 202.058 169.623C202.875 166.477 202.772 163.279 202.525 159.833C201.564 160.433 201.668 161.347 201.318 162L201.357 161.948C200.487 161.543 200.993 160.773 200.902 160.159C200.772 159.311 200.642 158.462 200.461 157.614C200.11 155.969 199.682 154.338 199.357 152.68C199.072 151.218 198.916 149.743 198.63 148.281C198.461 147.393 198.384 146.479 197.293 145.996C196.852 145.801 196.67 144.835 196.527 144.195C195.242 138.465 192.801 133.191 190.192 127.983C187.816 123.231 184.726 118.963 181.442 114.838C179.507 112.41 177.235 110.308 174.574 108.625C173.457 107.92 172.639 106.745 171.536 106.014C169.186 104.461 166.797 102.92 164.305 101.602C154.724 96.5371 144.442 94.0048 133.692 93.3391C122.411 92.6472 111.207 93.4304 100.094 95.5451C94.5375 96.6024 88.955 97.5553 83.3986 98.5865C82.6196 98.7301 81.3863 98.456 81.607 99.9963C81.607 100.009 80.8021 100.179 80.8021 100.166C80.4386 98.8215 79.5298 99.4741 78.8677 99.696C75.1548 100.897 71.4158 102.059 67.7548 103.429C61.5103 105.766 55.3177 108.259 49.0991 110.687C48.9174 110.765 48.6707 110.935 48.5409 110.87C47.3855 110.308 46.7363 111.092 46.0483 111.901C45.3083 111.131 45.8925 110.752 46.3079 110.361C48.6577 108.102 51.2672 106.236 54.1882 104.787C55.084 104.343 55.9279 103.795 57.1222 103.103C56.3823 102.842 55.9409 102.685 55.3696 102.489C55.6423 102.098 55.9019 101.719 56.1616 101.341C55.9279 100.845 55.6942 100.323 55.4995 99.9049C55.8889 99.435 56.2005 99.0564 56.4861 98.704C53.1496 98.5082 50.7479 100.688 47.8918 101.667C43.7893 103.09 39.6869 104.591 35.7922 106.497C32.7284 107.998 29.5217 108.912 26.341 109.982C25.5881 110.243 24.887 110.661 24.121 110.935C22.3684 111.562 20.6028 112.136 18.8502 112.736C17.9025 113.063 16.8899 113.272 16.02 113.741C13.826 114.903 11.6709 116.169 9.51587 117.396C9.39902 117.462 9.30815 117.579 9.17832 117.618C7.84114 118.127 6.51694 118.623 5.10186 119.146C5.19273 117.37 6.34817 115.948 7.24395 114.538C9.87937 110.426 12.9043 106.601 16.6951 103.508C18.7723 101.811 21.1351 100.44 23.4849 99.1348C28.1326 96.5371 32.8322 94.0178 37.5708 91.6029C41.2188 89.7363 44.9837 88.0785 48.6967 86.3294C50.4883 85.494 52.2798 84.6455 54.1882 83.7579C53.2275 83.2879 52.2668 82.8311 50.9167 82.1784C48.6058 83.301 45.8795 84.6063 43.1792 85.9117C43.0623 85.9769 42.9455 86.1075 42.8287 86.1075C40.9852 86.2119 39.4273 87.1126 37.8045 87.8436C37.415 88.0133 36.8308 87.7522 36.1947 87.6869C36.5062 87.1517 36.7269 86.7601 36.9476 86.3685C34.442 87.3475 31.9884 88.3657 30.1708 90.4281L30.2357 90.3629C28.5091 90.7023 27.2758 91.8901 25.8866 92.843C24.7831 93.6001 23.6407 94.305 22.5242 95.036C21.5895 95.6495 20.5249 96.1325 19.759 96.9157C17.526 99.2392 13.9948 99.448 11.8787 101.928C11.7618 102.059 11.5152 102.098 11.2166 102.228V101.119C10.178 101.576 9.36008 101.902 8.78885 103.012C8.03588 104.474 6.58185 105.205 4.42677 105.309C5.23168 104.265 5.81589 103.586 6.3222 102.842C6.81553 102.124 8.17868 101.811 7.45167 100.466C7.39974 100.375 7.75026 100.062 7.93202 99.8657C8.37342 99.3958 8.81482 98.9389 9.08745 98.2732C8.0878 99.0303 7.10114 99.7874 6.07554 100.571C5.86782 100.088 5.6601 99.6308 5.40045 99.0303C6.42606 97.738 7.5036 96.3805 8.63307 94.9838C8.12675 94.8532 7.7243 94.8141 7.39974 94.6313C7.32184 94.5922 7.4257 93.9656 7.60746 93.7698C8.30851 93.0649 9.10043 92.4384 9.84043 91.7465C10.4376 91.1983 10.9699 90.7806 11.2425 89.7624C11.5541 88.6137 12.8653 87.6869 13.8779 86.7993C14.7478 86.0422 15.6306 85.3634 15.9811 84.1756C16.0979 83.797 16.5653 83.3532 16.9548 83.2618C20.2263 82.4786 22.5632 80.129 25.2635 78.3799C26.5617 77.5445 27.808 76.6307 28.9894 75.5212C28.587 75.5995 28.1456 75.5995 27.7691 75.7561C24.7702 76.8918 21.5635 77.5967 19.0969 79.881C18.6035 80.3379 18.0453 80.7034 17.526 81.1211C15.3579 82.9355 13.2029 84.776 11.0218 86.5643C10.6324 86.8776 10.139 87.0604 9.65867 87.3084C9.13938 85.0632 11.3204 84.6455 12.3201 83.1444C11.1127 83.0791 10.3208 83.3271 9.7885 84.0059C8.81482 85.2068 7.945 86.473 7.02325 87.713C6.5429 88.3657 6.04957 89.0314 5.59519 89.6449C4.1152 89.0314 4.95905 88.3788 5.16677 87.7522C6.15343 84.8413 8.19166 82.57 9.80148 80.0246C9.94429 79.8027 10.178 79.5938 10.2299 79.3458C11.0997 75.6778 13.9039 73.4979 16.4355 71.1222C16.5393 71.0308 16.6432 70.9525 16.7471 70.8742C17.4351 70.2998 17.0456 69.0206 18.279 68.7334C19.1748 68.5246 19.9797 68.0024 21.0702 67.5064C20.6028 67.2975 20.3562 67.1801 19.9537 66.9973C20.8754 65.7442 22.4203 65.7572 23.5498 65.0785C22.4982 64.243 22.4723 64.1908 21.6544 64.7521C18.6035 66.8146 15.1113 68.2243 12.5667 71.0047C10.4766 73.289 7.65939 74.0984 4.7773 75.1035V73.6154C3.66081 74.1114 2.66117 74.5683 1.54469 75.0774C1.34995 74.6205 1.19416 74.268 1.02539 73.8895C1.27206 73.7459 1.46679 73.5501 1.59662 73.5893C3.73871 74.2419 4.49169 72.5189 5.53028 71.2788C5.27063 68.9814 7.16606 67.911 8.34745 66.4752C9.59376 64.974 10.918 63.486 12.4239 62.272C15.319 59.9615 18.3828 57.8599 21.3688 55.68C22.3944 54.936 23.42 54.1919 24.2898 53.0955C23.6926 53.3826 23.0695 53.6306 22.5112 53.97C20.8495 54.9882 19.1877 55.9933 17.5909 57.1028C16.3835 57.9383 15.2671 58.9173 14.1506 59.8702C13.2158 60.6534 12.333 61.4757 11.4243 62.2981C9.25622 64.2561 7.08816 66.2011 4.80326 68.2504C4.71239 67.0626 5.50431 66.4491 6.03659 65.7442C9.67166 60.9797 14.566 57.7686 19.5902 54.701C22.7449 52.7691 25.8347 50.7458 29.0414 48.7095C28.6779 47.7827 28.3922 47.0648 28.0807 46.2685C29.2101 45.3679 30.3136 44.4933 31.4171 43.6318C31.8196 43.3185 32.2091 43.0052 32.6115 42.705L32.6375 42.6005ZM175.95 230.517C175.522 231.131 175.106 231.744 174.678 232.358C175.392 231.927 176.326 231.614 175.937 230.504C176.963 230.804 177.274 230.204 177.586 229.081C176.872 229.708 176.404 230.112 175.95 230.517ZM164.785 46.4774C162.903 46.6079 161.007 46.7254 159.112 46.8559C163.214 47.5869 167.291 47.9133 171.341 48.4876C174.457 48.9314 177.521 49.6885 180.611 50.3281C183.233 50.8633 185.856 51.3985 188.452 52.012C190.867 52.5864 193.398 52.3906 195.761 53.3435C197.358 53.9961 199.124 54.205 200.733 54.8185C202.434 55.4581 204.031 56.3327 205.68 57.1159C206.874 57.6903 207.952 58.5648 209.457 58.1732C209.834 58.0819 210.327 58.4473 210.769 58.5909C211.145 58.7084 211.574 58.9956 211.885 58.8912C212.937 58.5518 213.313 59.2044 213.82 59.8963C214.326 60.5881 214.871 61.3713 215.585 61.776C218.337 63.3424 221.155 64.7913 223.972 66.2402C227.75 68.1852 231.541 70.091 235.331 72.0098C235.604 72.1534 235.89 72.2578 236.162 72.3884C236.136 71.9968 236.006 71.7749 235.812 71.6443C230.904 68.0677 226.049 64.3997 220.739 61.4105C212.417 56.7374 203.576 53.2521 194.619 50.0671C193.801 49.7799 192.905 49.7407 192.087 49.4797C190.438 48.9575 188.79 48.4354 187.206 47.7436C186.024 47.2214 184.765 47.2475 183.571 46.9473C180.637 46.2163 177.729 45.3548 174.808 44.6108C173.769 44.3497 172.704 44.193 171.64 44.0886C169.978 43.932 168.316 43.8667 166.655 43.7362C166.057 43.684 165.473 43.4751 164.863 43.4098C160.722 42.9791 156.593 42.5353 152.452 42.1437C150.063 41.9218 147.674 41.7912 145.286 41.6215C149.881 42.8224 154.49 43.7623 159.073 44.8196C160.994 45.2634 162.864 45.9683 164.759 46.5427L164.798 46.4904L164.785 46.4774ZM210.12 40.747C211.833 41.4388 213.274 42.0915 214.78 42.6005C218.221 43.7753 221.505 45.2373 224.543 47.2867C225.763 48.1091 227.178 48.9445 228.853 48.4223C229.152 48.331 229.541 48.3832 229.84 48.4876C231.774 49.1664 233.812 49.6885 235.617 50.6414C238.46 52.1556 241.109 54.0484 243.926 55.6278C246.626 57.142 249.08 58.9434 251.404 60.9667C252.52 61.9457 253.637 62.9116 254.805 63.8253C255.441 64.3214 256.181 64.6608 256.856 65.1176C257.505 65.5614 258.102 66.0705 258.726 66.5535C258.816 66.436 258.894 66.3185 258.985 66.188C256.48 63.8776 254.052 61.4627 251.43 59.3089C249.404 57.6511 247.145 56.2805 244.951 54.8446C243.095 53.6306 241.238 52.3775 239.278 51.3463C236.006 49.6363 232.618 48.1482 229.347 46.4382C224.309 43.8145 218.922 42.1306 213.599 40.2509C213.119 40.0812 212.132 39.9768 212.119 40.016C211.82 41.2299 211.002 40.0551 210.107 40.7078L210.12 40.747ZM190.153 209.671C192.074 208.822 192.853 206.616 195.099 205.977C194.216 207.23 193.489 208.248 192.723 209.345C193.217 209.593 193.554 209.762 193.814 209.906C194.008 209.788 194.073 209.749 194.125 209.71C195.398 208.653 196.462 207.204 198.461 207.504C198.721 207.543 199.149 207.112 199.357 206.799C199.838 206.107 200.227 205.363 200.681 204.619C199.098 203.98 198.799 206.499 197.15 205.729C198.565 203.379 201.305 202.243 202.434 199.789C201.902 199.346 201.434 198.954 200.967 198.562C197.423 201.082 190.984 207.648 190.166 209.684L190.153 209.671ZM283.081 107.828C283.171 108.324 283.223 108.833 283.34 109.329C284.171 112.815 285.08 116.287 285.833 119.785C286.69 123.819 287.663 127.813 287.962 131.964C288.196 135.371 288.871 138.739 289.338 142.133C289.208 130.332 287.105 118.898 283.094 107.828H283.081ZM191.23 83.9145C190.971 83.4185 190.906 83.2227 190.789 83.0791C189.75 81.7607 188.244 81.4996 186.725 81.0819C179.858 79.1761 173.029 77.1137 166.187 75.1557C164.435 74.6466 162.63 74.2942 160.851 73.8634C160.813 74.007 160.787 74.1375 160.748 74.2811C170.978 76.8526 181.013 80.0246 191.243 83.9145H191.23ZM175.054 43.4098C172.276 41.2952 163.915 39.3502 161.669 40.0943C163.772 40.6034 165.915 41.1255 168.057 41.6476C170.264 42.1959 172.471 42.7572 175.041 43.3968L175.054 43.4098ZM157.917 30.0954C158.242 28.9075 157.878 28.281 156.84 28.2549C155.788 28.2288 154.659 28.6465 153.711 28.3593C151.764 27.7588 149.894 28.046 147.506 28.2288C151.245 28.8945 154.516 29.4819 157.904 30.0823L157.917 30.0954ZM118.204 351.914C116.984 352.005 116.88 352.723 116.802 353.624C116.595 355.947 117.101 358.375 115.958 360.607C115.842 360.842 116.114 361.273 116.257 361.795C117.296 359.954 118.191 355.281 118.204 351.914ZM258.128 225.244C260.076 223.964 263.282 219.618 263.516 217.921C261.66 219.343 258.492 223.638 258.128 225.244ZM142.416 43.9189C142.378 44.0886 142.339 44.2714 142.3 44.4541C145.221 44.9893 148.155 45.5245 151.076 46.0597C150.037 44.6891 148.518 44.6891 147.116 44.428C146.22 44.2583 145.273 44.3105 144.351 44.2322C143.702 44.1669 143.053 44.0364 142.404 43.945L142.416 43.9189ZM120.814 344.212C119.905 345.948 119.152 347.371 118.373 348.872C120.502 349.133 121.035 348.115 120.814 344.212ZM142.455 36.0086C145.208 36.857 147.648 37.1312 149.284 36.7787C147.934 35.865 145.623 35.6039 142.455 36.0086ZM90.6428 23.882C93.1613 24.9524 95.2645 24.4824 95.7189 22.8508C93.9403 23.2163 92.2915 23.5426 90.6428 23.882ZM150.998 31.6879C151.011 31.4921 151.037 31.2963 151.05 31.1005C148.635 30.6306 146.246 29.9387 143.689 30.5131C146.129 30.9047 148.557 31.2963 150.998 31.6879ZM229.619 214.24C229.463 214.161 229.308 214.083 229.165 213.992C227.944 216.367 226.711 218.756 225.491 221.132C225.634 221.21 225.763 221.275 225.906 221.354C227.139 218.978 228.386 216.602 229.619 214.24ZM155.217 36.4132C156.697 36.9223 158.164 37.4836 159.774 37.2878C158.385 36.2827 156.827 36.1913 155.217 36.4132ZM218.324 218.639C219.701 217.359 220.064 216.041 220.038 214.579C219.441 215.793 217.922 216.589 218.324 218.639ZM136.068 40.3554C136.068 40.2248 136.094 40.1073 136.094 39.9768C134.199 39.8071 132.29 39.6505 130.395 39.4808C130.395 39.6113 130.369 39.7418 130.356 39.8724C132.251 40.029 134.16 40.1987 136.055 40.3554H136.068ZM151.984 46.0727C155.126 46.9865 155.412 46.9995 156.411 46.1641C155.723 46.1641 155.087 46.2816 154.529 46.138C153.88 45.9553 153.309 45.5375 152.608 45.1721C152.413 45.4592 152.218 45.7464 151.997 46.0858L151.984 46.0727ZM199.487 36.2044C198.306 35.1732 196.177 34.6641 194.787 34.9251C196.488 35.3951 197.994 35.7997 199.487 36.2044ZM57.3559 80.364C57.317 80.2465 57.2651 80.116 57.2261 79.9985C55.8889 80.4554 54.5388 80.9122 53.2016 81.3821C53.2535 81.5388 53.3184 81.7085 53.3703 81.8651C54.6945 81.3691 56.0317 80.8731 57.3559 80.377V80.364ZM180.286 226.418C181.299 225.727 182.376 225.126 183.337 223.716C181.558 224.265 180.805 225.23 180.286 226.418ZM136.029 405.667C136.185 404.297 136.341 402.926 136.484 401.543C135.679 402.848 135.484 404.219 136.029 405.667ZM156.97 68.0416C156.944 68.1199 156.892 68.1852 156.905 68.2504C156.905 68.2896 156.983 68.3549 157.022 68.3549C158.086 68.4985 159.164 68.642 160.475 68.8117C159.255 67.898 158.177 67.6239 156.97 68.0416ZM13.0341 96.5241C11.6839 96.7199 10.866 97.5031 10.126 98.952C11.2945 97.973 12.1643 97.242 13.0341 96.5241ZM203.68 37.4314C202.521 36.7091 201.504 36.4219 200.629 36.5699C201.824 36.9093 202.746 37.1703 203.68 37.4314ZM203.122 38.2799C203.083 38.3973 203.044 38.5148 203.018 38.6193C203.875 38.8934 204.745 39.1675 205.602 39.4286C205.628 39.3372 205.654 39.2458 205.68 39.1544C204.823 38.8542 203.979 38.567 203.122 38.2668V38.2799ZM212.002 227.985C212.928 227.854 213.378 227.271 213.352 226.236C212.833 226.901 212.417 227.45 212.002 227.985ZM128.136 25.7356C128.136 25.6442 128.11 25.5659 128.11 25.4745H126.137C126.137 25.5659 126.137 25.6442 126.15 25.7356H128.136ZM119.671 33.7112C119.645 33.5545 119.632 33.3979 119.606 33.2413C118.84 33.3065 118.062 33.3718 117.296 33.4501C117.309 33.6198 117.322 33.7895 117.335 33.9592C118.113 33.8809 118.892 33.8026 119.671 33.7112ZM195.151 211.303C194.982 211.185 194.813 211.055 194.658 210.937C194.229 211.485 193.801 212.034 193.372 212.582C193.515 212.686 193.645 212.804 193.788 212.908C194.242 212.373 194.71 211.838 195.164 211.316L195.151 211.303ZM256.973 212.634C256.869 212.53 256.778 212.412 256.674 212.308C256.363 212.673 256.051 213.039 255.74 213.404C255.792 213.456 255.844 213.509 255.908 213.561C256.259 213.247 256.609 212.934 256.96 212.634H256.973ZM186.557 220.335C186.66 220.362 186.777 220.401 186.881 220.427C187.089 220.074 187.31 219.709 187.517 219.356C187.426 219.304 187.323 219.239 187.232 219.187C187.011 219.565 186.777 219.944 186.557 220.335ZM200.11 37.8752C200.175 37.7838 200.24 37.6925 200.305 37.6011C199.773 37.4575 199.24 37.3139 198.708 37.1834C198.708 37.2356 198.682 37.2748 198.669 37.327C199.149 37.5097 199.63 37.6925 200.11 37.8752ZM192.762 195.808C192.879 195.9 193.009 195.991 193.126 196.082C193.294 195.769 193.476 195.456 193.645 195.129C193.567 195.077 193.489 195.038 193.411 194.986C193.191 195.26 192.983 195.521 192.762 195.795V195.808ZM160.047 29.6385C160.073 29.521 160.098 29.3905 160.137 29.273C159.865 29.1947 159.579 29.1033 159.307 29.025C159.281 29.1164 159.229 29.2991 159.242 29.2991C159.514 29.4166 159.787 29.521 160.06 29.6385H160.047ZM197.916 208.431C196.826 208.261 196.605 208.587 196.981 209.632C197.332 209.175 197.579 208.875 197.916 208.431ZM279.861 99.2783C279.939 99.2392 280.017 99.2 280.095 99.1609C279.952 98.8737 279.796 98.5865 279.653 98.2993C279.575 98.3385 279.51 98.3777 279.433 98.4168C279.575 98.704 279.718 98.9912 279.861 99.2783ZM12.7485 90.8197C12.6706 90.7153 12.5927 90.6239 12.5148 90.5195C12.2292 90.7806 11.9566 91.0416 11.6709 91.3027C11.7359 91.368 11.8008 91.4333 11.8657 91.5116C12.1643 91.2766 12.4499 91.0417 12.7485 90.8197Z" fill="#00AA8B"/>
<path d="M140.379 460.544C141.326 462.28 142.975 461.666 144.663 462.006C144.014 460.544 142.417 461.418 141.807 460.191C142.819 460.296 143.728 460.4 144.624 460.505C144.663 460.4 144.702 460.296 144.741 460.191C143.715 459.774 142.689 459.356 141.664 458.925C141.703 458.821 141.729 458.716 141.768 458.625C146.247 459.695 150.79 460.531 155.165 461.914C158.463 462.946 161.799 464.12 164.734 466.104C164.954 466.261 165.344 466.339 165.396 466.535C165.941 468.258 167.525 468.963 168.745 470.086C165.564 469.524 163.007 467.41 159.774 466.653C159.58 467.41 159.411 468.102 159.216 468.833C159.541 469.068 159.787 469.394 160.073 469.446C161.774 469.733 163.046 470.83 164.11 471.965C165.811 473.806 168.018 474.485 170.173 475.359C171.77 476.012 173.354 476.704 175.249 477.513C175.626 477.226 176.314 476.717 177.015 476.182C178.534 476.612 180.131 477.056 181.727 477.513C181.922 477.565 182.195 477.591 182.286 477.722C182.831 478.518 183.337 479.354 184.038 480.45C179.871 480.267 176.236 479.354 172.51 478.57C172.172 479.458 172.757 479.797 173.276 479.98C174.172 480.267 175.145 480.294 176.015 480.633C178.053 481.416 180.209 481.664 182.312 482.173C183.078 482.356 183.779 482.761 184.519 483.074C183.428 485.019 183.285 485.032 181.688 483.648C181.442 483.439 181.091 483.348 180.806 483.165C179.732 482.504 178.837 482.795 178.118 484.04C178.923 485.384 181.507 483.557 181.701 486.181C181.312 486.272 180.858 486.52 180.481 486.442C179.196 486.181 177.963 486.285 176.703 486.611C176.327 486.716 175.859 486.533 175.457 486.389C174.925 486.194 174.431 485.906 173.912 485.658C173.834 485.763 173.743 485.867 173.665 485.972C173.873 486.22 174.042 486.651 174.276 486.69C175.833 486.938 176.093 488.243 175.885 489.287C175.6 490.762 176.483 492.224 175.743 493.66C175.613 493.908 175.885 494.483 176.132 494.77C177.391 496.271 177.313 498.177 177.807 499.913C178.04 500.735 178.235 501.649 178.742 502.302C179.767 503.62 180.04 505.186 180.04 506.674C180.04 508.032 179.339 509.39 178.91 510.734C178.235 512.836 177.534 514.911 176.911 516.83C177.547 517.626 178.014 518.214 178.482 518.801C178.002 519.18 177.534 519.558 177.054 519.937C176.119 521.947 176.288 524.075 177.443 526.046C176.638 526.594 175.924 527.064 175.236 527.56C173.912 528.513 173.912 528.996 175.223 530.144C175.418 530.314 175.548 530.536 176.002 531.097C175.34 530.888 175.055 530.862 174.847 530.719C174.289 530.34 173.834 530.471 173.432 530.941C173.211 531.189 172.964 531.45 172.822 531.75C171.913 533.708 171.03 535.679 170.173 537.65C170.108 537.807 170.186 538.042 170.199 538.264C170.952 538.668 171.705 539.073 172.367 539.425C172.185 540.3 171.77 541.083 171.978 541.631C172.211 542.232 172.99 542.65 173.575 543.106C174.159 543.563 175.132 543.576 175.34 544.503C174.6 545.221 173.977 544.647 173.393 544.477C172.315 544.177 171.342 543.955 170.433 544.947C170.069 545.339 169.394 545.417 168.732 545.704C169.173 547.623 171.082 548.028 172.146 549.228C173.146 550.351 174.483 551.173 175.898 552.322C174.886 552.27 174.25 552.231 173.6 552.192C173.536 552.335 173.484 552.492 173.419 552.635C175.327 554.554 178.599 555.089 179.352 558.327C179.183 558.431 178.988 558.588 178.767 558.692C177.742 559.188 177.625 559.41 178.235 560.285C178.729 561.003 179.469 561.603 178.91 562.647C177.651 562.921 176.457 562.621 175.236 562.177C174.172 561.786 173.042 561.603 171.692 562.151C172.159 564.671 173.198 567.216 171.965 569.735C170.121 568.874 168.408 567.921 166.59 567.294C164.759 566.668 162.825 566.263 160.917 565.95C160.112 565.819 159.229 566.172 158.385 566.276C158.151 566.302 157.879 566.328 157.658 566.237C156.1 565.637 156.113 565.624 155.438 567.151C155.386 567.268 155.295 567.373 155.217 567.477C153.867 568.117 153.504 567.033 152.997 566.041C152.154 566.655 151.401 566.655 150.583 566.093C150.154 565.793 149.557 565.754 149.077 565.519C147.973 564.997 147.077 565.154 146.156 566.041C144.13 567.973 141.482 568.9 138.86 569.07C137.094 569.187 135.354 568.874 133.745 569.866C132.239 569.383 130.577 569.161 129.655 567.608C129.383 567.151 129.162 566.642 128.889 566.185C127.033 563.104 124.592 562.987 122.515 565.858C119.555 566.146 116.608 566.381 113.674 566.746C112.09 566.942 110.493 567.033 108.987 567.751C108.39 568.038 107.429 567.451 106.689 567.582C105.988 567.699 105.391 568.352 104.69 568.561C103.807 568.822 102.86 568.874 101.951 569.017C101.886 569.017 101.821 569.109 101.769 569.096C99.2374 568.286 96.9266 569.487 94.2132 570.14C94.5508 569.657 94.6287 569.37 94.8104 569.305C97.1602 568.326 99.4581 567.099 101.912 566.498C104.833 565.767 107.884 565.597 110.87 565.154C112.311 564.945 113.739 564.684 115.128 564.24C107.52 563.783 100.172 565.676 92.5255 566.824C93.616 564.932 95.862 564.971 96.8357 563.274C93.8627 562.713 90.8119 564.175 89.241 566.798C88.462 568.104 87.5403 569.292 87.3456 570.949C87.2547 571.719 86.294 572.398 85.4501 573.469C85.1515 571.628 84.9308 570.244 84.6322 568.404C84.0091 569.213 83.6715 569.657 83.308 570.127C83.1393 570.075 82.8277 570.049 82.8017 569.944C82.6849 569.448 82.5551 568.939 82.594 568.443C82.6589 567.777 82.9575 567.125 83.0094 566.459C83.0744 565.545 83.321 564.475 81.7891 564.423C81.5165 564.423 81.2568 563.9 80.9712 563.6C80.4 563.861 79.8677 564.096 79.0109 564.488C79.2186 563.861 79.2316 563.418 79.4393 563.248C80.0105 562.791 80.6726 562.438 81.3088 562.047C82.4642 561.329 82.7238 560.337 82.1786 558.81C81.0361 559.932 80.0235 560.924 78.8161 562.125C78.2319 561.277 77.7646 560.585 77.3102 559.932C76.1418 560.507 74.9734 561.068 73.8309 561.629C72.299 560.141 72.1821 560.115 70.3386 561.133C69.5208 561.577 68.7418 562.099 67.846 562.647C67.2878 561.016 67.2878 559.488 67.6902 557.974C68.0797 556.486 68.612 555.05 69.1183 553.471C66.2752 552.466 63.9254 554.776 61.1601 554.306C60.0955 552.4 63.0815 551.748 62.6531 549.868C62.2376 549.711 61.7703 549.542 61.2769 549.359C61.2769 549.124 61.1991 548.876 61.2769 548.732C62.4454 546.84 63.6268 544.986 65.9636 544.255C67.145 543.89 68.0278 542.924 68.5341 541.971C67.7811 541.122 67.0931 542.284 66.2102 542.023C66.4309 541.671 66.5478 541.24 66.8204 541.083C68.0537 540.352 69.1572 539.543 70.2218 538.525C71.7667 537.063 73.792 536.11 75.6225 534.948C76.5053 534.387 76.6091 533.473 76.5183 532.612C76.3365 530.849 76.2846 529.126 76.6611 527.377C76.8947 526.294 76.726 525.21 75.3369 525.08C74.9993 523.644 77.3621 523.252 76.2456 521.647C75.5965 521.908 74.8825 522.195 74.1814 522.482C74.3502 521.046 74.519 519.597 74.6618 518.266C73.8699 517.443 73.3376 517.953 72.7534 518.292C71.9485 518.762 71.1436 518.984 70.5593 518.005C70.7411 516.726 73.1299 517.43 72.6235 515.59C70.4685 515.786 68.8457 517 67.106 517.94C66.4699 518.292 65.9506 518.279 65.5092 517.705C65.0159 517.065 65.2106 516.295 66.1713 516.021C67.7811 515.551 67.9369 514.324 68.0018 513.018C68.0148 512.666 67.7681 512.052 67.5474 512C66.379 511.726 66.4439 510.63 65.8078 509.651C67.2359 509.22 68.9495 510.277 70.079 508.567C69.7934 508.371 69.4818 507.954 69.1572 507.954C68.599 507.954 68.0148 508.084 67.872 507.366C67.7292 506.661 68.2615 506.518 68.8197 506.322C69.6116 506.035 70.4165 504.494 70.0271 503.672C69.0404 501.597 70.2088 500.383 71.4811 499.09C71.9095 498.66 72.5197 497.889 72.3769 497.511C72.0004 496.401 71.1565 497.537 70.4555 497.393C70.0011 496.636 70.4555 496.258 71.0527 496.036C71.7148 495.788 72.4418 495.566 72.3249 494.718C72.2081 493.882 71.9744 493.008 71.559 492.277C71.3902 491.976 70.6372 491.963 70.1309 491.898C69.7285 491.833 69.3001 491.898 68.6639 491.898C69.2611 490.658 71.3772 490.619 70.5464 488.804C69.9881 488.778 69.4169 488.752 68.5471 488.713C68.9365 487.682 69.2481 486.846 69.5727 485.998C69.339 485.358 69.0664 484.679 68.8197 483.988C68.2095 482.238 67.2748 481.664 65.4183 481.912C64.5096 482.03 63.6008 482.173 62.5622 482.33C62.4583 480.842 63.2373 480.515 64.2369 480.359C64.9769 480.241 65.7169 480.072 66.9113 479.85C66.0804 479.066 65.6131 478.636 65.0808 478.127C64.1331 478.688 63.1854 479.08 62.4454 479.706C60.9524 480.985 60.9913 481.038 59.3296 479.354C61.6664 478.505 63.8734 477.709 66.2622 476.847C65.0938 475.137 63.7825 476.678 62.5622 476.221C62.6531 475.098 62.8868 474.054 64.0941 473.558C65.0159 473.179 65.3145 472.396 65.652 471.561C66.3141 469.942 67.0411 468.35 67.7681 466.77C68.9365 464.225 71.2214 462.972 73.6492 462.162C75.8562 461.418 78.219 461.079 80.5428 460.726C81.7631 460.544 82.8017 460.139 83.5028 459.199C84.3336 458.077 85.3982 457.789 86.6705 457.803C87.9557 457.803 89.241 457.803 90.5133 457.685C91.8375 457.541 93.1487 457.241 94.4729 457.019C97.2381 456.562 99.9774 456.027 102.834 456.576C104.651 456.928 106.559 456.797 108.416 456.993C111.921 457.359 115.413 457.933 118.958 457.789C120.645 457.724 122.307 457.463 123.995 457.398C125.708 457.333 127.435 457.385 129.149 457.411C129.383 457.411 129.616 457.633 130.291 457.972C128.058 458.181 126.28 458.351 124.488 458.534C124.488 458.69 124.488 458.834 124.475 458.99C126.176 458.625 127.565 460.244 129.344 459.46C129.525 459.382 129.837 459.604 130.097 459.695C132.109 460.413 134.095 461.144 136.12 461.823C136.886 462.084 137.626 462.188 138.379 461.549C138.899 461.105 139.652 460.935 140.34 460.622L140.379 460.544ZM70.6762 504.26C71.7667 503.463 72.5716 502.993 73.2337 502.38C73.8828 501.766 73.8958 500.996 73.3246 500.187C71.8316 501.022 71.2085 502.288 70.6892 504.26H70.6762ZM157.931 468.258C158.009 468.063 158.087 467.88 158.151 467.684C156.568 467.057 154.971 466.418 153.387 465.791C153.322 465.948 153.257 466.105 153.192 466.261C154.685 467.123 156.178 467.984 157.931 468.258ZM118.127 564.083C120.425 565.062 121.489 565.036 122.58 564.083H118.127ZM150.297 466.653C149.925 465.826 149.38 465.378 148.661 465.308C149.129 465.687 149.544 466.026 150.297 466.653ZM75.5705 515.198C75.1681 515.016 74.8305 514.794 74.7656 514.859C74.5579 515.055 74.4281 515.355 74.3372 515.629C74.3242 515.668 74.6877 515.955 74.7656 515.916C75.0123 515.773 75.207 515.538 75.5705 515.198ZM175.21 491.023C175.106 490.319 175.158 490.031 175.029 489.901C174.873 489.718 174.587 489.653 174.353 489.535C174.289 489.627 174.224 489.705 174.159 489.796C174.405 490.084 174.652 490.371 175.21 491.023Z" fill="#00AA8B"/>
<path d="M196.878 310.469C197.358 309.764 197.787 309.007 198.345 308.368C199.085 307.519 199.916 306.762 200.708 305.966C203.473 303.225 205.2 299.7 207.575 296.659C208.276 295.771 209.159 295.027 209.938 294.192C210.432 293.656 210.86 293.056 211.34 292.495C211.6 292.194 211.86 291.725 212.158 291.685C213.093 291.555 213.456 290.811 214.002 290.236C214.326 289.897 214.677 289.362 215.04 289.349C216.858 289.257 217.844 287.822 219.091 286.869C222.726 284.101 226.283 281.243 229.853 278.384C230.424 277.927 230.944 277.509 231.606 278.123C232.294 278.776 232.086 279.441 231.515 280.081C231.203 280.433 230.944 280.825 230.788 281.008C230.905 282.117 231.177 283.031 231.061 283.906C230.892 285.093 230.295 285.315 229.191 284.793C228.711 284.571 228.256 284.323 227.633 283.997C227.711 286.216 226.543 287.443 224.959 288.553C221.843 290.719 218.831 293.03 215.78 295.288C215.56 295.445 215.365 295.654 215.131 295.758C211.821 297.311 209.523 300.144 206.848 302.48C204.797 304.282 203.187 306.579 201.344 308.629C200.669 309.373 199.877 310.012 199.15 310.717C198.397 311.422 197.722 311.265 196.891 310.456L196.878 310.469Z" fill="#00AA8B"/>
<path d="M265.762 237.344C267.216 238.467 267.528 239.955 266.84 241.116C266.1 242.37 265.178 243.584 264.749 244.954C264.1 247.043 262.789 248.413 260.907 249.484C261.075 250.632 260.595 251.455 259.725 252.238C259.167 252.734 258.596 253.648 258.648 254.313C258.804 255.997 257.674 256.924 256.83 257.955C255.986 259 254.857 259.809 253.221 259.665C253.429 261.127 252.897 261.871 251.456 262.028C250.962 262.08 250.3 262.576 250.092 263.033C249.339 264.73 248.521 266.244 247.067 267.563C245.938 268.594 244.77 269.508 243.484 270.278C243.29 270.395 242.913 270.239 242.757 270.212C243.536 268.763 244.211 267.354 245.029 266.022C245.652 265.004 246.366 264.038 247.145 263.137C248.937 261.062 250.703 259 251.365 256.206C251.533 255.475 252.092 254.731 252.663 254.222C255.285 251.912 257.324 249.053 259.829 246.638C261.153 245.359 262.153 243.805 263.724 242.683C264.84 241.887 266.035 240.438 265.684 238.584C265.619 238.271 265.723 237.931 265.775 237.344H265.762Z" fill="#00AA8B"/>
<path d="M184.493 571.511C183.532 572.425 182.675 573.221 181.649 574.2C179.222 573.012 176.82 571.837 174.47 570.688C174.288 568.091 172.847 565.297 176.885 564.031C178.118 564.893 179.533 566.12 181.156 566.942C183.09 567.921 182.649 570.323 184.493 571.524V571.511Z" fill="#00AA8B"/>
<path d="M145.065 576.132C143.936 575.936 142.715 575.936 141.69 575.505C139.872 574.735 137.964 575.453 136.133 574.905C135.315 574.657 134.497 574.643 133.991 573.717C132.161 574.891 130.616 573.508 128.941 573.351C126.072 573.077 123.216 572.699 120.36 572.307C119.633 572.202 118.477 572.516 118.62 571.158C120.425 571.054 122.164 570.78 123.865 570.897C126.396 571.067 128.915 571.498 131.447 571.85C133.77 572.176 136.094 572.45 138.392 572.947C139.755 573.234 141.054 573.847 142.352 574.395C143.338 574.813 144.273 575.361 145.234 575.844C145.182 575.949 145.143 576.053 145.091 576.158L145.065 576.132Z" fill="#00AA8B"/>
<path d="M236.383 280.616C236.176 280.381 235.656 280.028 235.708 279.82C236.279 277.666 236.37 275.329 237.889 273.489C238.512 272.732 239.058 272.64 239.694 273.358C240.226 273.959 240.849 274.181 241.667 274.128C242.667 274.063 243.147 274.598 242.965 275.786C241.148 275.486 241.018 277.405 240.018 278.24C239.746 278.475 239.551 278.997 239.045 279.232C238.214 279.611 237.422 280.068 236.383 280.616Z" fill="#00AA8B"/>
<path d="M181.649 322.152C182.143 324.293 180.909 325.402 179.806 326.577C178.092 328.404 176.352 330.219 175.288 332.542C174.756 333.704 174.197 334.788 173.289 335.753C172.549 336.537 172.237 337.764 171.861 338.847C171.471 339.983 171.043 341.053 170.069 342.228C169.757 341.014 169.978 340.218 170.29 339.435C171.822 335.688 173.99 332.307 176.145 328.914C176.391 328.522 176.703 328.117 177.079 327.869C177.819 327.386 178.261 326.864 178.585 325.95C179.027 324.684 180.001 323.614 180.779 322.478C180.896 322.308 181.234 322.295 181.623 322.165L181.649 322.152Z" fill="#00AA8B"/>
<path d="M188.024 563.639C187.115 562.086 185.921 563.431 184.752 563.248C184.778 562.66 185.57 562.073 184.752 561.368C184.454 561.107 184.558 560.063 184.83 559.554C185.246 558.757 185.882 558 186.998 557.87C188.102 559.619 189.595 561.251 188.011 563.626L188.024 563.639Z" fill="#00AA8B"/>
<path d="M112.064 454.657C117.75 454.317 123.359 454.826 128.902 455.975C128.902 456.119 128.876 456.262 128.863 456.406C123.268 455.819 117.659 455.244 112.064 454.657Z" fill="#00AA8B"/>
<path d="M166.992 586C166.356 585.817 165.72 585.661 165.11 585.426C164.85 585.321 164.526 585.047 164.474 584.799C164.292 583.925 163.202 583.259 163.916 582.097C164.902 581.51 165.798 581.692 166.72 582.567C167.706 583.507 166.59 584.656 167.356 585.556C167.239 585.7 167.122 585.856 167.005 586H166.992Z" fill="#00AA8B"/>
<path d="M63.6525 513.867C63.1851 516.438 60.7444 518.188 58.1479 518.175C58.875 515.381 61.5104 515.316 63.6525 513.867Z" fill="#00AA8B"/>
<path d="M208.679 490.697C207.38 490.776 206.549 490.175 205.926 489.314C205.68 488.974 205.537 488.23 205.745 487.969C205.991 487.656 206.692 487.447 207.095 487.564C208.237 487.904 208.821 489.157 208.679 490.684V490.697Z" fill="#00AA8B"/>
<path d="M179.91 516.06C181.831 517.026 183.869 517.091 184.415 519.363C182.285 519.493 180.715 518.449 179.91 516.06Z" fill="#00AA8B"/>
<path d="M176.197 452.32C175.608 453.26 174.405 453.486 172.588 452.999C172.809 452.399 172.886 451.72 173.263 451.289C173.795 450.676 174.353 451.25 174.86 451.55C175.301 451.811 175.756 452.059 176.197 452.32Z" fill="#00AA8B"/>
<path d="M247.704 271.061C248.651 269.964 249.249 269.286 249.95 268.489C250.378 268.829 250.754 269.129 251.248 269.534C250.495 270.147 249.924 270.695 249.261 271.113C249.015 271.27 248.573 271.113 247.704 271.074V271.061Z" fill="#00AA8B"/>
<path d="M190.517 500.879C191.01 500.161 191.334 499.691 191.633 499.273C192.685 499.404 193.061 499.991 192.97 500.814C192.931 501.127 192.49 501.688 192.334 501.649C191.75 501.519 191.218 501.205 190.517 500.879Z" fill="#00AA8B"/>
<path d="M187.569 315.769C187.894 314.685 188.218 313.589 188.556 312.453C189.569 312.753 189.893 313.262 189.491 313.993C189.088 314.711 188.543 315.338 188.05 316.004C187.894 315.925 187.725 315.847 187.569 315.782V315.769Z" fill="#00AA8B"/>
<path d="M30.1712 90.3237C30.9501 90.0757 31.729 89.8277 32.9104 89.4622C31.5473 91.0547 30.0154 91.5638 28.3926 91.9945C29.0027 91.4202 29.6259 90.8458 30.2491 90.2715L30.1841 90.3367L30.1712 90.3237Z" fill="#00AA8B"/>
<path d="M275.019 202.152C275.019 200.377 276.512 199.333 277.031 197.779C277.187 199.607 275.914 200.795 275.019 202.152Z" fill="#00AA8B"/>
<path d="M140.638 20.6707C142.17 20.1486 143.689 20.4488 145.208 20.749C146.428 20.984 147.649 21.1537 148.843 21.5714C146.117 21.2581 143.403 20.9448 140.677 20.6316L140.638 20.6577V20.6707Z" fill="#00AA8B"/>
<path d="M155.62 22.9943C153.932 22.6027 152.258 22.2241 150.57 21.8325C152.271 21.9631 153.997 21.9369 155.607 22.6418C155.646 22.6549 155.607 22.8768 155.607 22.9943H155.62Z" fill="#00AA8B"/>
<path d="M61.7831 522.874C62.1596 524.388 60.433 524.179 60.0954 525.524C59.693 523.657 61.2509 523.657 61.7831 522.874Z" fill="#00AA8B"/>
<path d="M207.575 481.351C208.172 481.925 208.432 482.487 207.679 483.009C207.471 483.152 206.77 483.009 206.705 482.852C206.381 482.069 206.887 481.677 207.588 481.364L207.575 481.351Z" fill="#00AA8B"/>
<path d="M160.125 23.5165C159.346 23.4512 158.567 23.399 157.788 23.3076C157.061 23.2293 156.347 23.0988 155.62 22.9944C155.749 22.9944 155.892 23.0596 156.009 23.0205C157.45 22.5636 158.787 22.916 160.086 23.5687L160.137 23.5296L160.125 23.5165Z" fill="#00AA8B"/>
<path d="M193.139 308.315C192.892 308.929 192.646 309.542 192.36 310.286C191.91 309.712 192.04 308.994 192.75 308.133C192.879 308.198 193.009 308.263 193.139 308.328V308.315Z" fill="#00AA8B"/>
<path d="M167.109 466.079C167.771 466.562 168.278 466.927 169.018 467.462C167.797 467.549 167.161 467.088 167.109 466.079Z" fill="#00AA8B"/>
<path d="M221.012 525.067C221.064 525.641 221.116 526.229 221.168 526.96C220.609 526.829 220.311 526.764 219.882 526.659C220.116 526.059 220.324 525.537 220.518 525.015C220.674 525.028 220.843 525.041 220.999 525.067H221.012Z" fill="#00AA8B"/>
<path d="M180.832 535.953C181.377 536.462 181.844 536.88 182.597 537.572C181.489 537.241 180.901 536.702 180.832 535.953Z" fill="#00AA8B"/>
<path d="M32.6377 42.6005C32.2352 42.9138 31.8457 43.214 31.4433 43.5273C30.8201 43.0704 31.2615 42.6919 31.625 42.483C31.9366 42.3003 32.365 42.3264 32.7415 42.248C32.7026 42.3655 32.6766 42.483 32.6377 42.6005Z" fill="#00AA8B"/>
<path d="M68.2872 488.57C67.6511 488.765 67.2356 488.896 66.7942 489.026C66.7423 488.687 66.6644 488.53 66.7163 488.465C67.0409 487.969 67.4304 487.721 68.2872 488.57Z" fill="#00AA8B"/>
<path d="M177.301 492.211C177.599 492.577 177.781 492.812 177.963 493.034C177.768 493.151 177.534 493.386 177.365 493.347C177.158 493.308 176.898 493.073 176.833 492.864C176.794 492.747 177.08 492.512 177.301 492.211Z" fill="#00AA8B"/>
<path d="M234.332 276.4C233.8 275.982 233.462 275.734 233.125 275.46C233.306 275.264 233.384 275.094 233.462 275.094C234.085 275.055 234.488 275.277 234.332 276.4Z" fill="#00AA8B"/>
<path d="M201.162 167.273L201.37 165.368C201.526 165.381 201.681 165.394 201.837 165.42C201.772 166.046 201.694 166.673 201.629 167.3C201.474 167.3 201.318 167.287 201.162 167.273Z" fill="#00AA8B"/>
<path d="M184.635 522.169C184.493 522.561 184.376 522.965 184.194 523.331C184.168 523.37 183.571 523.187 183.571 523.161C183.636 522.756 183.766 522.352 183.869 521.947C184.129 522.025 184.376 522.104 184.635 522.169Z" fill="#00AA8B"/>
<path d="M73.1429 531.45C72.8054 530.171 73.3896 530.027 74.2594 530.145C73.9478 530.51 73.6363 530.876 73.1429 531.45Z" fill="#00AA8B"/>
<path d="M157.541 443.731C157.009 443.666 156.191 443.94 156.464 442.726C156.892 443.118 157.217 443.431 157.541 443.731Z" fill="#00AA8B"/>
<path d="M280.108 190.639C280.082 190.339 280.069 189.999 280.043 189.66C280.16 189.647 280.29 189.634 280.406 189.621C280.432 189.947 280.458 190.26 280.471 190.587C280.471 190.639 280.419 190.73 280.381 190.756C280.342 190.77 280.264 190.717 280.108 190.652V190.639Z" fill="#00AA8B"/>
<path d="M239.304 48.1483C239.706 48.3963 240.122 48.6443 240.524 48.8924C240.485 48.9707 240.433 49.062 240.394 49.1404C239.979 48.9054 239.577 48.6704 239.161 48.4355C239.213 48.3311 239.265 48.2397 239.304 48.1353V48.1483Z" fill="#00AA8B"/>
<path d="M200.876 170.38C200.954 170.041 201.032 169.688 201.123 169.349C201.123 169.349 201.357 169.388 201.474 169.414C201.396 169.767 201.318 170.119 201.24 170.471C201.123 170.445 200.993 170.406 200.876 170.38Z" fill="#00AA8B"/>
<path d="M201.292 161.895C201.487 162.248 201.681 162.6 201.876 162.94C201.72 162.992 201.578 163.044 201.422 163.096C201.396 162.679 201.357 162.261 201.331 161.843L201.292 161.882V161.895Z" fill="#00AA8B"/>
<path d="M0.973909 89.5667C0.714261 90.1149 0.454613 90.6762 0.194966 91.2244C-0.298364 90.1932 0.194966 89.7755 1.01286 89.6058L0.973909 89.5667Z" fill="#00AA8B"/>
<path d="M1.01258 89.6058C0.947668 88.9923 1.24626 88.679 2.01222 88.8356C1.6617 89.0837 1.31117 89.3317 0.973633 89.5797L1.01258 89.6188V89.6058Z" fill="#00AA8B"/>
<path d="M128.188 569.109C127.967 568.848 127.799 568.678 127.695 568.469C127.682 568.43 127.993 568.143 128.032 568.169C128.227 568.287 128.396 568.456 128.513 568.652C128.539 568.704 128.344 568.9 128.188 569.109Z" fill="#00AA8B"/>
<path d="M220.571 38.789C221.129 38.8282 221.7 38.8674 222.259 38.9065C222.22 39.0762 222.194 39.2328 222.155 39.4025C221.648 39.1806 221.142 38.9587 220.623 38.7368L220.571 38.789Z" fill="#00AA8B"/>
<path d="M181.416 48.8138C180.987 48.6441 180.507 48.4614 180.04 48.2786C180.04 48.2395 180.066 48.2003 180.066 48.1611C180.481 48.2786 180.896 48.383 181.299 48.5005C181.416 48.5397 181.52 48.618 181.623 48.6833C181.571 48.7094 181.52 48.7355 181.403 48.8007L181.416 48.8138Z" fill="#00AA8B"/>
<path d="M164.747 46.5428C165.305 46.3078 165.811 46.2817 166.382 46.9605C165.616 47.1563 165.149 47.0258 164.786 46.4906L164.747 46.5428Z" fill="#00AA8B"/>
</g>
<defs>
<clipPath id="clip0_34_27226">
<rect width="291" height="586" fill="white"/>
</clipPath>
</defs>
</svg>
