<svg width="437" height="111" viewBox="0 0 437 111" fill="none" xmlns="http://www.w3.org/2000/svg">
<g clip-path="url(#clip0_125_15932)">
<path d="M348.376 53.2258C351.524 48.7663 357.953 47.3242 362.408 50.1197C362.94 50.4525 363.317 51.0072 363.849 51.3622C369.346 55.0008 370.056 57.5744 367.373 63.6092C366.176 66.3382 364.381 67.9356 361.3 68.0244C358.307 68.1131 355.337 68.4015 351.657 68.6678C359.526 71.1083 367.174 67.98 374.6 70.4871C374.068 70.7977 373.78 71.1083 373.602 71.0639C369.391 69.8437 365.223 71.5077 361.034 71.2858C357.132 71.0861 353.187 70.8864 349.33 70.2652C345.206 69.5774 341.239 69.7327 337.271 70.9752C336.384 71.2414 335.387 71.3524 334.478 71.2414C329.313 70.6868 324.192 69.8659 319.027 69.5109C316.744 69.3556 314.417 70.0212 311.579 70.3761C315.547 67.026 319.604 68.0687 323.439 68.7121C328.227 69.5109 332.948 69.7105 337.736 68.8896C340.529 68.4015 343.367 68.1575 346.182 67.8691C350.881 67.4031 355.558 66.9372 360.258 66.5822C363.605 66.3382 366.11 64.1417 366.997 60.4143C367.883 56.7091 366.442 55.5998 363.317 52.9374C358.351 48.6776 354.184 50.1641 349.662 53.0483C349.307 53.2702 348.731 53.1149 348.266 53.1371L348.376 53.248V53.2258Z" fill="#00AA8B" stroke="#00AA8B" stroke-width="0.8" stroke-miterlimit="10"/>
<path d="M304.419 64.5854C303.865 64.1417 302.868 63.6758 302.868 63.2321C302.89 61.8565 302.912 60.2369 303.643 59.1941C305.927 55.9104 308.786 53.1815 313.22 52.6712C314.195 49.321 315.192 46.0596 316.079 42.7537C317.476 37.5621 322.685 33.8125 328.67 33.8347C332.394 33.8347 336.096 33.8347 340.396 33.8347C338.157 36.5193 335.63 36.1643 333.347 35.5431C329.224 34.4337 325.677 35.5209 322.131 37.4955C319.847 38.7601 318.65 40.6238 317.919 42.9534C317.631 43.8631 317.498 44.7949 317.254 45.7046C316.013 50.4081 314.062 54.3574 308.986 56.2876C305.461 57.641 303.71 60.6362 304.397 64.6298H304.419V64.5854Z" fill="#00AA8B" stroke="#00AA8B" stroke-width="0.8" stroke-miterlimit="10"/>
<path d="M393.863 57.4857C393.176 56.1101 394.063 55.8882 395.104 55.8217C398.873 55.5776 402.641 55.1117 406.41 55.1783C408.626 55.2226 410.156 54.4683 411.863 53.2258C415.631 50.5412 415.764 48.4335 412.439 45.0389C409.646 42.1769 407.163 38.982 404.548 35.9424L404.459 36.0312C404.614 35.9868 404.769 35.9424 404.924 35.9202C408.116 35.6984 407.828 41.1119 411.552 40.0469C413.06 42.3987 414.922 44.6174 415.986 47.1689C416.695 48.8551 416.296 51.0072 416.429 53.6474C417.36 53.9802 418.912 54.557 420.463 55.1339C421.55 55.5333 423.079 55.4445 422.88 57.286V57.3082C420.774 56.7313 418.646 56.1767 416.562 55.5776C414.744 55.0673 413.037 54.2686 411.486 56.3763C411.02 56.9976 409.469 56.9532 408.427 56.9754C404.791 57.0198 401.134 56.8866 397.498 56.931C396.279 56.931 395.06 57.3082 393.819 57.5079L393.863 57.4857Z" fill="#00AA8B" stroke="#00AA8B" stroke-width="0.8" stroke-miterlimit="10"/>
<path d="M381.538 22.697C377.615 22.7857 373.669 21.9426 369.878 24.006C368.969 24.4941 367.085 23.8063 365.955 23.1185C361.3 20.323 356.689 21.388 352.477 23.6288C348.399 25.8031 344.763 28.8427 340.773 31.6382C341.793 29.242 343.256 27.0677 345.339 25.6256C349.773 22.5638 354.672 20.3452 360.036 19.5908C361.455 19.3911 363.14 20.1011 364.514 20.8111C367.063 22.1201 369.346 22.2976 372.206 21.3214C374.622 20.5005 377.504 20.8998 380.186 20.9886C380.74 20.9886 381.25 21.9648 381.804 22.4751L381.56 22.697H381.538Z" fill="#00AA8B" stroke="#00AA8B" stroke-width="0.8" stroke-miterlimit="10"/>
<path d="M410.244 62.6552C413.459 59.9484 417.205 59.66 420.286 62.4111C421.86 63.8089 423.522 64.541 425.384 64.4301C428.067 64.2748 429.796 65.5395 431.436 67.3588C424.187 67.6472 417.028 67.9578 409.845 68.2462C409.823 68.0465 409.779 67.8691 409.757 67.6694C412.151 67.27 414.589 67.026 416.939 66.4269C417.959 66.1607 418.757 65.1401 419.665 64.4523C418.734 63.7645 417.87 62.5886 416.872 62.4777C414.7 62.2558 412.461 62.5664 410.267 62.6552H410.244Z" fill="#00AA8B" stroke="#00AA8B" stroke-width="0.8" stroke-miterlimit="10"/>
<path d="M375.575 70.354C385.683 69.4221 394.949 68.579 404.237 67.7137C401.444 69.5552 379.055 71.3302 375.575 70.354Z" fill="#00AA8B" stroke="#00AA8B" stroke-width="0.8" stroke-miterlimit="10"/>
<path d="M404.57 35.9202C402.242 35.9202 399.892 35.9646 397.565 35.9646C396.789 35.9646 395.947 36.0755 395.215 35.8537C393.021 35.1437 390.848 34.3671 388.742 33.4575C388.011 33.1469 387.479 32.3482 386.614 31.5494C391.89 31.971 396.39 34.6556 401.511 34.0343C402.663 33.9012 404.592 33.7237 404.459 36.009L404.548 35.9202H404.57Z" fill="#00AA8B" stroke="#00AA8B" stroke-width="0.8" stroke-miterlimit="10"/>
<path d="M336.606 41.0675C331.042 35.898 326.83 40.4685 321.665 43.1531C322.219 41.9328 322.33 40.9566 322.862 40.6016C325.323 38.9154 327.828 37.4067 331.108 37.8727C334.722 38.383 338.357 38.5383 342.192 39.3592C340.308 39.936 338.401 40.5129 336.584 41.0897L336.606 41.0675Z" fill="#00AA8B" stroke="#00AA8B" stroke-width="0.8" stroke-miterlimit="10"/>
<path d="M371.186 64.5633C375.154 64.3192 378.59 63.0989 381.982 60.969C383.932 59.7266 387.146 60.4809 389.784 60.3478C390.117 60.8137 390.427 61.3018 390.76 61.7677C390.183 61.8787 389.585 62.1449 389.008 62.0562C383.711 61.3906 379.322 64.4967 374.423 65.4507C373.425 65.6504 372.383 65.6504 371.364 65.7391C371.297 65.3398 371.231 64.9404 371.186 64.5411V64.5633Z" fill="#00AA8B" stroke="#00AA8B" stroke-width="0.8" stroke-miterlimit="10"/>
<path d="M357.487 46.3258C351.524 47.1689 347.024 50.2307 343.322 54.7789C343.101 49.5872 351.591 44.329 357.487 46.3258Z" fill="#00AA8B" stroke="#00AA8B" stroke-width="0.8" stroke-miterlimit="10"/>
<path d="M320.18 53.4477C321.488 45.4605 323.15 43.619 329.756 42.2878C329.424 42.7316 329.224 43.2197 328.914 43.375C325.234 44.9281 322.685 47.2798 322.219 51.5175C322.153 52.0944 321.155 52.5603 320.18 53.4477Z" fill="#00AA8B" stroke="#00AA8B" stroke-width="0.8" stroke-miterlimit="10"/>
<path d="M393.863 57.4857H381.893C383.422 56.0879 384.775 55.3558 386.947 56.1545C389.119 56.9532 391.536 57.0641 393.863 57.4857Z" fill="#00AA8B" stroke="#00AA8B" stroke-width="0.8" stroke-miterlimit="10"/>
<path d="M396.545 48.5001H388.277C388.277 48.2782 388.277 48.0563 388.277 47.8345H396.545V48.5001Z" fill="#00AA8B" stroke="#00AA8B" stroke-width="0.8" stroke-miterlimit="10"/>
<path d="M348.266 53.1149C347.445 55.5776 348.022 58.5728 345.406 60.7249C343.921 57.8184 346.936 56.0435 346.758 53.6917C346.758 53.5808 347.8 53.3811 348.354 53.2258L348.243 53.1149H348.266Z" fill="#00AA8B" stroke="#00AA8B" stroke-width="0.8" stroke-miterlimit="10"/>
<path d="M369.102 30.0186H362.43C364.58 27.6668 366.376 27.6447 369.102 30.0186Z" fill="#00AA8B" stroke="#00AA8B" stroke-width="0.8" stroke-miterlimit="10"/>
<path d="M433.121 56.931C429.729 57.042 426.316 57.1529 422.902 57.286V57.2638C424.343 56.9532 425.806 56.687 427.247 56.3542C428.732 55.9992 430.195 55.4445 431.702 55.3114C432.079 55.267 432.589 56.4429 433.032 57.042L433.143 56.9532L433.121 56.931Z" fill="#00AA8B" stroke="#00AA8B" stroke-width="0.8" stroke-miterlimit="10"/>
<path d="M410.267 62.6774C408.582 65.4285 406.21 63.8533 403.284 63.8977C405.833 61.5015 408.094 62.389 410.267 62.6552V62.6774Z" fill="#00AA8B" stroke="#00AA8B" stroke-width="0.8" stroke-miterlimit="10"/>
<path d="M398.163 52.9596H389.097C391.979 51.0515 394.971 51.8725 398.163 52.9596Z" fill="#00AA8B" stroke="#00AA8B" stroke-width="0.8" stroke-miterlimit="10"/>
<path d="M356.667 44.0406H349.197C352.123 41.6666 352.81 41.6222 356.667 44.0406Z" fill="#00AA8B" stroke="#00AA8B" stroke-width="0.8" stroke-miterlimit="10"/>
<path d="M381.782 22.4751C383.134 24.3166 384.486 26.1359 385.861 27.9774C382.913 27.2674 382.536 24.7825 381.538 22.7192L381.782 22.4973V22.4751Z" fill="#00AA8B" stroke="#00AA8B" stroke-width="0.8" stroke-miterlimit="10"/>
<path d="M385.816 52.9374H378.258C381.206 50.7631 383.489 51.6728 385.816 52.9374Z" fill="#00AA8B" stroke="#00AA8B" stroke-width="0.8" stroke-miterlimit="10"/>
<path d="M433.032 57.0198C434.03 58.0847 435.404 58.9944 435.936 60.259C436.535 61.679 435.448 62.5443 433.874 62.5221C433.631 60.6362 433.365 58.7725 433.121 56.931L433.01 57.0198H433.032Z" fill="#00AA8B" stroke="#00AA8B" stroke-width="0.8" stroke-miterlimit="10"/>
<path d="M304.397 64.6076C306.392 64.7629 307.633 65.8722 308.476 67.4697C308.254 67.7359 308.01 67.98 307.789 68.2462C306.658 67.026 305.55 65.8057 304.419 64.5632H304.397V64.6076Z" fill="#00AA8B" stroke="#00AA8B" stroke-width="0.8" stroke-miterlimit="10"/>
<path d="M61.2917 63.099C63.4863 62.5221 65.0823 60.9912 66.2128 58.4176C69.0723 51.939 68.2078 48.9438 62.3557 45.0834C62.1562 44.9502 61.9789 44.7727 61.8016 44.5953C61.5577 44.3512 61.2696 44.0628 60.9149 43.8409C56.3707 40.9788 49.9422 42.1991 46.3512 46.3702L45.93 45.9486C48.8339 43.619 52.0259 42.1991 55.6613 41.6888L59.3854 41.1563L55.8165 39.9582C52.4028 38.8267 47.9694 39.7807 44.467 42.421C41.8291 44.4178 40.3661 46.9249 40.4769 49.321L40.5878 51.6728L42.0729 49.8535C42.738 49.0326 43.4251 48.3004 44.1345 47.6126C44.2896 47.4573 44.4448 47.302 44.6 47.1467L44.7108 47.2577C44.467 47.3464 44.2675 47.4573 44.1345 47.6126C44.0015 47.7679 43.935 47.9676 43.9571 48.2339C44.0236 48.9438 43.6468 49.6316 43.2035 50.4525C42.4941 51.8059 41.6074 53.4699 42.6936 55.622L43.2035 56.6204L44.068 55.9105C46.1295 54.2021 46.462 52.0278 46.7502 50.1197C46.8389 49.5651 46.9053 49.0326 47.0384 48.5223C47.4374 48.5223 47.8585 48.5223 48.2575 48.2561C52.9126 45.283 56.4593 44.3068 60.8706 48.0564L61.1366 48.2782C64.0404 50.741 65.0158 51.5841 64.2621 54.6458C63.4641 57.9516 61.3582 59.9041 58.3214 60.1259C53.5998 60.4809 48.8339 60.969 44.2231 61.4128L43.2035 61.5237C40.7429 61.7677 38.1937 62.0118 35.711 62.4555C31.4106 63.2099 26.8221 63.1433 21.7015 62.278L20.8591 62.1227C17.2238 61.4793 13.1007 60.7693 9.11063 64.1417L6.80527 66.0942L9.79781 65.717C10.7288 65.606 11.6155 65.4507 12.4578 65.2954C14.1647 65.007 15.6277 64.7408 17.0686 64.8517C20.3271 65.0958 23.6522 65.4951 26.8442 65.9167C28.7284 66.1607 30.5904 66.3826 32.4746 66.6044C33.5165 66.7154 34.6248 66.6044 35.6445 66.2938C39.3021 65.1401 43.0926 64.9404 47.2822 65.6282C50.9619 66.2273 54.7303 66.427 58.3657 66.6266L59.075 66.671C59.3632 66.671 59.6514 66.6932 59.9395 66.6932C61.3804 66.6932 62.8212 66.5157 64.1956 66.3382C66.7005 66.0276 69.0723 65.7392 71.4442 66.4048C71.9762 66.5601 72.3752 66.2716 72.7077 66.0276C72.8186 65.9388 72.9737 65.8501 73.1511 65.7392L73.2841 65.6726L73.4392 65.717C74.1929 65.9167 75.7224 66.0276 77.6953 66.0276C81.6632 66.0276 87.4488 65.6504 92.5028 65.0736C93.1679 64.0308 93.8772 63.0102 94.6309 62.034L72.6856 64.053C68.9172 62.8327 65.0823 62.988 61.3582 63.1433L61.2917 63.099ZM45.6418 46.7252L44.9325 46.7695C45.2428 46.4811 45.5753 46.2371 45.8857 45.9708L45.6418 46.7252Z" fill="#00AA8B"/>
<path d="M34.4032 36.5636L43.7798 33.6793L40.4326 32.9694C37.9056 32.4369 35.4672 32.1707 33.0953 31.9266C31.8096 31.7935 30.5461 31.6604 29.2826 31.4829C25.7137 30.9948 23.0537 32.57 20.3936 34.3671C19.7951 34.7665 19.5735 35.4321 19.3075 36.1864C19.1966 36.5192 19.0636 36.8964 18.8863 37.2958L17.8223 39.6476L20.1055 38.4717C21.103 37.9614 22.0562 37.3623 23.0093 36.7855C26.9329 34.3893 30.0141 32.5035 34.0263 36.253L34.4032 36.608V36.5636Z" fill="#00AA8B"/>
<path d="M88.269 53.8915H87.7591C86.9833 53.9581 86.1631 53.9137 85.2764 53.8915C83.2371 53.7806 81.109 53.6918 79.513 54.6902C76.1214 56.8423 72.8186 57.9295 69.1389 58.1514L68.1857 58.3732L68.629 61.2131L69.4714 61.1466C69.7817 61.1244 70.1142 61.1022 70.4245 61.08C71.1339 61.0356 71.8876 60.9913 72.6191 60.836C74.4811 60.481 76.2545 59.8154 77.9835 59.1941C80.976 58.107 83.7691 57.0642 86.9389 57.4636C87.4931 57.5301 88.003 57.397 88.4685 57.2861C88.6236 57.2417 88.801 57.1973 88.9561 57.1751L90.3083 56.9311L88.2911 53.9581L88.269 53.8915Z" fill="#00AA8B"/>
<path d="M17.3124 47.7679L16.8912 50.2972L18.7754 48.5888C19.0858 48.3004 19.4183 48.0564 19.7064 47.8567C20.4158 47.3242 21.0365 46.8583 21.103 46.1039C21.4798 42.5984 23.364 40.3132 27.2432 38.6714C27.7309 38.4717 27.9969 38.0502 28.2186 37.6952C28.2851 37.5621 28.3737 37.4511 28.4624 37.318L29.9033 35.4321L27.5757 35.898C20.571 37.2958 18.6424 39.5145 17.2902 47.7679H17.3124Z" fill="#00AA8B"/>
<path d="M95.4067 41.4225H85.3872L85.4316 43.863H95.4732L95.4067 41.4225Z" fill="#00AA8B"/>
<path d="M67.7201 23.8063C64.6389 21.1217 62.2892 21.1439 59.8065 23.8728L58.4543 25.3593H69.5378L67.7423 23.7841L67.7201 23.8063Z" fill="#00AA8B"/>
<path d="M46.6615 37.8282L44.7108 39.4035H57.7893L55.1515 37.7617C51.0284 35.1658 49.9201 35.188 46.6615 37.8282Z" fill="#00AA8B"/>
<path d="M101.591 48.3226L96.4707 46.592C92.9683 45.3939 89.7985 44.5952 86.6286 46.7029L85.6089 47.3907L84.2789 46.6586C81.9513 45.3717 79.1583 44.218 75.7668 46.7251L73.5944 48.3447H84.1902H84.168H101.613L101.591 48.3226Z" fill="#00AA8B"/>
<path d="M115.335 45.6824C115.357 44.0184 115.401 42.5985 114.847 41.2895C114.049 39.4258 112.874 37.7174 111.744 36.0756C111.278 35.3878 110.791 34.7222 110.347 34.0344L109.993 33.4797L109.35 33.6572C108.042 34.0344 107.554 33.391 106.668 32.0376C106.113 31.2167 105.493 30.2405 104.451 29.7968L104.717 29.5083H103.298C103.187 29.0202 102.966 28.5987 102.611 28.2659C101.658 27.3784 100.195 27.5559 99.4189 27.6446C96.6037 27.9774 93.9437 27.2453 91.1507 26.4909C89.1113 25.9363 86.9833 25.3372 84.7001 25.1597L82.1287 24.9379L84.0351 26.6906C84.3011 26.9347 84.5449 27.1787 84.7444 27.4228C85.2542 27.9553 85.7419 28.4656 86.4069 28.754C88.3133 29.5749 90.397 30.3514 92.9684 31.1723C93.6555 31.3942 94.387 31.372 95.0299 31.3498C96.8697 31.2833 98.6653 31.3276 100.461 31.3054L99.685 32.1042L101.547 31.6604L101.48 32.8141L102.544 31.727C103.121 32.4148 103.719 33.1248 104.296 33.8125C106.069 35.9203 107.887 38.1168 109.86 40.1357C111.389 41.6888 112.054 42.8869 111.965 43.8409C111.877 44.7728 111.057 45.7712 109.394 46.9692C107.82 48.1008 106.424 48.7664 104.473 48.7442C101.746 48.6998 98.9756 48.9217 96.3156 49.1435C95.2294 49.2323 94.1654 49.321 93.0792 49.3876C92.5472 49.432 91.4388 49.4985 90.9512 50.3416C90.8625 50.4969 90.8182 50.6966 90.7738 50.8741C90.4635 50.8297 90.1753 50.7854 89.865 50.741C88.2246 50.5191 86.6951 50.2973 85.2764 49.787C82.7272 48.8551 81.0425 49.7204 79.3135 51.2957L77.6066 52.8487H91.7048L93.7442 53.6696L93.2122 52.6047C94.0324 52.4272 94.8082 52.2719 95.5619 52.2719C97.4461 52.2497 99.3081 52.2719 101.192 52.2941C102.456 52.2941 103.742 52.2941 105.005 52.2941C108.197 50.1641 111.677 48.4114 115.335 46.9914C115.335 46.5255 115.335 46.0818 115.335 45.638V45.6824Z" fill="#00AA8B"/>
<path d="M105.005 52.3162C105.493 52.3162 105.98 52.3162 106.468 52.3162H106.69C107.953 52.3162 109.549 52.3162 110.236 51.3622C111.212 50.031 112.076 50.2085 113.805 50.7188L114.359 50.8741C115.246 51.1182 116.133 51.3622 117.02 51.6063L112.187 52.6047H120.389V52.649H120.832L122.561 53.115L122.317 52.6047L130.364 52.3384L131.118 57.9073H131.894C131.894 57.9073 131.938 57.9073 131.96 57.9073C133.157 57.9073 134.132 57.4857 134.642 56.7092C135.086 56.0658 135.13 55.2227 134.775 54.3796C134.332 53.3146 133.467 52.5381 132.625 51.7838C132.514 51.695 132.426 51.6063 132.337 51.5175L133.467 50.4525L131.472 50.5191C131.472 50.5191 131.406 50.4304 131.384 50.386C130.918 49.5873 130.475 48.8329 129.633 48.8995C128.569 49.0104 127.527 49.2988 126.529 49.5873C126.041 49.7204 125.554 49.8535 125.066 49.9644C124.091 50.1863 123.093 50.386 122.096 50.5857L121.697 50.6744C121.342 49.4541 120.123 49.1213 119.414 48.9439C119.214 48.8995 118.992 48.8329 118.793 48.7664L115.313 47.5017C115.313 47.3464 115.313 47.2133 115.313 47.058C111.655 48.4557 108.197 50.2307 104.983 52.3606L105.005 52.3162Z" fill="#00AA8B"/>
<path d="M7.58111 62.1005L7.29294 61.5459C6.33976 59.7487 4.96541 58.6838 3.21421 58.3288C2.85954 55.1117 4.3004 52.7156 7.31511 51.584C13.0564 49.4097 15.0071 44.7062 16.1376 40.3798C16.2484 39.9804 16.3371 39.6032 16.4036 39.2039C16.5144 38.6936 16.6252 38.1611 16.7804 37.673C17.5119 35.299 18.6868 33.7681 20.571 32.7254C24.5832 30.5067 27.7531 29.952 31.1225 30.8617C33.7825 31.5938 36.5977 31.8601 39.1026 28.8649L40.3218 27.4005H38.5484L39.3021 26.8681C40.5434 26.0028 41.7404 25.1153 42.9153 24.25C45.5975 22.2754 48.1467 20.3896 50.9176 18.9252C55.7943 16.3294 59.7844 16.1519 63.5084 18.3928C64.6389 19.0805 66.9443 20.0346 68.3187 19.2802C70.9565 17.8381 73.7274 17.9268 76.6313 18.0378C77.4071 18.06 78.183 18.0821 78.9588 18.0821C79.0475 18.304 79.1583 18.5259 79.247 18.7477C80.0007 20.567 80.843 22.6526 83.6582 23.3182L86.0523 23.8951L80.9982 17.0837L81.109 16.995L80.4883 16.396L79.9342 15.6638L79.8898 15.7082C79.4465 15.1757 78.9588 14.621 78.2273 14.5988C77.6731 14.5988 77.0968 14.5545 76.5426 14.5323C74.3259 14.4213 72.0205 14.2882 69.9369 14.9982C67.3433 15.8857 65.3039 15.7525 62.9321 14.5323C61.4912 13.8001 59.6292 13.0014 57.9223 13.2233C52.8239 13.9554 47.7477 16.041 42.8488 19.4133C40.7873 20.8333 39.1469 22.9854 37.9499 25.8031L37.2627 27.4227H26.6447C20.2385 27.4227 14.7189 31.372 13.1894 37.0074C12.5908 39.2704 11.9258 41.5113 11.2608 43.7743L10.5072 46.3702C5.67475 47.1467 2.83737 50.4081 0.88668 53.1815C0.044334 54.4017 0.022167 56.2211 0 57.6854C0 58.3732 0.532008 58.8169 1.08618 59.1941L0.487674 59.8375L1.66252 59.9262L1.83986 60.9912L2.43837 60.3478L5.82992 64.0308L7.58111 62.0562V62.1005Z" fill="#00AA8B"/>
<path d="M181.636 2.5958C178.644 2.28518 175.585 1.50865 172.792 3.43889C172.503 3.63857 172.06 3.68295 171.683 3.66076C164.878 3.06172 159.292 6.61159 153.373 9.00775C149.162 10.7161 146.768 14.4213 144.374 17.9712C140.738 23.3625 138.655 29.2642 139.785 35.9424C139.852 36.3196 139.896 36.6967 140.029 37.0517C140.118 37.2736 140.339 37.4511 140.716 37.8948C142.489 36.6302 144.595 35.6318 146.014 34.0121C147.388 32.4369 148.652 31.616 150.758 31.4829C152.332 31.3941 153.861 30.5067 155.413 30.0629C156.721 29.7079 158.051 29.4639 159.558 29.8632C156.432 30.8395 153.107 31.4385 150.226 32.8584C146.568 34.6777 143.221 37.1405 141.381 41.0453C140.871 42.1325 140.494 43.3084 139.43 44.3733C139.43 43.7743 139.43 43.1531 139.43 42.554C139.386 41.1784 139.652 39.7141 139.209 38.4717C137.302 33.1247 137.901 27.8442 140.184 22.9632C142.046 18.9918 144.728 15.4197 147.189 11.7589C147.787 10.8714 148.873 10.2058 149.849 9.67335C155.169 6.74471 160.688 4.30417 166.496 2.50705C167.449 2.21862 168.513 2.35174 169.511 2.17425C171.107 1.90801 172.659 1.44209 174.255 1.24241C176.826 0.953983 179.575 -0.0222316 181.525 2.70673L181.614 2.5958H181.636Z" fill="#00AA8B" stroke="#00AA8B" stroke-width="0.75" stroke-miterlimit="10"/>
<path d="M241.554 104.721C237.165 105.076 232.753 105.409 228.364 105.786C227.411 105.875 226.436 106.252 225.505 106.208C223.355 106.141 221.182 106.984 219.01 105.808C215.818 104.078 212.559 105.653 209.412 106.208C206.574 106.696 203.825 107.761 201.01 108.315C199.414 108.626 197.707 108.582 196.089 108.404C191.057 107.872 186.048 107.206 181.06 106.563C179.974 106.43 178.932 106.052 177.868 105.764C177.912 105.498 177.957 105.254 177.979 104.987C183.521 105.609 189.084 106.141 194.626 106.895C198.328 107.406 201.853 107.25 205.466 106.03C208.68 104.943 212.094 104.366 215.463 103.789C217.658 103.412 219.586 102.813 221.426 101.083C221.182 102.037 220.938 102.968 220.628 104.166H241.665C241.642 104.366 241.598 104.566 241.576 104.766L241.554 104.721Z" fill="#00AA8B" stroke="#00AA8B" stroke-width="0.75" stroke-miterlimit="10"/>
<path d="M68.2743 107.517C70.491 108.249 72.5304 108.249 74.8136 107.561C76.3653 107.095 78.2716 107.45 79.9563 107.783C84.5892 108.67 89.067 109.07 93.722 107.317C97.6012 105.875 101.591 105.653 105.936 106.363C112.01 107.339 118.305 106.984 124.512 107.139C127.482 107.206 130.453 107.139 134.332 107.139C133.046 107.65 132.559 108.027 132.049 108.027C124.689 108.204 117.308 108.382 109.948 108.471C108.707 108.471 107.288 108.471 106.224 107.916C101.503 105.52 97.0914 107.139 92.6802 108.715C88.5571 110.201 84.4562 110.734 80.178 109.403C78.6706 108.937 77.0081 108.848 75.3899 108.759C72.9516 108.604 70.3802 109.469 68.2965 107.517H68.2743Z" fill="#00AA8B" stroke="#00AA8B" stroke-width="0.75" stroke-miterlimit="10"/>
<path d="M216.837 50.7853C214.111 50.386 211.407 49.9422 208.68 49.6094C205.843 49.2766 203.471 50.3638 201.542 52.3828C199.414 54.5793 197.087 55.2448 193.983 54.5127C187.2 52.9596 180.351 59.7044 181.415 66.6266C181.437 66.7819 181.149 67.0038 181.016 67.1813C178.932 62.3002 180.75 58.7947 187.865 54.069C184.385 52.9596 182.146 55.1339 179.375 56.3986C179.796 55.7551 180.062 54.8011 180.661 54.4905C183.498 53.004 186.225 51.5397 189.816 52.9596C191.988 53.8249 194.715 53.4921 197.175 53.2924C198.284 53.2037 199.392 52.2496 200.323 51.4509C203.604 48.6554 207.15 47.302 211.473 48.5888C213.335 49.1435 215.264 49.4319 217.17 49.8535C217.059 50.1641 216.97 50.4525 216.86 50.7631L216.837 50.7853Z" fill="#00AA8B" stroke="#00AA8B" stroke-width="0.75" stroke-miterlimit="10"/>
<path d="M183.166 31.4385C181.37 27.2452 183.033 23.4069 185.094 20.0789C186.003 18.6146 188.73 18.0599 190.747 17.594C192.409 17.1946 194.249 17.5052 196 17.5052C197.619 15.1535 197.242 13.3342 195.557 11.2264C192.875 7.87623 189.949 5.30257 185.516 4.5926C184.141 4.37073 182.922 3.2614 181.636 2.57361L181.548 2.68454C186.602 3.21702 191.257 4.70353 194.914 8.45308C195.624 9.18524 196.355 9.9174 196.865 10.7605C197.907 12.4689 199.215 13.3563 201.276 12.6907C203.183 12.0917 204.291 13.2454 205.621 14.5544C203.537 14.4213 201.476 13.6891 200.124 14.3547C198.638 15.0869 197.774 17.1281 196.444 18.8808C194.227 18.8808 191.722 18.8365 189.24 18.8808C187.4 18.9252 186.181 19.9236 185.471 21.5876C184.318 24.2278 182.789 26.7793 183.964 29.8632C184.075 30.1738 183.387 30.7951 183.055 31.261L183.166 31.3719V31.4385Z" fill="#00AA8B" stroke="#00AA8B" stroke-width="0.75" stroke-miterlimit="10"/>
<path d="M248.625 103.146C249.467 102.547 250.221 101.726 251.152 101.393C253.324 100.594 254.078 99.0414 254.632 96.9336C255.563 93.4281 254.122 90.1445 254.145 86.7278C254.145 86.1287 253.435 85.4187 252.881 84.9528C252.105 84.3094 251.196 83.8435 250.31 83.3332C249.179 82.6676 248.736 80.7817 246.94 81.3142C244.768 81.9576 242.44 82.357 240.556 83.4663C237.918 85.0416 238.029 88.1255 240.534 90.8767C239.115 91.276 237.985 90.4329 237.896 89.5455C237.719 87.7262 237.652 85.6628 238.339 84.0654C239.669 81.0258 242.906 80.7595 245.743 80.2492C247.539 79.9164 249.645 79.5171 250.465 82.0686C250.531 82.2682 250.797 82.4901 251.019 82.5567C257.115 84.5091 255.63 89.8783 256.273 94.2712C256.383 95.0034 256.073 95.7799 255.984 96.5343C255.541 100.262 253.746 102.081 249.955 102.68C249.489 102.747 249.046 102.968 248.603 103.124L248.625 103.146Z" fill="#00AA8B" stroke="#00AA8B" stroke-width="0.75" stroke-miterlimit="10"/>
<path d="M259.176 99.8179C265.671 96.2015 272.898 97.932 279.814 97.1555C281.676 92.4963 278.55 90.5439 275.38 88.4139C280.058 88.7467 282.939 92.5629 281.609 96.4455C281.366 97.1555 280.213 97.9764 279.437 98.0208C275.38 98.2426 271.302 98.1761 267.223 98.287C266.514 98.287 265.804 98.6864 265.073 98.8195C263.122 99.1745 261.149 99.4851 259.176 99.8179Z" fill="#00AA8B" stroke="#00AA8B" stroke-width="0.75" stroke-miterlimit="10"/>
<path d="M205.444 16.4181C207.505 16.4847 209.389 17.0393 210.609 18.7921C211.961 20.7223 213.557 21.8982 215.973 22.5194C220.185 23.5844 222.867 27.6889 222.712 32.4591C221.936 30.9726 221.426 30.0407 220.983 29.0867C219.608 26.1359 217.325 24.4053 214.222 23.54C213.113 23.2294 211.695 22.5638 211.229 21.6541C209.944 19.0805 207.705 17.838 205.421 16.4181H205.444Z" fill="#00AA8B" stroke="#00AA8B" stroke-width="0.75" stroke-miterlimit="10"/>
<path d="M130.32 63.7422C123.359 62.8548 116.377 61.3461 109.372 66.6709C109.727 64.9625 109.882 64.1638 110.081 63.232C116.887 60.8802 123.625 60.9911 130.32 63.7422Z" fill="#00AA8B" stroke="#00AA8B" stroke-width="0.75" stroke-miterlimit="10"/>
<path d="M236.433 76.1668C239.647 73.2826 240.955 73.5488 245.3 78.2746C241.554 77.5868 239.293 79.4727 237.741 82.0685C236.61 83.9765 234.66 82.1129 233.551 83.5106C235.502 80.0051 239.603 79.0511 242.596 75.4125C240.135 75.7009 238.406 75.9228 236.433 76.1446V76.1668Z" fill="#00AA8B" stroke="#00AA8B" stroke-width="0.75" stroke-miterlimit="10"/>
<path d="M143.864 44.9502C143.797 39.8916 147.965 37.6064 150.979 34.6999C153.883 31.9044 157.629 32.5478 161.265 33.5684C157.807 34.3671 154.061 33.3243 150.979 36.3195C148.297 38.9597 145.127 41.0675 143.886 44.9502H143.864Z" fill="#00AA8B" stroke="#00AA8B" stroke-width="0.75" stroke-miterlimit="10"/>
<path d="M273.518 86.9495C273.341 83.8434 271.169 82.8894 268.886 81.9797C267.6 81.4694 266.713 80.6263 265.871 79.3839C264.895 77.9196 262.989 77.0765 261.615 76.0781C262.856 75.4125 265.272 75.7009 266.491 77.5868C267.91 79.7167 269.573 81.0257 271.989 81.8688C274.117 82.601 274.316 83.7103 273.496 86.9939L273.518 86.9495Z" fill="#00AA8B" stroke="#00AA8B" stroke-width="0.75" stroke-miterlimit="10"/>
<path d="M109.305 104.122C112.985 103.922 116.598 105.032 120.345 104.455C123.913 103.9 127.571 103.834 132.027 103.479C125.31 105.919 119.214 106.074 113.074 105.409C111.81 105.276 110.635 104.521 109.416 104.055L109.328 104.122H109.305Z" fill="#00AA8B" stroke="#00AA8B" stroke-width="0.75" stroke-miterlimit="10"/>
<path d="M247.827 62.5442C245.566 62.0561 243.948 60.1259 243.97 58.1291C243.97 56.9088 243.97 55.5776 243.504 54.4683C242.352 51.7393 240.955 49.1435 239.625 46.4589C239.958 46.3701 240.334 46.2148 240.401 46.2814C243.039 49.7869 245.832 53.3146 245.455 58.0625C245.278 60.2368 247.007 61.0799 247.827 62.5664H247.849L247.827 62.5442Z" fill="#00AA8B" stroke="#00AA8B" stroke-width="0.75" stroke-miterlimit="10"/>
<path d="M235.17 42.3322C231.712 38.7601 227.544 37.2958 222.623 37.0074C222.823 35.6096 223 34.4337 223.111 33.6128C225.372 34.8552 227.633 36.009 229.827 37.2958C231.357 38.1832 232.864 39.1151 234.239 40.2022C234.771 40.6238 234.881 41.6 235.17 42.3322Z" fill="#00AA8B" stroke="#00AA8B" stroke-width="0.75" stroke-miterlimit="10"/>
<path d="M168.536 107.25C162.152 110.246 155.568 107.45 148.43 108.848C153.063 106.585 157.053 106.918 161.154 107.96C162.551 108.315 164.147 107.872 165.654 107.738C166.607 107.65 167.56 107.406 168.513 107.228L168.536 107.25Z" fill="#00AA8B" stroke="#00AA8B" stroke-width="0.75" stroke-miterlimit="10"/>
<path d="M187.134 24.7159C185.427 28.4211 187.4 30.7729 188.575 33.1247C187.112 34.5224 185.715 35.8314 184.319 37.1626C183.476 36.3048 184.097 34.9588 186.181 33.1247C185.87 30.6398 185.538 28.2214 185.316 25.7809C185.316 25.5812 186.07 25.315 187.156 24.6937L187.134 24.7159Z" fill="#00AA8B" stroke="#00AA8B" stroke-width="0.75" stroke-miterlimit="10"/>
<path d="M221.315 93.3838C221.36 93.6057 221.537 94.005 221.47 94.0494C218.301 96.0462 215.773 99.3076 211.384 98.9526C209.833 98.8195 208.215 99.3076 206.286 99.5739C207.971 97.4661 210.165 97.6214 212.027 97.4883C214 97.333 215.574 96.9115 217.126 95.6246C218.323 94.6262 219.985 94.1603 221.426 93.4725L221.36 93.406L221.315 93.3838Z" fill="#00AA8B" stroke="#00AA8B" stroke-width="0.75" stroke-miterlimit="10"/>
<path d="M106.535 71.1304C106.601 70.5758 106.49 69.7548 106.801 69.5552C108.241 68.5789 109.771 67.758 111.3 66.9149C114.249 65.2953 117.419 65.6947 120.566 65.9831L120.5 65.8944C119.657 66.2937 118.638 67.2256 118.039 67.0037C115.069 65.8944 112.985 67.5362 110.724 68.9117C109.372 69.7327 107.931 70.3761 106.535 71.086V71.1526V71.1304Z" fill="#00AA8B" stroke="#00AA8B" stroke-width="0.75" stroke-miterlimit="10"/>
<path d="M90.929 78.1194C91.6383 78.5187 92.3698 78.9403 93.0792 79.3396C92.5693 80.7818 92.1703 81.9355 91.7048 83.2445C89.333 83.9101 86.8724 84.6201 84.4341 85.3078C84.3676 85.1303 84.3011 84.9307 84.2346 84.7532C85.4316 84.2651 86.6729 83.8435 87.8256 83.2445C89.7985 82.2017 91.3945 80.8483 90.7516 78.2303L90.9068 78.0972L90.929 78.1194Z" fill="#00AA8B" stroke="#00AA8B" stroke-width="0.75" stroke-miterlimit="10"/>
<path d="M125.931 47.6126C126.729 45.8155 128.48 45.9264 129.832 46.2149C132.714 46.8361 135.507 47.8567 137.856 49.8091C135.706 50.0088 134.132 48.4113 132.226 48.012C130.165 47.5682 127.992 47.6792 125.864 47.5239L125.931 47.6126Z" fill="#00AA8B" stroke="#00AA8B" stroke-width="0.75" stroke-miterlimit="10"/>
<path d="M164.634 86.7278C162.551 82.7341 158.826 80.1827 155.945 76.899C159.602 79.5171 163.592 81.8245 164.634 86.7278Z" fill="#00AA8B" stroke="#00AA8B" stroke-width="0.75" stroke-miterlimit="10"/>
<path d="M162.639 41.4004C159.691 43.4637 156.964 42.31 154.216 43.4193C156.322 41.1563 158.427 40.646 162.639 41.4004Z" fill="#00AA8B" stroke="#00AA8B" stroke-width="0.75" stroke-miterlimit="10"/>
<path d="M148.63 74.0591C148.63 71.3079 150.913 71.9292 152.132 72.1954C154.859 72.7501 157.496 73.8816 160.046 75.3681C158.538 75.0575 157.009 74.8356 155.524 74.4584C153.24 73.8594 151.024 72.6169 148.63 74.0813V74.0591Z" fill="#00AA8B" stroke="#00AA8B" stroke-width="0.75" stroke-miterlimit="10"/>
<path d="M247.783 62.5664C248.603 63.8088 249.689 64.3635 251.218 64.5854C253.768 64.9625 255.63 66.5156 256.938 68.8008C254.544 67.5362 252.46 65.8056 249.489 65.7613C248.292 65.7613 247.295 64.186 247.805 62.5442H247.783V62.5664Z" fill="#00AA8B" stroke="#00AA8B" stroke-width="0.75" stroke-miterlimit="10"/>
<path d="M90.7738 78.2302C87.7813 74.525 87.6926 72.2398 90.8847 66.6044C89.5768 71.0417 89.599 74.6138 90.929 78.1193L90.7738 78.2524V78.2302Z" fill="#00AA8B" stroke="#00AA8B" stroke-width="0.75" stroke-miterlimit="10"/>
<path d="M70.2472 96.3789C67.6315 98.5754 67.5428 101.482 67.698 104.566C65.4369 102.014 66.501 98.4423 70.2472 96.3789Z" fill="#00AA8B" stroke="#00AA8B" stroke-width="0.75" stroke-miterlimit="10"/>
<path d="M210.254 103.168C213.911 101.216 216.793 99.6847 219.697 98.1538C217.68 101.371 214.621 102.613 210.254 103.168Z" fill="#00AA8B" stroke="#00AA8B" stroke-width="0.75" stroke-miterlimit="10"/>
<path d="M154.282 12.6463C155.849 10.7827 158.878 9.06688 163.371 7.49902C161.974 8.29774 160.6 9.11865 159.203 9.91737C157.718 10.7605 156.211 11.5814 154.282 12.6685V12.6463Z" fill="#00AA8B" stroke="#00AA8B" stroke-width="0.75" stroke-miterlimit="10"/>
<path d="M100.815 53.8471C100.04 55.2448 99.2859 56.6648 98.4658 58.0404C97.6234 59.4603 96.4042 60.1259 94.3649 59.7044C95.7614 58.2622 97.7121 57.7298 97.9559 55.5333C98.0446 54.8011 99.6628 54.2243 100.594 53.603L100.838 53.8471H100.815Z" fill="#00AA8B" stroke="#00AA8B" stroke-width="0.75" stroke-miterlimit="10"/>
<path d="M148.607 74.0591C146.058 74.4806 143.531 75.3237 140.14 74.3697C143.42 73.216 145.992 72.9941 148.607 74.0591Z" fill="#00AA8B" stroke="#00AA8B" stroke-width="0.75" stroke-miterlimit="10"/>
<path d="M174.476 7.76533C171.772 8.94122 169.422 7.72096 166.807 7.76533C169.045 6.45631 169.843 6.4785 174.476 7.76533Z" fill="#00AA8B" stroke="#00AA8B" stroke-width="0.75" stroke-miterlimit="10"/>
<path d="M149.938 76.5663C146.989 77.2319 144.75 77.72 142.135 78.319C145.149 75.7232 146.457 75.4125 149.938 76.5663Z" fill="#00AA8B" stroke="#00AA8B" stroke-width="0.75" stroke-miterlimit="10"/>
<path d="M106.512 71.0639C103.298 72.3729 103.498 75.5678 102.633 78.208C101.769 75.7896 101.99 73.6153 103.653 71.6629C104.451 70.7311 105.315 70.0655 106.512 71.1082V71.0639Z" fill="#00AA8B" stroke="#00AA8B" stroke-width="0.75" stroke-miterlimit="10"/>
<path d="M217.857 46.5254C216.039 46.1926 214.222 45.8598 212.249 45.4827C213.845 44.0849 214.421 44.1515 217.857 46.5254Z" fill="#00AA8B" stroke="#00AA8B" stroke-width="0.75" stroke-miterlimit="10"/>
<path d="M200.833 103.701C203.471 103.301 206.131 102.902 208.769 102.502C208.813 102.791 208.857 103.101 208.902 103.39C206.286 104.122 203.626 104.41 200.833 103.701Z" fill="#00AA8B" stroke="#00AA8B" stroke-width="0.75" stroke-miterlimit="10"/>
<path d="M170.154 12.3801C168.048 12.957 165.964 13.5117 163.703 14.1329C165.543 12.2914 167.183 11.7811 170.154 12.3801Z" fill="#00AA8B" stroke="#00AA8B" stroke-width="0.75" stroke-miterlimit="10"/>
<path d="M183.055 31.3275C183.055 31.7934 183.121 32.6587 183.055 32.6587C180.683 32.9693 179.774 34.4558 180.085 37.2957C178.511 34.4337 178.755 33.3021 180.75 32.3925C181.525 32.0375 182.346 31.7712 183.166 31.4384L183.055 31.3275Z" fill="#00AA8B" stroke="#00AA8B" stroke-width="0.75" stroke-miterlimit="10"/>
<path d="M129.899 100.572C127.371 100.195 124.844 99.7957 122.295 99.4186C122.295 99.1967 122.34 98.997 122.362 98.7751C124.911 99.0636 127.46 99.352 130.009 99.6182C129.965 99.9289 129.943 100.239 129.899 100.55V100.572Z" fill="#00AA8B" stroke="#00AA8B" stroke-width="0.75" stroke-miterlimit="10"/>
<path d="M120.566 65.961C124.091 63.3429 125.288 63.5426 127.216 67.3143C125.354 64.7185 122.783 66.1385 120.5 65.8722L120.566 65.961Z" fill="#00AA8B" stroke="#00AA8B" stroke-width="0.75" stroke-miterlimit="10"/>
<path d="M141.071 94.8702C139.32 95.1587 137.59 95.4693 134.997 95.913C137.302 93.6056 139.209 94.4709 141.071 94.8702Z" fill="#00AA8B" stroke="#00AA8B" stroke-width="0.75" stroke-miterlimit="10"/>
<path d="M199.082 46.2814C198.018 46.2149 196.954 46.1483 195.89 46.0817C196.673 44.9576 198.151 44.4621 200.323 44.5952C199.813 45.283 199.414 45.8155 198.993 46.348L199.082 46.2814Z" fill="#00AA8B" stroke="#00AA8B" stroke-width="0.75" stroke-miterlimit="10"/>
<path d="M173.944 13.1122C175.836 12.8312 177.395 13.7409 178.622 15.8412C176.937 14.865 175.563 14.0441 173.944 13.1122Z" fill="#00AA8B" stroke="#00AA8B" stroke-width="0.75" stroke-miterlimit="10"/>
<path d="M221.36 45.3051C222.557 46.0817 223.731 46.8582 224.928 47.6126L224.529 48.3225C223.244 47.6347 221.98 46.947 220.695 46.2592L221.36 45.283V45.3051Z" fill="#00AA8B" stroke="#00AA8B" stroke-width="0.75" stroke-miterlimit="10"/>
<path d="M222.889 86.8609H219.387L219.342 86.1065L222.911 85.9069C222.911 86.2175 222.911 86.5503 222.911 86.8609H222.889Z" fill="#00AA8B" stroke="#00AA8B" stroke-width="0.75" stroke-miterlimit="10"/>
<path d="M71.5994 94.0494C72.2422 92.0304 73.5279 90.8545 75.5008 90.5883C74.4146 91.8529 73.3062 93.1175 72.1757 94.36C72.1535 94.3822 71.8654 94.1825 71.6215 94.0494H71.5994Z" fill="#00AA8B" stroke="#00AA8B" stroke-width="0.75" stroke-miterlimit="10"/>
<path d="M126.197 59.0387C128.17 58.6172 130.253 57.9516 131.517 61.1243C130.342 60.2368 129.721 59.5046 128.923 59.2384C128.103 58.95 127.106 59.1053 126.197 59.0609V59.0387Z" fill="#00AA8B" stroke="#00AA8B" stroke-width="0.75" stroke-miterlimit="10"/>
<path d="M215.596 93.8275C217.103 92.696 218.589 91.5423 220.096 90.4108C219.653 93.2285 217.569 93.4282 215.507 93.7166L215.596 93.8275Z" fill="#00AA8B" stroke="#00AA8B" stroke-width="0.75" stroke-miterlimit="10"/>
<path d="M109.416 104.033H102.323C102.323 103.789 102.345 103.567 102.367 103.323C104.673 103.59 107 103.856 109.305 104.1L109.416 104.011V104.033Z" fill="#00AA8B" stroke="#00AA8B" stroke-width="0.75" stroke-miterlimit="10"/>
<path d="M167.228 76.7437C166.341 75.9228 165.477 75.1019 164.501 74.1701C165.624 74.0813 166.533 74.9392 167.228 76.7437Z" fill="#00AA8B" stroke="#00AA8B" stroke-width="0.75" stroke-miterlimit="10"/>
<path d="M189.86 24.3166C188.752 21.2548 190.946 21.6985 192.321 21.3657C191.634 22.1866 190.946 23.0297 189.86 24.3166Z" fill="#00AA8B" stroke="#00AA8B" stroke-width="0.75" stroke-miterlimit="10"/>
<path d="M248.625 103.124C247.095 103.523 245.566 103.945 244.059 104.344C245.669 103.235 247.199 102.835 248.647 103.146L248.625 103.124Z" fill="#00AA8B" stroke="#00AA8B" stroke-width="0.75" stroke-miterlimit="10"/>
<path d="M165.166 43.264C166.053 43.9518 166.94 44.6174 168.292 45.6602C166.142 45.9486 165.632 44.684 164.723 43.9962C164.878 43.7521 165.011 43.5081 165.166 43.264Z" fill="#00AA8B" stroke="#00AA8B" stroke-width="0.75" stroke-miterlimit="10"/>
<path d="M221.382 93.4503C222.424 92.4519 223.488 91.4757 224.906 90.1223C224.153 91.912 222.956 92.9992 221.315 93.3838L221.382 93.4503Z" fill="#00AA8B" stroke="#00AA8B" stroke-width="0.75" stroke-miterlimit="10"/>
<path d="M155.878 37.7839C154.504 38.7601 153.44 39.5367 152.354 40.3132C152.708 38.8489 153.883 38.0058 155.878 37.7839Z" fill="#00AA8B" stroke="#00AA8B" stroke-width="0.75" stroke-miterlimit="10"/>
<path d="M189.55 29.0867C189.439 28.0217 189.328 26.9567 189.195 25.8918C189.439 25.8474 189.683 25.803 189.927 25.7587C190.171 26.8014 190.414 27.8442 190.658 28.9092L189.55 29.1089V29.0867Z" fill="#00AA8B" stroke="#00AA8B" stroke-width="0.75" stroke-miterlimit="10"/>
<path d="M215.507 93.7166C214.51 94.2047 213.49 94.7149 212.493 95.2031C212.404 94.8924 212.315 94.5596 212.227 94.249C213.335 94.1159 214.466 93.9606 215.596 93.8275L215.507 93.7166Z" fill="#00AA8B" stroke="#00AA8B" stroke-width="0.75" stroke-miterlimit="10"/>
<path d="M158.871 71.8182C158.117 71.552 157.363 71.2857 156.61 71.0195L156.654 70.7311C157.452 70.7976 158.25 70.8642 159.048 70.9308C158.982 71.2192 158.915 71.5298 158.871 71.8182Z" fill="#00AA8B" stroke="#00AA8B" stroke-width="0.75" stroke-miterlimit="10"/>
<path d="M198.993 46.348C199.902 46.2592 200.811 46.1705 202.252 46.0374C200.789 48.012 199.902 48.012 199.082 46.2814L198.993 46.348Z" fill="#00AA8B" stroke="#00AA8B" stroke-width="0.75" stroke-miterlimit="10"/>
<path d="M124.734 102.502H121.342C121.342 102.369 121.342 102.258 121.342 102.125H124.844C124.8 102.258 124.756 102.369 124.734 102.502Z" fill="#00AA8B" stroke="#00AA8B" stroke-width="0.75" stroke-miterlimit="10"/>
<path d="M198.816 49.6538C197.264 50.0975 196.555 50.275 195.845 50.4747C195.779 50.2084 195.69 49.9422 195.624 49.6759C196.023 49.5206 196.422 49.2766 196.821 49.2322C197.153 49.1878 197.508 49.3653 198.794 49.6759L198.816 49.6538Z" fill="#00AA8B" stroke="#00AA8B" stroke-width="0.75" stroke-miterlimit="10"/>
<path d="M115.889 102.658C116.909 102.613 117.951 102.569 118.97 102.525C118.97 102.724 118.97 102.924 118.992 103.146H115.911C115.911 102.991 115.889 102.835 115.867 102.68L115.889 102.658Z" fill="#00AA8B" stroke="#00AA8B" stroke-width="0.75" stroke-miterlimit="10"/>
</g>
<defs>
<clipPath id="clip0_125_15932">
<rect width="437" height="111" fill="white"/>
</clipPath>
</defs>
</svg>
